%TF.GenerationSoftware,KiCad,Pcbnew,(5.1.10)-1*%
%TF.CreationDate,2022-02-19T10:08:03+01:00*%
%TF.ProjectId,Busterm,42757374-6572-46d2-9e6b-696361645f70,rev?*%
%TF.SameCoordinates,Original*%
%TF.FileFunction,Copper,L2,Bot*%
%TF.FilePolarity,Positive*%
%FSLAX46Y46*%
G04 Gerber Fmt 4.6, Leading zero omitted, Abs format (unit mm)*
G04 Created by KiCad (PCBNEW (5.1.10)-1) date 2022-02-19 10:08:03*
%MOMM*%
%LPD*%
G01*
G04 APERTURE LIST*
%TA.AperFunction,ComponentPad*%
%ADD10O,1.700000X1.700000*%
%TD*%
%TA.AperFunction,ComponentPad*%
%ADD11R,1.700000X1.700000*%
%TD*%
%TA.AperFunction,ComponentPad*%
%ADD12C,1.600000*%
%TD*%
%TA.AperFunction,ComponentPad*%
%ADD13C,1.200000*%
%TD*%
%TA.AperFunction,ComponentPad*%
%ADD14R,1.200000X1.200000*%
%TD*%
%TA.AperFunction,ComponentPad*%
%ADD15R,1.600000X1.600000*%
%TD*%
%TA.AperFunction,ComponentPad*%
%ADD16O,2.240000X2.240000*%
%TD*%
%TA.AperFunction,ComponentPad*%
%ADD17R,2.240000X2.240000*%
%TD*%
%TA.AperFunction,ComponentPad*%
%ADD18R,1.050000X1.500000*%
%TD*%
%TA.AperFunction,ComponentPad*%
%ADD19O,1.050000X1.500000*%
%TD*%
%TA.AperFunction,ComponentPad*%
%ADD20O,1.800000X1.800000*%
%TD*%
%TA.AperFunction,ComponentPad*%
%ADD21R,1.800000X1.800000*%
%TD*%
%TA.AperFunction,ComponentPad*%
%ADD22O,1.600000X1.600000*%
%TD*%
%TA.AperFunction,ComponentPad*%
%ADD23C,2.340000*%
%TD*%
%TA.AperFunction,ViaPad*%
%ADD24C,0.800000*%
%TD*%
%TA.AperFunction,Conductor*%
%ADD25C,0.250000*%
%TD*%
%TA.AperFunction,Conductor*%
%ADD26C,0.254000*%
%TD*%
%TA.AperFunction,Conductor*%
%ADD27C,0.100000*%
%TD*%
G04 APERTURE END LIST*
D10*
%TO.P,J1001,40*%
%TO.N,GND*%
X88265000Y-180975000D03*
%TO.P,J1001,39*%
X85725000Y-180975000D03*
%TO.P,J1001,38*%
%TO.N,Net-(J1001-Pad38)*%
X88265000Y-178435000D03*
%TO.P,J1001,37*%
%TO.N,Net-(J1001-Pad37)*%
X85725000Y-178435000D03*
%TO.P,J1001,36*%
%TO.N,Net-(J1001-Pad36)*%
X88265000Y-175895000D03*
%TO.P,J1001,35*%
%TO.N,Net-(J1001-Pad35)*%
X85725000Y-175895000D03*
%TO.P,J1001,34*%
%TO.N,Net-(J1001-Pad34)*%
X88265000Y-173355000D03*
%TO.P,J1001,33*%
%TO.N,Net-(J1001-Pad33)*%
X85725000Y-173355000D03*
%TO.P,J1001,32*%
%TO.N,Net-(J1001-Pad32)*%
X88265000Y-170815000D03*
%TO.P,J1001,31*%
%TO.N,Net-(J1001-Pad31)*%
X85725000Y-170815000D03*
%TO.P,J1001,30*%
%TO.N,Net-(J1001-Pad30)*%
X88265000Y-168275000D03*
%TO.P,J1001,29*%
%TO.N,Net-(J1001-Pad29)*%
X85725000Y-168275000D03*
%TO.P,J1001,28*%
%TO.N,Net-(J1001-Pad28)*%
X88265000Y-165735000D03*
%TO.P,J1001,27*%
%TO.N,Net-(J1001-Pad27)*%
X85725000Y-165735000D03*
%TO.P,J1001,26*%
%TO.N,Net-(J1001-Pad26)*%
X88265000Y-163195000D03*
%TO.P,J1001,25*%
%TO.N,Net-(J1001-Pad25)*%
X85725000Y-163195000D03*
%TO.P,J1001,24*%
%TO.N,Net-(J1001-Pad24)*%
X88265000Y-160655000D03*
%TO.P,J1001,23*%
%TO.N,Net-(J1001-Pad23)*%
X85725000Y-160655000D03*
%TO.P,J1001,22*%
%TO.N,Net-(J1001-Pad22)*%
X88265000Y-158115000D03*
%TO.P,J1001,21*%
%TO.N,Net-(J1001-Pad21)*%
X85725000Y-158115000D03*
%TO.P,J1001,20*%
%TO.N,Net-(J1001-Pad20)*%
X88265000Y-155575000D03*
%TO.P,J1001,19*%
%TO.N,Net-(J1001-Pad19)*%
X85725000Y-155575000D03*
%TO.P,J1001,18*%
%TO.N,Net-(J1001-Pad18)*%
X88265000Y-153035000D03*
%TO.P,J1001,17*%
%TO.N,Net-(J1001-Pad17)*%
X85725000Y-153035000D03*
%TO.P,J1001,16*%
%TO.N,Net-(J1001-Pad16)*%
X88265000Y-150495000D03*
%TO.P,J1001,15*%
%TO.N,Net-(J1001-Pad15)*%
X85725000Y-150495000D03*
%TO.P,J1001,14*%
%TO.N,Net-(J1001-Pad14)*%
X88265000Y-147955000D03*
%TO.P,J1001,13*%
%TO.N,Net-(J1001-Pad13)*%
X85725000Y-147955000D03*
%TO.P,J1001,12*%
%TO.N,Net-(J1001-Pad12)*%
X88265000Y-145415000D03*
%TO.P,J1001,11*%
%TO.N,Net-(J1001-Pad11)*%
X85725000Y-145415000D03*
%TO.P,J1001,10*%
%TO.N,Net-(J1001-Pad10)*%
X88265000Y-142875000D03*
%TO.P,J1001,9*%
%TO.N,Net-(J1001-Pad9)*%
X85725000Y-142875000D03*
%TO.P,J1001,8*%
%TO.N,Net-(J1001-Pad8)*%
X88265000Y-140335000D03*
%TO.P,J1001,7*%
%TO.N,Net-(J1001-Pad7)*%
X85725000Y-140335000D03*
%TO.P,J1001,6*%
%TO.N,Net-(J1001-Pad6)*%
X88265000Y-137795000D03*
%TO.P,J1001,5*%
%TO.N,Net-(J1001-Pad5)*%
X85725000Y-137795000D03*
%TO.P,J1001,4*%
%TO.N,Net-(J1001-Pad4)*%
X88265000Y-135255000D03*
%TO.P,J1001,3*%
%TO.N,Net-(J1001-Pad3)*%
X85725000Y-135255000D03*
%TO.P,J1001,2*%
%TO.N,+5P*%
X88265000Y-132715000D03*
D11*
%TO.P,J1001,1*%
X85725000Y-132715000D03*
%TD*%
D12*
%TO.P,C1001,1*%
%TO.N,Net-(C1001-Pad1)*%
X97155000Y-123190000D03*
%TO.P,C1001,2*%
%TO.N,Net-(C1001-Pad2)*%
X99655000Y-123190000D03*
%TD*%
D13*
%TO.P,C1002,2*%
%TO.N,GND*%
X98520000Y-157480000D03*
D14*
%TO.P,C1002,1*%
%TO.N,Net-(C1002-Pad1)*%
X96520000Y-157480000D03*
%TD*%
%TO.P,C1003,1*%
%TO.N,Net-(C1002-Pad1)*%
X96520000Y-132715000D03*
D13*
%TO.P,C1003,2*%
%TO.N,GND*%
X98520000Y-132715000D03*
%TD*%
%TO.P,C1004,2*%
%TO.N,GND*%
X98520000Y-181610000D03*
D14*
%TO.P,C1004,1*%
%TO.N,Net-(C1002-Pad1)*%
X96520000Y-181610000D03*
%TD*%
%TO.P,C1005,1*%
%TO.N,Net-(C1002-Pad1)*%
X96520000Y-151130000D03*
D13*
%TO.P,C1005,2*%
%TO.N,GND*%
X98520000Y-151130000D03*
%TD*%
%TO.P,C1006,2*%
%TO.N,GND*%
X75470000Y-163830000D03*
D14*
%TO.P,C1006,1*%
%TO.N,Net-(C1002-Pad1)*%
X77470000Y-163830000D03*
%TD*%
%TO.P,C1007,1*%
%TO.N,Net-(C1002-Pad1)*%
X77565000Y-151765000D03*
D13*
%TO.P,C1007,2*%
%TO.N,GND*%
X75565000Y-151765000D03*
%TD*%
%TO.P,C1008,2*%
%TO.N,GND*%
X98520000Y-139065000D03*
D14*
%TO.P,C1008,1*%
%TO.N,Net-(C1002-Pad1)*%
X96520000Y-139065000D03*
%TD*%
%TO.P,C1009,1*%
%TO.N,Net-(C1002-Pad1)*%
X77470000Y-133985000D03*
D13*
%TO.P,C1009,2*%
%TO.N,GND*%
X75470000Y-133985000D03*
%TD*%
%TO.P,C1010,2*%
%TO.N,GND*%
X98520000Y-169545000D03*
D14*
%TO.P,C1010,1*%
%TO.N,Net-(C1002-Pad1)*%
X96520000Y-169545000D03*
%TD*%
%TO.P,C1011,1*%
%TO.N,Net-(C1002-Pad1)*%
X77470000Y-181610000D03*
D13*
%TO.P,C1011,2*%
%TO.N,GND*%
X75470000Y-181610000D03*
%TD*%
%TO.P,C1012,2*%
%TO.N,GND*%
X75470000Y-140335000D03*
D14*
%TO.P,C1012,1*%
%TO.N,Net-(C1002-Pad1)*%
X77470000Y-140335000D03*
%TD*%
%TO.P,C1013,1*%
%TO.N,Net-(C1002-Pad1)*%
X77470000Y-127635000D03*
D13*
%TO.P,C1013,2*%
%TO.N,GND*%
X75470000Y-127635000D03*
%TD*%
%TO.P,C1014,2*%
%TO.N,GND*%
X75470000Y-158115000D03*
D14*
%TO.P,C1014,1*%
%TO.N,Net-(C1002-Pad1)*%
X77470000Y-158115000D03*
%TD*%
%TO.P,C1015,1*%
%TO.N,Net-(C1002-Pad1)*%
X96520000Y-127000000D03*
D13*
%TO.P,C1015,2*%
%TO.N,GND*%
X98520000Y-127000000D03*
%TD*%
%TO.P,C1016,2*%
%TO.N,GND*%
X75470000Y-175895000D03*
D14*
%TO.P,C1016,1*%
%TO.N,Net-(C1002-Pad1)*%
X77470000Y-175895000D03*
%TD*%
%TO.P,C1017,1*%
%TO.N,Net-(C1002-Pad1)*%
X77470000Y-170180000D03*
D13*
%TO.P,C1017,2*%
%TO.N,GND*%
X75470000Y-170180000D03*
%TD*%
%TO.P,C1018,2*%
%TO.N,GND*%
X75470000Y-146050000D03*
D14*
%TO.P,C1018,1*%
%TO.N,Net-(C1002-Pad1)*%
X77470000Y-146050000D03*
%TD*%
%TO.P,C1019,1*%
%TO.N,Net-(C1002-Pad1)*%
X96520000Y-145415000D03*
D13*
%TO.P,C1019,2*%
%TO.N,GND*%
X98520000Y-145415000D03*
%TD*%
%TO.P,C1020,2*%
%TO.N,GND*%
X98520000Y-163830000D03*
D14*
%TO.P,C1020,1*%
%TO.N,Net-(C1002-Pad1)*%
X96520000Y-163830000D03*
%TD*%
%TO.P,C1021,1*%
%TO.N,Net-(C1002-Pad1)*%
X96520000Y-175260000D03*
D13*
%TO.P,C1021,2*%
%TO.N,GND*%
X98520000Y-175260000D03*
%TD*%
D15*
%TO.P,C1022,1*%
%TO.N,+5P*%
X105410000Y-137160000D03*
D12*
%TO.P,C1022,2*%
%TO.N,GND*%
X102910000Y-137160000D03*
%TD*%
D16*
%TO.P,D1001,2*%
%TO.N,Net-(D1001-Pad2)*%
X102870000Y-153035000D03*
D17*
%TO.P,D1001,1*%
%TO.N,Net-(C1001-Pad1)*%
X102870000Y-150495000D03*
%TD*%
%TO.P,D1002,1*%
%TO.N,Net-(D1002-Pad1)*%
X102870000Y-143510000D03*
D16*
%TO.P,D1002,2*%
%TO.N,Net-(C1001-Pad1)*%
X102870000Y-146050000D03*
%TD*%
D18*
%TO.P,Q1001,1*%
%TO.N,GND*%
X111125000Y-162560000D03*
D19*
%TO.P,Q1001,3*%
%TO.N,Net-(Q1001-Pad3)*%
X108585000Y-162560000D03*
%TO.P,Q1001,2*%
%TO.N,Net-(D1002-Pad1)*%
X109855000Y-162560000D03*
%TD*%
%TO.P,Q1002,2*%
%TO.N,Net-(D1001-Pad2)*%
X103505000Y-162560000D03*
%TO.P,Q1002,3*%
%TO.N,Net-(Q1002-Pad3)*%
X102235000Y-162560000D03*
D18*
%TO.P,Q1002,1*%
%TO.N,+5P*%
X104775000Y-162560000D03*
%TD*%
D20*
%TO.P,Q1003,3*%
%TO.N,Net-(Q1002-Pad3)*%
X105410000Y-182245000D03*
%TO.P,Q1003,2*%
%TO.N,+5P*%
X105410000Y-179705000D03*
D21*
%TO.P,Q1003,1*%
%TO.N,Net-(C1002-Pad1)*%
X105410000Y-177165000D03*
%TD*%
%TO.P,Q1004,1*%
%TO.N,Net-(C1002-Pad1)*%
X106045000Y-172720000D03*
D20*
%TO.P,Q1004,2*%
%TO.N,GND*%
X106045000Y-170180000D03*
%TO.P,Q1004,3*%
%TO.N,Net-(Q1001-Pad3)*%
X106045000Y-167640000D03*
%TD*%
D12*
%TO.P,R1001,1*%
%TO.N,+5P*%
X106680000Y-157480000D03*
D22*
%TO.P,R1001,2*%
%TO.N,Net-(C1001-Pad1)*%
X106680000Y-147320000D03*
%TD*%
D12*
%TO.P,R1002,1*%
%TO.N,+5P*%
X110490000Y-157480000D03*
D22*
%TO.P,R1002,2*%
%TO.N,Net-(D1001-Pad2)*%
X110490000Y-147320000D03*
%TD*%
%TO.P,R1003,2*%
%TO.N,GND*%
X109855000Y-133985000D03*
D12*
%TO.P,R1003,1*%
%TO.N,Net-(D1002-Pad1)*%
X109855000Y-144145000D03*
%TD*%
D22*
%TO.P,RN1001,10*%
%TO.N,Net-(J1001-Pad21)*%
X81280000Y-158115000D03*
%TO.P,RN1001,9*%
%TO.N,Net-(J1001-Pad23)*%
X81280000Y-160655000D03*
%TO.P,RN1001,8*%
%TO.N,Net-(J1001-Pad25)*%
X81280000Y-163195000D03*
%TO.P,RN1001,7*%
%TO.N,Net-(J1001-Pad27)*%
X81280000Y-165735000D03*
%TO.P,RN1001,6*%
%TO.N,Net-(J1001-Pad29)*%
X81280000Y-168275000D03*
%TO.P,RN1001,5*%
%TO.N,Net-(J1001-Pad31)*%
X81280000Y-170815000D03*
%TO.P,RN1001,4*%
%TO.N,Net-(J1001-Pad33)*%
X81280000Y-173355000D03*
%TO.P,RN1001,3*%
%TO.N,Net-(J1001-Pad35)*%
X81280000Y-175895000D03*
%TO.P,RN1001,2*%
%TO.N,Net-(J1001-Pad37)*%
X81280000Y-178435000D03*
D15*
%TO.P,RN1001,1*%
%TO.N,Net-(C1002-Pad1)*%
X81280000Y-180975000D03*
%TD*%
%TO.P,RN1002,1*%
%TO.N,Net-(C1002-Pad1)*%
X81280000Y-154305000D03*
D22*
%TO.P,RN1002,2*%
%TO.N,Net-(J1001-Pad19)*%
X81280000Y-151765000D03*
%TO.P,RN1002,3*%
%TO.N,Net-(J1001-Pad17)*%
X81280000Y-149225000D03*
%TO.P,RN1002,4*%
%TO.N,Net-(J1001-Pad15)*%
X81280000Y-146685000D03*
%TO.P,RN1002,5*%
%TO.N,Net-(J1001-Pad13)*%
X81280000Y-144145000D03*
%TO.P,RN1002,6*%
%TO.N,Net-(J1001-Pad11)*%
X81280000Y-141605000D03*
%TO.P,RN1002,7*%
%TO.N,Net-(J1001-Pad9)*%
X81280000Y-139065000D03*
%TO.P,RN1002,8*%
%TO.N,Net-(J1001-Pad7)*%
X81280000Y-136525000D03*
%TO.P,RN1002,9*%
%TO.N,Net-(J1001-Pad5)*%
X81280000Y-133985000D03*
%TO.P,RN1002,10*%
%TO.N,Net-(J1001-Pad3)*%
X81280000Y-131445000D03*
%TD*%
D15*
%TO.P,RN1003,1*%
%TO.N,Net-(C1002-Pad1)*%
X92710000Y-132715000D03*
D22*
%TO.P,RN1003,2*%
%TO.N,Net-(J1001-Pad4)*%
X92710000Y-135255000D03*
%TO.P,RN1003,3*%
%TO.N,Net-(J1001-Pad6)*%
X92710000Y-137795000D03*
%TO.P,RN1003,4*%
%TO.N,Net-(J1001-Pad8)*%
X92710000Y-140335000D03*
%TO.P,RN1003,5*%
%TO.N,Net-(J1001-Pad10)*%
X92710000Y-142875000D03*
%TO.P,RN1003,6*%
%TO.N,Net-(J1001-Pad12)*%
X92710000Y-145415000D03*
%TO.P,RN1003,7*%
%TO.N,Net-(J1001-Pad14)*%
X92710000Y-147955000D03*
%TO.P,RN1003,8*%
%TO.N,Net-(J1001-Pad16)*%
X92710000Y-150495000D03*
%TO.P,RN1003,9*%
%TO.N,Net-(J1001-Pad18)*%
X92710000Y-153035000D03*
%TO.P,RN1003,10*%
%TO.N,Net-(J1001-Pad20)*%
X92710000Y-155575000D03*
%TD*%
%TO.P,RN1004,10*%
%TO.N,Net-(J1001-Pad38)*%
X92710000Y-182245000D03*
%TO.P,RN1004,9*%
%TO.N,Net-(J1001-Pad36)*%
X92710000Y-179705000D03*
%TO.P,RN1004,8*%
%TO.N,Net-(J1001-Pad34)*%
X92710000Y-177165000D03*
%TO.P,RN1004,7*%
%TO.N,Net-(J1001-Pad32)*%
X92710000Y-174625000D03*
%TO.P,RN1004,6*%
%TO.N,Net-(J1001-Pad30)*%
X92710000Y-172085000D03*
%TO.P,RN1004,5*%
%TO.N,Net-(J1001-Pad28)*%
X92710000Y-169545000D03*
%TO.P,RN1004,4*%
%TO.N,Net-(J1001-Pad26)*%
X92710000Y-167005000D03*
%TO.P,RN1004,3*%
%TO.N,Net-(J1001-Pad24)*%
X92710000Y-164465000D03*
%TO.P,RN1004,2*%
%TO.N,Net-(J1001-Pad22)*%
X92710000Y-161925000D03*
D15*
%TO.P,RN1004,1*%
%TO.N,Net-(C1002-Pad1)*%
X92710000Y-159385000D03*
%TD*%
D23*
%TO.P,RV1001,3*%
%TO.N,GND*%
X91360000Y-126365000D03*
%TO.P,RV1001,2*%
%TO.N,Net-(RV1001-Pad2)*%
X88860000Y-123865000D03*
%TO.P,RV1001,1*%
%TO.N,+5P*%
X86360000Y-126365000D03*
%TD*%
D15*
%TO.P,U1001,1*%
%TO.N,GND*%
X104775000Y-130810000D03*
D22*
%TO.P,U1001,4*%
%TO.N,+5P*%
X109855000Y-123190000D03*
%TO.P,U1001,2*%
%TO.N,Net-(C1002-Pad1)*%
X107315000Y-130810000D03*
%TO.P,U1001,5*%
%TO.N,Net-(C1001-Pad1)*%
X107315000Y-123190000D03*
%TO.P,U1001,3*%
%TO.N,Net-(RV1001-Pad2)*%
X109855000Y-130810000D03*
%TO.P,U1001,6*%
%TO.N,Net-(C1001-Pad2)*%
X104775000Y-123190000D03*
%TD*%
D24*
%TO.N,GND*%
X111125000Y-170180000D03*
%TO.N,Net-(C1002-Pad1)*%
X96520000Y-159385000D03*
X77470000Y-154305000D03*
%TO.N,+5P*%
X112395000Y-137160000D03*
X112395000Y-123190000D03*
%TO.N,Net-(D1001-Pad2)*%
X110490000Y-153035000D03*
%TO.N,Net-(Q1001-Pad3)*%
X108585000Y-167640000D03*
%TO.N,Net-(RV1001-Pad2)*%
X110490000Y-125730000D03*
%TD*%
D25*
%TO.N,Net-(C1001-Pad1)*%
X98280001Y-122064999D02*
X97155000Y-123190000D01*
X106189999Y-122064999D02*
X98280001Y-122064999D01*
X107315000Y-123190000D02*
X106189999Y-122064999D01*
X105410000Y-146050000D02*
X106680000Y-147320000D01*
X102870000Y-146050000D02*
X105410000Y-146050000D01*
%TO.N,Net-(C1001-Pad2)*%
X99655000Y-123190000D02*
X104775000Y-123190000D01*
%TO.N,GND*%
X89864999Y-127860001D02*
X91360000Y-126365000D01*
X85642399Y-127860001D02*
X89864999Y-127860001D01*
X84492397Y-126709999D02*
X85642399Y-127860001D01*
X76395001Y-126709999D02*
X84492397Y-126709999D01*
X75470000Y-127635000D02*
X76395001Y-126709999D01*
X96715001Y-125195001D02*
X98520000Y-127000000D01*
X92529999Y-125195001D02*
X96715001Y-125195001D01*
X91360000Y-126365000D02*
X92529999Y-125195001D01*
X99790000Y-133985000D02*
X98520000Y-132715000D01*
X109855000Y-133985000D02*
X99790000Y-133985000D01*
X100425000Y-137160000D02*
X98520000Y-139065000D01*
X102910000Y-137160000D02*
X100425000Y-137160000D01*
X100425000Y-130810000D02*
X98520000Y-132715000D01*
X104775000Y-130810000D02*
X100425000Y-130810000D01*
X111125000Y-170180000D02*
X106045000Y-170180000D01*
X99155000Y-170180000D02*
X98520000Y-169545000D01*
X106045000Y-170180000D02*
X99155000Y-170180000D01*
X88265000Y-180975000D02*
X85725000Y-180975000D01*
X77230001Y-179849999D02*
X75470000Y-181610000D01*
X84599999Y-179849999D02*
X77230001Y-179849999D01*
X85725000Y-180975000D02*
X84599999Y-179849999D01*
X96759999Y-183370001D02*
X98520000Y-181610000D01*
X90660001Y-183370001D02*
X96759999Y-183370001D01*
X88265000Y-180975000D02*
X90660001Y-183370001D01*
%TO.N,Net-(C1002-Pad1)*%
X105410000Y-173355000D02*
X106045000Y-172720000D01*
X105410000Y-177165000D02*
X105410000Y-173355000D01*
X81280000Y-154305000D02*
X77470000Y-154305000D01*
X92710000Y-159385000D02*
X96520000Y-159385000D01*
X96520000Y-159385000D02*
X97155000Y-159385000D01*
X96520000Y-159385000D02*
X96520000Y-159385000D01*
X77470000Y-154305000D02*
X77470000Y-154305000D01*
X92710000Y-132715000D02*
X96520000Y-132715000D01*
X96520000Y-127000000D02*
X94615000Y-128905000D01*
X78740000Y-128905000D02*
X77470000Y-127635000D01*
X94615000Y-128905000D02*
X78740000Y-128905000D01*
X99550001Y-129684999D02*
X96520000Y-132715000D01*
X106189999Y-129684999D02*
X99550001Y-129684999D01*
X107315000Y-130810000D02*
X106189999Y-129684999D01*
X99060000Y-172720000D02*
X96520000Y-175260000D01*
X106045000Y-172720000D02*
X99060000Y-172720000D01*
X80645000Y-181610000D02*
X81280000Y-180975000D01*
X77470000Y-181610000D02*
X80645000Y-181610000D01*
%TO.N,+5P*%
X85725000Y-132715000D02*
X88265000Y-132715000D01*
X89390001Y-133840001D02*
X88265000Y-132715000D01*
X92960003Y-133840001D02*
X89390001Y-133840001D01*
X95155001Y-136034999D02*
X92960003Y-133840001D01*
X104284999Y-136034999D02*
X95155001Y-136034999D01*
X105410000Y-137160000D02*
X104284999Y-136034999D01*
X105410000Y-137160000D02*
X112395000Y-137160000D01*
X109855000Y-123190000D02*
X112395000Y-123190000D01*
X106680000Y-157480000D02*
X110490000Y-157480000D01*
X112395000Y-137160000D02*
X112395000Y-137160000D01*
X112395000Y-123190000D02*
X112395000Y-123190000D01*
%TO.N,Net-(D1001-Pad2)*%
X110490000Y-153035000D02*
X102870000Y-153035000D01*
%TO.N,Net-(D1002-Pad1)*%
X109220000Y-143510000D02*
X109855000Y-144145000D01*
X102870000Y-143510000D02*
X109220000Y-143510000D01*
%TO.N,Net-(Q1001-Pad3)*%
X108585000Y-167640000D02*
X106045000Y-167640000D01*
%TO.N,Net-(J1001-Pad21)*%
X85725000Y-158115000D02*
X81280000Y-158115000D01*
%TO.N,Net-(J1001-Pad23)*%
X81280000Y-160655000D02*
X85725000Y-160655000D01*
%TO.N,Net-(J1001-Pad25)*%
X81280000Y-163195000D02*
X85725000Y-163195000D01*
%TO.N,Net-(J1001-Pad27)*%
X85725000Y-165735000D02*
X81280000Y-165735000D01*
%TO.N,Net-(J1001-Pad29)*%
X85725000Y-168275000D02*
X81280000Y-168275000D01*
%TO.N,Net-(J1001-Pad31)*%
X85725000Y-170815000D02*
X81280000Y-170815000D01*
%TO.N,Net-(J1001-Pad33)*%
X81280000Y-173355000D02*
X85725000Y-173355000D01*
%TO.N,Net-(J1001-Pad35)*%
X85725000Y-175895000D02*
X81280000Y-175895000D01*
%TO.N,Net-(J1001-Pad37)*%
X85725000Y-178435000D02*
X81280000Y-178435000D01*
%TO.N,Net-(J1001-Pad19)*%
X81915000Y-151765000D02*
X81280000Y-151765000D01*
X85725000Y-155575000D02*
X81915000Y-151765000D01*
%TO.N,Net-(J1001-Pad17)*%
X81915000Y-149225000D02*
X81280000Y-149225000D01*
X85725000Y-153035000D02*
X81915000Y-149225000D01*
%TO.N,Net-(J1001-Pad15)*%
X81915000Y-146685000D02*
X81280000Y-146685000D01*
X85725000Y-150495000D02*
X81915000Y-146685000D01*
%TO.N,Net-(J1001-Pad13)*%
X81915000Y-144145000D02*
X81280000Y-144145000D01*
X85725000Y-147955000D02*
X81915000Y-144145000D01*
%TO.N,Net-(J1001-Pad11)*%
X81915000Y-141605000D02*
X81280000Y-141605000D01*
X85725000Y-145415000D02*
X81915000Y-141605000D01*
%TO.N,Net-(J1001-Pad9)*%
X81915000Y-139065000D02*
X81280000Y-139065000D01*
X85725000Y-142875000D02*
X81915000Y-139065000D01*
%TO.N,Net-(J1001-Pad7)*%
X81915000Y-136525000D02*
X81280000Y-136525000D01*
X85725000Y-140335000D02*
X81915000Y-136525000D01*
%TO.N,Net-(J1001-Pad5)*%
X81915000Y-133985000D02*
X81280000Y-133985000D01*
X85725000Y-137795000D02*
X81915000Y-133985000D01*
%TO.N,Net-(J1001-Pad3)*%
X81915000Y-131445000D02*
X81280000Y-131445000D01*
X85725000Y-135255000D02*
X81915000Y-131445000D01*
%TO.N,Net-(J1001-Pad4)*%
X88265000Y-135255000D02*
X92710000Y-135255000D01*
%TO.N,Net-(J1001-Pad6)*%
X88265000Y-137795000D02*
X92710000Y-137795000D01*
%TO.N,Net-(J1001-Pad8)*%
X88265000Y-140335000D02*
X92710000Y-140335000D01*
%TO.N,Net-(J1001-Pad10)*%
X88265000Y-142875000D02*
X92710000Y-142875000D01*
%TO.N,Net-(J1001-Pad12)*%
X88265000Y-145415000D02*
X92710000Y-145415000D01*
%TO.N,Net-(J1001-Pad14)*%
X88265000Y-147955000D02*
X92710000Y-147955000D01*
%TO.N,Net-(J1001-Pad16)*%
X88265000Y-150495000D02*
X92710000Y-150495000D01*
%TO.N,Net-(J1001-Pad18)*%
X88265000Y-153035000D02*
X92710000Y-153035000D01*
%TO.N,Net-(J1001-Pad20)*%
X88265000Y-155575000D02*
X92710000Y-155575000D01*
%TO.N,Net-(J1001-Pad38)*%
X88900000Y-178435000D02*
X88265000Y-178435000D01*
X92710000Y-182245000D02*
X88900000Y-178435000D01*
%TO.N,Net-(J1001-Pad36)*%
X88900000Y-175895000D02*
X88265000Y-175895000D01*
X92710000Y-179705000D02*
X88900000Y-175895000D01*
%TO.N,Net-(J1001-Pad34)*%
X88900000Y-173355000D02*
X88265000Y-173355000D01*
X92710000Y-177165000D02*
X88900000Y-173355000D01*
%TO.N,Net-(J1001-Pad32)*%
X88900000Y-170815000D02*
X88265000Y-170815000D01*
X92710000Y-174625000D02*
X88900000Y-170815000D01*
%TO.N,Net-(J1001-Pad30)*%
X88900000Y-168275000D02*
X88265000Y-168275000D01*
X92710000Y-172085000D02*
X88900000Y-168275000D01*
%TO.N,Net-(J1001-Pad28)*%
X88900000Y-165735000D02*
X88265000Y-165735000D01*
X92710000Y-169545000D02*
X88900000Y-165735000D01*
%TO.N,Net-(J1001-Pad26)*%
X88900000Y-163195000D02*
X88265000Y-163195000D01*
X92710000Y-167005000D02*
X88900000Y-163195000D01*
%TO.N,Net-(J1001-Pad24)*%
X88900000Y-160655000D02*
X88265000Y-160655000D01*
X92710000Y-164465000D02*
X88900000Y-160655000D01*
%TO.N,Net-(J1001-Pad22)*%
X88900000Y-158115000D02*
X88265000Y-158115000D01*
X92710000Y-161925000D02*
X88900000Y-158115000D01*
%TO.N,Net-(RV1001-Pad2)*%
X89310001Y-124315001D02*
X110345001Y-124315001D01*
X88860000Y-123865000D02*
X89310001Y-124315001D01*
X110345001Y-124315001D02*
X110490000Y-124460000D01*
X110490000Y-124460000D02*
X110490000Y-125730000D01*
X110490000Y-125730000D02*
X110490000Y-125730000D01*
%TD*%
D26*
%TO.N,Net-(C1002-Pad1)*%
X82423000Y-125949999D02*
X76432324Y-125949999D01*
X76395001Y-125946323D01*
X76357678Y-125949999D01*
X76357668Y-125949999D01*
X76246015Y-125960996D01*
X76102754Y-126004453D01*
X75970724Y-126075025D01*
X75887084Y-126143667D01*
X75855000Y-126169998D01*
X75831202Y-126198996D01*
X75623801Y-126406398D01*
X75591637Y-126400000D01*
X75348363Y-126400000D01*
X75109764Y-126447460D01*
X74885008Y-126540557D01*
X74682733Y-126675713D01*
X74510713Y-126847733D01*
X74375557Y-127050008D01*
X74282460Y-127274764D01*
X74235000Y-127513363D01*
X74235000Y-127756637D01*
X74282460Y-127995236D01*
X74375557Y-128219992D01*
X74510713Y-128422267D01*
X74682733Y-128594287D01*
X74885008Y-128729443D01*
X75109764Y-128822540D01*
X75348363Y-128870000D01*
X75591637Y-128870000D01*
X75830236Y-128822540D01*
X76054992Y-128729443D01*
X76257267Y-128594287D01*
X76312501Y-128539053D01*
X76339463Y-128589494D01*
X76418815Y-128686185D01*
X76515506Y-128765537D01*
X76625820Y-128824502D01*
X76745518Y-128860812D01*
X76870000Y-128873072D01*
X77184250Y-128870000D01*
X77343000Y-128711250D01*
X77343000Y-127762000D01*
X77597000Y-127762000D01*
X77597000Y-128711250D01*
X77755750Y-128870000D01*
X78070000Y-128873072D01*
X78194482Y-128860812D01*
X78314180Y-128824502D01*
X78424494Y-128765537D01*
X78521185Y-128686185D01*
X78600537Y-128589494D01*
X78659502Y-128479180D01*
X78695812Y-128359482D01*
X78708072Y-128235000D01*
X78705000Y-127920750D01*
X78546250Y-127762000D01*
X77597000Y-127762000D01*
X77343000Y-127762000D01*
X77323000Y-127762000D01*
X77323000Y-127508000D01*
X77343000Y-127508000D01*
X77343000Y-127488000D01*
X77597000Y-127488000D01*
X77597000Y-127508000D01*
X78546250Y-127508000D01*
X78584251Y-127469999D01*
X82423000Y-127469999D01*
X82423000Y-129540000D01*
X82425440Y-129564776D01*
X82432667Y-129588601D01*
X82444403Y-129610557D01*
X82460197Y-129629803D01*
X82479443Y-129645597D01*
X82501399Y-129657333D01*
X82525224Y-129664560D01*
X82550000Y-129667000D01*
X99568000Y-129667000D01*
X99568000Y-130592198D01*
X98673801Y-131486398D01*
X98641637Y-131480000D01*
X98398363Y-131480000D01*
X98159764Y-131527460D01*
X97935008Y-131620557D01*
X97732733Y-131755713D01*
X97677499Y-131810947D01*
X97650537Y-131760506D01*
X97571185Y-131663815D01*
X97474494Y-131584463D01*
X97364180Y-131525498D01*
X97244482Y-131489188D01*
X97120000Y-131476928D01*
X96805750Y-131480000D01*
X96647000Y-131638750D01*
X96647000Y-132588000D01*
X96667000Y-132588000D01*
X96667000Y-132842000D01*
X96647000Y-132842000D01*
X96647000Y-133791250D01*
X96805750Y-133950000D01*
X97120000Y-133953072D01*
X97244482Y-133940812D01*
X97364180Y-133904502D01*
X97474494Y-133845537D01*
X97571185Y-133766185D01*
X97650537Y-133669494D01*
X97677499Y-133619053D01*
X97732733Y-133674287D01*
X97935008Y-133809443D01*
X98159764Y-133902540D01*
X98398363Y-133950000D01*
X98641637Y-133950000D01*
X98673801Y-133943602D01*
X99226200Y-134496002D01*
X99249999Y-134525001D01*
X99365724Y-134619974D01*
X99497753Y-134690546D01*
X99568000Y-134711855D01*
X99568000Y-135274999D01*
X95469803Y-135274999D01*
X94048813Y-133854010D01*
X94099502Y-133759180D01*
X94135812Y-133639482D01*
X94148072Y-133515000D01*
X94146878Y-133315000D01*
X95281928Y-133315000D01*
X95294188Y-133439482D01*
X95330498Y-133559180D01*
X95389463Y-133669494D01*
X95468815Y-133766185D01*
X95565506Y-133845537D01*
X95675820Y-133904502D01*
X95795518Y-133940812D01*
X95920000Y-133953072D01*
X96234250Y-133950000D01*
X96393000Y-133791250D01*
X96393000Y-132842000D01*
X95443750Y-132842000D01*
X95285000Y-133000750D01*
X95281928Y-133315000D01*
X94146878Y-133315000D01*
X94145000Y-133000750D01*
X93986250Y-132842000D01*
X92837000Y-132842000D01*
X92837000Y-132862000D01*
X92583000Y-132862000D01*
X92583000Y-132842000D01*
X91433750Y-132842000D01*
X91275000Y-133000750D01*
X91274527Y-133080001D01*
X89706489Y-133080001D01*
X89750000Y-132861260D01*
X89750000Y-132568740D01*
X89692932Y-132281842D01*
X89580990Y-132011589D01*
X89516452Y-131915000D01*
X91271928Y-131915000D01*
X91275000Y-132429250D01*
X91433750Y-132588000D01*
X92583000Y-132588000D01*
X92583000Y-131438750D01*
X92837000Y-131438750D01*
X92837000Y-132588000D01*
X93986250Y-132588000D01*
X94145000Y-132429250D01*
X94146877Y-132115000D01*
X95281928Y-132115000D01*
X95285000Y-132429250D01*
X95443750Y-132588000D01*
X96393000Y-132588000D01*
X96393000Y-131638750D01*
X96234250Y-131480000D01*
X95920000Y-131476928D01*
X95795518Y-131489188D01*
X95675820Y-131525498D01*
X95565506Y-131584463D01*
X95468815Y-131663815D01*
X95389463Y-131760506D01*
X95330498Y-131870820D01*
X95294188Y-131990518D01*
X95281928Y-132115000D01*
X94146877Y-132115000D01*
X94148072Y-131915000D01*
X94135812Y-131790518D01*
X94099502Y-131670820D01*
X94040537Y-131560506D01*
X93961185Y-131463815D01*
X93864494Y-131384463D01*
X93754180Y-131325498D01*
X93634482Y-131289188D01*
X93510000Y-131276928D01*
X92995750Y-131280000D01*
X92837000Y-131438750D01*
X92583000Y-131438750D01*
X92424250Y-131280000D01*
X91910000Y-131276928D01*
X91785518Y-131289188D01*
X91665820Y-131325498D01*
X91555506Y-131384463D01*
X91458815Y-131463815D01*
X91379463Y-131560506D01*
X91320498Y-131670820D01*
X91284188Y-131790518D01*
X91271928Y-131915000D01*
X89516452Y-131915000D01*
X89418475Y-131768368D01*
X89211632Y-131561525D01*
X88968411Y-131399010D01*
X88698158Y-131287068D01*
X88411260Y-131230000D01*
X88118740Y-131230000D01*
X87831842Y-131287068D01*
X87561589Y-131399010D01*
X87318368Y-131561525D01*
X87186513Y-131693380D01*
X87164502Y-131620820D01*
X87105537Y-131510506D01*
X87026185Y-131413815D01*
X86929494Y-131334463D01*
X86819180Y-131275498D01*
X86699482Y-131239188D01*
X86575000Y-131226928D01*
X84875000Y-131226928D01*
X84750518Y-131239188D01*
X84630820Y-131275498D01*
X84520506Y-131334463D01*
X84423815Y-131413815D01*
X84344463Y-131510506D01*
X84285498Y-131620820D01*
X84249188Y-131740518D01*
X84236928Y-131865000D01*
X84236928Y-132692127D01*
X82681859Y-131137058D01*
X82659853Y-131026426D01*
X82551680Y-130765273D01*
X82394637Y-130530241D01*
X82194759Y-130330363D01*
X81959727Y-130173320D01*
X81698574Y-130065147D01*
X81421335Y-130010000D01*
X81138665Y-130010000D01*
X80861426Y-130065147D01*
X80600273Y-130173320D01*
X80365241Y-130330363D01*
X80165363Y-130530241D01*
X80008320Y-130765273D01*
X79900147Y-131026426D01*
X79845000Y-131303665D01*
X79845000Y-131586335D01*
X79900147Y-131863574D01*
X80008320Y-132124727D01*
X80165363Y-132359759D01*
X80365241Y-132559637D01*
X80597759Y-132715000D01*
X80365241Y-132870363D01*
X80165363Y-133070241D01*
X80008320Y-133305273D01*
X79900147Y-133566426D01*
X79845000Y-133843665D01*
X79845000Y-134126335D01*
X79900147Y-134403574D01*
X80008320Y-134664727D01*
X80165363Y-134899759D01*
X80365241Y-135099637D01*
X80597759Y-135255000D01*
X80365241Y-135410363D01*
X80165363Y-135610241D01*
X80008320Y-135845273D01*
X79900147Y-136106426D01*
X79845000Y-136383665D01*
X79845000Y-136666335D01*
X79900147Y-136943574D01*
X80008320Y-137204727D01*
X80165363Y-137439759D01*
X80365241Y-137639637D01*
X80597759Y-137795000D01*
X80365241Y-137950363D01*
X80165363Y-138150241D01*
X80008320Y-138385273D01*
X79900147Y-138646426D01*
X79845000Y-138923665D01*
X79845000Y-139206335D01*
X79900147Y-139483574D01*
X80008320Y-139744727D01*
X80165363Y-139979759D01*
X80365241Y-140179637D01*
X80597759Y-140335000D01*
X80365241Y-140490363D01*
X80165363Y-140690241D01*
X80008320Y-140925273D01*
X79900147Y-141186426D01*
X79845000Y-141463665D01*
X79845000Y-141746335D01*
X79900147Y-142023574D01*
X80008320Y-142284727D01*
X80165363Y-142519759D01*
X80365241Y-142719637D01*
X80597759Y-142875000D01*
X80365241Y-143030363D01*
X80165363Y-143230241D01*
X80008320Y-143465273D01*
X79900147Y-143726426D01*
X79845000Y-144003665D01*
X79845000Y-144286335D01*
X79900147Y-144563574D01*
X80008320Y-144824727D01*
X80165363Y-145059759D01*
X80365241Y-145259637D01*
X80597759Y-145415000D01*
X80365241Y-145570363D01*
X80165363Y-145770241D01*
X80008320Y-146005273D01*
X79900147Y-146266426D01*
X79845000Y-146543665D01*
X79845000Y-146826335D01*
X79900147Y-147103574D01*
X80008320Y-147364727D01*
X80165363Y-147599759D01*
X80365241Y-147799637D01*
X80597759Y-147955000D01*
X80365241Y-148110363D01*
X80165363Y-148310241D01*
X80008320Y-148545273D01*
X79900147Y-148806426D01*
X79845000Y-149083665D01*
X79845000Y-149366335D01*
X79900147Y-149643574D01*
X80008320Y-149904727D01*
X80165363Y-150139759D01*
X80365241Y-150339637D01*
X80597759Y-150495000D01*
X80365241Y-150650363D01*
X80165363Y-150850241D01*
X80008320Y-151085273D01*
X79900147Y-151346426D01*
X79845000Y-151623665D01*
X79845000Y-151906335D01*
X79900147Y-152183574D01*
X80008320Y-152444727D01*
X80165363Y-152679759D01*
X80363961Y-152878357D01*
X80355518Y-152879188D01*
X80235820Y-152915498D01*
X80125506Y-152974463D01*
X80028815Y-153053815D01*
X79949463Y-153150506D01*
X79890498Y-153260820D01*
X79854188Y-153380518D01*
X79841928Y-153505000D01*
X79845000Y-154019250D01*
X80003750Y-154178000D01*
X81153000Y-154178000D01*
X81153000Y-154158000D01*
X81407000Y-154158000D01*
X81407000Y-154178000D01*
X82556250Y-154178000D01*
X82715000Y-154019250D01*
X82717253Y-153642055D01*
X84283790Y-155208592D01*
X84240000Y-155428740D01*
X84240000Y-155721260D01*
X84297068Y-156008158D01*
X84409010Y-156278411D01*
X84571525Y-156521632D01*
X84778368Y-156728475D01*
X84952760Y-156845000D01*
X84778368Y-156961525D01*
X84571525Y-157168368D01*
X84446822Y-157355000D01*
X82498043Y-157355000D01*
X82394637Y-157200241D01*
X82194759Y-157000363D01*
X81959727Y-156843320D01*
X81698574Y-156735147D01*
X81421335Y-156680000D01*
X81138665Y-156680000D01*
X80861426Y-156735147D01*
X80600273Y-156843320D01*
X80365241Y-157000363D01*
X80165363Y-157200241D01*
X80008320Y-157435273D01*
X79900147Y-157696426D01*
X79845000Y-157973665D01*
X79845000Y-158256335D01*
X79900147Y-158533574D01*
X80008320Y-158794727D01*
X80165363Y-159029759D01*
X80365241Y-159229637D01*
X80597759Y-159385000D01*
X80365241Y-159540363D01*
X80165363Y-159740241D01*
X80008320Y-159975273D01*
X79900147Y-160236426D01*
X79845000Y-160513665D01*
X79845000Y-160796335D01*
X79900147Y-161073574D01*
X80008320Y-161334727D01*
X80165363Y-161569759D01*
X80365241Y-161769637D01*
X80597759Y-161925000D01*
X80365241Y-162080363D01*
X80165363Y-162280241D01*
X80008320Y-162515273D01*
X79900147Y-162776426D01*
X79845000Y-163053665D01*
X79845000Y-163336335D01*
X79900147Y-163613574D01*
X80008320Y-163874727D01*
X80165363Y-164109759D01*
X80365241Y-164309637D01*
X80597759Y-164465000D01*
X80365241Y-164620363D01*
X80165363Y-164820241D01*
X80008320Y-165055273D01*
X79900147Y-165316426D01*
X79845000Y-165593665D01*
X79845000Y-165876335D01*
X79900147Y-166153574D01*
X80008320Y-166414727D01*
X80165363Y-166649759D01*
X80365241Y-166849637D01*
X80597759Y-167005000D01*
X80365241Y-167160363D01*
X80165363Y-167360241D01*
X80008320Y-167595273D01*
X79900147Y-167856426D01*
X79845000Y-168133665D01*
X79845000Y-168416335D01*
X79900147Y-168693574D01*
X80008320Y-168954727D01*
X80165363Y-169189759D01*
X80365241Y-169389637D01*
X80597759Y-169545000D01*
X80365241Y-169700363D01*
X80165363Y-169900241D01*
X80008320Y-170135273D01*
X79900147Y-170396426D01*
X79845000Y-170673665D01*
X79845000Y-170956335D01*
X79900147Y-171233574D01*
X80008320Y-171494727D01*
X80165363Y-171729759D01*
X80365241Y-171929637D01*
X80597759Y-172085000D01*
X80365241Y-172240363D01*
X80165363Y-172440241D01*
X80008320Y-172675273D01*
X79900147Y-172936426D01*
X79845000Y-173213665D01*
X79845000Y-173496335D01*
X79900147Y-173773574D01*
X80008320Y-174034727D01*
X80165363Y-174269759D01*
X80365241Y-174469637D01*
X80597759Y-174625000D01*
X80365241Y-174780363D01*
X80165363Y-174980241D01*
X80008320Y-175215273D01*
X79900147Y-175476426D01*
X79845000Y-175753665D01*
X79845000Y-176036335D01*
X79900147Y-176313574D01*
X80008320Y-176574727D01*
X80165363Y-176809759D01*
X80365241Y-177009637D01*
X80597759Y-177165000D01*
X80365241Y-177320363D01*
X80165363Y-177520241D01*
X80008320Y-177755273D01*
X79900147Y-178016426D01*
X79845000Y-178293665D01*
X79845000Y-178576335D01*
X79900147Y-178853574D01*
X79998077Y-179089999D01*
X77267323Y-179089999D01*
X77230000Y-179086323D01*
X77192677Y-179089999D01*
X77192668Y-179089999D01*
X77081015Y-179100996D01*
X76937754Y-179144453D01*
X76805725Y-179215025D01*
X76690000Y-179309998D01*
X76666202Y-179338996D01*
X75623801Y-180381398D01*
X75591637Y-180375000D01*
X75348363Y-180375000D01*
X75109764Y-180422460D01*
X74885008Y-180515557D01*
X74682733Y-180650713D01*
X74510713Y-180822733D01*
X74375557Y-181025008D01*
X74282460Y-181249764D01*
X74235000Y-181488363D01*
X74235000Y-181731637D01*
X74282460Y-181970236D01*
X74375557Y-182194992D01*
X74510713Y-182397267D01*
X74682733Y-182569287D01*
X74885008Y-182704443D01*
X75109764Y-182797540D01*
X75348363Y-182845000D01*
X75591637Y-182845000D01*
X75830236Y-182797540D01*
X76054992Y-182704443D01*
X76257267Y-182569287D01*
X76312501Y-182514053D01*
X76339463Y-182564494D01*
X76418815Y-182661185D01*
X76515506Y-182740537D01*
X76625820Y-182799502D01*
X76745518Y-182835812D01*
X76870000Y-182848072D01*
X77184250Y-182845000D01*
X77343000Y-182686250D01*
X77343000Y-181737000D01*
X77597000Y-181737000D01*
X77597000Y-182686250D01*
X77755750Y-182845000D01*
X78070000Y-182848072D01*
X78194482Y-182835812D01*
X78314180Y-182799502D01*
X78424494Y-182740537D01*
X78521185Y-182661185D01*
X78600537Y-182564494D01*
X78659502Y-182454180D01*
X78695812Y-182334482D01*
X78708072Y-182210000D01*
X78705000Y-181895750D01*
X78584250Y-181775000D01*
X79841928Y-181775000D01*
X79854188Y-181899482D01*
X79890498Y-182019180D01*
X79949463Y-182129494D01*
X80028815Y-182226185D01*
X80125506Y-182305537D01*
X80235820Y-182364502D01*
X80355518Y-182400812D01*
X80480000Y-182413072D01*
X80994250Y-182410000D01*
X81153000Y-182251250D01*
X81153000Y-181102000D01*
X81407000Y-181102000D01*
X81407000Y-182251250D01*
X81565750Y-182410000D01*
X82080000Y-182413072D01*
X82204482Y-182400812D01*
X82324180Y-182364502D01*
X82434494Y-182305537D01*
X82531185Y-182226185D01*
X82610537Y-182129494D01*
X82669502Y-182019180D01*
X82705812Y-181899482D01*
X82718072Y-181775000D01*
X82715000Y-181260750D01*
X82556250Y-181102000D01*
X81407000Y-181102000D01*
X81153000Y-181102000D01*
X80003750Y-181102000D01*
X79845000Y-181260750D01*
X79841928Y-181775000D01*
X78584250Y-181775000D01*
X78546250Y-181737000D01*
X77597000Y-181737000D01*
X77343000Y-181737000D01*
X77323000Y-181737000D01*
X77323000Y-181483000D01*
X77343000Y-181483000D01*
X77343000Y-181463000D01*
X77597000Y-181463000D01*
X77597000Y-181483000D01*
X78546250Y-181483000D01*
X78705000Y-181324250D01*
X78708072Y-181010000D01*
X78695812Y-180885518D01*
X78659502Y-180765820D01*
X78600537Y-180655506D01*
X78563190Y-180609999D01*
X79844527Y-180609999D01*
X79845000Y-180689250D01*
X80003750Y-180848000D01*
X81153000Y-180848000D01*
X81153000Y-180828000D01*
X81407000Y-180828000D01*
X81407000Y-180848000D01*
X82556250Y-180848000D01*
X82715000Y-180689250D01*
X82715473Y-180609999D01*
X84283511Y-180609999D01*
X84240000Y-180828740D01*
X84240000Y-181121260D01*
X84297068Y-181408158D01*
X84409010Y-181678411D01*
X84571525Y-181921632D01*
X84778368Y-182128475D01*
X85021589Y-182290990D01*
X85291842Y-182402932D01*
X85578740Y-182460000D01*
X85871260Y-182460000D01*
X86158158Y-182402932D01*
X86428411Y-182290990D01*
X86671632Y-182128475D01*
X86878475Y-181921632D01*
X86995000Y-181747240D01*
X87111525Y-181921632D01*
X87318368Y-182128475D01*
X87561589Y-182290990D01*
X87831842Y-182402932D01*
X88118740Y-182460000D01*
X88411260Y-182460000D01*
X88631408Y-182416209D01*
X90096202Y-183881004D01*
X90120000Y-183910002D01*
X90148998Y-183933800D01*
X90235724Y-184004975D01*
X90367754Y-184075547D01*
X90511015Y-184119004D01*
X90571893Y-184125000D01*
X72415000Y-184125000D01*
X72415000Y-175773363D01*
X74235000Y-175773363D01*
X74235000Y-176016637D01*
X74282460Y-176255236D01*
X74375557Y-176479992D01*
X74510713Y-176682267D01*
X74682733Y-176854287D01*
X74885008Y-176989443D01*
X75109764Y-177082540D01*
X75348363Y-177130000D01*
X75591637Y-177130000D01*
X75830236Y-177082540D01*
X76054992Y-176989443D01*
X76257267Y-176854287D01*
X76312501Y-176799053D01*
X76339463Y-176849494D01*
X76418815Y-176946185D01*
X76515506Y-177025537D01*
X76625820Y-177084502D01*
X76745518Y-177120812D01*
X76870000Y-177133072D01*
X77184250Y-177130000D01*
X77343000Y-176971250D01*
X77343000Y-176022000D01*
X77597000Y-176022000D01*
X77597000Y-176971250D01*
X77755750Y-177130000D01*
X78070000Y-177133072D01*
X78194482Y-177120812D01*
X78314180Y-177084502D01*
X78424494Y-177025537D01*
X78521185Y-176946185D01*
X78600537Y-176849494D01*
X78659502Y-176739180D01*
X78695812Y-176619482D01*
X78708072Y-176495000D01*
X78705000Y-176180750D01*
X78546250Y-176022000D01*
X77597000Y-176022000D01*
X77343000Y-176022000D01*
X77323000Y-176022000D01*
X77323000Y-175768000D01*
X77343000Y-175768000D01*
X77343000Y-174818750D01*
X77597000Y-174818750D01*
X77597000Y-175768000D01*
X78546250Y-175768000D01*
X78705000Y-175609250D01*
X78708072Y-175295000D01*
X78695812Y-175170518D01*
X78659502Y-175050820D01*
X78600537Y-174940506D01*
X78521185Y-174843815D01*
X78424494Y-174764463D01*
X78314180Y-174705498D01*
X78194482Y-174669188D01*
X78070000Y-174656928D01*
X77755750Y-174660000D01*
X77597000Y-174818750D01*
X77343000Y-174818750D01*
X77184250Y-174660000D01*
X76870000Y-174656928D01*
X76745518Y-174669188D01*
X76625820Y-174705498D01*
X76515506Y-174764463D01*
X76418815Y-174843815D01*
X76339463Y-174940506D01*
X76312501Y-174990947D01*
X76257267Y-174935713D01*
X76054992Y-174800557D01*
X75830236Y-174707460D01*
X75591637Y-174660000D01*
X75348363Y-174660000D01*
X75109764Y-174707460D01*
X74885008Y-174800557D01*
X74682733Y-174935713D01*
X74510713Y-175107733D01*
X74375557Y-175310008D01*
X74282460Y-175534764D01*
X74235000Y-175773363D01*
X72415000Y-175773363D01*
X72415000Y-170058363D01*
X74235000Y-170058363D01*
X74235000Y-170301637D01*
X74282460Y-170540236D01*
X74375557Y-170764992D01*
X74510713Y-170967267D01*
X74682733Y-171139287D01*
X74885008Y-171274443D01*
X75109764Y-171367540D01*
X75348363Y-171415000D01*
X75591637Y-171415000D01*
X75830236Y-171367540D01*
X76054992Y-171274443D01*
X76257267Y-171139287D01*
X76312501Y-171084053D01*
X76339463Y-171134494D01*
X76418815Y-171231185D01*
X76515506Y-171310537D01*
X76625820Y-171369502D01*
X76745518Y-171405812D01*
X76870000Y-171418072D01*
X77184250Y-171415000D01*
X77343000Y-171256250D01*
X77343000Y-170307000D01*
X77597000Y-170307000D01*
X77597000Y-171256250D01*
X77755750Y-171415000D01*
X78070000Y-171418072D01*
X78194482Y-171405812D01*
X78314180Y-171369502D01*
X78424494Y-171310537D01*
X78521185Y-171231185D01*
X78600537Y-171134494D01*
X78659502Y-171024180D01*
X78695812Y-170904482D01*
X78708072Y-170780000D01*
X78705000Y-170465750D01*
X78546250Y-170307000D01*
X77597000Y-170307000D01*
X77343000Y-170307000D01*
X77323000Y-170307000D01*
X77323000Y-170053000D01*
X77343000Y-170053000D01*
X77343000Y-169103750D01*
X77597000Y-169103750D01*
X77597000Y-170053000D01*
X78546250Y-170053000D01*
X78705000Y-169894250D01*
X78708072Y-169580000D01*
X78695812Y-169455518D01*
X78659502Y-169335820D01*
X78600537Y-169225506D01*
X78521185Y-169128815D01*
X78424494Y-169049463D01*
X78314180Y-168990498D01*
X78194482Y-168954188D01*
X78070000Y-168941928D01*
X77755750Y-168945000D01*
X77597000Y-169103750D01*
X77343000Y-169103750D01*
X77184250Y-168945000D01*
X76870000Y-168941928D01*
X76745518Y-168954188D01*
X76625820Y-168990498D01*
X76515506Y-169049463D01*
X76418815Y-169128815D01*
X76339463Y-169225506D01*
X76312501Y-169275947D01*
X76257267Y-169220713D01*
X76054992Y-169085557D01*
X75830236Y-168992460D01*
X75591637Y-168945000D01*
X75348363Y-168945000D01*
X75109764Y-168992460D01*
X74885008Y-169085557D01*
X74682733Y-169220713D01*
X74510713Y-169392733D01*
X74375557Y-169595008D01*
X74282460Y-169819764D01*
X74235000Y-170058363D01*
X72415000Y-170058363D01*
X72415000Y-163708363D01*
X74235000Y-163708363D01*
X74235000Y-163951637D01*
X74282460Y-164190236D01*
X74375557Y-164414992D01*
X74510713Y-164617267D01*
X74682733Y-164789287D01*
X74885008Y-164924443D01*
X75109764Y-165017540D01*
X75348363Y-165065000D01*
X75591637Y-165065000D01*
X75830236Y-165017540D01*
X76054992Y-164924443D01*
X76257267Y-164789287D01*
X76312501Y-164734053D01*
X76339463Y-164784494D01*
X76418815Y-164881185D01*
X76515506Y-164960537D01*
X76625820Y-165019502D01*
X76745518Y-165055812D01*
X76870000Y-165068072D01*
X77184250Y-165065000D01*
X77343000Y-164906250D01*
X77343000Y-163957000D01*
X77597000Y-163957000D01*
X77597000Y-164906250D01*
X77755750Y-165065000D01*
X78070000Y-165068072D01*
X78194482Y-165055812D01*
X78314180Y-165019502D01*
X78424494Y-164960537D01*
X78521185Y-164881185D01*
X78600537Y-164784494D01*
X78659502Y-164674180D01*
X78695812Y-164554482D01*
X78708072Y-164430000D01*
X78705000Y-164115750D01*
X78546250Y-163957000D01*
X77597000Y-163957000D01*
X77343000Y-163957000D01*
X77323000Y-163957000D01*
X77323000Y-163703000D01*
X77343000Y-163703000D01*
X77343000Y-162753750D01*
X77597000Y-162753750D01*
X77597000Y-163703000D01*
X78546250Y-163703000D01*
X78705000Y-163544250D01*
X78708072Y-163230000D01*
X78695812Y-163105518D01*
X78659502Y-162985820D01*
X78600537Y-162875506D01*
X78521185Y-162778815D01*
X78424494Y-162699463D01*
X78314180Y-162640498D01*
X78194482Y-162604188D01*
X78070000Y-162591928D01*
X77755750Y-162595000D01*
X77597000Y-162753750D01*
X77343000Y-162753750D01*
X77184250Y-162595000D01*
X76870000Y-162591928D01*
X76745518Y-162604188D01*
X76625820Y-162640498D01*
X76515506Y-162699463D01*
X76418815Y-162778815D01*
X76339463Y-162875506D01*
X76312501Y-162925947D01*
X76257267Y-162870713D01*
X76054992Y-162735557D01*
X75830236Y-162642460D01*
X75591637Y-162595000D01*
X75348363Y-162595000D01*
X75109764Y-162642460D01*
X74885008Y-162735557D01*
X74682733Y-162870713D01*
X74510713Y-163042733D01*
X74375557Y-163245008D01*
X74282460Y-163469764D01*
X74235000Y-163708363D01*
X72415000Y-163708363D01*
X72415000Y-157993363D01*
X74235000Y-157993363D01*
X74235000Y-158236637D01*
X74282460Y-158475236D01*
X74375557Y-158699992D01*
X74510713Y-158902267D01*
X74682733Y-159074287D01*
X74885008Y-159209443D01*
X75109764Y-159302540D01*
X75348363Y-159350000D01*
X75591637Y-159350000D01*
X75830236Y-159302540D01*
X76054992Y-159209443D01*
X76257267Y-159074287D01*
X76312501Y-159019053D01*
X76339463Y-159069494D01*
X76418815Y-159166185D01*
X76515506Y-159245537D01*
X76625820Y-159304502D01*
X76745518Y-159340812D01*
X76870000Y-159353072D01*
X77184250Y-159350000D01*
X77343000Y-159191250D01*
X77343000Y-158242000D01*
X77597000Y-158242000D01*
X77597000Y-159191250D01*
X77755750Y-159350000D01*
X78070000Y-159353072D01*
X78194482Y-159340812D01*
X78314180Y-159304502D01*
X78424494Y-159245537D01*
X78521185Y-159166185D01*
X78600537Y-159069494D01*
X78659502Y-158959180D01*
X78695812Y-158839482D01*
X78708072Y-158715000D01*
X78705000Y-158400750D01*
X78546250Y-158242000D01*
X77597000Y-158242000D01*
X77343000Y-158242000D01*
X77323000Y-158242000D01*
X77323000Y-157988000D01*
X77343000Y-157988000D01*
X77343000Y-157038750D01*
X77597000Y-157038750D01*
X77597000Y-157988000D01*
X78546250Y-157988000D01*
X78705000Y-157829250D01*
X78708072Y-157515000D01*
X78695812Y-157390518D01*
X78659502Y-157270820D01*
X78600537Y-157160506D01*
X78521185Y-157063815D01*
X78424494Y-156984463D01*
X78314180Y-156925498D01*
X78194482Y-156889188D01*
X78070000Y-156876928D01*
X77755750Y-156880000D01*
X77597000Y-157038750D01*
X77343000Y-157038750D01*
X77184250Y-156880000D01*
X76870000Y-156876928D01*
X76745518Y-156889188D01*
X76625820Y-156925498D01*
X76515506Y-156984463D01*
X76418815Y-157063815D01*
X76339463Y-157160506D01*
X76312501Y-157210947D01*
X76257267Y-157155713D01*
X76054992Y-157020557D01*
X75830236Y-156927460D01*
X75591637Y-156880000D01*
X75348363Y-156880000D01*
X75109764Y-156927460D01*
X74885008Y-157020557D01*
X74682733Y-157155713D01*
X74510713Y-157327733D01*
X74375557Y-157530008D01*
X74282460Y-157754764D01*
X74235000Y-157993363D01*
X72415000Y-157993363D01*
X72415000Y-155105000D01*
X79841928Y-155105000D01*
X79854188Y-155229482D01*
X79890498Y-155349180D01*
X79949463Y-155459494D01*
X80028815Y-155556185D01*
X80125506Y-155635537D01*
X80235820Y-155694502D01*
X80355518Y-155730812D01*
X80480000Y-155743072D01*
X80994250Y-155740000D01*
X81153000Y-155581250D01*
X81153000Y-154432000D01*
X81407000Y-154432000D01*
X81407000Y-155581250D01*
X81565750Y-155740000D01*
X82080000Y-155743072D01*
X82204482Y-155730812D01*
X82324180Y-155694502D01*
X82434494Y-155635537D01*
X82531185Y-155556185D01*
X82610537Y-155459494D01*
X82669502Y-155349180D01*
X82705812Y-155229482D01*
X82718072Y-155105000D01*
X82715000Y-154590750D01*
X82556250Y-154432000D01*
X81407000Y-154432000D01*
X81153000Y-154432000D01*
X80003750Y-154432000D01*
X79845000Y-154590750D01*
X79841928Y-155105000D01*
X72415000Y-155105000D01*
X72415000Y-151643363D01*
X74330000Y-151643363D01*
X74330000Y-151886637D01*
X74377460Y-152125236D01*
X74470557Y-152349992D01*
X74605713Y-152552267D01*
X74777733Y-152724287D01*
X74980008Y-152859443D01*
X75204764Y-152952540D01*
X75443363Y-153000000D01*
X75686637Y-153000000D01*
X75925236Y-152952540D01*
X76149992Y-152859443D01*
X76352267Y-152724287D01*
X76407501Y-152669053D01*
X76434463Y-152719494D01*
X76513815Y-152816185D01*
X76610506Y-152895537D01*
X76720820Y-152954502D01*
X76840518Y-152990812D01*
X76965000Y-153003072D01*
X77279250Y-153000000D01*
X77438000Y-152841250D01*
X77438000Y-151892000D01*
X77692000Y-151892000D01*
X77692000Y-152841250D01*
X77850750Y-153000000D01*
X78165000Y-153003072D01*
X78289482Y-152990812D01*
X78409180Y-152954502D01*
X78519494Y-152895537D01*
X78616185Y-152816185D01*
X78695537Y-152719494D01*
X78754502Y-152609180D01*
X78790812Y-152489482D01*
X78803072Y-152365000D01*
X78800000Y-152050750D01*
X78641250Y-151892000D01*
X77692000Y-151892000D01*
X77438000Y-151892000D01*
X77418000Y-151892000D01*
X77418000Y-151638000D01*
X77438000Y-151638000D01*
X77438000Y-150688750D01*
X77692000Y-150688750D01*
X77692000Y-151638000D01*
X78641250Y-151638000D01*
X78800000Y-151479250D01*
X78803072Y-151165000D01*
X78790812Y-151040518D01*
X78754502Y-150920820D01*
X78695537Y-150810506D01*
X78616185Y-150713815D01*
X78519494Y-150634463D01*
X78409180Y-150575498D01*
X78289482Y-150539188D01*
X78165000Y-150526928D01*
X77850750Y-150530000D01*
X77692000Y-150688750D01*
X77438000Y-150688750D01*
X77279250Y-150530000D01*
X76965000Y-150526928D01*
X76840518Y-150539188D01*
X76720820Y-150575498D01*
X76610506Y-150634463D01*
X76513815Y-150713815D01*
X76434463Y-150810506D01*
X76407501Y-150860947D01*
X76352267Y-150805713D01*
X76149992Y-150670557D01*
X75925236Y-150577460D01*
X75686637Y-150530000D01*
X75443363Y-150530000D01*
X75204764Y-150577460D01*
X74980008Y-150670557D01*
X74777733Y-150805713D01*
X74605713Y-150977733D01*
X74470557Y-151180008D01*
X74377460Y-151404764D01*
X74330000Y-151643363D01*
X72415000Y-151643363D01*
X72415000Y-145928363D01*
X74235000Y-145928363D01*
X74235000Y-146171637D01*
X74282460Y-146410236D01*
X74375557Y-146634992D01*
X74510713Y-146837267D01*
X74682733Y-147009287D01*
X74885008Y-147144443D01*
X75109764Y-147237540D01*
X75348363Y-147285000D01*
X75591637Y-147285000D01*
X75830236Y-147237540D01*
X76054992Y-147144443D01*
X76257267Y-147009287D01*
X76312501Y-146954053D01*
X76339463Y-147004494D01*
X76418815Y-147101185D01*
X76515506Y-147180537D01*
X76625820Y-147239502D01*
X76745518Y-147275812D01*
X76870000Y-147288072D01*
X77184250Y-147285000D01*
X77343000Y-147126250D01*
X77343000Y-146177000D01*
X77597000Y-146177000D01*
X77597000Y-147126250D01*
X77755750Y-147285000D01*
X78070000Y-147288072D01*
X78194482Y-147275812D01*
X78314180Y-147239502D01*
X78424494Y-147180537D01*
X78521185Y-147101185D01*
X78600537Y-147004494D01*
X78659502Y-146894180D01*
X78695812Y-146774482D01*
X78708072Y-146650000D01*
X78705000Y-146335750D01*
X78546250Y-146177000D01*
X77597000Y-146177000D01*
X77343000Y-146177000D01*
X77323000Y-146177000D01*
X77323000Y-145923000D01*
X77343000Y-145923000D01*
X77343000Y-144973750D01*
X77597000Y-144973750D01*
X77597000Y-145923000D01*
X78546250Y-145923000D01*
X78705000Y-145764250D01*
X78708072Y-145450000D01*
X78695812Y-145325518D01*
X78659502Y-145205820D01*
X78600537Y-145095506D01*
X78521185Y-144998815D01*
X78424494Y-144919463D01*
X78314180Y-144860498D01*
X78194482Y-144824188D01*
X78070000Y-144811928D01*
X77755750Y-144815000D01*
X77597000Y-144973750D01*
X77343000Y-144973750D01*
X77184250Y-144815000D01*
X76870000Y-144811928D01*
X76745518Y-144824188D01*
X76625820Y-144860498D01*
X76515506Y-144919463D01*
X76418815Y-144998815D01*
X76339463Y-145095506D01*
X76312501Y-145145947D01*
X76257267Y-145090713D01*
X76054992Y-144955557D01*
X75830236Y-144862460D01*
X75591637Y-144815000D01*
X75348363Y-144815000D01*
X75109764Y-144862460D01*
X74885008Y-144955557D01*
X74682733Y-145090713D01*
X74510713Y-145262733D01*
X74375557Y-145465008D01*
X74282460Y-145689764D01*
X74235000Y-145928363D01*
X72415000Y-145928363D01*
X72415000Y-140213363D01*
X74235000Y-140213363D01*
X74235000Y-140456637D01*
X74282460Y-140695236D01*
X74375557Y-140919992D01*
X74510713Y-141122267D01*
X74682733Y-141294287D01*
X74885008Y-141429443D01*
X75109764Y-141522540D01*
X75348363Y-141570000D01*
X75591637Y-141570000D01*
X75830236Y-141522540D01*
X76054992Y-141429443D01*
X76257267Y-141294287D01*
X76312501Y-141239053D01*
X76339463Y-141289494D01*
X76418815Y-141386185D01*
X76515506Y-141465537D01*
X76625820Y-141524502D01*
X76745518Y-141560812D01*
X76870000Y-141573072D01*
X77184250Y-141570000D01*
X77343000Y-141411250D01*
X77343000Y-140462000D01*
X77597000Y-140462000D01*
X77597000Y-141411250D01*
X77755750Y-141570000D01*
X78070000Y-141573072D01*
X78194482Y-141560812D01*
X78314180Y-141524502D01*
X78424494Y-141465537D01*
X78521185Y-141386185D01*
X78600537Y-141289494D01*
X78659502Y-141179180D01*
X78695812Y-141059482D01*
X78708072Y-140935000D01*
X78705000Y-140620750D01*
X78546250Y-140462000D01*
X77597000Y-140462000D01*
X77343000Y-140462000D01*
X77323000Y-140462000D01*
X77323000Y-140208000D01*
X77343000Y-140208000D01*
X77343000Y-139258750D01*
X77597000Y-139258750D01*
X77597000Y-140208000D01*
X78546250Y-140208000D01*
X78705000Y-140049250D01*
X78708072Y-139735000D01*
X78695812Y-139610518D01*
X78659502Y-139490820D01*
X78600537Y-139380506D01*
X78521185Y-139283815D01*
X78424494Y-139204463D01*
X78314180Y-139145498D01*
X78194482Y-139109188D01*
X78070000Y-139096928D01*
X77755750Y-139100000D01*
X77597000Y-139258750D01*
X77343000Y-139258750D01*
X77184250Y-139100000D01*
X76870000Y-139096928D01*
X76745518Y-139109188D01*
X76625820Y-139145498D01*
X76515506Y-139204463D01*
X76418815Y-139283815D01*
X76339463Y-139380506D01*
X76312501Y-139430947D01*
X76257267Y-139375713D01*
X76054992Y-139240557D01*
X75830236Y-139147460D01*
X75591637Y-139100000D01*
X75348363Y-139100000D01*
X75109764Y-139147460D01*
X74885008Y-139240557D01*
X74682733Y-139375713D01*
X74510713Y-139547733D01*
X74375557Y-139750008D01*
X74282460Y-139974764D01*
X74235000Y-140213363D01*
X72415000Y-140213363D01*
X72415000Y-133863363D01*
X74235000Y-133863363D01*
X74235000Y-134106637D01*
X74282460Y-134345236D01*
X74375557Y-134569992D01*
X74510713Y-134772267D01*
X74682733Y-134944287D01*
X74885008Y-135079443D01*
X75109764Y-135172540D01*
X75348363Y-135220000D01*
X75591637Y-135220000D01*
X75830236Y-135172540D01*
X76054992Y-135079443D01*
X76257267Y-134944287D01*
X76312501Y-134889053D01*
X76339463Y-134939494D01*
X76418815Y-135036185D01*
X76515506Y-135115537D01*
X76625820Y-135174502D01*
X76745518Y-135210812D01*
X76870000Y-135223072D01*
X77184250Y-135220000D01*
X77343000Y-135061250D01*
X77343000Y-134112000D01*
X77597000Y-134112000D01*
X77597000Y-135061250D01*
X77755750Y-135220000D01*
X78070000Y-135223072D01*
X78194482Y-135210812D01*
X78314180Y-135174502D01*
X78424494Y-135115537D01*
X78521185Y-135036185D01*
X78600537Y-134939494D01*
X78659502Y-134829180D01*
X78695812Y-134709482D01*
X78708072Y-134585000D01*
X78705000Y-134270750D01*
X78546250Y-134112000D01*
X77597000Y-134112000D01*
X77343000Y-134112000D01*
X77323000Y-134112000D01*
X77323000Y-133858000D01*
X77343000Y-133858000D01*
X77343000Y-132908750D01*
X77597000Y-132908750D01*
X77597000Y-133858000D01*
X78546250Y-133858000D01*
X78705000Y-133699250D01*
X78708072Y-133385000D01*
X78695812Y-133260518D01*
X78659502Y-133140820D01*
X78600537Y-133030506D01*
X78521185Y-132933815D01*
X78424494Y-132854463D01*
X78314180Y-132795498D01*
X78194482Y-132759188D01*
X78070000Y-132746928D01*
X77755750Y-132750000D01*
X77597000Y-132908750D01*
X77343000Y-132908750D01*
X77184250Y-132750000D01*
X76870000Y-132746928D01*
X76745518Y-132759188D01*
X76625820Y-132795498D01*
X76515506Y-132854463D01*
X76418815Y-132933815D01*
X76339463Y-133030506D01*
X76312501Y-133080947D01*
X76257267Y-133025713D01*
X76054992Y-132890557D01*
X75830236Y-132797460D01*
X75591637Y-132750000D01*
X75348363Y-132750000D01*
X75109764Y-132797460D01*
X74885008Y-132890557D01*
X74682733Y-133025713D01*
X74510713Y-133197733D01*
X74375557Y-133400008D01*
X74282460Y-133624764D01*
X74235000Y-133863363D01*
X72415000Y-133863363D01*
X72415000Y-125222000D01*
X82423000Y-125222000D01*
X82423000Y-125949999D01*
%TA.AperFunction,Conductor*%
D27*
G36*
X82423000Y-125949999D02*
G01*
X76432324Y-125949999D01*
X76395001Y-125946323D01*
X76357678Y-125949999D01*
X76357668Y-125949999D01*
X76246015Y-125960996D01*
X76102754Y-126004453D01*
X75970724Y-126075025D01*
X75887084Y-126143667D01*
X75855000Y-126169998D01*
X75831202Y-126198996D01*
X75623801Y-126406398D01*
X75591637Y-126400000D01*
X75348363Y-126400000D01*
X75109764Y-126447460D01*
X74885008Y-126540557D01*
X74682733Y-126675713D01*
X74510713Y-126847733D01*
X74375557Y-127050008D01*
X74282460Y-127274764D01*
X74235000Y-127513363D01*
X74235000Y-127756637D01*
X74282460Y-127995236D01*
X74375557Y-128219992D01*
X74510713Y-128422267D01*
X74682733Y-128594287D01*
X74885008Y-128729443D01*
X75109764Y-128822540D01*
X75348363Y-128870000D01*
X75591637Y-128870000D01*
X75830236Y-128822540D01*
X76054992Y-128729443D01*
X76257267Y-128594287D01*
X76312501Y-128539053D01*
X76339463Y-128589494D01*
X76418815Y-128686185D01*
X76515506Y-128765537D01*
X76625820Y-128824502D01*
X76745518Y-128860812D01*
X76870000Y-128873072D01*
X77184250Y-128870000D01*
X77343000Y-128711250D01*
X77343000Y-127762000D01*
X77597000Y-127762000D01*
X77597000Y-128711250D01*
X77755750Y-128870000D01*
X78070000Y-128873072D01*
X78194482Y-128860812D01*
X78314180Y-128824502D01*
X78424494Y-128765537D01*
X78521185Y-128686185D01*
X78600537Y-128589494D01*
X78659502Y-128479180D01*
X78695812Y-128359482D01*
X78708072Y-128235000D01*
X78705000Y-127920750D01*
X78546250Y-127762000D01*
X77597000Y-127762000D01*
X77343000Y-127762000D01*
X77323000Y-127762000D01*
X77323000Y-127508000D01*
X77343000Y-127508000D01*
X77343000Y-127488000D01*
X77597000Y-127488000D01*
X77597000Y-127508000D01*
X78546250Y-127508000D01*
X78584251Y-127469999D01*
X82423000Y-127469999D01*
X82423000Y-129540000D01*
X82425440Y-129564776D01*
X82432667Y-129588601D01*
X82444403Y-129610557D01*
X82460197Y-129629803D01*
X82479443Y-129645597D01*
X82501399Y-129657333D01*
X82525224Y-129664560D01*
X82550000Y-129667000D01*
X99568000Y-129667000D01*
X99568000Y-130592198D01*
X98673801Y-131486398D01*
X98641637Y-131480000D01*
X98398363Y-131480000D01*
X98159764Y-131527460D01*
X97935008Y-131620557D01*
X97732733Y-131755713D01*
X97677499Y-131810947D01*
X97650537Y-131760506D01*
X97571185Y-131663815D01*
X97474494Y-131584463D01*
X97364180Y-131525498D01*
X97244482Y-131489188D01*
X97120000Y-131476928D01*
X96805750Y-131480000D01*
X96647000Y-131638750D01*
X96647000Y-132588000D01*
X96667000Y-132588000D01*
X96667000Y-132842000D01*
X96647000Y-132842000D01*
X96647000Y-133791250D01*
X96805750Y-133950000D01*
X97120000Y-133953072D01*
X97244482Y-133940812D01*
X97364180Y-133904502D01*
X97474494Y-133845537D01*
X97571185Y-133766185D01*
X97650537Y-133669494D01*
X97677499Y-133619053D01*
X97732733Y-133674287D01*
X97935008Y-133809443D01*
X98159764Y-133902540D01*
X98398363Y-133950000D01*
X98641637Y-133950000D01*
X98673801Y-133943602D01*
X99226200Y-134496002D01*
X99249999Y-134525001D01*
X99365724Y-134619974D01*
X99497753Y-134690546D01*
X99568000Y-134711855D01*
X99568000Y-135274999D01*
X95469803Y-135274999D01*
X94048813Y-133854010D01*
X94099502Y-133759180D01*
X94135812Y-133639482D01*
X94148072Y-133515000D01*
X94146878Y-133315000D01*
X95281928Y-133315000D01*
X95294188Y-133439482D01*
X95330498Y-133559180D01*
X95389463Y-133669494D01*
X95468815Y-133766185D01*
X95565506Y-133845537D01*
X95675820Y-133904502D01*
X95795518Y-133940812D01*
X95920000Y-133953072D01*
X96234250Y-133950000D01*
X96393000Y-133791250D01*
X96393000Y-132842000D01*
X95443750Y-132842000D01*
X95285000Y-133000750D01*
X95281928Y-133315000D01*
X94146878Y-133315000D01*
X94145000Y-133000750D01*
X93986250Y-132842000D01*
X92837000Y-132842000D01*
X92837000Y-132862000D01*
X92583000Y-132862000D01*
X92583000Y-132842000D01*
X91433750Y-132842000D01*
X91275000Y-133000750D01*
X91274527Y-133080001D01*
X89706489Y-133080001D01*
X89750000Y-132861260D01*
X89750000Y-132568740D01*
X89692932Y-132281842D01*
X89580990Y-132011589D01*
X89516452Y-131915000D01*
X91271928Y-131915000D01*
X91275000Y-132429250D01*
X91433750Y-132588000D01*
X92583000Y-132588000D01*
X92583000Y-131438750D01*
X92837000Y-131438750D01*
X92837000Y-132588000D01*
X93986250Y-132588000D01*
X94145000Y-132429250D01*
X94146877Y-132115000D01*
X95281928Y-132115000D01*
X95285000Y-132429250D01*
X95443750Y-132588000D01*
X96393000Y-132588000D01*
X96393000Y-131638750D01*
X96234250Y-131480000D01*
X95920000Y-131476928D01*
X95795518Y-131489188D01*
X95675820Y-131525498D01*
X95565506Y-131584463D01*
X95468815Y-131663815D01*
X95389463Y-131760506D01*
X95330498Y-131870820D01*
X95294188Y-131990518D01*
X95281928Y-132115000D01*
X94146877Y-132115000D01*
X94148072Y-131915000D01*
X94135812Y-131790518D01*
X94099502Y-131670820D01*
X94040537Y-131560506D01*
X93961185Y-131463815D01*
X93864494Y-131384463D01*
X93754180Y-131325498D01*
X93634482Y-131289188D01*
X93510000Y-131276928D01*
X92995750Y-131280000D01*
X92837000Y-131438750D01*
X92583000Y-131438750D01*
X92424250Y-131280000D01*
X91910000Y-131276928D01*
X91785518Y-131289188D01*
X91665820Y-131325498D01*
X91555506Y-131384463D01*
X91458815Y-131463815D01*
X91379463Y-131560506D01*
X91320498Y-131670820D01*
X91284188Y-131790518D01*
X91271928Y-131915000D01*
X89516452Y-131915000D01*
X89418475Y-131768368D01*
X89211632Y-131561525D01*
X88968411Y-131399010D01*
X88698158Y-131287068D01*
X88411260Y-131230000D01*
X88118740Y-131230000D01*
X87831842Y-131287068D01*
X87561589Y-131399010D01*
X87318368Y-131561525D01*
X87186513Y-131693380D01*
X87164502Y-131620820D01*
X87105537Y-131510506D01*
X87026185Y-131413815D01*
X86929494Y-131334463D01*
X86819180Y-131275498D01*
X86699482Y-131239188D01*
X86575000Y-131226928D01*
X84875000Y-131226928D01*
X84750518Y-131239188D01*
X84630820Y-131275498D01*
X84520506Y-131334463D01*
X84423815Y-131413815D01*
X84344463Y-131510506D01*
X84285498Y-131620820D01*
X84249188Y-131740518D01*
X84236928Y-131865000D01*
X84236928Y-132692127D01*
X82681859Y-131137058D01*
X82659853Y-131026426D01*
X82551680Y-130765273D01*
X82394637Y-130530241D01*
X82194759Y-130330363D01*
X81959727Y-130173320D01*
X81698574Y-130065147D01*
X81421335Y-130010000D01*
X81138665Y-130010000D01*
X80861426Y-130065147D01*
X80600273Y-130173320D01*
X80365241Y-130330363D01*
X80165363Y-130530241D01*
X80008320Y-130765273D01*
X79900147Y-131026426D01*
X79845000Y-131303665D01*
X79845000Y-131586335D01*
X79900147Y-131863574D01*
X80008320Y-132124727D01*
X80165363Y-132359759D01*
X80365241Y-132559637D01*
X80597759Y-132715000D01*
X80365241Y-132870363D01*
X80165363Y-133070241D01*
X80008320Y-133305273D01*
X79900147Y-133566426D01*
X79845000Y-133843665D01*
X79845000Y-134126335D01*
X79900147Y-134403574D01*
X80008320Y-134664727D01*
X80165363Y-134899759D01*
X80365241Y-135099637D01*
X80597759Y-135255000D01*
X80365241Y-135410363D01*
X80165363Y-135610241D01*
X80008320Y-135845273D01*
X79900147Y-136106426D01*
X79845000Y-136383665D01*
X79845000Y-136666335D01*
X79900147Y-136943574D01*
X80008320Y-137204727D01*
X80165363Y-137439759D01*
X80365241Y-137639637D01*
X80597759Y-137795000D01*
X80365241Y-137950363D01*
X80165363Y-138150241D01*
X80008320Y-138385273D01*
X79900147Y-138646426D01*
X79845000Y-138923665D01*
X79845000Y-139206335D01*
X79900147Y-139483574D01*
X80008320Y-139744727D01*
X80165363Y-139979759D01*
X80365241Y-140179637D01*
X80597759Y-140335000D01*
X80365241Y-140490363D01*
X80165363Y-140690241D01*
X80008320Y-140925273D01*
X79900147Y-141186426D01*
X79845000Y-141463665D01*
X79845000Y-141746335D01*
X79900147Y-142023574D01*
X80008320Y-142284727D01*
X80165363Y-142519759D01*
X80365241Y-142719637D01*
X80597759Y-142875000D01*
X80365241Y-143030363D01*
X80165363Y-143230241D01*
X80008320Y-143465273D01*
X79900147Y-143726426D01*
X79845000Y-144003665D01*
X79845000Y-144286335D01*
X79900147Y-144563574D01*
X80008320Y-144824727D01*
X80165363Y-145059759D01*
X80365241Y-145259637D01*
X80597759Y-145415000D01*
X80365241Y-145570363D01*
X80165363Y-145770241D01*
X80008320Y-146005273D01*
X79900147Y-146266426D01*
X79845000Y-146543665D01*
X79845000Y-146826335D01*
X79900147Y-147103574D01*
X80008320Y-147364727D01*
X80165363Y-147599759D01*
X80365241Y-147799637D01*
X80597759Y-147955000D01*
X80365241Y-148110363D01*
X80165363Y-148310241D01*
X80008320Y-148545273D01*
X79900147Y-148806426D01*
X79845000Y-149083665D01*
X79845000Y-149366335D01*
X79900147Y-149643574D01*
X80008320Y-149904727D01*
X80165363Y-150139759D01*
X80365241Y-150339637D01*
X80597759Y-150495000D01*
X80365241Y-150650363D01*
X80165363Y-150850241D01*
X80008320Y-151085273D01*
X79900147Y-151346426D01*
X79845000Y-151623665D01*
X79845000Y-151906335D01*
X79900147Y-152183574D01*
X80008320Y-152444727D01*
X80165363Y-152679759D01*
X80363961Y-152878357D01*
X80355518Y-152879188D01*
X80235820Y-152915498D01*
X80125506Y-152974463D01*
X80028815Y-153053815D01*
X79949463Y-153150506D01*
X79890498Y-153260820D01*
X79854188Y-153380518D01*
X79841928Y-153505000D01*
X79845000Y-154019250D01*
X80003750Y-154178000D01*
X81153000Y-154178000D01*
X81153000Y-154158000D01*
X81407000Y-154158000D01*
X81407000Y-154178000D01*
X82556250Y-154178000D01*
X82715000Y-154019250D01*
X82717253Y-153642055D01*
X84283790Y-155208592D01*
X84240000Y-155428740D01*
X84240000Y-155721260D01*
X84297068Y-156008158D01*
X84409010Y-156278411D01*
X84571525Y-156521632D01*
X84778368Y-156728475D01*
X84952760Y-156845000D01*
X84778368Y-156961525D01*
X84571525Y-157168368D01*
X84446822Y-157355000D01*
X82498043Y-157355000D01*
X82394637Y-157200241D01*
X82194759Y-157000363D01*
X81959727Y-156843320D01*
X81698574Y-156735147D01*
X81421335Y-156680000D01*
X81138665Y-156680000D01*
X80861426Y-156735147D01*
X80600273Y-156843320D01*
X80365241Y-157000363D01*
X80165363Y-157200241D01*
X80008320Y-157435273D01*
X79900147Y-157696426D01*
X79845000Y-157973665D01*
X79845000Y-158256335D01*
X79900147Y-158533574D01*
X80008320Y-158794727D01*
X80165363Y-159029759D01*
X80365241Y-159229637D01*
X80597759Y-159385000D01*
X80365241Y-159540363D01*
X80165363Y-159740241D01*
X80008320Y-159975273D01*
X79900147Y-160236426D01*
X79845000Y-160513665D01*
X79845000Y-160796335D01*
X79900147Y-161073574D01*
X80008320Y-161334727D01*
X80165363Y-161569759D01*
X80365241Y-161769637D01*
X80597759Y-161925000D01*
X80365241Y-162080363D01*
X80165363Y-162280241D01*
X80008320Y-162515273D01*
X79900147Y-162776426D01*
X79845000Y-163053665D01*
X79845000Y-163336335D01*
X79900147Y-163613574D01*
X80008320Y-163874727D01*
X80165363Y-164109759D01*
X80365241Y-164309637D01*
X80597759Y-164465000D01*
X80365241Y-164620363D01*
X80165363Y-164820241D01*
X80008320Y-165055273D01*
X79900147Y-165316426D01*
X79845000Y-165593665D01*
X79845000Y-165876335D01*
X79900147Y-166153574D01*
X80008320Y-166414727D01*
X80165363Y-166649759D01*
X80365241Y-166849637D01*
X80597759Y-167005000D01*
X80365241Y-167160363D01*
X80165363Y-167360241D01*
X80008320Y-167595273D01*
X79900147Y-167856426D01*
X79845000Y-168133665D01*
X79845000Y-168416335D01*
X79900147Y-168693574D01*
X80008320Y-168954727D01*
X80165363Y-169189759D01*
X80365241Y-169389637D01*
X80597759Y-169545000D01*
X80365241Y-169700363D01*
X80165363Y-169900241D01*
X80008320Y-170135273D01*
X79900147Y-170396426D01*
X79845000Y-170673665D01*
X79845000Y-170956335D01*
X79900147Y-171233574D01*
X80008320Y-171494727D01*
X80165363Y-171729759D01*
X80365241Y-171929637D01*
X80597759Y-172085000D01*
X80365241Y-172240363D01*
X80165363Y-172440241D01*
X80008320Y-172675273D01*
X79900147Y-172936426D01*
X79845000Y-173213665D01*
X79845000Y-173496335D01*
X79900147Y-173773574D01*
X80008320Y-174034727D01*
X80165363Y-174269759D01*
X80365241Y-174469637D01*
X80597759Y-174625000D01*
X80365241Y-174780363D01*
X80165363Y-174980241D01*
X80008320Y-175215273D01*
X79900147Y-175476426D01*
X79845000Y-175753665D01*
X79845000Y-176036335D01*
X79900147Y-176313574D01*
X80008320Y-176574727D01*
X80165363Y-176809759D01*
X80365241Y-177009637D01*
X80597759Y-177165000D01*
X80365241Y-177320363D01*
X80165363Y-177520241D01*
X80008320Y-177755273D01*
X79900147Y-178016426D01*
X79845000Y-178293665D01*
X79845000Y-178576335D01*
X79900147Y-178853574D01*
X79998077Y-179089999D01*
X77267323Y-179089999D01*
X77230000Y-179086323D01*
X77192677Y-179089999D01*
X77192668Y-179089999D01*
X77081015Y-179100996D01*
X76937754Y-179144453D01*
X76805725Y-179215025D01*
X76690000Y-179309998D01*
X76666202Y-179338996D01*
X75623801Y-180381398D01*
X75591637Y-180375000D01*
X75348363Y-180375000D01*
X75109764Y-180422460D01*
X74885008Y-180515557D01*
X74682733Y-180650713D01*
X74510713Y-180822733D01*
X74375557Y-181025008D01*
X74282460Y-181249764D01*
X74235000Y-181488363D01*
X74235000Y-181731637D01*
X74282460Y-181970236D01*
X74375557Y-182194992D01*
X74510713Y-182397267D01*
X74682733Y-182569287D01*
X74885008Y-182704443D01*
X75109764Y-182797540D01*
X75348363Y-182845000D01*
X75591637Y-182845000D01*
X75830236Y-182797540D01*
X76054992Y-182704443D01*
X76257267Y-182569287D01*
X76312501Y-182514053D01*
X76339463Y-182564494D01*
X76418815Y-182661185D01*
X76515506Y-182740537D01*
X76625820Y-182799502D01*
X76745518Y-182835812D01*
X76870000Y-182848072D01*
X77184250Y-182845000D01*
X77343000Y-182686250D01*
X77343000Y-181737000D01*
X77597000Y-181737000D01*
X77597000Y-182686250D01*
X77755750Y-182845000D01*
X78070000Y-182848072D01*
X78194482Y-182835812D01*
X78314180Y-182799502D01*
X78424494Y-182740537D01*
X78521185Y-182661185D01*
X78600537Y-182564494D01*
X78659502Y-182454180D01*
X78695812Y-182334482D01*
X78708072Y-182210000D01*
X78705000Y-181895750D01*
X78584250Y-181775000D01*
X79841928Y-181775000D01*
X79854188Y-181899482D01*
X79890498Y-182019180D01*
X79949463Y-182129494D01*
X80028815Y-182226185D01*
X80125506Y-182305537D01*
X80235820Y-182364502D01*
X80355518Y-182400812D01*
X80480000Y-182413072D01*
X80994250Y-182410000D01*
X81153000Y-182251250D01*
X81153000Y-181102000D01*
X81407000Y-181102000D01*
X81407000Y-182251250D01*
X81565750Y-182410000D01*
X82080000Y-182413072D01*
X82204482Y-182400812D01*
X82324180Y-182364502D01*
X82434494Y-182305537D01*
X82531185Y-182226185D01*
X82610537Y-182129494D01*
X82669502Y-182019180D01*
X82705812Y-181899482D01*
X82718072Y-181775000D01*
X82715000Y-181260750D01*
X82556250Y-181102000D01*
X81407000Y-181102000D01*
X81153000Y-181102000D01*
X80003750Y-181102000D01*
X79845000Y-181260750D01*
X79841928Y-181775000D01*
X78584250Y-181775000D01*
X78546250Y-181737000D01*
X77597000Y-181737000D01*
X77343000Y-181737000D01*
X77323000Y-181737000D01*
X77323000Y-181483000D01*
X77343000Y-181483000D01*
X77343000Y-181463000D01*
X77597000Y-181463000D01*
X77597000Y-181483000D01*
X78546250Y-181483000D01*
X78705000Y-181324250D01*
X78708072Y-181010000D01*
X78695812Y-180885518D01*
X78659502Y-180765820D01*
X78600537Y-180655506D01*
X78563190Y-180609999D01*
X79844527Y-180609999D01*
X79845000Y-180689250D01*
X80003750Y-180848000D01*
X81153000Y-180848000D01*
X81153000Y-180828000D01*
X81407000Y-180828000D01*
X81407000Y-180848000D01*
X82556250Y-180848000D01*
X82715000Y-180689250D01*
X82715473Y-180609999D01*
X84283511Y-180609999D01*
X84240000Y-180828740D01*
X84240000Y-181121260D01*
X84297068Y-181408158D01*
X84409010Y-181678411D01*
X84571525Y-181921632D01*
X84778368Y-182128475D01*
X85021589Y-182290990D01*
X85291842Y-182402932D01*
X85578740Y-182460000D01*
X85871260Y-182460000D01*
X86158158Y-182402932D01*
X86428411Y-182290990D01*
X86671632Y-182128475D01*
X86878475Y-181921632D01*
X86995000Y-181747240D01*
X87111525Y-181921632D01*
X87318368Y-182128475D01*
X87561589Y-182290990D01*
X87831842Y-182402932D01*
X88118740Y-182460000D01*
X88411260Y-182460000D01*
X88631408Y-182416209D01*
X90096202Y-183881004D01*
X90120000Y-183910002D01*
X90148998Y-183933800D01*
X90235724Y-184004975D01*
X90367754Y-184075547D01*
X90511015Y-184119004D01*
X90571893Y-184125000D01*
X72415000Y-184125000D01*
X72415000Y-175773363D01*
X74235000Y-175773363D01*
X74235000Y-176016637D01*
X74282460Y-176255236D01*
X74375557Y-176479992D01*
X74510713Y-176682267D01*
X74682733Y-176854287D01*
X74885008Y-176989443D01*
X75109764Y-177082540D01*
X75348363Y-177130000D01*
X75591637Y-177130000D01*
X75830236Y-177082540D01*
X76054992Y-176989443D01*
X76257267Y-176854287D01*
X76312501Y-176799053D01*
X76339463Y-176849494D01*
X76418815Y-176946185D01*
X76515506Y-177025537D01*
X76625820Y-177084502D01*
X76745518Y-177120812D01*
X76870000Y-177133072D01*
X77184250Y-177130000D01*
X77343000Y-176971250D01*
X77343000Y-176022000D01*
X77597000Y-176022000D01*
X77597000Y-176971250D01*
X77755750Y-177130000D01*
X78070000Y-177133072D01*
X78194482Y-177120812D01*
X78314180Y-177084502D01*
X78424494Y-177025537D01*
X78521185Y-176946185D01*
X78600537Y-176849494D01*
X78659502Y-176739180D01*
X78695812Y-176619482D01*
X78708072Y-176495000D01*
X78705000Y-176180750D01*
X78546250Y-176022000D01*
X77597000Y-176022000D01*
X77343000Y-176022000D01*
X77323000Y-176022000D01*
X77323000Y-175768000D01*
X77343000Y-175768000D01*
X77343000Y-174818750D01*
X77597000Y-174818750D01*
X77597000Y-175768000D01*
X78546250Y-175768000D01*
X78705000Y-175609250D01*
X78708072Y-175295000D01*
X78695812Y-175170518D01*
X78659502Y-175050820D01*
X78600537Y-174940506D01*
X78521185Y-174843815D01*
X78424494Y-174764463D01*
X78314180Y-174705498D01*
X78194482Y-174669188D01*
X78070000Y-174656928D01*
X77755750Y-174660000D01*
X77597000Y-174818750D01*
X77343000Y-174818750D01*
X77184250Y-174660000D01*
X76870000Y-174656928D01*
X76745518Y-174669188D01*
X76625820Y-174705498D01*
X76515506Y-174764463D01*
X76418815Y-174843815D01*
X76339463Y-174940506D01*
X76312501Y-174990947D01*
X76257267Y-174935713D01*
X76054992Y-174800557D01*
X75830236Y-174707460D01*
X75591637Y-174660000D01*
X75348363Y-174660000D01*
X75109764Y-174707460D01*
X74885008Y-174800557D01*
X74682733Y-174935713D01*
X74510713Y-175107733D01*
X74375557Y-175310008D01*
X74282460Y-175534764D01*
X74235000Y-175773363D01*
X72415000Y-175773363D01*
X72415000Y-170058363D01*
X74235000Y-170058363D01*
X74235000Y-170301637D01*
X74282460Y-170540236D01*
X74375557Y-170764992D01*
X74510713Y-170967267D01*
X74682733Y-171139287D01*
X74885008Y-171274443D01*
X75109764Y-171367540D01*
X75348363Y-171415000D01*
X75591637Y-171415000D01*
X75830236Y-171367540D01*
X76054992Y-171274443D01*
X76257267Y-171139287D01*
X76312501Y-171084053D01*
X76339463Y-171134494D01*
X76418815Y-171231185D01*
X76515506Y-171310537D01*
X76625820Y-171369502D01*
X76745518Y-171405812D01*
X76870000Y-171418072D01*
X77184250Y-171415000D01*
X77343000Y-171256250D01*
X77343000Y-170307000D01*
X77597000Y-170307000D01*
X77597000Y-171256250D01*
X77755750Y-171415000D01*
X78070000Y-171418072D01*
X78194482Y-171405812D01*
X78314180Y-171369502D01*
X78424494Y-171310537D01*
X78521185Y-171231185D01*
X78600537Y-171134494D01*
X78659502Y-171024180D01*
X78695812Y-170904482D01*
X78708072Y-170780000D01*
X78705000Y-170465750D01*
X78546250Y-170307000D01*
X77597000Y-170307000D01*
X77343000Y-170307000D01*
X77323000Y-170307000D01*
X77323000Y-170053000D01*
X77343000Y-170053000D01*
X77343000Y-169103750D01*
X77597000Y-169103750D01*
X77597000Y-170053000D01*
X78546250Y-170053000D01*
X78705000Y-169894250D01*
X78708072Y-169580000D01*
X78695812Y-169455518D01*
X78659502Y-169335820D01*
X78600537Y-169225506D01*
X78521185Y-169128815D01*
X78424494Y-169049463D01*
X78314180Y-168990498D01*
X78194482Y-168954188D01*
X78070000Y-168941928D01*
X77755750Y-168945000D01*
X77597000Y-169103750D01*
X77343000Y-169103750D01*
X77184250Y-168945000D01*
X76870000Y-168941928D01*
X76745518Y-168954188D01*
X76625820Y-168990498D01*
X76515506Y-169049463D01*
X76418815Y-169128815D01*
X76339463Y-169225506D01*
X76312501Y-169275947D01*
X76257267Y-169220713D01*
X76054992Y-169085557D01*
X75830236Y-168992460D01*
X75591637Y-168945000D01*
X75348363Y-168945000D01*
X75109764Y-168992460D01*
X74885008Y-169085557D01*
X74682733Y-169220713D01*
X74510713Y-169392733D01*
X74375557Y-169595008D01*
X74282460Y-169819764D01*
X74235000Y-170058363D01*
X72415000Y-170058363D01*
X72415000Y-163708363D01*
X74235000Y-163708363D01*
X74235000Y-163951637D01*
X74282460Y-164190236D01*
X74375557Y-164414992D01*
X74510713Y-164617267D01*
X74682733Y-164789287D01*
X74885008Y-164924443D01*
X75109764Y-165017540D01*
X75348363Y-165065000D01*
X75591637Y-165065000D01*
X75830236Y-165017540D01*
X76054992Y-164924443D01*
X76257267Y-164789287D01*
X76312501Y-164734053D01*
X76339463Y-164784494D01*
X76418815Y-164881185D01*
X76515506Y-164960537D01*
X76625820Y-165019502D01*
X76745518Y-165055812D01*
X76870000Y-165068072D01*
X77184250Y-165065000D01*
X77343000Y-164906250D01*
X77343000Y-163957000D01*
X77597000Y-163957000D01*
X77597000Y-164906250D01*
X77755750Y-165065000D01*
X78070000Y-165068072D01*
X78194482Y-165055812D01*
X78314180Y-165019502D01*
X78424494Y-164960537D01*
X78521185Y-164881185D01*
X78600537Y-164784494D01*
X78659502Y-164674180D01*
X78695812Y-164554482D01*
X78708072Y-164430000D01*
X78705000Y-164115750D01*
X78546250Y-163957000D01*
X77597000Y-163957000D01*
X77343000Y-163957000D01*
X77323000Y-163957000D01*
X77323000Y-163703000D01*
X77343000Y-163703000D01*
X77343000Y-162753750D01*
X77597000Y-162753750D01*
X77597000Y-163703000D01*
X78546250Y-163703000D01*
X78705000Y-163544250D01*
X78708072Y-163230000D01*
X78695812Y-163105518D01*
X78659502Y-162985820D01*
X78600537Y-162875506D01*
X78521185Y-162778815D01*
X78424494Y-162699463D01*
X78314180Y-162640498D01*
X78194482Y-162604188D01*
X78070000Y-162591928D01*
X77755750Y-162595000D01*
X77597000Y-162753750D01*
X77343000Y-162753750D01*
X77184250Y-162595000D01*
X76870000Y-162591928D01*
X76745518Y-162604188D01*
X76625820Y-162640498D01*
X76515506Y-162699463D01*
X76418815Y-162778815D01*
X76339463Y-162875506D01*
X76312501Y-162925947D01*
X76257267Y-162870713D01*
X76054992Y-162735557D01*
X75830236Y-162642460D01*
X75591637Y-162595000D01*
X75348363Y-162595000D01*
X75109764Y-162642460D01*
X74885008Y-162735557D01*
X74682733Y-162870713D01*
X74510713Y-163042733D01*
X74375557Y-163245008D01*
X74282460Y-163469764D01*
X74235000Y-163708363D01*
X72415000Y-163708363D01*
X72415000Y-157993363D01*
X74235000Y-157993363D01*
X74235000Y-158236637D01*
X74282460Y-158475236D01*
X74375557Y-158699992D01*
X74510713Y-158902267D01*
X74682733Y-159074287D01*
X74885008Y-159209443D01*
X75109764Y-159302540D01*
X75348363Y-159350000D01*
X75591637Y-159350000D01*
X75830236Y-159302540D01*
X76054992Y-159209443D01*
X76257267Y-159074287D01*
X76312501Y-159019053D01*
X76339463Y-159069494D01*
X76418815Y-159166185D01*
X76515506Y-159245537D01*
X76625820Y-159304502D01*
X76745518Y-159340812D01*
X76870000Y-159353072D01*
X77184250Y-159350000D01*
X77343000Y-159191250D01*
X77343000Y-158242000D01*
X77597000Y-158242000D01*
X77597000Y-159191250D01*
X77755750Y-159350000D01*
X78070000Y-159353072D01*
X78194482Y-159340812D01*
X78314180Y-159304502D01*
X78424494Y-159245537D01*
X78521185Y-159166185D01*
X78600537Y-159069494D01*
X78659502Y-158959180D01*
X78695812Y-158839482D01*
X78708072Y-158715000D01*
X78705000Y-158400750D01*
X78546250Y-158242000D01*
X77597000Y-158242000D01*
X77343000Y-158242000D01*
X77323000Y-158242000D01*
X77323000Y-157988000D01*
X77343000Y-157988000D01*
X77343000Y-157038750D01*
X77597000Y-157038750D01*
X77597000Y-157988000D01*
X78546250Y-157988000D01*
X78705000Y-157829250D01*
X78708072Y-157515000D01*
X78695812Y-157390518D01*
X78659502Y-157270820D01*
X78600537Y-157160506D01*
X78521185Y-157063815D01*
X78424494Y-156984463D01*
X78314180Y-156925498D01*
X78194482Y-156889188D01*
X78070000Y-156876928D01*
X77755750Y-156880000D01*
X77597000Y-157038750D01*
X77343000Y-157038750D01*
X77184250Y-156880000D01*
X76870000Y-156876928D01*
X76745518Y-156889188D01*
X76625820Y-156925498D01*
X76515506Y-156984463D01*
X76418815Y-157063815D01*
X76339463Y-157160506D01*
X76312501Y-157210947D01*
X76257267Y-157155713D01*
X76054992Y-157020557D01*
X75830236Y-156927460D01*
X75591637Y-156880000D01*
X75348363Y-156880000D01*
X75109764Y-156927460D01*
X74885008Y-157020557D01*
X74682733Y-157155713D01*
X74510713Y-157327733D01*
X74375557Y-157530008D01*
X74282460Y-157754764D01*
X74235000Y-157993363D01*
X72415000Y-157993363D01*
X72415000Y-155105000D01*
X79841928Y-155105000D01*
X79854188Y-155229482D01*
X79890498Y-155349180D01*
X79949463Y-155459494D01*
X80028815Y-155556185D01*
X80125506Y-155635537D01*
X80235820Y-155694502D01*
X80355518Y-155730812D01*
X80480000Y-155743072D01*
X80994250Y-155740000D01*
X81153000Y-155581250D01*
X81153000Y-154432000D01*
X81407000Y-154432000D01*
X81407000Y-155581250D01*
X81565750Y-155740000D01*
X82080000Y-155743072D01*
X82204482Y-155730812D01*
X82324180Y-155694502D01*
X82434494Y-155635537D01*
X82531185Y-155556185D01*
X82610537Y-155459494D01*
X82669502Y-155349180D01*
X82705812Y-155229482D01*
X82718072Y-155105000D01*
X82715000Y-154590750D01*
X82556250Y-154432000D01*
X81407000Y-154432000D01*
X81153000Y-154432000D01*
X80003750Y-154432000D01*
X79845000Y-154590750D01*
X79841928Y-155105000D01*
X72415000Y-155105000D01*
X72415000Y-151643363D01*
X74330000Y-151643363D01*
X74330000Y-151886637D01*
X74377460Y-152125236D01*
X74470557Y-152349992D01*
X74605713Y-152552267D01*
X74777733Y-152724287D01*
X74980008Y-152859443D01*
X75204764Y-152952540D01*
X75443363Y-153000000D01*
X75686637Y-153000000D01*
X75925236Y-152952540D01*
X76149992Y-152859443D01*
X76352267Y-152724287D01*
X76407501Y-152669053D01*
X76434463Y-152719494D01*
X76513815Y-152816185D01*
X76610506Y-152895537D01*
X76720820Y-152954502D01*
X76840518Y-152990812D01*
X76965000Y-153003072D01*
X77279250Y-153000000D01*
X77438000Y-152841250D01*
X77438000Y-151892000D01*
X77692000Y-151892000D01*
X77692000Y-152841250D01*
X77850750Y-153000000D01*
X78165000Y-153003072D01*
X78289482Y-152990812D01*
X78409180Y-152954502D01*
X78519494Y-152895537D01*
X78616185Y-152816185D01*
X78695537Y-152719494D01*
X78754502Y-152609180D01*
X78790812Y-152489482D01*
X78803072Y-152365000D01*
X78800000Y-152050750D01*
X78641250Y-151892000D01*
X77692000Y-151892000D01*
X77438000Y-151892000D01*
X77418000Y-151892000D01*
X77418000Y-151638000D01*
X77438000Y-151638000D01*
X77438000Y-150688750D01*
X77692000Y-150688750D01*
X77692000Y-151638000D01*
X78641250Y-151638000D01*
X78800000Y-151479250D01*
X78803072Y-151165000D01*
X78790812Y-151040518D01*
X78754502Y-150920820D01*
X78695537Y-150810506D01*
X78616185Y-150713815D01*
X78519494Y-150634463D01*
X78409180Y-150575498D01*
X78289482Y-150539188D01*
X78165000Y-150526928D01*
X77850750Y-150530000D01*
X77692000Y-150688750D01*
X77438000Y-150688750D01*
X77279250Y-150530000D01*
X76965000Y-150526928D01*
X76840518Y-150539188D01*
X76720820Y-150575498D01*
X76610506Y-150634463D01*
X76513815Y-150713815D01*
X76434463Y-150810506D01*
X76407501Y-150860947D01*
X76352267Y-150805713D01*
X76149992Y-150670557D01*
X75925236Y-150577460D01*
X75686637Y-150530000D01*
X75443363Y-150530000D01*
X75204764Y-150577460D01*
X74980008Y-150670557D01*
X74777733Y-150805713D01*
X74605713Y-150977733D01*
X74470557Y-151180008D01*
X74377460Y-151404764D01*
X74330000Y-151643363D01*
X72415000Y-151643363D01*
X72415000Y-145928363D01*
X74235000Y-145928363D01*
X74235000Y-146171637D01*
X74282460Y-146410236D01*
X74375557Y-146634992D01*
X74510713Y-146837267D01*
X74682733Y-147009287D01*
X74885008Y-147144443D01*
X75109764Y-147237540D01*
X75348363Y-147285000D01*
X75591637Y-147285000D01*
X75830236Y-147237540D01*
X76054992Y-147144443D01*
X76257267Y-147009287D01*
X76312501Y-146954053D01*
X76339463Y-147004494D01*
X76418815Y-147101185D01*
X76515506Y-147180537D01*
X76625820Y-147239502D01*
X76745518Y-147275812D01*
X76870000Y-147288072D01*
X77184250Y-147285000D01*
X77343000Y-147126250D01*
X77343000Y-146177000D01*
X77597000Y-146177000D01*
X77597000Y-147126250D01*
X77755750Y-147285000D01*
X78070000Y-147288072D01*
X78194482Y-147275812D01*
X78314180Y-147239502D01*
X78424494Y-147180537D01*
X78521185Y-147101185D01*
X78600537Y-147004494D01*
X78659502Y-146894180D01*
X78695812Y-146774482D01*
X78708072Y-146650000D01*
X78705000Y-146335750D01*
X78546250Y-146177000D01*
X77597000Y-146177000D01*
X77343000Y-146177000D01*
X77323000Y-146177000D01*
X77323000Y-145923000D01*
X77343000Y-145923000D01*
X77343000Y-144973750D01*
X77597000Y-144973750D01*
X77597000Y-145923000D01*
X78546250Y-145923000D01*
X78705000Y-145764250D01*
X78708072Y-145450000D01*
X78695812Y-145325518D01*
X78659502Y-145205820D01*
X78600537Y-145095506D01*
X78521185Y-144998815D01*
X78424494Y-144919463D01*
X78314180Y-144860498D01*
X78194482Y-144824188D01*
X78070000Y-144811928D01*
X77755750Y-144815000D01*
X77597000Y-144973750D01*
X77343000Y-144973750D01*
X77184250Y-144815000D01*
X76870000Y-144811928D01*
X76745518Y-144824188D01*
X76625820Y-144860498D01*
X76515506Y-144919463D01*
X76418815Y-144998815D01*
X76339463Y-145095506D01*
X76312501Y-145145947D01*
X76257267Y-145090713D01*
X76054992Y-144955557D01*
X75830236Y-144862460D01*
X75591637Y-144815000D01*
X75348363Y-144815000D01*
X75109764Y-144862460D01*
X74885008Y-144955557D01*
X74682733Y-145090713D01*
X74510713Y-145262733D01*
X74375557Y-145465008D01*
X74282460Y-145689764D01*
X74235000Y-145928363D01*
X72415000Y-145928363D01*
X72415000Y-140213363D01*
X74235000Y-140213363D01*
X74235000Y-140456637D01*
X74282460Y-140695236D01*
X74375557Y-140919992D01*
X74510713Y-141122267D01*
X74682733Y-141294287D01*
X74885008Y-141429443D01*
X75109764Y-141522540D01*
X75348363Y-141570000D01*
X75591637Y-141570000D01*
X75830236Y-141522540D01*
X76054992Y-141429443D01*
X76257267Y-141294287D01*
X76312501Y-141239053D01*
X76339463Y-141289494D01*
X76418815Y-141386185D01*
X76515506Y-141465537D01*
X76625820Y-141524502D01*
X76745518Y-141560812D01*
X76870000Y-141573072D01*
X77184250Y-141570000D01*
X77343000Y-141411250D01*
X77343000Y-140462000D01*
X77597000Y-140462000D01*
X77597000Y-141411250D01*
X77755750Y-141570000D01*
X78070000Y-141573072D01*
X78194482Y-141560812D01*
X78314180Y-141524502D01*
X78424494Y-141465537D01*
X78521185Y-141386185D01*
X78600537Y-141289494D01*
X78659502Y-141179180D01*
X78695812Y-141059482D01*
X78708072Y-140935000D01*
X78705000Y-140620750D01*
X78546250Y-140462000D01*
X77597000Y-140462000D01*
X77343000Y-140462000D01*
X77323000Y-140462000D01*
X77323000Y-140208000D01*
X77343000Y-140208000D01*
X77343000Y-139258750D01*
X77597000Y-139258750D01*
X77597000Y-140208000D01*
X78546250Y-140208000D01*
X78705000Y-140049250D01*
X78708072Y-139735000D01*
X78695812Y-139610518D01*
X78659502Y-139490820D01*
X78600537Y-139380506D01*
X78521185Y-139283815D01*
X78424494Y-139204463D01*
X78314180Y-139145498D01*
X78194482Y-139109188D01*
X78070000Y-139096928D01*
X77755750Y-139100000D01*
X77597000Y-139258750D01*
X77343000Y-139258750D01*
X77184250Y-139100000D01*
X76870000Y-139096928D01*
X76745518Y-139109188D01*
X76625820Y-139145498D01*
X76515506Y-139204463D01*
X76418815Y-139283815D01*
X76339463Y-139380506D01*
X76312501Y-139430947D01*
X76257267Y-139375713D01*
X76054992Y-139240557D01*
X75830236Y-139147460D01*
X75591637Y-139100000D01*
X75348363Y-139100000D01*
X75109764Y-139147460D01*
X74885008Y-139240557D01*
X74682733Y-139375713D01*
X74510713Y-139547733D01*
X74375557Y-139750008D01*
X74282460Y-139974764D01*
X74235000Y-140213363D01*
X72415000Y-140213363D01*
X72415000Y-133863363D01*
X74235000Y-133863363D01*
X74235000Y-134106637D01*
X74282460Y-134345236D01*
X74375557Y-134569992D01*
X74510713Y-134772267D01*
X74682733Y-134944287D01*
X74885008Y-135079443D01*
X75109764Y-135172540D01*
X75348363Y-135220000D01*
X75591637Y-135220000D01*
X75830236Y-135172540D01*
X76054992Y-135079443D01*
X76257267Y-134944287D01*
X76312501Y-134889053D01*
X76339463Y-134939494D01*
X76418815Y-135036185D01*
X76515506Y-135115537D01*
X76625820Y-135174502D01*
X76745518Y-135210812D01*
X76870000Y-135223072D01*
X77184250Y-135220000D01*
X77343000Y-135061250D01*
X77343000Y-134112000D01*
X77597000Y-134112000D01*
X77597000Y-135061250D01*
X77755750Y-135220000D01*
X78070000Y-135223072D01*
X78194482Y-135210812D01*
X78314180Y-135174502D01*
X78424494Y-135115537D01*
X78521185Y-135036185D01*
X78600537Y-134939494D01*
X78659502Y-134829180D01*
X78695812Y-134709482D01*
X78708072Y-134585000D01*
X78705000Y-134270750D01*
X78546250Y-134112000D01*
X77597000Y-134112000D01*
X77343000Y-134112000D01*
X77323000Y-134112000D01*
X77323000Y-133858000D01*
X77343000Y-133858000D01*
X77343000Y-132908750D01*
X77597000Y-132908750D01*
X77597000Y-133858000D01*
X78546250Y-133858000D01*
X78705000Y-133699250D01*
X78708072Y-133385000D01*
X78695812Y-133260518D01*
X78659502Y-133140820D01*
X78600537Y-133030506D01*
X78521185Y-132933815D01*
X78424494Y-132854463D01*
X78314180Y-132795498D01*
X78194482Y-132759188D01*
X78070000Y-132746928D01*
X77755750Y-132750000D01*
X77597000Y-132908750D01*
X77343000Y-132908750D01*
X77184250Y-132750000D01*
X76870000Y-132746928D01*
X76745518Y-132759188D01*
X76625820Y-132795498D01*
X76515506Y-132854463D01*
X76418815Y-132933815D01*
X76339463Y-133030506D01*
X76312501Y-133080947D01*
X76257267Y-133025713D01*
X76054992Y-132890557D01*
X75830236Y-132797460D01*
X75591637Y-132750000D01*
X75348363Y-132750000D01*
X75109764Y-132797460D01*
X74885008Y-132890557D01*
X74682733Y-133025713D01*
X74510713Y-133197733D01*
X74375557Y-133400008D01*
X74282460Y-133624764D01*
X74235000Y-133863363D01*
X72415000Y-133863363D01*
X72415000Y-125222000D01*
X82423000Y-125222000D01*
X82423000Y-125949999D01*
G37*
%TD.AperFunction*%
D26*
X94591202Y-136546002D02*
X94615000Y-136575000D01*
X94643998Y-136598798D01*
X94730724Y-136669973D01*
X94768192Y-136690000D01*
X94862754Y-136740545D01*
X95006015Y-136784002D01*
X95117668Y-136794999D01*
X95117678Y-136794999D01*
X95155001Y-136798675D01*
X95192324Y-136794999D01*
X99568000Y-136794999D01*
X99568000Y-136942198D01*
X98673801Y-137836398D01*
X98641637Y-137830000D01*
X98398363Y-137830000D01*
X98159764Y-137877460D01*
X97935008Y-137970557D01*
X97732733Y-138105713D01*
X97677499Y-138160947D01*
X97650537Y-138110506D01*
X97571185Y-138013815D01*
X97474494Y-137934463D01*
X97364180Y-137875498D01*
X97244482Y-137839188D01*
X97120000Y-137826928D01*
X96805750Y-137830000D01*
X96647000Y-137988750D01*
X96647000Y-138938000D01*
X96667000Y-138938000D01*
X96667000Y-139192000D01*
X96647000Y-139192000D01*
X96647000Y-140141250D01*
X96805750Y-140300000D01*
X97120000Y-140303072D01*
X97244482Y-140290812D01*
X97364180Y-140254502D01*
X97474494Y-140195537D01*
X97571185Y-140116185D01*
X97650537Y-140019494D01*
X97677499Y-139969053D01*
X97732733Y-140024287D01*
X97935008Y-140159443D01*
X98159764Y-140252540D01*
X98398363Y-140300000D01*
X98641637Y-140300000D01*
X98880236Y-140252540D01*
X99104992Y-140159443D01*
X99307267Y-140024287D01*
X99479287Y-139852267D01*
X99568000Y-139719499D01*
X99568000Y-144760501D01*
X99479287Y-144627733D01*
X99307267Y-144455713D01*
X99104992Y-144320557D01*
X98880236Y-144227460D01*
X98641637Y-144180000D01*
X98398363Y-144180000D01*
X98159764Y-144227460D01*
X97935008Y-144320557D01*
X97732733Y-144455713D01*
X97677499Y-144510947D01*
X97650537Y-144460506D01*
X97571185Y-144363815D01*
X97474494Y-144284463D01*
X97364180Y-144225498D01*
X97244482Y-144189188D01*
X97120000Y-144176928D01*
X96805750Y-144180000D01*
X96647000Y-144338750D01*
X96647000Y-145288000D01*
X96667000Y-145288000D01*
X96667000Y-145542000D01*
X96647000Y-145542000D01*
X96647000Y-146491250D01*
X96805750Y-146650000D01*
X97120000Y-146653072D01*
X97244482Y-146640812D01*
X97364180Y-146604502D01*
X97474494Y-146545537D01*
X97571185Y-146466185D01*
X97650537Y-146369494D01*
X97677499Y-146319053D01*
X97732733Y-146374287D01*
X97935008Y-146509443D01*
X98159764Y-146602540D01*
X98398363Y-146650000D01*
X98641637Y-146650000D01*
X98880236Y-146602540D01*
X99104992Y-146509443D01*
X99307267Y-146374287D01*
X99479287Y-146202267D01*
X99568000Y-146069499D01*
X99568000Y-150475501D01*
X99479287Y-150342733D01*
X99307267Y-150170713D01*
X99104992Y-150035557D01*
X98880236Y-149942460D01*
X98641637Y-149895000D01*
X98398363Y-149895000D01*
X98159764Y-149942460D01*
X97935008Y-150035557D01*
X97732733Y-150170713D01*
X97677499Y-150225947D01*
X97650537Y-150175506D01*
X97571185Y-150078815D01*
X97474494Y-149999463D01*
X97364180Y-149940498D01*
X97244482Y-149904188D01*
X97120000Y-149891928D01*
X96805750Y-149895000D01*
X96647000Y-150053750D01*
X96647000Y-151003000D01*
X96667000Y-151003000D01*
X96667000Y-151257000D01*
X96647000Y-151257000D01*
X96647000Y-152206250D01*
X96805750Y-152365000D01*
X97120000Y-152368072D01*
X97244482Y-152355812D01*
X97364180Y-152319502D01*
X97474494Y-152260537D01*
X97571185Y-152181185D01*
X97650537Y-152084494D01*
X97677499Y-152034053D01*
X97732733Y-152089287D01*
X97935008Y-152224443D01*
X98159764Y-152317540D01*
X98398363Y-152365000D01*
X98641637Y-152365000D01*
X98880236Y-152317540D01*
X99104992Y-152224443D01*
X99307267Y-152089287D01*
X99479287Y-151917267D01*
X99568000Y-151784499D01*
X99568000Y-156825501D01*
X99479287Y-156692733D01*
X99307267Y-156520713D01*
X99104992Y-156385557D01*
X98880236Y-156292460D01*
X98641637Y-156245000D01*
X98398363Y-156245000D01*
X98159764Y-156292460D01*
X97935008Y-156385557D01*
X97732733Y-156520713D01*
X97677499Y-156575947D01*
X97650537Y-156525506D01*
X97571185Y-156428815D01*
X97474494Y-156349463D01*
X97364180Y-156290498D01*
X97244482Y-156254188D01*
X97120000Y-156241928D01*
X96805750Y-156245000D01*
X96647000Y-156403750D01*
X96647000Y-157353000D01*
X96667000Y-157353000D01*
X96667000Y-157607000D01*
X96647000Y-157607000D01*
X96647000Y-158556250D01*
X96805750Y-158715000D01*
X97120000Y-158718072D01*
X97244482Y-158705812D01*
X97364180Y-158669502D01*
X97474494Y-158610537D01*
X97571185Y-158531185D01*
X97650537Y-158434494D01*
X97677499Y-158384053D01*
X97732733Y-158439287D01*
X97935008Y-158574443D01*
X98159764Y-158667540D01*
X98398363Y-158715000D01*
X98641637Y-158715000D01*
X98880236Y-158667540D01*
X99104992Y-158574443D01*
X99307267Y-158439287D01*
X99479287Y-158267267D01*
X99568000Y-158134499D01*
X99568000Y-163175501D01*
X99479287Y-163042733D01*
X99307267Y-162870713D01*
X99104992Y-162735557D01*
X98880236Y-162642460D01*
X98641637Y-162595000D01*
X98398363Y-162595000D01*
X98159764Y-162642460D01*
X97935008Y-162735557D01*
X97732733Y-162870713D01*
X97677499Y-162925947D01*
X97650537Y-162875506D01*
X97571185Y-162778815D01*
X97474494Y-162699463D01*
X97364180Y-162640498D01*
X97244482Y-162604188D01*
X97120000Y-162591928D01*
X96805750Y-162595000D01*
X96647000Y-162753750D01*
X96647000Y-163703000D01*
X96667000Y-163703000D01*
X96667000Y-163957000D01*
X96647000Y-163957000D01*
X96647000Y-164906250D01*
X96805750Y-165065000D01*
X97120000Y-165068072D01*
X97244482Y-165055812D01*
X97364180Y-165019502D01*
X97474494Y-164960537D01*
X97571185Y-164881185D01*
X97650537Y-164784494D01*
X97677499Y-164734053D01*
X97732733Y-164789287D01*
X97935008Y-164924443D01*
X98159764Y-165017540D01*
X98398363Y-165065000D01*
X98641637Y-165065000D01*
X98880236Y-165017540D01*
X99104992Y-164924443D01*
X99307267Y-164789287D01*
X99479287Y-164617267D01*
X99568000Y-164484499D01*
X99568000Y-168890501D01*
X99479287Y-168757733D01*
X99307267Y-168585713D01*
X99104992Y-168450557D01*
X98880236Y-168357460D01*
X98641637Y-168310000D01*
X98398363Y-168310000D01*
X98159764Y-168357460D01*
X97935008Y-168450557D01*
X97732733Y-168585713D01*
X97677499Y-168640947D01*
X97650537Y-168590506D01*
X97571185Y-168493815D01*
X97474494Y-168414463D01*
X97364180Y-168355498D01*
X97244482Y-168319188D01*
X97120000Y-168306928D01*
X96805750Y-168310000D01*
X96647000Y-168468750D01*
X96647000Y-169418000D01*
X96667000Y-169418000D01*
X96667000Y-169672000D01*
X96647000Y-169672000D01*
X96647000Y-170621250D01*
X96805750Y-170780000D01*
X97120000Y-170783072D01*
X97244482Y-170770812D01*
X97364180Y-170734502D01*
X97474494Y-170675537D01*
X97571185Y-170596185D01*
X97650537Y-170499494D01*
X97677499Y-170449053D01*
X97732733Y-170504287D01*
X97935008Y-170639443D01*
X98159764Y-170732540D01*
X98398363Y-170780000D01*
X98641637Y-170780000D01*
X98679042Y-170772560D01*
X98730724Y-170814974D01*
X98862753Y-170885546D01*
X99006014Y-170929003D01*
X99155000Y-170943677D01*
X99192333Y-170940000D01*
X99568000Y-170940000D01*
X99568000Y-174605501D01*
X99479287Y-174472733D01*
X99307267Y-174300713D01*
X99104992Y-174165557D01*
X98880236Y-174072460D01*
X98641637Y-174025000D01*
X98398363Y-174025000D01*
X98159764Y-174072460D01*
X97935008Y-174165557D01*
X97732733Y-174300713D01*
X97677499Y-174355947D01*
X97650537Y-174305506D01*
X97571185Y-174208815D01*
X97474494Y-174129463D01*
X97364180Y-174070498D01*
X97244482Y-174034188D01*
X97120000Y-174021928D01*
X96805750Y-174025000D01*
X96647000Y-174183750D01*
X96647000Y-175133000D01*
X96667000Y-175133000D01*
X96667000Y-175387000D01*
X96647000Y-175387000D01*
X96647000Y-176336250D01*
X96805750Y-176495000D01*
X97120000Y-176498072D01*
X97244482Y-176485812D01*
X97364180Y-176449502D01*
X97474494Y-176390537D01*
X97571185Y-176311185D01*
X97650537Y-176214494D01*
X97677499Y-176164053D01*
X97732733Y-176219287D01*
X97935008Y-176354443D01*
X98159764Y-176447540D01*
X98398363Y-176495000D01*
X98641637Y-176495000D01*
X98880236Y-176447540D01*
X99104992Y-176354443D01*
X99307267Y-176219287D01*
X99479287Y-176047267D01*
X99568000Y-175914499D01*
X99568000Y-180955501D01*
X99479287Y-180822733D01*
X99307267Y-180650713D01*
X99104992Y-180515557D01*
X98880236Y-180422460D01*
X98641637Y-180375000D01*
X98398363Y-180375000D01*
X98159764Y-180422460D01*
X97935008Y-180515557D01*
X97732733Y-180650713D01*
X97677499Y-180705947D01*
X97650537Y-180655506D01*
X97571185Y-180558815D01*
X97474494Y-180479463D01*
X97364180Y-180420498D01*
X97244482Y-180384188D01*
X97120000Y-180371928D01*
X96805750Y-180375000D01*
X96647000Y-180533750D01*
X96647000Y-181483000D01*
X96667000Y-181483000D01*
X96667000Y-181737000D01*
X96647000Y-181737000D01*
X96647000Y-181757000D01*
X96393000Y-181757000D01*
X96393000Y-181737000D01*
X95443750Y-181737000D01*
X95285000Y-181895750D01*
X95281928Y-182210000D01*
X95294188Y-182334482D01*
X95330498Y-182454180D01*
X95389463Y-182564494D01*
X95426810Y-182610001D01*
X94100509Y-182610001D01*
X94145000Y-182386335D01*
X94145000Y-182103665D01*
X94089853Y-181826426D01*
X93981680Y-181565273D01*
X93824637Y-181330241D01*
X93624759Y-181130363D01*
X93444623Y-181010000D01*
X95281928Y-181010000D01*
X95285000Y-181324250D01*
X95443750Y-181483000D01*
X96393000Y-181483000D01*
X96393000Y-180533750D01*
X96234250Y-180375000D01*
X95920000Y-180371928D01*
X95795518Y-180384188D01*
X95675820Y-180420498D01*
X95565506Y-180479463D01*
X95468815Y-180558815D01*
X95389463Y-180655506D01*
X95330498Y-180765820D01*
X95294188Y-180885518D01*
X95281928Y-181010000D01*
X93444623Y-181010000D01*
X93392241Y-180975000D01*
X93624759Y-180819637D01*
X93824637Y-180619759D01*
X93981680Y-180384727D01*
X94089853Y-180123574D01*
X94145000Y-179846335D01*
X94145000Y-179563665D01*
X94089853Y-179286426D01*
X93981680Y-179025273D01*
X93824637Y-178790241D01*
X93624759Y-178590363D01*
X93392241Y-178435000D01*
X93624759Y-178279637D01*
X93824637Y-178079759D01*
X93981680Y-177844727D01*
X94089853Y-177583574D01*
X94145000Y-177306335D01*
X94145000Y-177023665D01*
X94089853Y-176746426D01*
X93981680Y-176485273D01*
X93824637Y-176250241D01*
X93624759Y-176050363D01*
X93392241Y-175895000D01*
X93444622Y-175860000D01*
X95281928Y-175860000D01*
X95294188Y-175984482D01*
X95330498Y-176104180D01*
X95389463Y-176214494D01*
X95468815Y-176311185D01*
X95565506Y-176390537D01*
X95675820Y-176449502D01*
X95795518Y-176485812D01*
X95920000Y-176498072D01*
X96234250Y-176495000D01*
X96393000Y-176336250D01*
X96393000Y-175387000D01*
X95443750Y-175387000D01*
X95285000Y-175545750D01*
X95281928Y-175860000D01*
X93444622Y-175860000D01*
X93624759Y-175739637D01*
X93824637Y-175539759D01*
X93981680Y-175304727D01*
X94089853Y-175043574D01*
X94145000Y-174766335D01*
X94145000Y-174660000D01*
X95281928Y-174660000D01*
X95285000Y-174974250D01*
X95443750Y-175133000D01*
X96393000Y-175133000D01*
X96393000Y-174183750D01*
X96234250Y-174025000D01*
X95920000Y-174021928D01*
X95795518Y-174034188D01*
X95675820Y-174070498D01*
X95565506Y-174129463D01*
X95468815Y-174208815D01*
X95389463Y-174305506D01*
X95330498Y-174415820D01*
X95294188Y-174535518D01*
X95281928Y-174660000D01*
X94145000Y-174660000D01*
X94145000Y-174483665D01*
X94089853Y-174206426D01*
X93981680Y-173945273D01*
X93824637Y-173710241D01*
X93624759Y-173510363D01*
X93392241Y-173355000D01*
X93624759Y-173199637D01*
X93824637Y-172999759D01*
X93981680Y-172764727D01*
X94089853Y-172503574D01*
X94145000Y-172226335D01*
X94145000Y-171943665D01*
X94089853Y-171666426D01*
X93981680Y-171405273D01*
X93824637Y-171170241D01*
X93624759Y-170970363D01*
X93392241Y-170815000D01*
X93624759Y-170659637D01*
X93824637Y-170459759D01*
X93981680Y-170224727D01*
X94014703Y-170145000D01*
X95281928Y-170145000D01*
X95294188Y-170269482D01*
X95330498Y-170389180D01*
X95389463Y-170499494D01*
X95468815Y-170596185D01*
X95565506Y-170675537D01*
X95675820Y-170734502D01*
X95795518Y-170770812D01*
X95920000Y-170783072D01*
X96234250Y-170780000D01*
X96393000Y-170621250D01*
X96393000Y-169672000D01*
X95443750Y-169672000D01*
X95285000Y-169830750D01*
X95281928Y-170145000D01*
X94014703Y-170145000D01*
X94089853Y-169963574D01*
X94145000Y-169686335D01*
X94145000Y-169403665D01*
X94089853Y-169126426D01*
X94014704Y-168945000D01*
X95281928Y-168945000D01*
X95285000Y-169259250D01*
X95443750Y-169418000D01*
X96393000Y-169418000D01*
X96393000Y-168468750D01*
X96234250Y-168310000D01*
X95920000Y-168306928D01*
X95795518Y-168319188D01*
X95675820Y-168355498D01*
X95565506Y-168414463D01*
X95468815Y-168493815D01*
X95389463Y-168590506D01*
X95330498Y-168700820D01*
X95294188Y-168820518D01*
X95281928Y-168945000D01*
X94014704Y-168945000D01*
X93981680Y-168865273D01*
X93824637Y-168630241D01*
X93624759Y-168430363D01*
X93392241Y-168275000D01*
X93624759Y-168119637D01*
X93824637Y-167919759D01*
X93981680Y-167684727D01*
X94089853Y-167423574D01*
X94145000Y-167146335D01*
X94145000Y-166863665D01*
X94089853Y-166586426D01*
X93981680Y-166325273D01*
X93824637Y-166090241D01*
X93624759Y-165890363D01*
X93392241Y-165735000D01*
X93624759Y-165579637D01*
X93824637Y-165379759D01*
X93981680Y-165144727D01*
X94089853Y-164883574D01*
X94145000Y-164606335D01*
X94145000Y-164430000D01*
X95281928Y-164430000D01*
X95294188Y-164554482D01*
X95330498Y-164674180D01*
X95389463Y-164784494D01*
X95468815Y-164881185D01*
X95565506Y-164960537D01*
X95675820Y-165019502D01*
X95795518Y-165055812D01*
X95920000Y-165068072D01*
X96234250Y-165065000D01*
X96393000Y-164906250D01*
X96393000Y-163957000D01*
X95443750Y-163957000D01*
X95285000Y-164115750D01*
X95281928Y-164430000D01*
X94145000Y-164430000D01*
X94145000Y-164323665D01*
X94089853Y-164046426D01*
X93981680Y-163785273D01*
X93824637Y-163550241D01*
X93624759Y-163350363D01*
X93444623Y-163230000D01*
X95281928Y-163230000D01*
X95285000Y-163544250D01*
X95443750Y-163703000D01*
X96393000Y-163703000D01*
X96393000Y-162753750D01*
X96234250Y-162595000D01*
X95920000Y-162591928D01*
X95795518Y-162604188D01*
X95675820Y-162640498D01*
X95565506Y-162699463D01*
X95468815Y-162778815D01*
X95389463Y-162875506D01*
X95330498Y-162985820D01*
X95294188Y-163105518D01*
X95281928Y-163230000D01*
X93444623Y-163230000D01*
X93392241Y-163195000D01*
X93624759Y-163039637D01*
X93824637Y-162839759D01*
X93981680Y-162604727D01*
X94089853Y-162343574D01*
X94145000Y-162066335D01*
X94145000Y-161783665D01*
X94089853Y-161506426D01*
X93981680Y-161245273D01*
X93824637Y-161010241D01*
X93626039Y-160811643D01*
X93634482Y-160810812D01*
X93754180Y-160774502D01*
X93864494Y-160715537D01*
X93961185Y-160636185D01*
X94040537Y-160539494D01*
X94099502Y-160429180D01*
X94135812Y-160309482D01*
X94148072Y-160185000D01*
X94145000Y-159670750D01*
X93986250Y-159512000D01*
X92837000Y-159512000D01*
X92837000Y-159532000D01*
X92583000Y-159532000D01*
X92583000Y-159512000D01*
X91433750Y-159512000D01*
X91402776Y-159542974D01*
X90444802Y-158585000D01*
X91271928Y-158585000D01*
X91275000Y-159099250D01*
X91433750Y-159258000D01*
X92583000Y-159258000D01*
X92583000Y-158108750D01*
X92837000Y-158108750D01*
X92837000Y-159258000D01*
X93986250Y-159258000D01*
X94145000Y-159099250D01*
X94148072Y-158585000D01*
X94135812Y-158460518D01*
X94099502Y-158340820D01*
X94040537Y-158230506D01*
X93961185Y-158133815D01*
X93895612Y-158080000D01*
X95281928Y-158080000D01*
X95294188Y-158204482D01*
X95330498Y-158324180D01*
X95389463Y-158434494D01*
X95468815Y-158531185D01*
X95565506Y-158610537D01*
X95675820Y-158669502D01*
X95795518Y-158705812D01*
X95920000Y-158718072D01*
X96234250Y-158715000D01*
X96393000Y-158556250D01*
X96393000Y-157607000D01*
X95443750Y-157607000D01*
X95285000Y-157765750D01*
X95281928Y-158080000D01*
X93895612Y-158080000D01*
X93864494Y-158054463D01*
X93754180Y-157995498D01*
X93634482Y-157959188D01*
X93510000Y-157946928D01*
X92995750Y-157950000D01*
X92837000Y-158108750D01*
X92583000Y-158108750D01*
X92424250Y-157950000D01*
X91910000Y-157946928D01*
X91785518Y-157959188D01*
X91665820Y-157995498D01*
X91555506Y-158054463D01*
X91458815Y-158133815D01*
X91379463Y-158230506D01*
X91320498Y-158340820D01*
X91284188Y-158460518D01*
X91271928Y-158585000D01*
X90444802Y-158585000D01*
X89730498Y-157870697D01*
X89692932Y-157681842D01*
X89580990Y-157411589D01*
X89418475Y-157168368D01*
X89211632Y-156961525D01*
X89037240Y-156845000D01*
X89211632Y-156728475D01*
X89418475Y-156521632D01*
X89543178Y-156335000D01*
X91491957Y-156335000D01*
X91595363Y-156489759D01*
X91795241Y-156689637D01*
X92030273Y-156846680D01*
X92291426Y-156954853D01*
X92568665Y-157010000D01*
X92851335Y-157010000D01*
X93128574Y-156954853D01*
X93309285Y-156880000D01*
X95281928Y-156880000D01*
X95285000Y-157194250D01*
X95443750Y-157353000D01*
X96393000Y-157353000D01*
X96393000Y-156403750D01*
X96234250Y-156245000D01*
X95920000Y-156241928D01*
X95795518Y-156254188D01*
X95675820Y-156290498D01*
X95565506Y-156349463D01*
X95468815Y-156428815D01*
X95389463Y-156525506D01*
X95330498Y-156635820D01*
X95294188Y-156755518D01*
X95281928Y-156880000D01*
X93309285Y-156880000D01*
X93389727Y-156846680D01*
X93624759Y-156689637D01*
X93824637Y-156489759D01*
X93981680Y-156254727D01*
X94089853Y-155993574D01*
X94145000Y-155716335D01*
X94145000Y-155433665D01*
X94089853Y-155156426D01*
X93981680Y-154895273D01*
X93824637Y-154660241D01*
X93624759Y-154460363D01*
X93392241Y-154305000D01*
X93624759Y-154149637D01*
X93824637Y-153949759D01*
X93981680Y-153714727D01*
X94089853Y-153453574D01*
X94145000Y-153176335D01*
X94145000Y-152893665D01*
X94089853Y-152616426D01*
X93981680Y-152355273D01*
X93824637Y-152120241D01*
X93624759Y-151920363D01*
X93392241Y-151765000D01*
X93444622Y-151730000D01*
X95281928Y-151730000D01*
X95294188Y-151854482D01*
X95330498Y-151974180D01*
X95389463Y-152084494D01*
X95468815Y-152181185D01*
X95565506Y-152260537D01*
X95675820Y-152319502D01*
X95795518Y-152355812D01*
X95920000Y-152368072D01*
X96234250Y-152365000D01*
X96393000Y-152206250D01*
X96393000Y-151257000D01*
X95443750Y-151257000D01*
X95285000Y-151415750D01*
X95281928Y-151730000D01*
X93444622Y-151730000D01*
X93624759Y-151609637D01*
X93824637Y-151409759D01*
X93981680Y-151174727D01*
X94089853Y-150913574D01*
X94145000Y-150636335D01*
X94145000Y-150530000D01*
X95281928Y-150530000D01*
X95285000Y-150844250D01*
X95443750Y-151003000D01*
X96393000Y-151003000D01*
X96393000Y-150053750D01*
X96234250Y-149895000D01*
X95920000Y-149891928D01*
X95795518Y-149904188D01*
X95675820Y-149940498D01*
X95565506Y-149999463D01*
X95468815Y-150078815D01*
X95389463Y-150175506D01*
X95330498Y-150285820D01*
X95294188Y-150405518D01*
X95281928Y-150530000D01*
X94145000Y-150530000D01*
X94145000Y-150353665D01*
X94089853Y-150076426D01*
X93981680Y-149815273D01*
X93824637Y-149580241D01*
X93624759Y-149380363D01*
X93392241Y-149225000D01*
X93624759Y-149069637D01*
X93824637Y-148869759D01*
X93981680Y-148634727D01*
X94089853Y-148373574D01*
X94145000Y-148096335D01*
X94145000Y-147813665D01*
X94089853Y-147536426D01*
X93981680Y-147275273D01*
X93824637Y-147040241D01*
X93624759Y-146840363D01*
X93392241Y-146685000D01*
X93624759Y-146529637D01*
X93824637Y-146329759D01*
X93981680Y-146094727D01*
X94014703Y-146015000D01*
X95281928Y-146015000D01*
X95294188Y-146139482D01*
X95330498Y-146259180D01*
X95389463Y-146369494D01*
X95468815Y-146466185D01*
X95565506Y-146545537D01*
X95675820Y-146604502D01*
X95795518Y-146640812D01*
X95920000Y-146653072D01*
X96234250Y-146650000D01*
X96393000Y-146491250D01*
X96393000Y-145542000D01*
X95443750Y-145542000D01*
X95285000Y-145700750D01*
X95281928Y-146015000D01*
X94014703Y-146015000D01*
X94089853Y-145833574D01*
X94145000Y-145556335D01*
X94145000Y-145273665D01*
X94089853Y-144996426D01*
X94014704Y-144815000D01*
X95281928Y-144815000D01*
X95285000Y-145129250D01*
X95443750Y-145288000D01*
X96393000Y-145288000D01*
X96393000Y-144338750D01*
X96234250Y-144180000D01*
X95920000Y-144176928D01*
X95795518Y-144189188D01*
X95675820Y-144225498D01*
X95565506Y-144284463D01*
X95468815Y-144363815D01*
X95389463Y-144460506D01*
X95330498Y-144570820D01*
X95294188Y-144690518D01*
X95281928Y-144815000D01*
X94014704Y-144815000D01*
X93981680Y-144735273D01*
X93824637Y-144500241D01*
X93624759Y-144300363D01*
X93392241Y-144145000D01*
X93624759Y-143989637D01*
X93824637Y-143789759D01*
X93981680Y-143554727D01*
X94089853Y-143293574D01*
X94145000Y-143016335D01*
X94145000Y-142733665D01*
X94089853Y-142456426D01*
X93981680Y-142195273D01*
X93824637Y-141960241D01*
X93624759Y-141760363D01*
X93392241Y-141605000D01*
X93624759Y-141449637D01*
X93824637Y-141249759D01*
X93981680Y-141014727D01*
X94089853Y-140753574D01*
X94145000Y-140476335D01*
X94145000Y-140193665D01*
X94089853Y-139916426D01*
X93985710Y-139665000D01*
X95281928Y-139665000D01*
X95294188Y-139789482D01*
X95330498Y-139909180D01*
X95389463Y-140019494D01*
X95468815Y-140116185D01*
X95565506Y-140195537D01*
X95675820Y-140254502D01*
X95795518Y-140290812D01*
X95920000Y-140303072D01*
X96234250Y-140300000D01*
X96393000Y-140141250D01*
X96393000Y-139192000D01*
X95443750Y-139192000D01*
X95285000Y-139350750D01*
X95281928Y-139665000D01*
X93985710Y-139665000D01*
X93981680Y-139655273D01*
X93824637Y-139420241D01*
X93624759Y-139220363D01*
X93392241Y-139065000D01*
X93624759Y-138909637D01*
X93824637Y-138709759D01*
X93981680Y-138474727D01*
X93985709Y-138465000D01*
X95281928Y-138465000D01*
X95285000Y-138779250D01*
X95443750Y-138938000D01*
X96393000Y-138938000D01*
X96393000Y-137988750D01*
X96234250Y-137830000D01*
X95920000Y-137826928D01*
X95795518Y-137839188D01*
X95675820Y-137875498D01*
X95565506Y-137934463D01*
X95468815Y-138013815D01*
X95389463Y-138110506D01*
X95330498Y-138220820D01*
X95294188Y-138340518D01*
X95281928Y-138465000D01*
X93985709Y-138465000D01*
X94089853Y-138213574D01*
X94145000Y-137936335D01*
X94145000Y-137653665D01*
X94089853Y-137376426D01*
X93981680Y-137115273D01*
X93824637Y-136880241D01*
X93624759Y-136680363D01*
X93392241Y-136525000D01*
X93624759Y-136369637D01*
X93824637Y-136169759D01*
X93980978Y-135935778D01*
X94591202Y-136546002D01*
%TA.AperFunction,Conductor*%
D27*
G36*
X94591202Y-136546002D02*
G01*
X94615000Y-136575000D01*
X94643998Y-136598798D01*
X94730724Y-136669973D01*
X94768192Y-136690000D01*
X94862754Y-136740545D01*
X95006015Y-136784002D01*
X95117668Y-136794999D01*
X95117678Y-136794999D01*
X95155001Y-136798675D01*
X95192324Y-136794999D01*
X99568000Y-136794999D01*
X99568000Y-136942198D01*
X98673801Y-137836398D01*
X98641637Y-137830000D01*
X98398363Y-137830000D01*
X98159764Y-137877460D01*
X97935008Y-137970557D01*
X97732733Y-138105713D01*
X97677499Y-138160947D01*
X97650537Y-138110506D01*
X97571185Y-138013815D01*
X97474494Y-137934463D01*
X97364180Y-137875498D01*
X97244482Y-137839188D01*
X97120000Y-137826928D01*
X96805750Y-137830000D01*
X96647000Y-137988750D01*
X96647000Y-138938000D01*
X96667000Y-138938000D01*
X96667000Y-139192000D01*
X96647000Y-139192000D01*
X96647000Y-140141250D01*
X96805750Y-140300000D01*
X97120000Y-140303072D01*
X97244482Y-140290812D01*
X97364180Y-140254502D01*
X97474494Y-140195537D01*
X97571185Y-140116185D01*
X97650537Y-140019494D01*
X97677499Y-139969053D01*
X97732733Y-140024287D01*
X97935008Y-140159443D01*
X98159764Y-140252540D01*
X98398363Y-140300000D01*
X98641637Y-140300000D01*
X98880236Y-140252540D01*
X99104992Y-140159443D01*
X99307267Y-140024287D01*
X99479287Y-139852267D01*
X99568000Y-139719499D01*
X99568000Y-144760501D01*
X99479287Y-144627733D01*
X99307267Y-144455713D01*
X99104992Y-144320557D01*
X98880236Y-144227460D01*
X98641637Y-144180000D01*
X98398363Y-144180000D01*
X98159764Y-144227460D01*
X97935008Y-144320557D01*
X97732733Y-144455713D01*
X97677499Y-144510947D01*
X97650537Y-144460506D01*
X97571185Y-144363815D01*
X97474494Y-144284463D01*
X97364180Y-144225498D01*
X97244482Y-144189188D01*
X97120000Y-144176928D01*
X96805750Y-144180000D01*
X96647000Y-144338750D01*
X96647000Y-145288000D01*
X96667000Y-145288000D01*
X96667000Y-145542000D01*
X96647000Y-145542000D01*
X96647000Y-146491250D01*
X96805750Y-146650000D01*
X97120000Y-146653072D01*
X97244482Y-146640812D01*
X97364180Y-146604502D01*
X97474494Y-146545537D01*
X97571185Y-146466185D01*
X97650537Y-146369494D01*
X97677499Y-146319053D01*
X97732733Y-146374287D01*
X97935008Y-146509443D01*
X98159764Y-146602540D01*
X98398363Y-146650000D01*
X98641637Y-146650000D01*
X98880236Y-146602540D01*
X99104992Y-146509443D01*
X99307267Y-146374287D01*
X99479287Y-146202267D01*
X99568000Y-146069499D01*
X99568000Y-150475501D01*
X99479287Y-150342733D01*
X99307267Y-150170713D01*
X99104992Y-150035557D01*
X98880236Y-149942460D01*
X98641637Y-149895000D01*
X98398363Y-149895000D01*
X98159764Y-149942460D01*
X97935008Y-150035557D01*
X97732733Y-150170713D01*
X97677499Y-150225947D01*
X97650537Y-150175506D01*
X97571185Y-150078815D01*
X97474494Y-149999463D01*
X97364180Y-149940498D01*
X97244482Y-149904188D01*
X97120000Y-149891928D01*
X96805750Y-149895000D01*
X96647000Y-150053750D01*
X96647000Y-151003000D01*
X96667000Y-151003000D01*
X96667000Y-151257000D01*
X96647000Y-151257000D01*
X96647000Y-152206250D01*
X96805750Y-152365000D01*
X97120000Y-152368072D01*
X97244482Y-152355812D01*
X97364180Y-152319502D01*
X97474494Y-152260537D01*
X97571185Y-152181185D01*
X97650537Y-152084494D01*
X97677499Y-152034053D01*
X97732733Y-152089287D01*
X97935008Y-152224443D01*
X98159764Y-152317540D01*
X98398363Y-152365000D01*
X98641637Y-152365000D01*
X98880236Y-152317540D01*
X99104992Y-152224443D01*
X99307267Y-152089287D01*
X99479287Y-151917267D01*
X99568000Y-151784499D01*
X99568000Y-156825501D01*
X99479287Y-156692733D01*
X99307267Y-156520713D01*
X99104992Y-156385557D01*
X98880236Y-156292460D01*
X98641637Y-156245000D01*
X98398363Y-156245000D01*
X98159764Y-156292460D01*
X97935008Y-156385557D01*
X97732733Y-156520713D01*
X97677499Y-156575947D01*
X97650537Y-156525506D01*
X97571185Y-156428815D01*
X97474494Y-156349463D01*
X97364180Y-156290498D01*
X97244482Y-156254188D01*
X97120000Y-156241928D01*
X96805750Y-156245000D01*
X96647000Y-156403750D01*
X96647000Y-157353000D01*
X96667000Y-157353000D01*
X96667000Y-157607000D01*
X96647000Y-157607000D01*
X96647000Y-158556250D01*
X96805750Y-158715000D01*
X97120000Y-158718072D01*
X97244482Y-158705812D01*
X97364180Y-158669502D01*
X97474494Y-158610537D01*
X97571185Y-158531185D01*
X97650537Y-158434494D01*
X97677499Y-158384053D01*
X97732733Y-158439287D01*
X97935008Y-158574443D01*
X98159764Y-158667540D01*
X98398363Y-158715000D01*
X98641637Y-158715000D01*
X98880236Y-158667540D01*
X99104992Y-158574443D01*
X99307267Y-158439287D01*
X99479287Y-158267267D01*
X99568000Y-158134499D01*
X99568000Y-163175501D01*
X99479287Y-163042733D01*
X99307267Y-162870713D01*
X99104992Y-162735557D01*
X98880236Y-162642460D01*
X98641637Y-162595000D01*
X98398363Y-162595000D01*
X98159764Y-162642460D01*
X97935008Y-162735557D01*
X97732733Y-162870713D01*
X97677499Y-162925947D01*
X97650537Y-162875506D01*
X97571185Y-162778815D01*
X97474494Y-162699463D01*
X97364180Y-162640498D01*
X97244482Y-162604188D01*
X97120000Y-162591928D01*
X96805750Y-162595000D01*
X96647000Y-162753750D01*
X96647000Y-163703000D01*
X96667000Y-163703000D01*
X96667000Y-163957000D01*
X96647000Y-163957000D01*
X96647000Y-164906250D01*
X96805750Y-165065000D01*
X97120000Y-165068072D01*
X97244482Y-165055812D01*
X97364180Y-165019502D01*
X97474494Y-164960537D01*
X97571185Y-164881185D01*
X97650537Y-164784494D01*
X97677499Y-164734053D01*
X97732733Y-164789287D01*
X97935008Y-164924443D01*
X98159764Y-165017540D01*
X98398363Y-165065000D01*
X98641637Y-165065000D01*
X98880236Y-165017540D01*
X99104992Y-164924443D01*
X99307267Y-164789287D01*
X99479287Y-164617267D01*
X99568000Y-164484499D01*
X99568000Y-168890501D01*
X99479287Y-168757733D01*
X99307267Y-168585713D01*
X99104992Y-168450557D01*
X98880236Y-168357460D01*
X98641637Y-168310000D01*
X98398363Y-168310000D01*
X98159764Y-168357460D01*
X97935008Y-168450557D01*
X97732733Y-168585713D01*
X97677499Y-168640947D01*
X97650537Y-168590506D01*
X97571185Y-168493815D01*
X97474494Y-168414463D01*
X97364180Y-168355498D01*
X97244482Y-168319188D01*
X97120000Y-168306928D01*
X96805750Y-168310000D01*
X96647000Y-168468750D01*
X96647000Y-169418000D01*
X96667000Y-169418000D01*
X96667000Y-169672000D01*
X96647000Y-169672000D01*
X96647000Y-170621250D01*
X96805750Y-170780000D01*
X97120000Y-170783072D01*
X97244482Y-170770812D01*
X97364180Y-170734502D01*
X97474494Y-170675537D01*
X97571185Y-170596185D01*
X97650537Y-170499494D01*
X97677499Y-170449053D01*
X97732733Y-170504287D01*
X97935008Y-170639443D01*
X98159764Y-170732540D01*
X98398363Y-170780000D01*
X98641637Y-170780000D01*
X98679042Y-170772560D01*
X98730724Y-170814974D01*
X98862753Y-170885546D01*
X99006014Y-170929003D01*
X99155000Y-170943677D01*
X99192333Y-170940000D01*
X99568000Y-170940000D01*
X99568000Y-174605501D01*
X99479287Y-174472733D01*
X99307267Y-174300713D01*
X99104992Y-174165557D01*
X98880236Y-174072460D01*
X98641637Y-174025000D01*
X98398363Y-174025000D01*
X98159764Y-174072460D01*
X97935008Y-174165557D01*
X97732733Y-174300713D01*
X97677499Y-174355947D01*
X97650537Y-174305506D01*
X97571185Y-174208815D01*
X97474494Y-174129463D01*
X97364180Y-174070498D01*
X97244482Y-174034188D01*
X97120000Y-174021928D01*
X96805750Y-174025000D01*
X96647000Y-174183750D01*
X96647000Y-175133000D01*
X96667000Y-175133000D01*
X96667000Y-175387000D01*
X96647000Y-175387000D01*
X96647000Y-176336250D01*
X96805750Y-176495000D01*
X97120000Y-176498072D01*
X97244482Y-176485812D01*
X97364180Y-176449502D01*
X97474494Y-176390537D01*
X97571185Y-176311185D01*
X97650537Y-176214494D01*
X97677499Y-176164053D01*
X97732733Y-176219287D01*
X97935008Y-176354443D01*
X98159764Y-176447540D01*
X98398363Y-176495000D01*
X98641637Y-176495000D01*
X98880236Y-176447540D01*
X99104992Y-176354443D01*
X99307267Y-176219287D01*
X99479287Y-176047267D01*
X99568000Y-175914499D01*
X99568000Y-180955501D01*
X99479287Y-180822733D01*
X99307267Y-180650713D01*
X99104992Y-180515557D01*
X98880236Y-180422460D01*
X98641637Y-180375000D01*
X98398363Y-180375000D01*
X98159764Y-180422460D01*
X97935008Y-180515557D01*
X97732733Y-180650713D01*
X97677499Y-180705947D01*
X97650537Y-180655506D01*
X97571185Y-180558815D01*
X97474494Y-180479463D01*
X97364180Y-180420498D01*
X97244482Y-180384188D01*
X97120000Y-180371928D01*
X96805750Y-180375000D01*
X96647000Y-180533750D01*
X96647000Y-181483000D01*
X96667000Y-181483000D01*
X96667000Y-181737000D01*
X96647000Y-181737000D01*
X96647000Y-181757000D01*
X96393000Y-181757000D01*
X96393000Y-181737000D01*
X95443750Y-181737000D01*
X95285000Y-181895750D01*
X95281928Y-182210000D01*
X95294188Y-182334482D01*
X95330498Y-182454180D01*
X95389463Y-182564494D01*
X95426810Y-182610001D01*
X94100509Y-182610001D01*
X94145000Y-182386335D01*
X94145000Y-182103665D01*
X94089853Y-181826426D01*
X93981680Y-181565273D01*
X93824637Y-181330241D01*
X93624759Y-181130363D01*
X93444623Y-181010000D01*
X95281928Y-181010000D01*
X95285000Y-181324250D01*
X95443750Y-181483000D01*
X96393000Y-181483000D01*
X96393000Y-180533750D01*
X96234250Y-180375000D01*
X95920000Y-180371928D01*
X95795518Y-180384188D01*
X95675820Y-180420498D01*
X95565506Y-180479463D01*
X95468815Y-180558815D01*
X95389463Y-180655506D01*
X95330498Y-180765820D01*
X95294188Y-180885518D01*
X95281928Y-181010000D01*
X93444623Y-181010000D01*
X93392241Y-180975000D01*
X93624759Y-180819637D01*
X93824637Y-180619759D01*
X93981680Y-180384727D01*
X94089853Y-180123574D01*
X94145000Y-179846335D01*
X94145000Y-179563665D01*
X94089853Y-179286426D01*
X93981680Y-179025273D01*
X93824637Y-178790241D01*
X93624759Y-178590363D01*
X93392241Y-178435000D01*
X93624759Y-178279637D01*
X93824637Y-178079759D01*
X93981680Y-177844727D01*
X94089853Y-177583574D01*
X94145000Y-177306335D01*
X94145000Y-177023665D01*
X94089853Y-176746426D01*
X93981680Y-176485273D01*
X93824637Y-176250241D01*
X93624759Y-176050363D01*
X93392241Y-175895000D01*
X93444622Y-175860000D01*
X95281928Y-175860000D01*
X95294188Y-175984482D01*
X95330498Y-176104180D01*
X95389463Y-176214494D01*
X95468815Y-176311185D01*
X95565506Y-176390537D01*
X95675820Y-176449502D01*
X95795518Y-176485812D01*
X95920000Y-176498072D01*
X96234250Y-176495000D01*
X96393000Y-176336250D01*
X96393000Y-175387000D01*
X95443750Y-175387000D01*
X95285000Y-175545750D01*
X95281928Y-175860000D01*
X93444622Y-175860000D01*
X93624759Y-175739637D01*
X93824637Y-175539759D01*
X93981680Y-175304727D01*
X94089853Y-175043574D01*
X94145000Y-174766335D01*
X94145000Y-174660000D01*
X95281928Y-174660000D01*
X95285000Y-174974250D01*
X95443750Y-175133000D01*
X96393000Y-175133000D01*
X96393000Y-174183750D01*
X96234250Y-174025000D01*
X95920000Y-174021928D01*
X95795518Y-174034188D01*
X95675820Y-174070498D01*
X95565506Y-174129463D01*
X95468815Y-174208815D01*
X95389463Y-174305506D01*
X95330498Y-174415820D01*
X95294188Y-174535518D01*
X95281928Y-174660000D01*
X94145000Y-174660000D01*
X94145000Y-174483665D01*
X94089853Y-174206426D01*
X93981680Y-173945273D01*
X93824637Y-173710241D01*
X93624759Y-173510363D01*
X93392241Y-173355000D01*
X93624759Y-173199637D01*
X93824637Y-172999759D01*
X93981680Y-172764727D01*
X94089853Y-172503574D01*
X94145000Y-172226335D01*
X94145000Y-171943665D01*
X94089853Y-171666426D01*
X93981680Y-171405273D01*
X93824637Y-171170241D01*
X93624759Y-170970363D01*
X93392241Y-170815000D01*
X93624759Y-170659637D01*
X93824637Y-170459759D01*
X93981680Y-170224727D01*
X94014703Y-170145000D01*
X95281928Y-170145000D01*
X95294188Y-170269482D01*
X95330498Y-170389180D01*
X95389463Y-170499494D01*
X95468815Y-170596185D01*
X95565506Y-170675537D01*
X95675820Y-170734502D01*
X95795518Y-170770812D01*
X95920000Y-170783072D01*
X96234250Y-170780000D01*
X96393000Y-170621250D01*
X96393000Y-169672000D01*
X95443750Y-169672000D01*
X95285000Y-169830750D01*
X95281928Y-170145000D01*
X94014703Y-170145000D01*
X94089853Y-169963574D01*
X94145000Y-169686335D01*
X94145000Y-169403665D01*
X94089853Y-169126426D01*
X94014704Y-168945000D01*
X95281928Y-168945000D01*
X95285000Y-169259250D01*
X95443750Y-169418000D01*
X96393000Y-169418000D01*
X96393000Y-168468750D01*
X96234250Y-168310000D01*
X95920000Y-168306928D01*
X95795518Y-168319188D01*
X95675820Y-168355498D01*
X95565506Y-168414463D01*
X95468815Y-168493815D01*
X95389463Y-168590506D01*
X95330498Y-168700820D01*
X95294188Y-168820518D01*
X95281928Y-168945000D01*
X94014704Y-168945000D01*
X93981680Y-168865273D01*
X93824637Y-168630241D01*
X93624759Y-168430363D01*
X93392241Y-168275000D01*
X93624759Y-168119637D01*
X93824637Y-167919759D01*
X93981680Y-167684727D01*
X94089853Y-167423574D01*
X94145000Y-167146335D01*
X94145000Y-166863665D01*
X94089853Y-166586426D01*
X93981680Y-166325273D01*
X93824637Y-166090241D01*
X93624759Y-165890363D01*
X93392241Y-165735000D01*
X93624759Y-165579637D01*
X93824637Y-165379759D01*
X93981680Y-165144727D01*
X94089853Y-164883574D01*
X94145000Y-164606335D01*
X94145000Y-164430000D01*
X95281928Y-164430000D01*
X95294188Y-164554482D01*
X95330498Y-164674180D01*
X95389463Y-164784494D01*
X95468815Y-164881185D01*
X95565506Y-164960537D01*
X95675820Y-165019502D01*
X95795518Y-165055812D01*
X95920000Y-165068072D01*
X96234250Y-165065000D01*
X96393000Y-164906250D01*
X96393000Y-163957000D01*
X95443750Y-163957000D01*
X95285000Y-164115750D01*
X95281928Y-164430000D01*
X94145000Y-164430000D01*
X94145000Y-164323665D01*
X94089853Y-164046426D01*
X93981680Y-163785273D01*
X93824637Y-163550241D01*
X93624759Y-163350363D01*
X93444623Y-163230000D01*
X95281928Y-163230000D01*
X95285000Y-163544250D01*
X95443750Y-163703000D01*
X96393000Y-163703000D01*
X96393000Y-162753750D01*
X96234250Y-162595000D01*
X95920000Y-162591928D01*
X95795518Y-162604188D01*
X95675820Y-162640498D01*
X95565506Y-162699463D01*
X95468815Y-162778815D01*
X95389463Y-162875506D01*
X95330498Y-162985820D01*
X95294188Y-163105518D01*
X95281928Y-163230000D01*
X93444623Y-163230000D01*
X93392241Y-163195000D01*
X93624759Y-163039637D01*
X93824637Y-162839759D01*
X93981680Y-162604727D01*
X94089853Y-162343574D01*
X94145000Y-162066335D01*
X94145000Y-161783665D01*
X94089853Y-161506426D01*
X93981680Y-161245273D01*
X93824637Y-161010241D01*
X93626039Y-160811643D01*
X93634482Y-160810812D01*
X93754180Y-160774502D01*
X93864494Y-160715537D01*
X93961185Y-160636185D01*
X94040537Y-160539494D01*
X94099502Y-160429180D01*
X94135812Y-160309482D01*
X94148072Y-160185000D01*
X94145000Y-159670750D01*
X93986250Y-159512000D01*
X92837000Y-159512000D01*
X92837000Y-159532000D01*
X92583000Y-159532000D01*
X92583000Y-159512000D01*
X91433750Y-159512000D01*
X91402776Y-159542974D01*
X90444802Y-158585000D01*
X91271928Y-158585000D01*
X91275000Y-159099250D01*
X91433750Y-159258000D01*
X92583000Y-159258000D01*
X92583000Y-158108750D01*
X92837000Y-158108750D01*
X92837000Y-159258000D01*
X93986250Y-159258000D01*
X94145000Y-159099250D01*
X94148072Y-158585000D01*
X94135812Y-158460518D01*
X94099502Y-158340820D01*
X94040537Y-158230506D01*
X93961185Y-158133815D01*
X93895612Y-158080000D01*
X95281928Y-158080000D01*
X95294188Y-158204482D01*
X95330498Y-158324180D01*
X95389463Y-158434494D01*
X95468815Y-158531185D01*
X95565506Y-158610537D01*
X95675820Y-158669502D01*
X95795518Y-158705812D01*
X95920000Y-158718072D01*
X96234250Y-158715000D01*
X96393000Y-158556250D01*
X96393000Y-157607000D01*
X95443750Y-157607000D01*
X95285000Y-157765750D01*
X95281928Y-158080000D01*
X93895612Y-158080000D01*
X93864494Y-158054463D01*
X93754180Y-157995498D01*
X93634482Y-157959188D01*
X93510000Y-157946928D01*
X92995750Y-157950000D01*
X92837000Y-158108750D01*
X92583000Y-158108750D01*
X92424250Y-157950000D01*
X91910000Y-157946928D01*
X91785518Y-157959188D01*
X91665820Y-157995498D01*
X91555506Y-158054463D01*
X91458815Y-158133815D01*
X91379463Y-158230506D01*
X91320498Y-158340820D01*
X91284188Y-158460518D01*
X91271928Y-158585000D01*
X90444802Y-158585000D01*
X89730498Y-157870697D01*
X89692932Y-157681842D01*
X89580990Y-157411589D01*
X89418475Y-157168368D01*
X89211632Y-156961525D01*
X89037240Y-156845000D01*
X89211632Y-156728475D01*
X89418475Y-156521632D01*
X89543178Y-156335000D01*
X91491957Y-156335000D01*
X91595363Y-156489759D01*
X91795241Y-156689637D01*
X92030273Y-156846680D01*
X92291426Y-156954853D01*
X92568665Y-157010000D01*
X92851335Y-157010000D01*
X93128574Y-156954853D01*
X93309285Y-156880000D01*
X95281928Y-156880000D01*
X95285000Y-157194250D01*
X95443750Y-157353000D01*
X96393000Y-157353000D01*
X96393000Y-156403750D01*
X96234250Y-156245000D01*
X95920000Y-156241928D01*
X95795518Y-156254188D01*
X95675820Y-156290498D01*
X95565506Y-156349463D01*
X95468815Y-156428815D01*
X95389463Y-156525506D01*
X95330498Y-156635820D01*
X95294188Y-156755518D01*
X95281928Y-156880000D01*
X93309285Y-156880000D01*
X93389727Y-156846680D01*
X93624759Y-156689637D01*
X93824637Y-156489759D01*
X93981680Y-156254727D01*
X94089853Y-155993574D01*
X94145000Y-155716335D01*
X94145000Y-155433665D01*
X94089853Y-155156426D01*
X93981680Y-154895273D01*
X93824637Y-154660241D01*
X93624759Y-154460363D01*
X93392241Y-154305000D01*
X93624759Y-154149637D01*
X93824637Y-153949759D01*
X93981680Y-153714727D01*
X94089853Y-153453574D01*
X94145000Y-153176335D01*
X94145000Y-152893665D01*
X94089853Y-152616426D01*
X93981680Y-152355273D01*
X93824637Y-152120241D01*
X93624759Y-151920363D01*
X93392241Y-151765000D01*
X93444622Y-151730000D01*
X95281928Y-151730000D01*
X95294188Y-151854482D01*
X95330498Y-151974180D01*
X95389463Y-152084494D01*
X95468815Y-152181185D01*
X95565506Y-152260537D01*
X95675820Y-152319502D01*
X95795518Y-152355812D01*
X95920000Y-152368072D01*
X96234250Y-152365000D01*
X96393000Y-152206250D01*
X96393000Y-151257000D01*
X95443750Y-151257000D01*
X95285000Y-151415750D01*
X95281928Y-151730000D01*
X93444622Y-151730000D01*
X93624759Y-151609637D01*
X93824637Y-151409759D01*
X93981680Y-151174727D01*
X94089853Y-150913574D01*
X94145000Y-150636335D01*
X94145000Y-150530000D01*
X95281928Y-150530000D01*
X95285000Y-150844250D01*
X95443750Y-151003000D01*
X96393000Y-151003000D01*
X96393000Y-150053750D01*
X96234250Y-149895000D01*
X95920000Y-149891928D01*
X95795518Y-149904188D01*
X95675820Y-149940498D01*
X95565506Y-149999463D01*
X95468815Y-150078815D01*
X95389463Y-150175506D01*
X95330498Y-150285820D01*
X95294188Y-150405518D01*
X95281928Y-150530000D01*
X94145000Y-150530000D01*
X94145000Y-150353665D01*
X94089853Y-150076426D01*
X93981680Y-149815273D01*
X93824637Y-149580241D01*
X93624759Y-149380363D01*
X93392241Y-149225000D01*
X93624759Y-149069637D01*
X93824637Y-148869759D01*
X93981680Y-148634727D01*
X94089853Y-148373574D01*
X94145000Y-148096335D01*
X94145000Y-147813665D01*
X94089853Y-147536426D01*
X93981680Y-147275273D01*
X93824637Y-147040241D01*
X93624759Y-146840363D01*
X93392241Y-146685000D01*
X93624759Y-146529637D01*
X93824637Y-146329759D01*
X93981680Y-146094727D01*
X94014703Y-146015000D01*
X95281928Y-146015000D01*
X95294188Y-146139482D01*
X95330498Y-146259180D01*
X95389463Y-146369494D01*
X95468815Y-146466185D01*
X95565506Y-146545537D01*
X95675820Y-146604502D01*
X95795518Y-146640812D01*
X95920000Y-146653072D01*
X96234250Y-146650000D01*
X96393000Y-146491250D01*
X96393000Y-145542000D01*
X95443750Y-145542000D01*
X95285000Y-145700750D01*
X95281928Y-146015000D01*
X94014703Y-146015000D01*
X94089853Y-145833574D01*
X94145000Y-145556335D01*
X94145000Y-145273665D01*
X94089853Y-144996426D01*
X94014704Y-144815000D01*
X95281928Y-144815000D01*
X95285000Y-145129250D01*
X95443750Y-145288000D01*
X96393000Y-145288000D01*
X96393000Y-144338750D01*
X96234250Y-144180000D01*
X95920000Y-144176928D01*
X95795518Y-144189188D01*
X95675820Y-144225498D01*
X95565506Y-144284463D01*
X95468815Y-144363815D01*
X95389463Y-144460506D01*
X95330498Y-144570820D01*
X95294188Y-144690518D01*
X95281928Y-144815000D01*
X94014704Y-144815000D01*
X93981680Y-144735273D01*
X93824637Y-144500241D01*
X93624759Y-144300363D01*
X93392241Y-144145000D01*
X93624759Y-143989637D01*
X93824637Y-143789759D01*
X93981680Y-143554727D01*
X94089853Y-143293574D01*
X94145000Y-143016335D01*
X94145000Y-142733665D01*
X94089853Y-142456426D01*
X93981680Y-142195273D01*
X93824637Y-141960241D01*
X93624759Y-141760363D01*
X93392241Y-141605000D01*
X93624759Y-141449637D01*
X93824637Y-141249759D01*
X93981680Y-141014727D01*
X94089853Y-140753574D01*
X94145000Y-140476335D01*
X94145000Y-140193665D01*
X94089853Y-139916426D01*
X93985710Y-139665000D01*
X95281928Y-139665000D01*
X95294188Y-139789482D01*
X95330498Y-139909180D01*
X95389463Y-140019494D01*
X95468815Y-140116185D01*
X95565506Y-140195537D01*
X95675820Y-140254502D01*
X95795518Y-140290812D01*
X95920000Y-140303072D01*
X96234250Y-140300000D01*
X96393000Y-140141250D01*
X96393000Y-139192000D01*
X95443750Y-139192000D01*
X95285000Y-139350750D01*
X95281928Y-139665000D01*
X93985710Y-139665000D01*
X93981680Y-139655273D01*
X93824637Y-139420241D01*
X93624759Y-139220363D01*
X93392241Y-139065000D01*
X93624759Y-138909637D01*
X93824637Y-138709759D01*
X93981680Y-138474727D01*
X93985709Y-138465000D01*
X95281928Y-138465000D01*
X95285000Y-138779250D01*
X95443750Y-138938000D01*
X96393000Y-138938000D01*
X96393000Y-137988750D01*
X96234250Y-137830000D01*
X95920000Y-137826928D01*
X95795518Y-137839188D01*
X95675820Y-137875498D01*
X95565506Y-137934463D01*
X95468815Y-138013815D01*
X95389463Y-138110506D01*
X95330498Y-138220820D01*
X95294188Y-138340518D01*
X95281928Y-138465000D01*
X93985709Y-138465000D01*
X94089853Y-138213574D01*
X94145000Y-137936335D01*
X94145000Y-137653665D01*
X94089853Y-137376426D01*
X93981680Y-137115273D01*
X93824637Y-136880241D01*
X93624759Y-136680363D01*
X93392241Y-136525000D01*
X93624759Y-136369637D01*
X93824637Y-136169759D01*
X93980978Y-135935778D01*
X94591202Y-136546002D01*
G37*
%TD.AperFunction*%
%TD*%
M02*
