%TF.GenerationSoftware,KiCad,Pcbnew,(5.1.10)-1*%
%TF.CreationDate,2022-02-19T10:08:03+01:00*%
%TF.ProjectId,Busterm,42757374-6572-46d2-9e6b-696361645f70,rev?*%
%TF.SameCoordinates,Original*%
%TF.FileFunction,Legend,Top*%
%TF.FilePolarity,Positive*%
%FSLAX46Y46*%
G04 Gerber Fmt 4.6, Leading zero omitted, Abs format (unit mm)*
G04 Created by KiCad (PCBNEW (5.1.10)-1) date 2022-02-19 10:08:03*
%MOMM*%
%LPD*%
G01*
G04 APERTURE LIST*
%ADD10C,0.120000*%
%ADD11C,0.150000*%
G04 APERTURE END LIST*
D10*
%TO.C,J1001*%
X84395000Y-182305000D02*
X89595000Y-182305000D01*
X84395000Y-133985000D02*
X84395000Y-182305000D01*
X89595000Y-131385000D02*
X89595000Y-182305000D01*
X84395000Y-133985000D02*
X86995000Y-133985000D01*
X86995000Y-133985000D02*
X86995000Y-131385000D01*
X86995000Y-131385000D02*
X89595000Y-131385000D01*
X84395000Y-132715000D02*
X84395000Y-131385000D01*
X84395000Y-131385000D02*
X85725000Y-131385000D01*
%TO.C,C1001*%
X100025000Y-124245000D02*
X100025000Y-124310000D01*
X100025000Y-122070000D02*
X100025000Y-122135000D01*
X96785000Y-124245000D02*
X96785000Y-124310000D01*
X96785000Y-122070000D02*
X96785000Y-122135000D01*
X96785000Y-124310000D02*
X100025000Y-124310000D01*
X96785000Y-122070000D02*
X100025000Y-122070000D01*
%TO.C,C1002*%
X99640000Y-157480000D02*
G75*
G03*
X99640000Y-157480000I-2120000J0D01*
G01*
X97520000Y-155400000D02*
X97520000Y-159560000D01*
X97560000Y-155400000D02*
X97560000Y-159560000D01*
X97600000Y-155401000D02*
X97600000Y-159559000D01*
X97640000Y-155403000D02*
X97640000Y-159557000D01*
X97680000Y-155406000D02*
X97680000Y-159554000D01*
X97720000Y-155409000D02*
X97720000Y-156640000D01*
X97720000Y-158320000D02*
X97720000Y-159551000D01*
X97760000Y-155413000D02*
X97760000Y-156640000D01*
X97760000Y-158320000D02*
X97760000Y-159547000D01*
X97800000Y-155418000D02*
X97800000Y-156640000D01*
X97800000Y-158320000D02*
X97800000Y-159542000D01*
X97840000Y-155424000D02*
X97840000Y-156640000D01*
X97840000Y-158320000D02*
X97840000Y-159536000D01*
X97880000Y-155430000D02*
X97880000Y-156640000D01*
X97880000Y-158320000D02*
X97880000Y-159530000D01*
X97920000Y-155438000D02*
X97920000Y-156640000D01*
X97920000Y-158320000D02*
X97920000Y-159522000D01*
X97960000Y-155446000D02*
X97960000Y-156640000D01*
X97960000Y-158320000D02*
X97960000Y-159514000D01*
X98000000Y-155455000D02*
X98000000Y-156640000D01*
X98000000Y-158320000D02*
X98000000Y-159505000D01*
X98040000Y-155464000D02*
X98040000Y-156640000D01*
X98040000Y-158320000D02*
X98040000Y-159496000D01*
X98080000Y-155475000D02*
X98080000Y-156640000D01*
X98080000Y-158320000D02*
X98080000Y-159485000D01*
X98120000Y-155486000D02*
X98120000Y-156640000D01*
X98120000Y-158320000D02*
X98120000Y-159474000D01*
X98160000Y-155498000D02*
X98160000Y-156640000D01*
X98160000Y-158320000D02*
X98160000Y-159462000D01*
X98200000Y-155512000D02*
X98200000Y-156640000D01*
X98200000Y-158320000D02*
X98200000Y-159448000D01*
X98241000Y-155526000D02*
X98241000Y-156640000D01*
X98241000Y-158320000D02*
X98241000Y-159434000D01*
X98281000Y-155540000D02*
X98281000Y-156640000D01*
X98281000Y-158320000D02*
X98281000Y-159420000D01*
X98321000Y-155556000D02*
X98321000Y-156640000D01*
X98321000Y-158320000D02*
X98321000Y-159404000D01*
X98361000Y-155573000D02*
X98361000Y-156640000D01*
X98361000Y-158320000D02*
X98361000Y-159387000D01*
X98401000Y-155591000D02*
X98401000Y-156640000D01*
X98401000Y-158320000D02*
X98401000Y-159369000D01*
X98441000Y-155610000D02*
X98441000Y-156640000D01*
X98441000Y-158320000D02*
X98441000Y-159350000D01*
X98481000Y-155629000D02*
X98481000Y-156640000D01*
X98481000Y-158320000D02*
X98481000Y-159331000D01*
X98521000Y-155650000D02*
X98521000Y-156640000D01*
X98521000Y-158320000D02*
X98521000Y-159310000D01*
X98561000Y-155672000D02*
X98561000Y-156640000D01*
X98561000Y-158320000D02*
X98561000Y-159288000D01*
X98601000Y-155695000D02*
X98601000Y-156640000D01*
X98601000Y-158320000D02*
X98601000Y-159265000D01*
X98641000Y-155720000D02*
X98641000Y-156640000D01*
X98641000Y-158320000D02*
X98641000Y-159240000D01*
X98681000Y-155745000D02*
X98681000Y-156640000D01*
X98681000Y-158320000D02*
X98681000Y-159215000D01*
X98721000Y-155772000D02*
X98721000Y-156640000D01*
X98721000Y-158320000D02*
X98721000Y-159188000D01*
X98761000Y-155800000D02*
X98761000Y-156640000D01*
X98761000Y-158320000D02*
X98761000Y-159160000D01*
X98801000Y-155830000D02*
X98801000Y-156640000D01*
X98801000Y-158320000D02*
X98801000Y-159130000D01*
X98841000Y-155861000D02*
X98841000Y-156640000D01*
X98841000Y-158320000D02*
X98841000Y-159099000D01*
X98881000Y-155893000D02*
X98881000Y-156640000D01*
X98881000Y-158320000D02*
X98881000Y-159067000D01*
X98921000Y-155928000D02*
X98921000Y-156640000D01*
X98921000Y-158320000D02*
X98921000Y-159032000D01*
X98961000Y-155964000D02*
X98961000Y-156640000D01*
X98961000Y-158320000D02*
X98961000Y-158996000D01*
X99001000Y-156002000D02*
X99001000Y-156640000D01*
X99001000Y-158320000D02*
X99001000Y-158958000D01*
X99041000Y-156042000D02*
X99041000Y-156640000D01*
X99041000Y-158320000D02*
X99041000Y-158918000D01*
X99081000Y-156084000D02*
X99081000Y-156640000D01*
X99081000Y-158320000D02*
X99081000Y-158876000D01*
X99121000Y-156129000D02*
X99121000Y-156640000D01*
X99121000Y-158320000D02*
X99121000Y-158831000D01*
X99161000Y-156176000D02*
X99161000Y-156640000D01*
X99161000Y-158320000D02*
X99161000Y-158784000D01*
X99201000Y-156226000D02*
X99201000Y-156640000D01*
X99201000Y-158320000D02*
X99201000Y-158734000D01*
X99241000Y-156280000D02*
X99241000Y-156640000D01*
X99241000Y-158320000D02*
X99241000Y-158680000D01*
X99281000Y-156338000D02*
X99281000Y-156640000D01*
X99281000Y-158320000D02*
X99281000Y-158622000D01*
X99321000Y-156400000D02*
X99321000Y-156640000D01*
X99321000Y-158320000D02*
X99321000Y-158560000D01*
X99361000Y-156467000D02*
X99361000Y-158493000D01*
X99401000Y-156540000D02*
X99401000Y-158420000D01*
X99441000Y-156621000D02*
X99441000Y-158339000D01*
X99481000Y-156712000D02*
X99481000Y-158248000D01*
X99521000Y-156816000D02*
X99521000Y-158144000D01*
X99561000Y-156943000D02*
X99561000Y-158017000D01*
X99601000Y-157110000D02*
X99601000Y-157850000D01*
X95250199Y-156285000D02*
X95650199Y-156285000D01*
X95450199Y-156085000D02*
X95450199Y-156485000D01*
%TO.C,C1003*%
X95450199Y-131320000D02*
X95450199Y-131720000D01*
X95250199Y-131520000D02*
X95650199Y-131520000D01*
X99601000Y-132345000D02*
X99601000Y-133085000D01*
X99561000Y-132178000D02*
X99561000Y-133252000D01*
X99521000Y-132051000D02*
X99521000Y-133379000D01*
X99481000Y-131947000D02*
X99481000Y-133483000D01*
X99441000Y-131856000D02*
X99441000Y-133574000D01*
X99401000Y-131775000D02*
X99401000Y-133655000D01*
X99361000Y-131702000D02*
X99361000Y-133728000D01*
X99321000Y-133555000D02*
X99321000Y-133795000D01*
X99321000Y-131635000D02*
X99321000Y-131875000D01*
X99281000Y-133555000D02*
X99281000Y-133857000D01*
X99281000Y-131573000D02*
X99281000Y-131875000D01*
X99241000Y-133555000D02*
X99241000Y-133915000D01*
X99241000Y-131515000D02*
X99241000Y-131875000D01*
X99201000Y-133555000D02*
X99201000Y-133969000D01*
X99201000Y-131461000D02*
X99201000Y-131875000D01*
X99161000Y-133555000D02*
X99161000Y-134019000D01*
X99161000Y-131411000D02*
X99161000Y-131875000D01*
X99121000Y-133555000D02*
X99121000Y-134066000D01*
X99121000Y-131364000D02*
X99121000Y-131875000D01*
X99081000Y-133555000D02*
X99081000Y-134111000D01*
X99081000Y-131319000D02*
X99081000Y-131875000D01*
X99041000Y-133555000D02*
X99041000Y-134153000D01*
X99041000Y-131277000D02*
X99041000Y-131875000D01*
X99001000Y-133555000D02*
X99001000Y-134193000D01*
X99001000Y-131237000D02*
X99001000Y-131875000D01*
X98961000Y-133555000D02*
X98961000Y-134231000D01*
X98961000Y-131199000D02*
X98961000Y-131875000D01*
X98921000Y-133555000D02*
X98921000Y-134267000D01*
X98921000Y-131163000D02*
X98921000Y-131875000D01*
X98881000Y-133555000D02*
X98881000Y-134302000D01*
X98881000Y-131128000D02*
X98881000Y-131875000D01*
X98841000Y-133555000D02*
X98841000Y-134334000D01*
X98841000Y-131096000D02*
X98841000Y-131875000D01*
X98801000Y-133555000D02*
X98801000Y-134365000D01*
X98801000Y-131065000D02*
X98801000Y-131875000D01*
X98761000Y-133555000D02*
X98761000Y-134395000D01*
X98761000Y-131035000D02*
X98761000Y-131875000D01*
X98721000Y-133555000D02*
X98721000Y-134423000D01*
X98721000Y-131007000D02*
X98721000Y-131875000D01*
X98681000Y-133555000D02*
X98681000Y-134450000D01*
X98681000Y-130980000D02*
X98681000Y-131875000D01*
X98641000Y-133555000D02*
X98641000Y-134475000D01*
X98641000Y-130955000D02*
X98641000Y-131875000D01*
X98601000Y-133555000D02*
X98601000Y-134500000D01*
X98601000Y-130930000D02*
X98601000Y-131875000D01*
X98561000Y-133555000D02*
X98561000Y-134523000D01*
X98561000Y-130907000D02*
X98561000Y-131875000D01*
X98521000Y-133555000D02*
X98521000Y-134545000D01*
X98521000Y-130885000D02*
X98521000Y-131875000D01*
X98481000Y-133555000D02*
X98481000Y-134566000D01*
X98481000Y-130864000D02*
X98481000Y-131875000D01*
X98441000Y-133555000D02*
X98441000Y-134585000D01*
X98441000Y-130845000D02*
X98441000Y-131875000D01*
X98401000Y-133555000D02*
X98401000Y-134604000D01*
X98401000Y-130826000D02*
X98401000Y-131875000D01*
X98361000Y-133555000D02*
X98361000Y-134622000D01*
X98361000Y-130808000D02*
X98361000Y-131875000D01*
X98321000Y-133555000D02*
X98321000Y-134639000D01*
X98321000Y-130791000D02*
X98321000Y-131875000D01*
X98281000Y-133555000D02*
X98281000Y-134655000D01*
X98281000Y-130775000D02*
X98281000Y-131875000D01*
X98241000Y-133555000D02*
X98241000Y-134669000D01*
X98241000Y-130761000D02*
X98241000Y-131875000D01*
X98200000Y-133555000D02*
X98200000Y-134683000D01*
X98200000Y-130747000D02*
X98200000Y-131875000D01*
X98160000Y-133555000D02*
X98160000Y-134697000D01*
X98160000Y-130733000D02*
X98160000Y-131875000D01*
X98120000Y-133555000D02*
X98120000Y-134709000D01*
X98120000Y-130721000D02*
X98120000Y-131875000D01*
X98080000Y-133555000D02*
X98080000Y-134720000D01*
X98080000Y-130710000D02*
X98080000Y-131875000D01*
X98040000Y-133555000D02*
X98040000Y-134731000D01*
X98040000Y-130699000D02*
X98040000Y-131875000D01*
X98000000Y-133555000D02*
X98000000Y-134740000D01*
X98000000Y-130690000D02*
X98000000Y-131875000D01*
X97960000Y-133555000D02*
X97960000Y-134749000D01*
X97960000Y-130681000D02*
X97960000Y-131875000D01*
X97920000Y-133555000D02*
X97920000Y-134757000D01*
X97920000Y-130673000D02*
X97920000Y-131875000D01*
X97880000Y-133555000D02*
X97880000Y-134765000D01*
X97880000Y-130665000D02*
X97880000Y-131875000D01*
X97840000Y-133555000D02*
X97840000Y-134771000D01*
X97840000Y-130659000D02*
X97840000Y-131875000D01*
X97800000Y-133555000D02*
X97800000Y-134777000D01*
X97800000Y-130653000D02*
X97800000Y-131875000D01*
X97760000Y-133555000D02*
X97760000Y-134782000D01*
X97760000Y-130648000D02*
X97760000Y-131875000D01*
X97720000Y-133555000D02*
X97720000Y-134786000D01*
X97720000Y-130644000D02*
X97720000Y-131875000D01*
X97680000Y-130641000D02*
X97680000Y-134789000D01*
X97640000Y-130638000D02*
X97640000Y-134792000D01*
X97600000Y-130636000D02*
X97600000Y-134794000D01*
X97560000Y-130635000D02*
X97560000Y-134795000D01*
X97520000Y-130635000D02*
X97520000Y-134795000D01*
X99640000Y-132715000D02*
G75*
G03*
X99640000Y-132715000I-2120000J0D01*
G01*
%TO.C,C1004*%
X99640000Y-181610000D02*
G75*
G03*
X99640000Y-181610000I-2120000J0D01*
G01*
X97520000Y-179530000D02*
X97520000Y-183690000D01*
X97560000Y-179530000D02*
X97560000Y-183690000D01*
X97600000Y-179531000D02*
X97600000Y-183689000D01*
X97640000Y-179533000D02*
X97640000Y-183687000D01*
X97680000Y-179536000D02*
X97680000Y-183684000D01*
X97720000Y-179539000D02*
X97720000Y-180770000D01*
X97720000Y-182450000D02*
X97720000Y-183681000D01*
X97760000Y-179543000D02*
X97760000Y-180770000D01*
X97760000Y-182450000D02*
X97760000Y-183677000D01*
X97800000Y-179548000D02*
X97800000Y-180770000D01*
X97800000Y-182450000D02*
X97800000Y-183672000D01*
X97840000Y-179554000D02*
X97840000Y-180770000D01*
X97840000Y-182450000D02*
X97840000Y-183666000D01*
X97880000Y-179560000D02*
X97880000Y-180770000D01*
X97880000Y-182450000D02*
X97880000Y-183660000D01*
X97920000Y-179568000D02*
X97920000Y-180770000D01*
X97920000Y-182450000D02*
X97920000Y-183652000D01*
X97960000Y-179576000D02*
X97960000Y-180770000D01*
X97960000Y-182450000D02*
X97960000Y-183644000D01*
X98000000Y-179585000D02*
X98000000Y-180770000D01*
X98000000Y-182450000D02*
X98000000Y-183635000D01*
X98040000Y-179594000D02*
X98040000Y-180770000D01*
X98040000Y-182450000D02*
X98040000Y-183626000D01*
X98080000Y-179605000D02*
X98080000Y-180770000D01*
X98080000Y-182450000D02*
X98080000Y-183615000D01*
X98120000Y-179616000D02*
X98120000Y-180770000D01*
X98120000Y-182450000D02*
X98120000Y-183604000D01*
X98160000Y-179628000D02*
X98160000Y-180770000D01*
X98160000Y-182450000D02*
X98160000Y-183592000D01*
X98200000Y-179642000D02*
X98200000Y-180770000D01*
X98200000Y-182450000D02*
X98200000Y-183578000D01*
X98241000Y-179656000D02*
X98241000Y-180770000D01*
X98241000Y-182450000D02*
X98241000Y-183564000D01*
X98281000Y-179670000D02*
X98281000Y-180770000D01*
X98281000Y-182450000D02*
X98281000Y-183550000D01*
X98321000Y-179686000D02*
X98321000Y-180770000D01*
X98321000Y-182450000D02*
X98321000Y-183534000D01*
X98361000Y-179703000D02*
X98361000Y-180770000D01*
X98361000Y-182450000D02*
X98361000Y-183517000D01*
X98401000Y-179721000D02*
X98401000Y-180770000D01*
X98401000Y-182450000D02*
X98401000Y-183499000D01*
X98441000Y-179740000D02*
X98441000Y-180770000D01*
X98441000Y-182450000D02*
X98441000Y-183480000D01*
X98481000Y-179759000D02*
X98481000Y-180770000D01*
X98481000Y-182450000D02*
X98481000Y-183461000D01*
X98521000Y-179780000D02*
X98521000Y-180770000D01*
X98521000Y-182450000D02*
X98521000Y-183440000D01*
X98561000Y-179802000D02*
X98561000Y-180770000D01*
X98561000Y-182450000D02*
X98561000Y-183418000D01*
X98601000Y-179825000D02*
X98601000Y-180770000D01*
X98601000Y-182450000D02*
X98601000Y-183395000D01*
X98641000Y-179850000D02*
X98641000Y-180770000D01*
X98641000Y-182450000D02*
X98641000Y-183370000D01*
X98681000Y-179875000D02*
X98681000Y-180770000D01*
X98681000Y-182450000D02*
X98681000Y-183345000D01*
X98721000Y-179902000D02*
X98721000Y-180770000D01*
X98721000Y-182450000D02*
X98721000Y-183318000D01*
X98761000Y-179930000D02*
X98761000Y-180770000D01*
X98761000Y-182450000D02*
X98761000Y-183290000D01*
X98801000Y-179960000D02*
X98801000Y-180770000D01*
X98801000Y-182450000D02*
X98801000Y-183260000D01*
X98841000Y-179991000D02*
X98841000Y-180770000D01*
X98841000Y-182450000D02*
X98841000Y-183229000D01*
X98881000Y-180023000D02*
X98881000Y-180770000D01*
X98881000Y-182450000D02*
X98881000Y-183197000D01*
X98921000Y-180058000D02*
X98921000Y-180770000D01*
X98921000Y-182450000D02*
X98921000Y-183162000D01*
X98961000Y-180094000D02*
X98961000Y-180770000D01*
X98961000Y-182450000D02*
X98961000Y-183126000D01*
X99001000Y-180132000D02*
X99001000Y-180770000D01*
X99001000Y-182450000D02*
X99001000Y-183088000D01*
X99041000Y-180172000D02*
X99041000Y-180770000D01*
X99041000Y-182450000D02*
X99041000Y-183048000D01*
X99081000Y-180214000D02*
X99081000Y-180770000D01*
X99081000Y-182450000D02*
X99081000Y-183006000D01*
X99121000Y-180259000D02*
X99121000Y-180770000D01*
X99121000Y-182450000D02*
X99121000Y-182961000D01*
X99161000Y-180306000D02*
X99161000Y-180770000D01*
X99161000Y-182450000D02*
X99161000Y-182914000D01*
X99201000Y-180356000D02*
X99201000Y-180770000D01*
X99201000Y-182450000D02*
X99201000Y-182864000D01*
X99241000Y-180410000D02*
X99241000Y-180770000D01*
X99241000Y-182450000D02*
X99241000Y-182810000D01*
X99281000Y-180468000D02*
X99281000Y-180770000D01*
X99281000Y-182450000D02*
X99281000Y-182752000D01*
X99321000Y-180530000D02*
X99321000Y-180770000D01*
X99321000Y-182450000D02*
X99321000Y-182690000D01*
X99361000Y-180597000D02*
X99361000Y-182623000D01*
X99401000Y-180670000D02*
X99401000Y-182550000D01*
X99441000Y-180751000D02*
X99441000Y-182469000D01*
X99481000Y-180842000D02*
X99481000Y-182378000D01*
X99521000Y-180946000D02*
X99521000Y-182274000D01*
X99561000Y-181073000D02*
X99561000Y-182147000D01*
X99601000Y-181240000D02*
X99601000Y-181980000D01*
X95250199Y-180415000D02*
X95650199Y-180415000D01*
X95450199Y-180215000D02*
X95450199Y-180615000D01*
%TO.C,C1005*%
X95450199Y-149735000D02*
X95450199Y-150135000D01*
X95250199Y-149935000D02*
X95650199Y-149935000D01*
X99601000Y-150760000D02*
X99601000Y-151500000D01*
X99561000Y-150593000D02*
X99561000Y-151667000D01*
X99521000Y-150466000D02*
X99521000Y-151794000D01*
X99481000Y-150362000D02*
X99481000Y-151898000D01*
X99441000Y-150271000D02*
X99441000Y-151989000D01*
X99401000Y-150190000D02*
X99401000Y-152070000D01*
X99361000Y-150117000D02*
X99361000Y-152143000D01*
X99321000Y-151970000D02*
X99321000Y-152210000D01*
X99321000Y-150050000D02*
X99321000Y-150290000D01*
X99281000Y-151970000D02*
X99281000Y-152272000D01*
X99281000Y-149988000D02*
X99281000Y-150290000D01*
X99241000Y-151970000D02*
X99241000Y-152330000D01*
X99241000Y-149930000D02*
X99241000Y-150290000D01*
X99201000Y-151970000D02*
X99201000Y-152384000D01*
X99201000Y-149876000D02*
X99201000Y-150290000D01*
X99161000Y-151970000D02*
X99161000Y-152434000D01*
X99161000Y-149826000D02*
X99161000Y-150290000D01*
X99121000Y-151970000D02*
X99121000Y-152481000D01*
X99121000Y-149779000D02*
X99121000Y-150290000D01*
X99081000Y-151970000D02*
X99081000Y-152526000D01*
X99081000Y-149734000D02*
X99081000Y-150290000D01*
X99041000Y-151970000D02*
X99041000Y-152568000D01*
X99041000Y-149692000D02*
X99041000Y-150290000D01*
X99001000Y-151970000D02*
X99001000Y-152608000D01*
X99001000Y-149652000D02*
X99001000Y-150290000D01*
X98961000Y-151970000D02*
X98961000Y-152646000D01*
X98961000Y-149614000D02*
X98961000Y-150290000D01*
X98921000Y-151970000D02*
X98921000Y-152682000D01*
X98921000Y-149578000D02*
X98921000Y-150290000D01*
X98881000Y-151970000D02*
X98881000Y-152717000D01*
X98881000Y-149543000D02*
X98881000Y-150290000D01*
X98841000Y-151970000D02*
X98841000Y-152749000D01*
X98841000Y-149511000D02*
X98841000Y-150290000D01*
X98801000Y-151970000D02*
X98801000Y-152780000D01*
X98801000Y-149480000D02*
X98801000Y-150290000D01*
X98761000Y-151970000D02*
X98761000Y-152810000D01*
X98761000Y-149450000D02*
X98761000Y-150290000D01*
X98721000Y-151970000D02*
X98721000Y-152838000D01*
X98721000Y-149422000D02*
X98721000Y-150290000D01*
X98681000Y-151970000D02*
X98681000Y-152865000D01*
X98681000Y-149395000D02*
X98681000Y-150290000D01*
X98641000Y-151970000D02*
X98641000Y-152890000D01*
X98641000Y-149370000D02*
X98641000Y-150290000D01*
X98601000Y-151970000D02*
X98601000Y-152915000D01*
X98601000Y-149345000D02*
X98601000Y-150290000D01*
X98561000Y-151970000D02*
X98561000Y-152938000D01*
X98561000Y-149322000D02*
X98561000Y-150290000D01*
X98521000Y-151970000D02*
X98521000Y-152960000D01*
X98521000Y-149300000D02*
X98521000Y-150290000D01*
X98481000Y-151970000D02*
X98481000Y-152981000D01*
X98481000Y-149279000D02*
X98481000Y-150290000D01*
X98441000Y-151970000D02*
X98441000Y-153000000D01*
X98441000Y-149260000D02*
X98441000Y-150290000D01*
X98401000Y-151970000D02*
X98401000Y-153019000D01*
X98401000Y-149241000D02*
X98401000Y-150290000D01*
X98361000Y-151970000D02*
X98361000Y-153037000D01*
X98361000Y-149223000D02*
X98361000Y-150290000D01*
X98321000Y-151970000D02*
X98321000Y-153054000D01*
X98321000Y-149206000D02*
X98321000Y-150290000D01*
X98281000Y-151970000D02*
X98281000Y-153070000D01*
X98281000Y-149190000D02*
X98281000Y-150290000D01*
X98241000Y-151970000D02*
X98241000Y-153084000D01*
X98241000Y-149176000D02*
X98241000Y-150290000D01*
X98200000Y-151970000D02*
X98200000Y-153098000D01*
X98200000Y-149162000D02*
X98200000Y-150290000D01*
X98160000Y-151970000D02*
X98160000Y-153112000D01*
X98160000Y-149148000D02*
X98160000Y-150290000D01*
X98120000Y-151970000D02*
X98120000Y-153124000D01*
X98120000Y-149136000D02*
X98120000Y-150290000D01*
X98080000Y-151970000D02*
X98080000Y-153135000D01*
X98080000Y-149125000D02*
X98080000Y-150290000D01*
X98040000Y-151970000D02*
X98040000Y-153146000D01*
X98040000Y-149114000D02*
X98040000Y-150290000D01*
X98000000Y-151970000D02*
X98000000Y-153155000D01*
X98000000Y-149105000D02*
X98000000Y-150290000D01*
X97960000Y-151970000D02*
X97960000Y-153164000D01*
X97960000Y-149096000D02*
X97960000Y-150290000D01*
X97920000Y-151970000D02*
X97920000Y-153172000D01*
X97920000Y-149088000D02*
X97920000Y-150290000D01*
X97880000Y-151970000D02*
X97880000Y-153180000D01*
X97880000Y-149080000D02*
X97880000Y-150290000D01*
X97840000Y-151970000D02*
X97840000Y-153186000D01*
X97840000Y-149074000D02*
X97840000Y-150290000D01*
X97800000Y-151970000D02*
X97800000Y-153192000D01*
X97800000Y-149068000D02*
X97800000Y-150290000D01*
X97760000Y-151970000D02*
X97760000Y-153197000D01*
X97760000Y-149063000D02*
X97760000Y-150290000D01*
X97720000Y-151970000D02*
X97720000Y-153201000D01*
X97720000Y-149059000D02*
X97720000Y-150290000D01*
X97680000Y-149056000D02*
X97680000Y-153204000D01*
X97640000Y-149053000D02*
X97640000Y-153207000D01*
X97600000Y-149051000D02*
X97600000Y-153209000D01*
X97560000Y-149050000D02*
X97560000Y-153210000D01*
X97520000Y-149050000D02*
X97520000Y-153210000D01*
X99640000Y-151130000D02*
G75*
G03*
X99640000Y-151130000I-2120000J0D01*
G01*
%TO.C,C1006*%
X78590000Y-163830000D02*
G75*
G03*
X78590000Y-163830000I-2120000J0D01*
G01*
X76470000Y-165910000D02*
X76470000Y-161750000D01*
X76430000Y-165910000D02*
X76430000Y-161750000D01*
X76390000Y-165909000D02*
X76390000Y-161751000D01*
X76350000Y-165907000D02*
X76350000Y-161753000D01*
X76310000Y-165904000D02*
X76310000Y-161756000D01*
X76270000Y-165901000D02*
X76270000Y-164670000D01*
X76270000Y-162990000D02*
X76270000Y-161759000D01*
X76230000Y-165897000D02*
X76230000Y-164670000D01*
X76230000Y-162990000D02*
X76230000Y-161763000D01*
X76190000Y-165892000D02*
X76190000Y-164670000D01*
X76190000Y-162990000D02*
X76190000Y-161768000D01*
X76150000Y-165886000D02*
X76150000Y-164670000D01*
X76150000Y-162990000D02*
X76150000Y-161774000D01*
X76110000Y-165880000D02*
X76110000Y-164670000D01*
X76110000Y-162990000D02*
X76110000Y-161780000D01*
X76070000Y-165872000D02*
X76070000Y-164670000D01*
X76070000Y-162990000D02*
X76070000Y-161788000D01*
X76030000Y-165864000D02*
X76030000Y-164670000D01*
X76030000Y-162990000D02*
X76030000Y-161796000D01*
X75990000Y-165855000D02*
X75990000Y-164670000D01*
X75990000Y-162990000D02*
X75990000Y-161805000D01*
X75950000Y-165846000D02*
X75950000Y-164670000D01*
X75950000Y-162990000D02*
X75950000Y-161814000D01*
X75910000Y-165835000D02*
X75910000Y-164670000D01*
X75910000Y-162990000D02*
X75910000Y-161825000D01*
X75870000Y-165824000D02*
X75870000Y-164670000D01*
X75870000Y-162990000D02*
X75870000Y-161836000D01*
X75830000Y-165812000D02*
X75830000Y-164670000D01*
X75830000Y-162990000D02*
X75830000Y-161848000D01*
X75790000Y-165798000D02*
X75790000Y-164670000D01*
X75790000Y-162990000D02*
X75790000Y-161862000D01*
X75749000Y-165784000D02*
X75749000Y-164670000D01*
X75749000Y-162990000D02*
X75749000Y-161876000D01*
X75709000Y-165770000D02*
X75709000Y-164670000D01*
X75709000Y-162990000D02*
X75709000Y-161890000D01*
X75669000Y-165754000D02*
X75669000Y-164670000D01*
X75669000Y-162990000D02*
X75669000Y-161906000D01*
X75629000Y-165737000D02*
X75629000Y-164670000D01*
X75629000Y-162990000D02*
X75629000Y-161923000D01*
X75589000Y-165719000D02*
X75589000Y-164670000D01*
X75589000Y-162990000D02*
X75589000Y-161941000D01*
X75549000Y-165700000D02*
X75549000Y-164670000D01*
X75549000Y-162990000D02*
X75549000Y-161960000D01*
X75509000Y-165681000D02*
X75509000Y-164670000D01*
X75509000Y-162990000D02*
X75509000Y-161979000D01*
X75469000Y-165660000D02*
X75469000Y-164670000D01*
X75469000Y-162990000D02*
X75469000Y-162000000D01*
X75429000Y-165638000D02*
X75429000Y-164670000D01*
X75429000Y-162990000D02*
X75429000Y-162022000D01*
X75389000Y-165615000D02*
X75389000Y-164670000D01*
X75389000Y-162990000D02*
X75389000Y-162045000D01*
X75349000Y-165590000D02*
X75349000Y-164670000D01*
X75349000Y-162990000D02*
X75349000Y-162070000D01*
X75309000Y-165565000D02*
X75309000Y-164670000D01*
X75309000Y-162990000D02*
X75309000Y-162095000D01*
X75269000Y-165538000D02*
X75269000Y-164670000D01*
X75269000Y-162990000D02*
X75269000Y-162122000D01*
X75229000Y-165510000D02*
X75229000Y-164670000D01*
X75229000Y-162990000D02*
X75229000Y-162150000D01*
X75189000Y-165480000D02*
X75189000Y-164670000D01*
X75189000Y-162990000D02*
X75189000Y-162180000D01*
X75149000Y-165449000D02*
X75149000Y-164670000D01*
X75149000Y-162990000D02*
X75149000Y-162211000D01*
X75109000Y-165417000D02*
X75109000Y-164670000D01*
X75109000Y-162990000D02*
X75109000Y-162243000D01*
X75069000Y-165382000D02*
X75069000Y-164670000D01*
X75069000Y-162990000D02*
X75069000Y-162278000D01*
X75029000Y-165346000D02*
X75029000Y-164670000D01*
X75029000Y-162990000D02*
X75029000Y-162314000D01*
X74989000Y-165308000D02*
X74989000Y-164670000D01*
X74989000Y-162990000D02*
X74989000Y-162352000D01*
X74949000Y-165268000D02*
X74949000Y-164670000D01*
X74949000Y-162990000D02*
X74949000Y-162392000D01*
X74909000Y-165226000D02*
X74909000Y-164670000D01*
X74909000Y-162990000D02*
X74909000Y-162434000D01*
X74869000Y-165181000D02*
X74869000Y-164670000D01*
X74869000Y-162990000D02*
X74869000Y-162479000D01*
X74829000Y-165134000D02*
X74829000Y-164670000D01*
X74829000Y-162990000D02*
X74829000Y-162526000D01*
X74789000Y-165084000D02*
X74789000Y-164670000D01*
X74789000Y-162990000D02*
X74789000Y-162576000D01*
X74749000Y-165030000D02*
X74749000Y-164670000D01*
X74749000Y-162990000D02*
X74749000Y-162630000D01*
X74709000Y-164972000D02*
X74709000Y-164670000D01*
X74709000Y-162990000D02*
X74709000Y-162688000D01*
X74669000Y-164910000D02*
X74669000Y-164670000D01*
X74669000Y-162990000D02*
X74669000Y-162750000D01*
X74629000Y-164843000D02*
X74629000Y-162817000D01*
X74589000Y-164770000D02*
X74589000Y-162890000D01*
X74549000Y-164689000D02*
X74549000Y-162971000D01*
X74509000Y-164598000D02*
X74509000Y-163062000D01*
X74469000Y-164494000D02*
X74469000Y-163166000D01*
X74429000Y-164367000D02*
X74429000Y-163293000D01*
X74389000Y-164200000D02*
X74389000Y-163460000D01*
X78739801Y-165025000D02*
X78339801Y-165025000D01*
X78539801Y-165225000D02*
X78539801Y-164825000D01*
%TO.C,C1007*%
X78634801Y-153160000D02*
X78634801Y-152760000D01*
X78834801Y-152960000D02*
X78434801Y-152960000D01*
X74484000Y-152135000D02*
X74484000Y-151395000D01*
X74524000Y-152302000D02*
X74524000Y-151228000D01*
X74564000Y-152429000D02*
X74564000Y-151101000D01*
X74604000Y-152533000D02*
X74604000Y-150997000D01*
X74644000Y-152624000D02*
X74644000Y-150906000D01*
X74684000Y-152705000D02*
X74684000Y-150825000D01*
X74724000Y-152778000D02*
X74724000Y-150752000D01*
X74764000Y-150925000D02*
X74764000Y-150685000D01*
X74764000Y-152845000D02*
X74764000Y-152605000D01*
X74804000Y-150925000D02*
X74804000Y-150623000D01*
X74804000Y-152907000D02*
X74804000Y-152605000D01*
X74844000Y-150925000D02*
X74844000Y-150565000D01*
X74844000Y-152965000D02*
X74844000Y-152605000D01*
X74884000Y-150925000D02*
X74884000Y-150511000D01*
X74884000Y-153019000D02*
X74884000Y-152605000D01*
X74924000Y-150925000D02*
X74924000Y-150461000D01*
X74924000Y-153069000D02*
X74924000Y-152605000D01*
X74964000Y-150925000D02*
X74964000Y-150414000D01*
X74964000Y-153116000D02*
X74964000Y-152605000D01*
X75004000Y-150925000D02*
X75004000Y-150369000D01*
X75004000Y-153161000D02*
X75004000Y-152605000D01*
X75044000Y-150925000D02*
X75044000Y-150327000D01*
X75044000Y-153203000D02*
X75044000Y-152605000D01*
X75084000Y-150925000D02*
X75084000Y-150287000D01*
X75084000Y-153243000D02*
X75084000Y-152605000D01*
X75124000Y-150925000D02*
X75124000Y-150249000D01*
X75124000Y-153281000D02*
X75124000Y-152605000D01*
X75164000Y-150925000D02*
X75164000Y-150213000D01*
X75164000Y-153317000D02*
X75164000Y-152605000D01*
X75204000Y-150925000D02*
X75204000Y-150178000D01*
X75204000Y-153352000D02*
X75204000Y-152605000D01*
X75244000Y-150925000D02*
X75244000Y-150146000D01*
X75244000Y-153384000D02*
X75244000Y-152605000D01*
X75284000Y-150925000D02*
X75284000Y-150115000D01*
X75284000Y-153415000D02*
X75284000Y-152605000D01*
X75324000Y-150925000D02*
X75324000Y-150085000D01*
X75324000Y-153445000D02*
X75324000Y-152605000D01*
X75364000Y-150925000D02*
X75364000Y-150057000D01*
X75364000Y-153473000D02*
X75364000Y-152605000D01*
X75404000Y-150925000D02*
X75404000Y-150030000D01*
X75404000Y-153500000D02*
X75404000Y-152605000D01*
X75444000Y-150925000D02*
X75444000Y-150005000D01*
X75444000Y-153525000D02*
X75444000Y-152605000D01*
X75484000Y-150925000D02*
X75484000Y-149980000D01*
X75484000Y-153550000D02*
X75484000Y-152605000D01*
X75524000Y-150925000D02*
X75524000Y-149957000D01*
X75524000Y-153573000D02*
X75524000Y-152605000D01*
X75564000Y-150925000D02*
X75564000Y-149935000D01*
X75564000Y-153595000D02*
X75564000Y-152605000D01*
X75604000Y-150925000D02*
X75604000Y-149914000D01*
X75604000Y-153616000D02*
X75604000Y-152605000D01*
X75644000Y-150925000D02*
X75644000Y-149895000D01*
X75644000Y-153635000D02*
X75644000Y-152605000D01*
X75684000Y-150925000D02*
X75684000Y-149876000D01*
X75684000Y-153654000D02*
X75684000Y-152605000D01*
X75724000Y-150925000D02*
X75724000Y-149858000D01*
X75724000Y-153672000D02*
X75724000Y-152605000D01*
X75764000Y-150925000D02*
X75764000Y-149841000D01*
X75764000Y-153689000D02*
X75764000Y-152605000D01*
X75804000Y-150925000D02*
X75804000Y-149825000D01*
X75804000Y-153705000D02*
X75804000Y-152605000D01*
X75844000Y-150925000D02*
X75844000Y-149811000D01*
X75844000Y-153719000D02*
X75844000Y-152605000D01*
X75885000Y-150925000D02*
X75885000Y-149797000D01*
X75885000Y-153733000D02*
X75885000Y-152605000D01*
X75925000Y-150925000D02*
X75925000Y-149783000D01*
X75925000Y-153747000D02*
X75925000Y-152605000D01*
X75965000Y-150925000D02*
X75965000Y-149771000D01*
X75965000Y-153759000D02*
X75965000Y-152605000D01*
X76005000Y-150925000D02*
X76005000Y-149760000D01*
X76005000Y-153770000D02*
X76005000Y-152605000D01*
X76045000Y-150925000D02*
X76045000Y-149749000D01*
X76045000Y-153781000D02*
X76045000Y-152605000D01*
X76085000Y-150925000D02*
X76085000Y-149740000D01*
X76085000Y-153790000D02*
X76085000Y-152605000D01*
X76125000Y-150925000D02*
X76125000Y-149731000D01*
X76125000Y-153799000D02*
X76125000Y-152605000D01*
X76165000Y-150925000D02*
X76165000Y-149723000D01*
X76165000Y-153807000D02*
X76165000Y-152605000D01*
X76205000Y-150925000D02*
X76205000Y-149715000D01*
X76205000Y-153815000D02*
X76205000Y-152605000D01*
X76245000Y-150925000D02*
X76245000Y-149709000D01*
X76245000Y-153821000D02*
X76245000Y-152605000D01*
X76285000Y-150925000D02*
X76285000Y-149703000D01*
X76285000Y-153827000D02*
X76285000Y-152605000D01*
X76325000Y-150925000D02*
X76325000Y-149698000D01*
X76325000Y-153832000D02*
X76325000Y-152605000D01*
X76365000Y-150925000D02*
X76365000Y-149694000D01*
X76365000Y-153836000D02*
X76365000Y-152605000D01*
X76405000Y-153839000D02*
X76405000Y-149691000D01*
X76445000Y-153842000D02*
X76445000Y-149688000D01*
X76485000Y-153844000D02*
X76485000Y-149686000D01*
X76525000Y-153845000D02*
X76525000Y-149685000D01*
X76565000Y-153845000D02*
X76565000Y-149685000D01*
X78685000Y-151765000D02*
G75*
G03*
X78685000Y-151765000I-2120000J0D01*
G01*
%TO.C,C1008*%
X99640000Y-139065000D02*
G75*
G03*
X99640000Y-139065000I-2120000J0D01*
G01*
X97520000Y-136985000D02*
X97520000Y-141145000D01*
X97560000Y-136985000D02*
X97560000Y-141145000D01*
X97600000Y-136986000D02*
X97600000Y-141144000D01*
X97640000Y-136988000D02*
X97640000Y-141142000D01*
X97680000Y-136991000D02*
X97680000Y-141139000D01*
X97720000Y-136994000D02*
X97720000Y-138225000D01*
X97720000Y-139905000D02*
X97720000Y-141136000D01*
X97760000Y-136998000D02*
X97760000Y-138225000D01*
X97760000Y-139905000D02*
X97760000Y-141132000D01*
X97800000Y-137003000D02*
X97800000Y-138225000D01*
X97800000Y-139905000D02*
X97800000Y-141127000D01*
X97840000Y-137009000D02*
X97840000Y-138225000D01*
X97840000Y-139905000D02*
X97840000Y-141121000D01*
X97880000Y-137015000D02*
X97880000Y-138225000D01*
X97880000Y-139905000D02*
X97880000Y-141115000D01*
X97920000Y-137023000D02*
X97920000Y-138225000D01*
X97920000Y-139905000D02*
X97920000Y-141107000D01*
X97960000Y-137031000D02*
X97960000Y-138225000D01*
X97960000Y-139905000D02*
X97960000Y-141099000D01*
X98000000Y-137040000D02*
X98000000Y-138225000D01*
X98000000Y-139905000D02*
X98000000Y-141090000D01*
X98040000Y-137049000D02*
X98040000Y-138225000D01*
X98040000Y-139905000D02*
X98040000Y-141081000D01*
X98080000Y-137060000D02*
X98080000Y-138225000D01*
X98080000Y-139905000D02*
X98080000Y-141070000D01*
X98120000Y-137071000D02*
X98120000Y-138225000D01*
X98120000Y-139905000D02*
X98120000Y-141059000D01*
X98160000Y-137083000D02*
X98160000Y-138225000D01*
X98160000Y-139905000D02*
X98160000Y-141047000D01*
X98200000Y-137097000D02*
X98200000Y-138225000D01*
X98200000Y-139905000D02*
X98200000Y-141033000D01*
X98241000Y-137111000D02*
X98241000Y-138225000D01*
X98241000Y-139905000D02*
X98241000Y-141019000D01*
X98281000Y-137125000D02*
X98281000Y-138225000D01*
X98281000Y-139905000D02*
X98281000Y-141005000D01*
X98321000Y-137141000D02*
X98321000Y-138225000D01*
X98321000Y-139905000D02*
X98321000Y-140989000D01*
X98361000Y-137158000D02*
X98361000Y-138225000D01*
X98361000Y-139905000D02*
X98361000Y-140972000D01*
X98401000Y-137176000D02*
X98401000Y-138225000D01*
X98401000Y-139905000D02*
X98401000Y-140954000D01*
X98441000Y-137195000D02*
X98441000Y-138225000D01*
X98441000Y-139905000D02*
X98441000Y-140935000D01*
X98481000Y-137214000D02*
X98481000Y-138225000D01*
X98481000Y-139905000D02*
X98481000Y-140916000D01*
X98521000Y-137235000D02*
X98521000Y-138225000D01*
X98521000Y-139905000D02*
X98521000Y-140895000D01*
X98561000Y-137257000D02*
X98561000Y-138225000D01*
X98561000Y-139905000D02*
X98561000Y-140873000D01*
X98601000Y-137280000D02*
X98601000Y-138225000D01*
X98601000Y-139905000D02*
X98601000Y-140850000D01*
X98641000Y-137305000D02*
X98641000Y-138225000D01*
X98641000Y-139905000D02*
X98641000Y-140825000D01*
X98681000Y-137330000D02*
X98681000Y-138225000D01*
X98681000Y-139905000D02*
X98681000Y-140800000D01*
X98721000Y-137357000D02*
X98721000Y-138225000D01*
X98721000Y-139905000D02*
X98721000Y-140773000D01*
X98761000Y-137385000D02*
X98761000Y-138225000D01*
X98761000Y-139905000D02*
X98761000Y-140745000D01*
X98801000Y-137415000D02*
X98801000Y-138225000D01*
X98801000Y-139905000D02*
X98801000Y-140715000D01*
X98841000Y-137446000D02*
X98841000Y-138225000D01*
X98841000Y-139905000D02*
X98841000Y-140684000D01*
X98881000Y-137478000D02*
X98881000Y-138225000D01*
X98881000Y-139905000D02*
X98881000Y-140652000D01*
X98921000Y-137513000D02*
X98921000Y-138225000D01*
X98921000Y-139905000D02*
X98921000Y-140617000D01*
X98961000Y-137549000D02*
X98961000Y-138225000D01*
X98961000Y-139905000D02*
X98961000Y-140581000D01*
X99001000Y-137587000D02*
X99001000Y-138225000D01*
X99001000Y-139905000D02*
X99001000Y-140543000D01*
X99041000Y-137627000D02*
X99041000Y-138225000D01*
X99041000Y-139905000D02*
X99041000Y-140503000D01*
X99081000Y-137669000D02*
X99081000Y-138225000D01*
X99081000Y-139905000D02*
X99081000Y-140461000D01*
X99121000Y-137714000D02*
X99121000Y-138225000D01*
X99121000Y-139905000D02*
X99121000Y-140416000D01*
X99161000Y-137761000D02*
X99161000Y-138225000D01*
X99161000Y-139905000D02*
X99161000Y-140369000D01*
X99201000Y-137811000D02*
X99201000Y-138225000D01*
X99201000Y-139905000D02*
X99201000Y-140319000D01*
X99241000Y-137865000D02*
X99241000Y-138225000D01*
X99241000Y-139905000D02*
X99241000Y-140265000D01*
X99281000Y-137923000D02*
X99281000Y-138225000D01*
X99281000Y-139905000D02*
X99281000Y-140207000D01*
X99321000Y-137985000D02*
X99321000Y-138225000D01*
X99321000Y-139905000D02*
X99321000Y-140145000D01*
X99361000Y-138052000D02*
X99361000Y-140078000D01*
X99401000Y-138125000D02*
X99401000Y-140005000D01*
X99441000Y-138206000D02*
X99441000Y-139924000D01*
X99481000Y-138297000D02*
X99481000Y-139833000D01*
X99521000Y-138401000D02*
X99521000Y-139729000D01*
X99561000Y-138528000D02*
X99561000Y-139602000D01*
X99601000Y-138695000D02*
X99601000Y-139435000D01*
X95250199Y-137870000D02*
X95650199Y-137870000D01*
X95450199Y-137670000D02*
X95450199Y-138070000D01*
%TO.C,C1009*%
X78539801Y-135380000D02*
X78539801Y-134980000D01*
X78739801Y-135180000D02*
X78339801Y-135180000D01*
X74389000Y-134355000D02*
X74389000Y-133615000D01*
X74429000Y-134522000D02*
X74429000Y-133448000D01*
X74469000Y-134649000D02*
X74469000Y-133321000D01*
X74509000Y-134753000D02*
X74509000Y-133217000D01*
X74549000Y-134844000D02*
X74549000Y-133126000D01*
X74589000Y-134925000D02*
X74589000Y-133045000D01*
X74629000Y-134998000D02*
X74629000Y-132972000D01*
X74669000Y-133145000D02*
X74669000Y-132905000D01*
X74669000Y-135065000D02*
X74669000Y-134825000D01*
X74709000Y-133145000D02*
X74709000Y-132843000D01*
X74709000Y-135127000D02*
X74709000Y-134825000D01*
X74749000Y-133145000D02*
X74749000Y-132785000D01*
X74749000Y-135185000D02*
X74749000Y-134825000D01*
X74789000Y-133145000D02*
X74789000Y-132731000D01*
X74789000Y-135239000D02*
X74789000Y-134825000D01*
X74829000Y-133145000D02*
X74829000Y-132681000D01*
X74829000Y-135289000D02*
X74829000Y-134825000D01*
X74869000Y-133145000D02*
X74869000Y-132634000D01*
X74869000Y-135336000D02*
X74869000Y-134825000D01*
X74909000Y-133145000D02*
X74909000Y-132589000D01*
X74909000Y-135381000D02*
X74909000Y-134825000D01*
X74949000Y-133145000D02*
X74949000Y-132547000D01*
X74949000Y-135423000D02*
X74949000Y-134825000D01*
X74989000Y-133145000D02*
X74989000Y-132507000D01*
X74989000Y-135463000D02*
X74989000Y-134825000D01*
X75029000Y-133145000D02*
X75029000Y-132469000D01*
X75029000Y-135501000D02*
X75029000Y-134825000D01*
X75069000Y-133145000D02*
X75069000Y-132433000D01*
X75069000Y-135537000D02*
X75069000Y-134825000D01*
X75109000Y-133145000D02*
X75109000Y-132398000D01*
X75109000Y-135572000D02*
X75109000Y-134825000D01*
X75149000Y-133145000D02*
X75149000Y-132366000D01*
X75149000Y-135604000D02*
X75149000Y-134825000D01*
X75189000Y-133145000D02*
X75189000Y-132335000D01*
X75189000Y-135635000D02*
X75189000Y-134825000D01*
X75229000Y-133145000D02*
X75229000Y-132305000D01*
X75229000Y-135665000D02*
X75229000Y-134825000D01*
X75269000Y-133145000D02*
X75269000Y-132277000D01*
X75269000Y-135693000D02*
X75269000Y-134825000D01*
X75309000Y-133145000D02*
X75309000Y-132250000D01*
X75309000Y-135720000D02*
X75309000Y-134825000D01*
X75349000Y-133145000D02*
X75349000Y-132225000D01*
X75349000Y-135745000D02*
X75349000Y-134825000D01*
X75389000Y-133145000D02*
X75389000Y-132200000D01*
X75389000Y-135770000D02*
X75389000Y-134825000D01*
X75429000Y-133145000D02*
X75429000Y-132177000D01*
X75429000Y-135793000D02*
X75429000Y-134825000D01*
X75469000Y-133145000D02*
X75469000Y-132155000D01*
X75469000Y-135815000D02*
X75469000Y-134825000D01*
X75509000Y-133145000D02*
X75509000Y-132134000D01*
X75509000Y-135836000D02*
X75509000Y-134825000D01*
X75549000Y-133145000D02*
X75549000Y-132115000D01*
X75549000Y-135855000D02*
X75549000Y-134825000D01*
X75589000Y-133145000D02*
X75589000Y-132096000D01*
X75589000Y-135874000D02*
X75589000Y-134825000D01*
X75629000Y-133145000D02*
X75629000Y-132078000D01*
X75629000Y-135892000D02*
X75629000Y-134825000D01*
X75669000Y-133145000D02*
X75669000Y-132061000D01*
X75669000Y-135909000D02*
X75669000Y-134825000D01*
X75709000Y-133145000D02*
X75709000Y-132045000D01*
X75709000Y-135925000D02*
X75709000Y-134825000D01*
X75749000Y-133145000D02*
X75749000Y-132031000D01*
X75749000Y-135939000D02*
X75749000Y-134825000D01*
X75790000Y-133145000D02*
X75790000Y-132017000D01*
X75790000Y-135953000D02*
X75790000Y-134825000D01*
X75830000Y-133145000D02*
X75830000Y-132003000D01*
X75830000Y-135967000D02*
X75830000Y-134825000D01*
X75870000Y-133145000D02*
X75870000Y-131991000D01*
X75870000Y-135979000D02*
X75870000Y-134825000D01*
X75910000Y-133145000D02*
X75910000Y-131980000D01*
X75910000Y-135990000D02*
X75910000Y-134825000D01*
X75950000Y-133145000D02*
X75950000Y-131969000D01*
X75950000Y-136001000D02*
X75950000Y-134825000D01*
X75990000Y-133145000D02*
X75990000Y-131960000D01*
X75990000Y-136010000D02*
X75990000Y-134825000D01*
X76030000Y-133145000D02*
X76030000Y-131951000D01*
X76030000Y-136019000D02*
X76030000Y-134825000D01*
X76070000Y-133145000D02*
X76070000Y-131943000D01*
X76070000Y-136027000D02*
X76070000Y-134825000D01*
X76110000Y-133145000D02*
X76110000Y-131935000D01*
X76110000Y-136035000D02*
X76110000Y-134825000D01*
X76150000Y-133145000D02*
X76150000Y-131929000D01*
X76150000Y-136041000D02*
X76150000Y-134825000D01*
X76190000Y-133145000D02*
X76190000Y-131923000D01*
X76190000Y-136047000D02*
X76190000Y-134825000D01*
X76230000Y-133145000D02*
X76230000Y-131918000D01*
X76230000Y-136052000D02*
X76230000Y-134825000D01*
X76270000Y-133145000D02*
X76270000Y-131914000D01*
X76270000Y-136056000D02*
X76270000Y-134825000D01*
X76310000Y-136059000D02*
X76310000Y-131911000D01*
X76350000Y-136062000D02*
X76350000Y-131908000D01*
X76390000Y-136064000D02*
X76390000Y-131906000D01*
X76430000Y-136065000D02*
X76430000Y-131905000D01*
X76470000Y-136065000D02*
X76470000Y-131905000D01*
X78590000Y-133985000D02*
G75*
G03*
X78590000Y-133985000I-2120000J0D01*
G01*
%TO.C,C1010*%
X99640000Y-169545000D02*
G75*
G03*
X99640000Y-169545000I-2120000J0D01*
G01*
X97520000Y-167465000D02*
X97520000Y-171625000D01*
X97560000Y-167465000D02*
X97560000Y-171625000D01*
X97600000Y-167466000D02*
X97600000Y-171624000D01*
X97640000Y-167468000D02*
X97640000Y-171622000D01*
X97680000Y-167471000D02*
X97680000Y-171619000D01*
X97720000Y-167474000D02*
X97720000Y-168705000D01*
X97720000Y-170385000D02*
X97720000Y-171616000D01*
X97760000Y-167478000D02*
X97760000Y-168705000D01*
X97760000Y-170385000D02*
X97760000Y-171612000D01*
X97800000Y-167483000D02*
X97800000Y-168705000D01*
X97800000Y-170385000D02*
X97800000Y-171607000D01*
X97840000Y-167489000D02*
X97840000Y-168705000D01*
X97840000Y-170385000D02*
X97840000Y-171601000D01*
X97880000Y-167495000D02*
X97880000Y-168705000D01*
X97880000Y-170385000D02*
X97880000Y-171595000D01*
X97920000Y-167503000D02*
X97920000Y-168705000D01*
X97920000Y-170385000D02*
X97920000Y-171587000D01*
X97960000Y-167511000D02*
X97960000Y-168705000D01*
X97960000Y-170385000D02*
X97960000Y-171579000D01*
X98000000Y-167520000D02*
X98000000Y-168705000D01*
X98000000Y-170385000D02*
X98000000Y-171570000D01*
X98040000Y-167529000D02*
X98040000Y-168705000D01*
X98040000Y-170385000D02*
X98040000Y-171561000D01*
X98080000Y-167540000D02*
X98080000Y-168705000D01*
X98080000Y-170385000D02*
X98080000Y-171550000D01*
X98120000Y-167551000D02*
X98120000Y-168705000D01*
X98120000Y-170385000D02*
X98120000Y-171539000D01*
X98160000Y-167563000D02*
X98160000Y-168705000D01*
X98160000Y-170385000D02*
X98160000Y-171527000D01*
X98200000Y-167577000D02*
X98200000Y-168705000D01*
X98200000Y-170385000D02*
X98200000Y-171513000D01*
X98241000Y-167591000D02*
X98241000Y-168705000D01*
X98241000Y-170385000D02*
X98241000Y-171499000D01*
X98281000Y-167605000D02*
X98281000Y-168705000D01*
X98281000Y-170385000D02*
X98281000Y-171485000D01*
X98321000Y-167621000D02*
X98321000Y-168705000D01*
X98321000Y-170385000D02*
X98321000Y-171469000D01*
X98361000Y-167638000D02*
X98361000Y-168705000D01*
X98361000Y-170385000D02*
X98361000Y-171452000D01*
X98401000Y-167656000D02*
X98401000Y-168705000D01*
X98401000Y-170385000D02*
X98401000Y-171434000D01*
X98441000Y-167675000D02*
X98441000Y-168705000D01*
X98441000Y-170385000D02*
X98441000Y-171415000D01*
X98481000Y-167694000D02*
X98481000Y-168705000D01*
X98481000Y-170385000D02*
X98481000Y-171396000D01*
X98521000Y-167715000D02*
X98521000Y-168705000D01*
X98521000Y-170385000D02*
X98521000Y-171375000D01*
X98561000Y-167737000D02*
X98561000Y-168705000D01*
X98561000Y-170385000D02*
X98561000Y-171353000D01*
X98601000Y-167760000D02*
X98601000Y-168705000D01*
X98601000Y-170385000D02*
X98601000Y-171330000D01*
X98641000Y-167785000D02*
X98641000Y-168705000D01*
X98641000Y-170385000D02*
X98641000Y-171305000D01*
X98681000Y-167810000D02*
X98681000Y-168705000D01*
X98681000Y-170385000D02*
X98681000Y-171280000D01*
X98721000Y-167837000D02*
X98721000Y-168705000D01*
X98721000Y-170385000D02*
X98721000Y-171253000D01*
X98761000Y-167865000D02*
X98761000Y-168705000D01*
X98761000Y-170385000D02*
X98761000Y-171225000D01*
X98801000Y-167895000D02*
X98801000Y-168705000D01*
X98801000Y-170385000D02*
X98801000Y-171195000D01*
X98841000Y-167926000D02*
X98841000Y-168705000D01*
X98841000Y-170385000D02*
X98841000Y-171164000D01*
X98881000Y-167958000D02*
X98881000Y-168705000D01*
X98881000Y-170385000D02*
X98881000Y-171132000D01*
X98921000Y-167993000D02*
X98921000Y-168705000D01*
X98921000Y-170385000D02*
X98921000Y-171097000D01*
X98961000Y-168029000D02*
X98961000Y-168705000D01*
X98961000Y-170385000D02*
X98961000Y-171061000D01*
X99001000Y-168067000D02*
X99001000Y-168705000D01*
X99001000Y-170385000D02*
X99001000Y-171023000D01*
X99041000Y-168107000D02*
X99041000Y-168705000D01*
X99041000Y-170385000D02*
X99041000Y-170983000D01*
X99081000Y-168149000D02*
X99081000Y-168705000D01*
X99081000Y-170385000D02*
X99081000Y-170941000D01*
X99121000Y-168194000D02*
X99121000Y-168705000D01*
X99121000Y-170385000D02*
X99121000Y-170896000D01*
X99161000Y-168241000D02*
X99161000Y-168705000D01*
X99161000Y-170385000D02*
X99161000Y-170849000D01*
X99201000Y-168291000D02*
X99201000Y-168705000D01*
X99201000Y-170385000D02*
X99201000Y-170799000D01*
X99241000Y-168345000D02*
X99241000Y-168705000D01*
X99241000Y-170385000D02*
X99241000Y-170745000D01*
X99281000Y-168403000D02*
X99281000Y-168705000D01*
X99281000Y-170385000D02*
X99281000Y-170687000D01*
X99321000Y-168465000D02*
X99321000Y-168705000D01*
X99321000Y-170385000D02*
X99321000Y-170625000D01*
X99361000Y-168532000D02*
X99361000Y-170558000D01*
X99401000Y-168605000D02*
X99401000Y-170485000D01*
X99441000Y-168686000D02*
X99441000Y-170404000D01*
X99481000Y-168777000D02*
X99481000Y-170313000D01*
X99521000Y-168881000D02*
X99521000Y-170209000D01*
X99561000Y-169008000D02*
X99561000Y-170082000D01*
X99601000Y-169175000D02*
X99601000Y-169915000D01*
X95250199Y-168350000D02*
X95650199Y-168350000D01*
X95450199Y-168150000D02*
X95450199Y-168550000D01*
%TO.C,C1011*%
X78539801Y-183005000D02*
X78539801Y-182605000D01*
X78739801Y-182805000D02*
X78339801Y-182805000D01*
X74389000Y-181980000D02*
X74389000Y-181240000D01*
X74429000Y-182147000D02*
X74429000Y-181073000D01*
X74469000Y-182274000D02*
X74469000Y-180946000D01*
X74509000Y-182378000D02*
X74509000Y-180842000D01*
X74549000Y-182469000D02*
X74549000Y-180751000D01*
X74589000Y-182550000D02*
X74589000Y-180670000D01*
X74629000Y-182623000D02*
X74629000Y-180597000D01*
X74669000Y-180770000D02*
X74669000Y-180530000D01*
X74669000Y-182690000D02*
X74669000Y-182450000D01*
X74709000Y-180770000D02*
X74709000Y-180468000D01*
X74709000Y-182752000D02*
X74709000Y-182450000D01*
X74749000Y-180770000D02*
X74749000Y-180410000D01*
X74749000Y-182810000D02*
X74749000Y-182450000D01*
X74789000Y-180770000D02*
X74789000Y-180356000D01*
X74789000Y-182864000D02*
X74789000Y-182450000D01*
X74829000Y-180770000D02*
X74829000Y-180306000D01*
X74829000Y-182914000D02*
X74829000Y-182450000D01*
X74869000Y-180770000D02*
X74869000Y-180259000D01*
X74869000Y-182961000D02*
X74869000Y-182450000D01*
X74909000Y-180770000D02*
X74909000Y-180214000D01*
X74909000Y-183006000D02*
X74909000Y-182450000D01*
X74949000Y-180770000D02*
X74949000Y-180172000D01*
X74949000Y-183048000D02*
X74949000Y-182450000D01*
X74989000Y-180770000D02*
X74989000Y-180132000D01*
X74989000Y-183088000D02*
X74989000Y-182450000D01*
X75029000Y-180770000D02*
X75029000Y-180094000D01*
X75029000Y-183126000D02*
X75029000Y-182450000D01*
X75069000Y-180770000D02*
X75069000Y-180058000D01*
X75069000Y-183162000D02*
X75069000Y-182450000D01*
X75109000Y-180770000D02*
X75109000Y-180023000D01*
X75109000Y-183197000D02*
X75109000Y-182450000D01*
X75149000Y-180770000D02*
X75149000Y-179991000D01*
X75149000Y-183229000D02*
X75149000Y-182450000D01*
X75189000Y-180770000D02*
X75189000Y-179960000D01*
X75189000Y-183260000D02*
X75189000Y-182450000D01*
X75229000Y-180770000D02*
X75229000Y-179930000D01*
X75229000Y-183290000D02*
X75229000Y-182450000D01*
X75269000Y-180770000D02*
X75269000Y-179902000D01*
X75269000Y-183318000D02*
X75269000Y-182450000D01*
X75309000Y-180770000D02*
X75309000Y-179875000D01*
X75309000Y-183345000D02*
X75309000Y-182450000D01*
X75349000Y-180770000D02*
X75349000Y-179850000D01*
X75349000Y-183370000D02*
X75349000Y-182450000D01*
X75389000Y-180770000D02*
X75389000Y-179825000D01*
X75389000Y-183395000D02*
X75389000Y-182450000D01*
X75429000Y-180770000D02*
X75429000Y-179802000D01*
X75429000Y-183418000D02*
X75429000Y-182450000D01*
X75469000Y-180770000D02*
X75469000Y-179780000D01*
X75469000Y-183440000D02*
X75469000Y-182450000D01*
X75509000Y-180770000D02*
X75509000Y-179759000D01*
X75509000Y-183461000D02*
X75509000Y-182450000D01*
X75549000Y-180770000D02*
X75549000Y-179740000D01*
X75549000Y-183480000D02*
X75549000Y-182450000D01*
X75589000Y-180770000D02*
X75589000Y-179721000D01*
X75589000Y-183499000D02*
X75589000Y-182450000D01*
X75629000Y-180770000D02*
X75629000Y-179703000D01*
X75629000Y-183517000D02*
X75629000Y-182450000D01*
X75669000Y-180770000D02*
X75669000Y-179686000D01*
X75669000Y-183534000D02*
X75669000Y-182450000D01*
X75709000Y-180770000D02*
X75709000Y-179670000D01*
X75709000Y-183550000D02*
X75709000Y-182450000D01*
X75749000Y-180770000D02*
X75749000Y-179656000D01*
X75749000Y-183564000D02*
X75749000Y-182450000D01*
X75790000Y-180770000D02*
X75790000Y-179642000D01*
X75790000Y-183578000D02*
X75790000Y-182450000D01*
X75830000Y-180770000D02*
X75830000Y-179628000D01*
X75830000Y-183592000D02*
X75830000Y-182450000D01*
X75870000Y-180770000D02*
X75870000Y-179616000D01*
X75870000Y-183604000D02*
X75870000Y-182450000D01*
X75910000Y-180770000D02*
X75910000Y-179605000D01*
X75910000Y-183615000D02*
X75910000Y-182450000D01*
X75950000Y-180770000D02*
X75950000Y-179594000D01*
X75950000Y-183626000D02*
X75950000Y-182450000D01*
X75990000Y-180770000D02*
X75990000Y-179585000D01*
X75990000Y-183635000D02*
X75990000Y-182450000D01*
X76030000Y-180770000D02*
X76030000Y-179576000D01*
X76030000Y-183644000D02*
X76030000Y-182450000D01*
X76070000Y-180770000D02*
X76070000Y-179568000D01*
X76070000Y-183652000D02*
X76070000Y-182450000D01*
X76110000Y-180770000D02*
X76110000Y-179560000D01*
X76110000Y-183660000D02*
X76110000Y-182450000D01*
X76150000Y-180770000D02*
X76150000Y-179554000D01*
X76150000Y-183666000D02*
X76150000Y-182450000D01*
X76190000Y-180770000D02*
X76190000Y-179548000D01*
X76190000Y-183672000D02*
X76190000Y-182450000D01*
X76230000Y-180770000D02*
X76230000Y-179543000D01*
X76230000Y-183677000D02*
X76230000Y-182450000D01*
X76270000Y-180770000D02*
X76270000Y-179539000D01*
X76270000Y-183681000D02*
X76270000Y-182450000D01*
X76310000Y-183684000D02*
X76310000Y-179536000D01*
X76350000Y-183687000D02*
X76350000Y-179533000D01*
X76390000Y-183689000D02*
X76390000Y-179531000D01*
X76430000Y-183690000D02*
X76430000Y-179530000D01*
X76470000Y-183690000D02*
X76470000Y-179530000D01*
X78590000Y-181610000D02*
G75*
G03*
X78590000Y-181610000I-2120000J0D01*
G01*
%TO.C,C1012*%
X78590000Y-140335000D02*
G75*
G03*
X78590000Y-140335000I-2120000J0D01*
G01*
X76470000Y-142415000D02*
X76470000Y-138255000D01*
X76430000Y-142415000D02*
X76430000Y-138255000D01*
X76390000Y-142414000D02*
X76390000Y-138256000D01*
X76350000Y-142412000D02*
X76350000Y-138258000D01*
X76310000Y-142409000D02*
X76310000Y-138261000D01*
X76270000Y-142406000D02*
X76270000Y-141175000D01*
X76270000Y-139495000D02*
X76270000Y-138264000D01*
X76230000Y-142402000D02*
X76230000Y-141175000D01*
X76230000Y-139495000D02*
X76230000Y-138268000D01*
X76190000Y-142397000D02*
X76190000Y-141175000D01*
X76190000Y-139495000D02*
X76190000Y-138273000D01*
X76150000Y-142391000D02*
X76150000Y-141175000D01*
X76150000Y-139495000D02*
X76150000Y-138279000D01*
X76110000Y-142385000D02*
X76110000Y-141175000D01*
X76110000Y-139495000D02*
X76110000Y-138285000D01*
X76070000Y-142377000D02*
X76070000Y-141175000D01*
X76070000Y-139495000D02*
X76070000Y-138293000D01*
X76030000Y-142369000D02*
X76030000Y-141175000D01*
X76030000Y-139495000D02*
X76030000Y-138301000D01*
X75990000Y-142360000D02*
X75990000Y-141175000D01*
X75990000Y-139495000D02*
X75990000Y-138310000D01*
X75950000Y-142351000D02*
X75950000Y-141175000D01*
X75950000Y-139495000D02*
X75950000Y-138319000D01*
X75910000Y-142340000D02*
X75910000Y-141175000D01*
X75910000Y-139495000D02*
X75910000Y-138330000D01*
X75870000Y-142329000D02*
X75870000Y-141175000D01*
X75870000Y-139495000D02*
X75870000Y-138341000D01*
X75830000Y-142317000D02*
X75830000Y-141175000D01*
X75830000Y-139495000D02*
X75830000Y-138353000D01*
X75790000Y-142303000D02*
X75790000Y-141175000D01*
X75790000Y-139495000D02*
X75790000Y-138367000D01*
X75749000Y-142289000D02*
X75749000Y-141175000D01*
X75749000Y-139495000D02*
X75749000Y-138381000D01*
X75709000Y-142275000D02*
X75709000Y-141175000D01*
X75709000Y-139495000D02*
X75709000Y-138395000D01*
X75669000Y-142259000D02*
X75669000Y-141175000D01*
X75669000Y-139495000D02*
X75669000Y-138411000D01*
X75629000Y-142242000D02*
X75629000Y-141175000D01*
X75629000Y-139495000D02*
X75629000Y-138428000D01*
X75589000Y-142224000D02*
X75589000Y-141175000D01*
X75589000Y-139495000D02*
X75589000Y-138446000D01*
X75549000Y-142205000D02*
X75549000Y-141175000D01*
X75549000Y-139495000D02*
X75549000Y-138465000D01*
X75509000Y-142186000D02*
X75509000Y-141175000D01*
X75509000Y-139495000D02*
X75509000Y-138484000D01*
X75469000Y-142165000D02*
X75469000Y-141175000D01*
X75469000Y-139495000D02*
X75469000Y-138505000D01*
X75429000Y-142143000D02*
X75429000Y-141175000D01*
X75429000Y-139495000D02*
X75429000Y-138527000D01*
X75389000Y-142120000D02*
X75389000Y-141175000D01*
X75389000Y-139495000D02*
X75389000Y-138550000D01*
X75349000Y-142095000D02*
X75349000Y-141175000D01*
X75349000Y-139495000D02*
X75349000Y-138575000D01*
X75309000Y-142070000D02*
X75309000Y-141175000D01*
X75309000Y-139495000D02*
X75309000Y-138600000D01*
X75269000Y-142043000D02*
X75269000Y-141175000D01*
X75269000Y-139495000D02*
X75269000Y-138627000D01*
X75229000Y-142015000D02*
X75229000Y-141175000D01*
X75229000Y-139495000D02*
X75229000Y-138655000D01*
X75189000Y-141985000D02*
X75189000Y-141175000D01*
X75189000Y-139495000D02*
X75189000Y-138685000D01*
X75149000Y-141954000D02*
X75149000Y-141175000D01*
X75149000Y-139495000D02*
X75149000Y-138716000D01*
X75109000Y-141922000D02*
X75109000Y-141175000D01*
X75109000Y-139495000D02*
X75109000Y-138748000D01*
X75069000Y-141887000D02*
X75069000Y-141175000D01*
X75069000Y-139495000D02*
X75069000Y-138783000D01*
X75029000Y-141851000D02*
X75029000Y-141175000D01*
X75029000Y-139495000D02*
X75029000Y-138819000D01*
X74989000Y-141813000D02*
X74989000Y-141175000D01*
X74989000Y-139495000D02*
X74989000Y-138857000D01*
X74949000Y-141773000D02*
X74949000Y-141175000D01*
X74949000Y-139495000D02*
X74949000Y-138897000D01*
X74909000Y-141731000D02*
X74909000Y-141175000D01*
X74909000Y-139495000D02*
X74909000Y-138939000D01*
X74869000Y-141686000D02*
X74869000Y-141175000D01*
X74869000Y-139495000D02*
X74869000Y-138984000D01*
X74829000Y-141639000D02*
X74829000Y-141175000D01*
X74829000Y-139495000D02*
X74829000Y-139031000D01*
X74789000Y-141589000D02*
X74789000Y-141175000D01*
X74789000Y-139495000D02*
X74789000Y-139081000D01*
X74749000Y-141535000D02*
X74749000Y-141175000D01*
X74749000Y-139495000D02*
X74749000Y-139135000D01*
X74709000Y-141477000D02*
X74709000Y-141175000D01*
X74709000Y-139495000D02*
X74709000Y-139193000D01*
X74669000Y-141415000D02*
X74669000Y-141175000D01*
X74669000Y-139495000D02*
X74669000Y-139255000D01*
X74629000Y-141348000D02*
X74629000Y-139322000D01*
X74589000Y-141275000D02*
X74589000Y-139395000D01*
X74549000Y-141194000D02*
X74549000Y-139476000D01*
X74509000Y-141103000D02*
X74509000Y-139567000D01*
X74469000Y-140999000D02*
X74469000Y-139671000D01*
X74429000Y-140872000D02*
X74429000Y-139798000D01*
X74389000Y-140705000D02*
X74389000Y-139965000D01*
X78739801Y-141530000D02*
X78339801Y-141530000D01*
X78539801Y-141730000D02*
X78539801Y-141330000D01*
%TO.C,C1013*%
X78539801Y-129030000D02*
X78539801Y-128630000D01*
X78739801Y-128830000D02*
X78339801Y-128830000D01*
X74389000Y-128005000D02*
X74389000Y-127265000D01*
X74429000Y-128172000D02*
X74429000Y-127098000D01*
X74469000Y-128299000D02*
X74469000Y-126971000D01*
X74509000Y-128403000D02*
X74509000Y-126867000D01*
X74549000Y-128494000D02*
X74549000Y-126776000D01*
X74589000Y-128575000D02*
X74589000Y-126695000D01*
X74629000Y-128648000D02*
X74629000Y-126622000D01*
X74669000Y-126795000D02*
X74669000Y-126555000D01*
X74669000Y-128715000D02*
X74669000Y-128475000D01*
X74709000Y-126795000D02*
X74709000Y-126493000D01*
X74709000Y-128777000D02*
X74709000Y-128475000D01*
X74749000Y-126795000D02*
X74749000Y-126435000D01*
X74749000Y-128835000D02*
X74749000Y-128475000D01*
X74789000Y-126795000D02*
X74789000Y-126381000D01*
X74789000Y-128889000D02*
X74789000Y-128475000D01*
X74829000Y-126795000D02*
X74829000Y-126331000D01*
X74829000Y-128939000D02*
X74829000Y-128475000D01*
X74869000Y-126795000D02*
X74869000Y-126284000D01*
X74869000Y-128986000D02*
X74869000Y-128475000D01*
X74909000Y-126795000D02*
X74909000Y-126239000D01*
X74909000Y-129031000D02*
X74909000Y-128475000D01*
X74949000Y-126795000D02*
X74949000Y-126197000D01*
X74949000Y-129073000D02*
X74949000Y-128475000D01*
X74989000Y-126795000D02*
X74989000Y-126157000D01*
X74989000Y-129113000D02*
X74989000Y-128475000D01*
X75029000Y-126795000D02*
X75029000Y-126119000D01*
X75029000Y-129151000D02*
X75029000Y-128475000D01*
X75069000Y-126795000D02*
X75069000Y-126083000D01*
X75069000Y-129187000D02*
X75069000Y-128475000D01*
X75109000Y-126795000D02*
X75109000Y-126048000D01*
X75109000Y-129222000D02*
X75109000Y-128475000D01*
X75149000Y-126795000D02*
X75149000Y-126016000D01*
X75149000Y-129254000D02*
X75149000Y-128475000D01*
X75189000Y-126795000D02*
X75189000Y-125985000D01*
X75189000Y-129285000D02*
X75189000Y-128475000D01*
X75229000Y-126795000D02*
X75229000Y-125955000D01*
X75229000Y-129315000D02*
X75229000Y-128475000D01*
X75269000Y-126795000D02*
X75269000Y-125927000D01*
X75269000Y-129343000D02*
X75269000Y-128475000D01*
X75309000Y-126795000D02*
X75309000Y-125900000D01*
X75309000Y-129370000D02*
X75309000Y-128475000D01*
X75349000Y-126795000D02*
X75349000Y-125875000D01*
X75349000Y-129395000D02*
X75349000Y-128475000D01*
X75389000Y-126795000D02*
X75389000Y-125850000D01*
X75389000Y-129420000D02*
X75389000Y-128475000D01*
X75429000Y-126795000D02*
X75429000Y-125827000D01*
X75429000Y-129443000D02*
X75429000Y-128475000D01*
X75469000Y-126795000D02*
X75469000Y-125805000D01*
X75469000Y-129465000D02*
X75469000Y-128475000D01*
X75509000Y-126795000D02*
X75509000Y-125784000D01*
X75509000Y-129486000D02*
X75509000Y-128475000D01*
X75549000Y-126795000D02*
X75549000Y-125765000D01*
X75549000Y-129505000D02*
X75549000Y-128475000D01*
X75589000Y-126795000D02*
X75589000Y-125746000D01*
X75589000Y-129524000D02*
X75589000Y-128475000D01*
X75629000Y-126795000D02*
X75629000Y-125728000D01*
X75629000Y-129542000D02*
X75629000Y-128475000D01*
X75669000Y-126795000D02*
X75669000Y-125711000D01*
X75669000Y-129559000D02*
X75669000Y-128475000D01*
X75709000Y-126795000D02*
X75709000Y-125695000D01*
X75709000Y-129575000D02*
X75709000Y-128475000D01*
X75749000Y-126795000D02*
X75749000Y-125681000D01*
X75749000Y-129589000D02*
X75749000Y-128475000D01*
X75790000Y-126795000D02*
X75790000Y-125667000D01*
X75790000Y-129603000D02*
X75790000Y-128475000D01*
X75830000Y-126795000D02*
X75830000Y-125653000D01*
X75830000Y-129617000D02*
X75830000Y-128475000D01*
X75870000Y-126795000D02*
X75870000Y-125641000D01*
X75870000Y-129629000D02*
X75870000Y-128475000D01*
X75910000Y-126795000D02*
X75910000Y-125630000D01*
X75910000Y-129640000D02*
X75910000Y-128475000D01*
X75950000Y-126795000D02*
X75950000Y-125619000D01*
X75950000Y-129651000D02*
X75950000Y-128475000D01*
X75990000Y-126795000D02*
X75990000Y-125610000D01*
X75990000Y-129660000D02*
X75990000Y-128475000D01*
X76030000Y-126795000D02*
X76030000Y-125601000D01*
X76030000Y-129669000D02*
X76030000Y-128475000D01*
X76070000Y-126795000D02*
X76070000Y-125593000D01*
X76070000Y-129677000D02*
X76070000Y-128475000D01*
X76110000Y-126795000D02*
X76110000Y-125585000D01*
X76110000Y-129685000D02*
X76110000Y-128475000D01*
X76150000Y-126795000D02*
X76150000Y-125579000D01*
X76150000Y-129691000D02*
X76150000Y-128475000D01*
X76190000Y-126795000D02*
X76190000Y-125573000D01*
X76190000Y-129697000D02*
X76190000Y-128475000D01*
X76230000Y-126795000D02*
X76230000Y-125568000D01*
X76230000Y-129702000D02*
X76230000Y-128475000D01*
X76270000Y-126795000D02*
X76270000Y-125564000D01*
X76270000Y-129706000D02*
X76270000Y-128475000D01*
X76310000Y-129709000D02*
X76310000Y-125561000D01*
X76350000Y-129712000D02*
X76350000Y-125558000D01*
X76390000Y-129714000D02*
X76390000Y-125556000D01*
X76430000Y-129715000D02*
X76430000Y-125555000D01*
X76470000Y-129715000D02*
X76470000Y-125555000D01*
X78590000Y-127635000D02*
G75*
G03*
X78590000Y-127635000I-2120000J0D01*
G01*
%TO.C,C1014*%
X78590000Y-158115000D02*
G75*
G03*
X78590000Y-158115000I-2120000J0D01*
G01*
X76470000Y-160195000D02*
X76470000Y-156035000D01*
X76430000Y-160195000D02*
X76430000Y-156035000D01*
X76390000Y-160194000D02*
X76390000Y-156036000D01*
X76350000Y-160192000D02*
X76350000Y-156038000D01*
X76310000Y-160189000D02*
X76310000Y-156041000D01*
X76270000Y-160186000D02*
X76270000Y-158955000D01*
X76270000Y-157275000D02*
X76270000Y-156044000D01*
X76230000Y-160182000D02*
X76230000Y-158955000D01*
X76230000Y-157275000D02*
X76230000Y-156048000D01*
X76190000Y-160177000D02*
X76190000Y-158955000D01*
X76190000Y-157275000D02*
X76190000Y-156053000D01*
X76150000Y-160171000D02*
X76150000Y-158955000D01*
X76150000Y-157275000D02*
X76150000Y-156059000D01*
X76110000Y-160165000D02*
X76110000Y-158955000D01*
X76110000Y-157275000D02*
X76110000Y-156065000D01*
X76070000Y-160157000D02*
X76070000Y-158955000D01*
X76070000Y-157275000D02*
X76070000Y-156073000D01*
X76030000Y-160149000D02*
X76030000Y-158955000D01*
X76030000Y-157275000D02*
X76030000Y-156081000D01*
X75990000Y-160140000D02*
X75990000Y-158955000D01*
X75990000Y-157275000D02*
X75990000Y-156090000D01*
X75950000Y-160131000D02*
X75950000Y-158955000D01*
X75950000Y-157275000D02*
X75950000Y-156099000D01*
X75910000Y-160120000D02*
X75910000Y-158955000D01*
X75910000Y-157275000D02*
X75910000Y-156110000D01*
X75870000Y-160109000D02*
X75870000Y-158955000D01*
X75870000Y-157275000D02*
X75870000Y-156121000D01*
X75830000Y-160097000D02*
X75830000Y-158955000D01*
X75830000Y-157275000D02*
X75830000Y-156133000D01*
X75790000Y-160083000D02*
X75790000Y-158955000D01*
X75790000Y-157275000D02*
X75790000Y-156147000D01*
X75749000Y-160069000D02*
X75749000Y-158955000D01*
X75749000Y-157275000D02*
X75749000Y-156161000D01*
X75709000Y-160055000D02*
X75709000Y-158955000D01*
X75709000Y-157275000D02*
X75709000Y-156175000D01*
X75669000Y-160039000D02*
X75669000Y-158955000D01*
X75669000Y-157275000D02*
X75669000Y-156191000D01*
X75629000Y-160022000D02*
X75629000Y-158955000D01*
X75629000Y-157275000D02*
X75629000Y-156208000D01*
X75589000Y-160004000D02*
X75589000Y-158955000D01*
X75589000Y-157275000D02*
X75589000Y-156226000D01*
X75549000Y-159985000D02*
X75549000Y-158955000D01*
X75549000Y-157275000D02*
X75549000Y-156245000D01*
X75509000Y-159966000D02*
X75509000Y-158955000D01*
X75509000Y-157275000D02*
X75509000Y-156264000D01*
X75469000Y-159945000D02*
X75469000Y-158955000D01*
X75469000Y-157275000D02*
X75469000Y-156285000D01*
X75429000Y-159923000D02*
X75429000Y-158955000D01*
X75429000Y-157275000D02*
X75429000Y-156307000D01*
X75389000Y-159900000D02*
X75389000Y-158955000D01*
X75389000Y-157275000D02*
X75389000Y-156330000D01*
X75349000Y-159875000D02*
X75349000Y-158955000D01*
X75349000Y-157275000D02*
X75349000Y-156355000D01*
X75309000Y-159850000D02*
X75309000Y-158955000D01*
X75309000Y-157275000D02*
X75309000Y-156380000D01*
X75269000Y-159823000D02*
X75269000Y-158955000D01*
X75269000Y-157275000D02*
X75269000Y-156407000D01*
X75229000Y-159795000D02*
X75229000Y-158955000D01*
X75229000Y-157275000D02*
X75229000Y-156435000D01*
X75189000Y-159765000D02*
X75189000Y-158955000D01*
X75189000Y-157275000D02*
X75189000Y-156465000D01*
X75149000Y-159734000D02*
X75149000Y-158955000D01*
X75149000Y-157275000D02*
X75149000Y-156496000D01*
X75109000Y-159702000D02*
X75109000Y-158955000D01*
X75109000Y-157275000D02*
X75109000Y-156528000D01*
X75069000Y-159667000D02*
X75069000Y-158955000D01*
X75069000Y-157275000D02*
X75069000Y-156563000D01*
X75029000Y-159631000D02*
X75029000Y-158955000D01*
X75029000Y-157275000D02*
X75029000Y-156599000D01*
X74989000Y-159593000D02*
X74989000Y-158955000D01*
X74989000Y-157275000D02*
X74989000Y-156637000D01*
X74949000Y-159553000D02*
X74949000Y-158955000D01*
X74949000Y-157275000D02*
X74949000Y-156677000D01*
X74909000Y-159511000D02*
X74909000Y-158955000D01*
X74909000Y-157275000D02*
X74909000Y-156719000D01*
X74869000Y-159466000D02*
X74869000Y-158955000D01*
X74869000Y-157275000D02*
X74869000Y-156764000D01*
X74829000Y-159419000D02*
X74829000Y-158955000D01*
X74829000Y-157275000D02*
X74829000Y-156811000D01*
X74789000Y-159369000D02*
X74789000Y-158955000D01*
X74789000Y-157275000D02*
X74789000Y-156861000D01*
X74749000Y-159315000D02*
X74749000Y-158955000D01*
X74749000Y-157275000D02*
X74749000Y-156915000D01*
X74709000Y-159257000D02*
X74709000Y-158955000D01*
X74709000Y-157275000D02*
X74709000Y-156973000D01*
X74669000Y-159195000D02*
X74669000Y-158955000D01*
X74669000Y-157275000D02*
X74669000Y-157035000D01*
X74629000Y-159128000D02*
X74629000Y-157102000D01*
X74589000Y-159055000D02*
X74589000Y-157175000D01*
X74549000Y-158974000D02*
X74549000Y-157256000D01*
X74509000Y-158883000D02*
X74509000Y-157347000D01*
X74469000Y-158779000D02*
X74469000Y-157451000D01*
X74429000Y-158652000D02*
X74429000Y-157578000D01*
X74389000Y-158485000D02*
X74389000Y-157745000D01*
X78739801Y-159310000D02*
X78339801Y-159310000D01*
X78539801Y-159510000D02*
X78539801Y-159110000D01*
%TO.C,C1015*%
X95450199Y-125605000D02*
X95450199Y-126005000D01*
X95250199Y-125805000D02*
X95650199Y-125805000D01*
X99601000Y-126630000D02*
X99601000Y-127370000D01*
X99561000Y-126463000D02*
X99561000Y-127537000D01*
X99521000Y-126336000D02*
X99521000Y-127664000D01*
X99481000Y-126232000D02*
X99481000Y-127768000D01*
X99441000Y-126141000D02*
X99441000Y-127859000D01*
X99401000Y-126060000D02*
X99401000Y-127940000D01*
X99361000Y-125987000D02*
X99361000Y-128013000D01*
X99321000Y-127840000D02*
X99321000Y-128080000D01*
X99321000Y-125920000D02*
X99321000Y-126160000D01*
X99281000Y-127840000D02*
X99281000Y-128142000D01*
X99281000Y-125858000D02*
X99281000Y-126160000D01*
X99241000Y-127840000D02*
X99241000Y-128200000D01*
X99241000Y-125800000D02*
X99241000Y-126160000D01*
X99201000Y-127840000D02*
X99201000Y-128254000D01*
X99201000Y-125746000D02*
X99201000Y-126160000D01*
X99161000Y-127840000D02*
X99161000Y-128304000D01*
X99161000Y-125696000D02*
X99161000Y-126160000D01*
X99121000Y-127840000D02*
X99121000Y-128351000D01*
X99121000Y-125649000D02*
X99121000Y-126160000D01*
X99081000Y-127840000D02*
X99081000Y-128396000D01*
X99081000Y-125604000D02*
X99081000Y-126160000D01*
X99041000Y-127840000D02*
X99041000Y-128438000D01*
X99041000Y-125562000D02*
X99041000Y-126160000D01*
X99001000Y-127840000D02*
X99001000Y-128478000D01*
X99001000Y-125522000D02*
X99001000Y-126160000D01*
X98961000Y-127840000D02*
X98961000Y-128516000D01*
X98961000Y-125484000D02*
X98961000Y-126160000D01*
X98921000Y-127840000D02*
X98921000Y-128552000D01*
X98921000Y-125448000D02*
X98921000Y-126160000D01*
X98881000Y-127840000D02*
X98881000Y-128587000D01*
X98881000Y-125413000D02*
X98881000Y-126160000D01*
X98841000Y-127840000D02*
X98841000Y-128619000D01*
X98841000Y-125381000D02*
X98841000Y-126160000D01*
X98801000Y-127840000D02*
X98801000Y-128650000D01*
X98801000Y-125350000D02*
X98801000Y-126160000D01*
X98761000Y-127840000D02*
X98761000Y-128680000D01*
X98761000Y-125320000D02*
X98761000Y-126160000D01*
X98721000Y-127840000D02*
X98721000Y-128708000D01*
X98721000Y-125292000D02*
X98721000Y-126160000D01*
X98681000Y-127840000D02*
X98681000Y-128735000D01*
X98681000Y-125265000D02*
X98681000Y-126160000D01*
X98641000Y-127840000D02*
X98641000Y-128760000D01*
X98641000Y-125240000D02*
X98641000Y-126160000D01*
X98601000Y-127840000D02*
X98601000Y-128785000D01*
X98601000Y-125215000D02*
X98601000Y-126160000D01*
X98561000Y-127840000D02*
X98561000Y-128808000D01*
X98561000Y-125192000D02*
X98561000Y-126160000D01*
X98521000Y-127840000D02*
X98521000Y-128830000D01*
X98521000Y-125170000D02*
X98521000Y-126160000D01*
X98481000Y-127840000D02*
X98481000Y-128851000D01*
X98481000Y-125149000D02*
X98481000Y-126160000D01*
X98441000Y-127840000D02*
X98441000Y-128870000D01*
X98441000Y-125130000D02*
X98441000Y-126160000D01*
X98401000Y-127840000D02*
X98401000Y-128889000D01*
X98401000Y-125111000D02*
X98401000Y-126160000D01*
X98361000Y-127840000D02*
X98361000Y-128907000D01*
X98361000Y-125093000D02*
X98361000Y-126160000D01*
X98321000Y-127840000D02*
X98321000Y-128924000D01*
X98321000Y-125076000D02*
X98321000Y-126160000D01*
X98281000Y-127840000D02*
X98281000Y-128940000D01*
X98281000Y-125060000D02*
X98281000Y-126160000D01*
X98241000Y-127840000D02*
X98241000Y-128954000D01*
X98241000Y-125046000D02*
X98241000Y-126160000D01*
X98200000Y-127840000D02*
X98200000Y-128968000D01*
X98200000Y-125032000D02*
X98200000Y-126160000D01*
X98160000Y-127840000D02*
X98160000Y-128982000D01*
X98160000Y-125018000D02*
X98160000Y-126160000D01*
X98120000Y-127840000D02*
X98120000Y-128994000D01*
X98120000Y-125006000D02*
X98120000Y-126160000D01*
X98080000Y-127840000D02*
X98080000Y-129005000D01*
X98080000Y-124995000D02*
X98080000Y-126160000D01*
X98040000Y-127840000D02*
X98040000Y-129016000D01*
X98040000Y-124984000D02*
X98040000Y-126160000D01*
X98000000Y-127840000D02*
X98000000Y-129025000D01*
X98000000Y-124975000D02*
X98000000Y-126160000D01*
X97960000Y-127840000D02*
X97960000Y-129034000D01*
X97960000Y-124966000D02*
X97960000Y-126160000D01*
X97920000Y-127840000D02*
X97920000Y-129042000D01*
X97920000Y-124958000D02*
X97920000Y-126160000D01*
X97880000Y-127840000D02*
X97880000Y-129050000D01*
X97880000Y-124950000D02*
X97880000Y-126160000D01*
X97840000Y-127840000D02*
X97840000Y-129056000D01*
X97840000Y-124944000D02*
X97840000Y-126160000D01*
X97800000Y-127840000D02*
X97800000Y-129062000D01*
X97800000Y-124938000D02*
X97800000Y-126160000D01*
X97760000Y-127840000D02*
X97760000Y-129067000D01*
X97760000Y-124933000D02*
X97760000Y-126160000D01*
X97720000Y-127840000D02*
X97720000Y-129071000D01*
X97720000Y-124929000D02*
X97720000Y-126160000D01*
X97680000Y-124926000D02*
X97680000Y-129074000D01*
X97640000Y-124923000D02*
X97640000Y-129077000D01*
X97600000Y-124921000D02*
X97600000Y-129079000D01*
X97560000Y-124920000D02*
X97560000Y-129080000D01*
X97520000Y-124920000D02*
X97520000Y-129080000D01*
X99640000Y-127000000D02*
G75*
G03*
X99640000Y-127000000I-2120000J0D01*
G01*
%TO.C,C1016*%
X78590000Y-175895000D02*
G75*
G03*
X78590000Y-175895000I-2120000J0D01*
G01*
X76470000Y-177975000D02*
X76470000Y-173815000D01*
X76430000Y-177975000D02*
X76430000Y-173815000D01*
X76390000Y-177974000D02*
X76390000Y-173816000D01*
X76350000Y-177972000D02*
X76350000Y-173818000D01*
X76310000Y-177969000D02*
X76310000Y-173821000D01*
X76270000Y-177966000D02*
X76270000Y-176735000D01*
X76270000Y-175055000D02*
X76270000Y-173824000D01*
X76230000Y-177962000D02*
X76230000Y-176735000D01*
X76230000Y-175055000D02*
X76230000Y-173828000D01*
X76190000Y-177957000D02*
X76190000Y-176735000D01*
X76190000Y-175055000D02*
X76190000Y-173833000D01*
X76150000Y-177951000D02*
X76150000Y-176735000D01*
X76150000Y-175055000D02*
X76150000Y-173839000D01*
X76110000Y-177945000D02*
X76110000Y-176735000D01*
X76110000Y-175055000D02*
X76110000Y-173845000D01*
X76070000Y-177937000D02*
X76070000Y-176735000D01*
X76070000Y-175055000D02*
X76070000Y-173853000D01*
X76030000Y-177929000D02*
X76030000Y-176735000D01*
X76030000Y-175055000D02*
X76030000Y-173861000D01*
X75990000Y-177920000D02*
X75990000Y-176735000D01*
X75990000Y-175055000D02*
X75990000Y-173870000D01*
X75950000Y-177911000D02*
X75950000Y-176735000D01*
X75950000Y-175055000D02*
X75950000Y-173879000D01*
X75910000Y-177900000D02*
X75910000Y-176735000D01*
X75910000Y-175055000D02*
X75910000Y-173890000D01*
X75870000Y-177889000D02*
X75870000Y-176735000D01*
X75870000Y-175055000D02*
X75870000Y-173901000D01*
X75830000Y-177877000D02*
X75830000Y-176735000D01*
X75830000Y-175055000D02*
X75830000Y-173913000D01*
X75790000Y-177863000D02*
X75790000Y-176735000D01*
X75790000Y-175055000D02*
X75790000Y-173927000D01*
X75749000Y-177849000D02*
X75749000Y-176735000D01*
X75749000Y-175055000D02*
X75749000Y-173941000D01*
X75709000Y-177835000D02*
X75709000Y-176735000D01*
X75709000Y-175055000D02*
X75709000Y-173955000D01*
X75669000Y-177819000D02*
X75669000Y-176735000D01*
X75669000Y-175055000D02*
X75669000Y-173971000D01*
X75629000Y-177802000D02*
X75629000Y-176735000D01*
X75629000Y-175055000D02*
X75629000Y-173988000D01*
X75589000Y-177784000D02*
X75589000Y-176735000D01*
X75589000Y-175055000D02*
X75589000Y-174006000D01*
X75549000Y-177765000D02*
X75549000Y-176735000D01*
X75549000Y-175055000D02*
X75549000Y-174025000D01*
X75509000Y-177746000D02*
X75509000Y-176735000D01*
X75509000Y-175055000D02*
X75509000Y-174044000D01*
X75469000Y-177725000D02*
X75469000Y-176735000D01*
X75469000Y-175055000D02*
X75469000Y-174065000D01*
X75429000Y-177703000D02*
X75429000Y-176735000D01*
X75429000Y-175055000D02*
X75429000Y-174087000D01*
X75389000Y-177680000D02*
X75389000Y-176735000D01*
X75389000Y-175055000D02*
X75389000Y-174110000D01*
X75349000Y-177655000D02*
X75349000Y-176735000D01*
X75349000Y-175055000D02*
X75349000Y-174135000D01*
X75309000Y-177630000D02*
X75309000Y-176735000D01*
X75309000Y-175055000D02*
X75309000Y-174160000D01*
X75269000Y-177603000D02*
X75269000Y-176735000D01*
X75269000Y-175055000D02*
X75269000Y-174187000D01*
X75229000Y-177575000D02*
X75229000Y-176735000D01*
X75229000Y-175055000D02*
X75229000Y-174215000D01*
X75189000Y-177545000D02*
X75189000Y-176735000D01*
X75189000Y-175055000D02*
X75189000Y-174245000D01*
X75149000Y-177514000D02*
X75149000Y-176735000D01*
X75149000Y-175055000D02*
X75149000Y-174276000D01*
X75109000Y-177482000D02*
X75109000Y-176735000D01*
X75109000Y-175055000D02*
X75109000Y-174308000D01*
X75069000Y-177447000D02*
X75069000Y-176735000D01*
X75069000Y-175055000D02*
X75069000Y-174343000D01*
X75029000Y-177411000D02*
X75029000Y-176735000D01*
X75029000Y-175055000D02*
X75029000Y-174379000D01*
X74989000Y-177373000D02*
X74989000Y-176735000D01*
X74989000Y-175055000D02*
X74989000Y-174417000D01*
X74949000Y-177333000D02*
X74949000Y-176735000D01*
X74949000Y-175055000D02*
X74949000Y-174457000D01*
X74909000Y-177291000D02*
X74909000Y-176735000D01*
X74909000Y-175055000D02*
X74909000Y-174499000D01*
X74869000Y-177246000D02*
X74869000Y-176735000D01*
X74869000Y-175055000D02*
X74869000Y-174544000D01*
X74829000Y-177199000D02*
X74829000Y-176735000D01*
X74829000Y-175055000D02*
X74829000Y-174591000D01*
X74789000Y-177149000D02*
X74789000Y-176735000D01*
X74789000Y-175055000D02*
X74789000Y-174641000D01*
X74749000Y-177095000D02*
X74749000Y-176735000D01*
X74749000Y-175055000D02*
X74749000Y-174695000D01*
X74709000Y-177037000D02*
X74709000Y-176735000D01*
X74709000Y-175055000D02*
X74709000Y-174753000D01*
X74669000Y-176975000D02*
X74669000Y-176735000D01*
X74669000Y-175055000D02*
X74669000Y-174815000D01*
X74629000Y-176908000D02*
X74629000Y-174882000D01*
X74589000Y-176835000D02*
X74589000Y-174955000D01*
X74549000Y-176754000D02*
X74549000Y-175036000D01*
X74509000Y-176663000D02*
X74509000Y-175127000D01*
X74469000Y-176559000D02*
X74469000Y-175231000D01*
X74429000Y-176432000D02*
X74429000Y-175358000D01*
X74389000Y-176265000D02*
X74389000Y-175525000D01*
X78739801Y-177090000D02*
X78339801Y-177090000D01*
X78539801Y-177290000D02*
X78539801Y-176890000D01*
%TO.C,C1017*%
X78539801Y-171575000D02*
X78539801Y-171175000D01*
X78739801Y-171375000D02*
X78339801Y-171375000D01*
X74389000Y-170550000D02*
X74389000Y-169810000D01*
X74429000Y-170717000D02*
X74429000Y-169643000D01*
X74469000Y-170844000D02*
X74469000Y-169516000D01*
X74509000Y-170948000D02*
X74509000Y-169412000D01*
X74549000Y-171039000D02*
X74549000Y-169321000D01*
X74589000Y-171120000D02*
X74589000Y-169240000D01*
X74629000Y-171193000D02*
X74629000Y-169167000D01*
X74669000Y-169340000D02*
X74669000Y-169100000D01*
X74669000Y-171260000D02*
X74669000Y-171020000D01*
X74709000Y-169340000D02*
X74709000Y-169038000D01*
X74709000Y-171322000D02*
X74709000Y-171020000D01*
X74749000Y-169340000D02*
X74749000Y-168980000D01*
X74749000Y-171380000D02*
X74749000Y-171020000D01*
X74789000Y-169340000D02*
X74789000Y-168926000D01*
X74789000Y-171434000D02*
X74789000Y-171020000D01*
X74829000Y-169340000D02*
X74829000Y-168876000D01*
X74829000Y-171484000D02*
X74829000Y-171020000D01*
X74869000Y-169340000D02*
X74869000Y-168829000D01*
X74869000Y-171531000D02*
X74869000Y-171020000D01*
X74909000Y-169340000D02*
X74909000Y-168784000D01*
X74909000Y-171576000D02*
X74909000Y-171020000D01*
X74949000Y-169340000D02*
X74949000Y-168742000D01*
X74949000Y-171618000D02*
X74949000Y-171020000D01*
X74989000Y-169340000D02*
X74989000Y-168702000D01*
X74989000Y-171658000D02*
X74989000Y-171020000D01*
X75029000Y-169340000D02*
X75029000Y-168664000D01*
X75029000Y-171696000D02*
X75029000Y-171020000D01*
X75069000Y-169340000D02*
X75069000Y-168628000D01*
X75069000Y-171732000D02*
X75069000Y-171020000D01*
X75109000Y-169340000D02*
X75109000Y-168593000D01*
X75109000Y-171767000D02*
X75109000Y-171020000D01*
X75149000Y-169340000D02*
X75149000Y-168561000D01*
X75149000Y-171799000D02*
X75149000Y-171020000D01*
X75189000Y-169340000D02*
X75189000Y-168530000D01*
X75189000Y-171830000D02*
X75189000Y-171020000D01*
X75229000Y-169340000D02*
X75229000Y-168500000D01*
X75229000Y-171860000D02*
X75229000Y-171020000D01*
X75269000Y-169340000D02*
X75269000Y-168472000D01*
X75269000Y-171888000D02*
X75269000Y-171020000D01*
X75309000Y-169340000D02*
X75309000Y-168445000D01*
X75309000Y-171915000D02*
X75309000Y-171020000D01*
X75349000Y-169340000D02*
X75349000Y-168420000D01*
X75349000Y-171940000D02*
X75349000Y-171020000D01*
X75389000Y-169340000D02*
X75389000Y-168395000D01*
X75389000Y-171965000D02*
X75389000Y-171020000D01*
X75429000Y-169340000D02*
X75429000Y-168372000D01*
X75429000Y-171988000D02*
X75429000Y-171020000D01*
X75469000Y-169340000D02*
X75469000Y-168350000D01*
X75469000Y-172010000D02*
X75469000Y-171020000D01*
X75509000Y-169340000D02*
X75509000Y-168329000D01*
X75509000Y-172031000D02*
X75509000Y-171020000D01*
X75549000Y-169340000D02*
X75549000Y-168310000D01*
X75549000Y-172050000D02*
X75549000Y-171020000D01*
X75589000Y-169340000D02*
X75589000Y-168291000D01*
X75589000Y-172069000D02*
X75589000Y-171020000D01*
X75629000Y-169340000D02*
X75629000Y-168273000D01*
X75629000Y-172087000D02*
X75629000Y-171020000D01*
X75669000Y-169340000D02*
X75669000Y-168256000D01*
X75669000Y-172104000D02*
X75669000Y-171020000D01*
X75709000Y-169340000D02*
X75709000Y-168240000D01*
X75709000Y-172120000D02*
X75709000Y-171020000D01*
X75749000Y-169340000D02*
X75749000Y-168226000D01*
X75749000Y-172134000D02*
X75749000Y-171020000D01*
X75790000Y-169340000D02*
X75790000Y-168212000D01*
X75790000Y-172148000D02*
X75790000Y-171020000D01*
X75830000Y-169340000D02*
X75830000Y-168198000D01*
X75830000Y-172162000D02*
X75830000Y-171020000D01*
X75870000Y-169340000D02*
X75870000Y-168186000D01*
X75870000Y-172174000D02*
X75870000Y-171020000D01*
X75910000Y-169340000D02*
X75910000Y-168175000D01*
X75910000Y-172185000D02*
X75910000Y-171020000D01*
X75950000Y-169340000D02*
X75950000Y-168164000D01*
X75950000Y-172196000D02*
X75950000Y-171020000D01*
X75990000Y-169340000D02*
X75990000Y-168155000D01*
X75990000Y-172205000D02*
X75990000Y-171020000D01*
X76030000Y-169340000D02*
X76030000Y-168146000D01*
X76030000Y-172214000D02*
X76030000Y-171020000D01*
X76070000Y-169340000D02*
X76070000Y-168138000D01*
X76070000Y-172222000D02*
X76070000Y-171020000D01*
X76110000Y-169340000D02*
X76110000Y-168130000D01*
X76110000Y-172230000D02*
X76110000Y-171020000D01*
X76150000Y-169340000D02*
X76150000Y-168124000D01*
X76150000Y-172236000D02*
X76150000Y-171020000D01*
X76190000Y-169340000D02*
X76190000Y-168118000D01*
X76190000Y-172242000D02*
X76190000Y-171020000D01*
X76230000Y-169340000D02*
X76230000Y-168113000D01*
X76230000Y-172247000D02*
X76230000Y-171020000D01*
X76270000Y-169340000D02*
X76270000Y-168109000D01*
X76270000Y-172251000D02*
X76270000Y-171020000D01*
X76310000Y-172254000D02*
X76310000Y-168106000D01*
X76350000Y-172257000D02*
X76350000Y-168103000D01*
X76390000Y-172259000D02*
X76390000Y-168101000D01*
X76430000Y-172260000D02*
X76430000Y-168100000D01*
X76470000Y-172260000D02*
X76470000Y-168100000D01*
X78590000Y-170180000D02*
G75*
G03*
X78590000Y-170180000I-2120000J0D01*
G01*
%TO.C,C1018*%
X78590000Y-146050000D02*
G75*
G03*
X78590000Y-146050000I-2120000J0D01*
G01*
X76470000Y-148130000D02*
X76470000Y-143970000D01*
X76430000Y-148130000D02*
X76430000Y-143970000D01*
X76390000Y-148129000D02*
X76390000Y-143971000D01*
X76350000Y-148127000D02*
X76350000Y-143973000D01*
X76310000Y-148124000D02*
X76310000Y-143976000D01*
X76270000Y-148121000D02*
X76270000Y-146890000D01*
X76270000Y-145210000D02*
X76270000Y-143979000D01*
X76230000Y-148117000D02*
X76230000Y-146890000D01*
X76230000Y-145210000D02*
X76230000Y-143983000D01*
X76190000Y-148112000D02*
X76190000Y-146890000D01*
X76190000Y-145210000D02*
X76190000Y-143988000D01*
X76150000Y-148106000D02*
X76150000Y-146890000D01*
X76150000Y-145210000D02*
X76150000Y-143994000D01*
X76110000Y-148100000D02*
X76110000Y-146890000D01*
X76110000Y-145210000D02*
X76110000Y-144000000D01*
X76070000Y-148092000D02*
X76070000Y-146890000D01*
X76070000Y-145210000D02*
X76070000Y-144008000D01*
X76030000Y-148084000D02*
X76030000Y-146890000D01*
X76030000Y-145210000D02*
X76030000Y-144016000D01*
X75990000Y-148075000D02*
X75990000Y-146890000D01*
X75990000Y-145210000D02*
X75990000Y-144025000D01*
X75950000Y-148066000D02*
X75950000Y-146890000D01*
X75950000Y-145210000D02*
X75950000Y-144034000D01*
X75910000Y-148055000D02*
X75910000Y-146890000D01*
X75910000Y-145210000D02*
X75910000Y-144045000D01*
X75870000Y-148044000D02*
X75870000Y-146890000D01*
X75870000Y-145210000D02*
X75870000Y-144056000D01*
X75830000Y-148032000D02*
X75830000Y-146890000D01*
X75830000Y-145210000D02*
X75830000Y-144068000D01*
X75790000Y-148018000D02*
X75790000Y-146890000D01*
X75790000Y-145210000D02*
X75790000Y-144082000D01*
X75749000Y-148004000D02*
X75749000Y-146890000D01*
X75749000Y-145210000D02*
X75749000Y-144096000D01*
X75709000Y-147990000D02*
X75709000Y-146890000D01*
X75709000Y-145210000D02*
X75709000Y-144110000D01*
X75669000Y-147974000D02*
X75669000Y-146890000D01*
X75669000Y-145210000D02*
X75669000Y-144126000D01*
X75629000Y-147957000D02*
X75629000Y-146890000D01*
X75629000Y-145210000D02*
X75629000Y-144143000D01*
X75589000Y-147939000D02*
X75589000Y-146890000D01*
X75589000Y-145210000D02*
X75589000Y-144161000D01*
X75549000Y-147920000D02*
X75549000Y-146890000D01*
X75549000Y-145210000D02*
X75549000Y-144180000D01*
X75509000Y-147901000D02*
X75509000Y-146890000D01*
X75509000Y-145210000D02*
X75509000Y-144199000D01*
X75469000Y-147880000D02*
X75469000Y-146890000D01*
X75469000Y-145210000D02*
X75469000Y-144220000D01*
X75429000Y-147858000D02*
X75429000Y-146890000D01*
X75429000Y-145210000D02*
X75429000Y-144242000D01*
X75389000Y-147835000D02*
X75389000Y-146890000D01*
X75389000Y-145210000D02*
X75389000Y-144265000D01*
X75349000Y-147810000D02*
X75349000Y-146890000D01*
X75349000Y-145210000D02*
X75349000Y-144290000D01*
X75309000Y-147785000D02*
X75309000Y-146890000D01*
X75309000Y-145210000D02*
X75309000Y-144315000D01*
X75269000Y-147758000D02*
X75269000Y-146890000D01*
X75269000Y-145210000D02*
X75269000Y-144342000D01*
X75229000Y-147730000D02*
X75229000Y-146890000D01*
X75229000Y-145210000D02*
X75229000Y-144370000D01*
X75189000Y-147700000D02*
X75189000Y-146890000D01*
X75189000Y-145210000D02*
X75189000Y-144400000D01*
X75149000Y-147669000D02*
X75149000Y-146890000D01*
X75149000Y-145210000D02*
X75149000Y-144431000D01*
X75109000Y-147637000D02*
X75109000Y-146890000D01*
X75109000Y-145210000D02*
X75109000Y-144463000D01*
X75069000Y-147602000D02*
X75069000Y-146890000D01*
X75069000Y-145210000D02*
X75069000Y-144498000D01*
X75029000Y-147566000D02*
X75029000Y-146890000D01*
X75029000Y-145210000D02*
X75029000Y-144534000D01*
X74989000Y-147528000D02*
X74989000Y-146890000D01*
X74989000Y-145210000D02*
X74989000Y-144572000D01*
X74949000Y-147488000D02*
X74949000Y-146890000D01*
X74949000Y-145210000D02*
X74949000Y-144612000D01*
X74909000Y-147446000D02*
X74909000Y-146890000D01*
X74909000Y-145210000D02*
X74909000Y-144654000D01*
X74869000Y-147401000D02*
X74869000Y-146890000D01*
X74869000Y-145210000D02*
X74869000Y-144699000D01*
X74829000Y-147354000D02*
X74829000Y-146890000D01*
X74829000Y-145210000D02*
X74829000Y-144746000D01*
X74789000Y-147304000D02*
X74789000Y-146890000D01*
X74789000Y-145210000D02*
X74789000Y-144796000D01*
X74749000Y-147250000D02*
X74749000Y-146890000D01*
X74749000Y-145210000D02*
X74749000Y-144850000D01*
X74709000Y-147192000D02*
X74709000Y-146890000D01*
X74709000Y-145210000D02*
X74709000Y-144908000D01*
X74669000Y-147130000D02*
X74669000Y-146890000D01*
X74669000Y-145210000D02*
X74669000Y-144970000D01*
X74629000Y-147063000D02*
X74629000Y-145037000D01*
X74589000Y-146990000D02*
X74589000Y-145110000D01*
X74549000Y-146909000D02*
X74549000Y-145191000D01*
X74509000Y-146818000D02*
X74509000Y-145282000D01*
X74469000Y-146714000D02*
X74469000Y-145386000D01*
X74429000Y-146587000D02*
X74429000Y-145513000D01*
X74389000Y-146420000D02*
X74389000Y-145680000D01*
X78739801Y-147245000D02*
X78339801Y-147245000D01*
X78539801Y-147445000D02*
X78539801Y-147045000D01*
%TO.C,C1019*%
X95450199Y-144020000D02*
X95450199Y-144420000D01*
X95250199Y-144220000D02*
X95650199Y-144220000D01*
X99601000Y-145045000D02*
X99601000Y-145785000D01*
X99561000Y-144878000D02*
X99561000Y-145952000D01*
X99521000Y-144751000D02*
X99521000Y-146079000D01*
X99481000Y-144647000D02*
X99481000Y-146183000D01*
X99441000Y-144556000D02*
X99441000Y-146274000D01*
X99401000Y-144475000D02*
X99401000Y-146355000D01*
X99361000Y-144402000D02*
X99361000Y-146428000D01*
X99321000Y-146255000D02*
X99321000Y-146495000D01*
X99321000Y-144335000D02*
X99321000Y-144575000D01*
X99281000Y-146255000D02*
X99281000Y-146557000D01*
X99281000Y-144273000D02*
X99281000Y-144575000D01*
X99241000Y-146255000D02*
X99241000Y-146615000D01*
X99241000Y-144215000D02*
X99241000Y-144575000D01*
X99201000Y-146255000D02*
X99201000Y-146669000D01*
X99201000Y-144161000D02*
X99201000Y-144575000D01*
X99161000Y-146255000D02*
X99161000Y-146719000D01*
X99161000Y-144111000D02*
X99161000Y-144575000D01*
X99121000Y-146255000D02*
X99121000Y-146766000D01*
X99121000Y-144064000D02*
X99121000Y-144575000D01*
X99081000Y-146255000D02*
X99081000Y-146811000D01*
X99081000Y-144019000D02*
X99081000Y-144575000D01*
X99041000Y-146255000D02*
X99041000Y-146853000D01*
X99041000Y-143977000D02*
X99041000Y-144575000D01*
X99001000Y-146255000D02*
X99001000Y-146893000D01*
X99001000Y-143937000D02*
X99001000Y-144575000D01*
X98961000Y-146255000D02*
X98961000Y-146931000D01*
X98961000Y-143899000D02*
X98961000Y-144575000D01*
X98921000Y-146255000D02*
X98921000Y-146967000D01*
X98921000Y-143863000D02*
X98921000Y-144575000D01*
X98881000Y-146255000D02*
X98881000Y-147002000D01*
X98881000Y-143828000D02*
X98881000Y-144575000D01*
X98841000Y-146255000D02*
X98841000Y-147034000D01*
X98841000Y-143796000D02*
X98841000Y-144575000D01*
X98801000Y-146255000D02*
X98801000Y-147065000D01*
X98801000Y-143765000D02*
X98801000Y-144575000D01*
X98761000Y-146255000D02*
X98761000Y-147095000D01*
X98761000Y-143735000D02*
X98761000Y-144575000D01*
X98721000Y-146255000D02*
X98721000Y-147123000D01*
X98721000Y-143707000D02*
X98721000Y-144575000D01*
X98681000Y-146255000D02*
X98681000Y-147150000D01*
X98681000Y-143680000D02*
X98681000Y-144575000D01*
X98641000Y-146255000D02*
X98641000Y-147175000D01*
X98641000Y-143655000D02*
X98641000Y-144575000D01*
X98601000Y-146255000D02*
X98601000Y-147200000D01*
X98601000Y-143630000D02*
X98601000Y-144575000D01*
X98561000Y-146255000D02*
X98561000Y-147223000D01*
X98561000Y-143607000D02*
X98561000Y-144575000D01*
X98521000Y-146255000D02*
X98521000Y-147245000D01*
X98521000Y-143585000D02*
X98521000Y-144575000D01*
X98481000Y-146255000D02*
X98481000Y-147266000D01*
X98481000Y-143564000D02*
X98481000Y-144575000D01*
X98441000Y-146255000D02*
X98441000Y-147285000D01*
X98441000Y-143545000D02*
X98441000Y-144575000D01*
X98401000Y-146255000D02*
X98401000Y-147304000D01*
X98401000Y-143526000D02*
X98401000Y-144575000D01*
X98361000Y-146255000D02*
X98361000Y-147322000D01*
X98361000Y-143508000D02*
X98361000Y-144575000D01*
X98321000Y-146255000D02*
X98321000Y-147339000D01*
X98321000Y-143491000D02*
X98321000Y-144575000D01*
X98281000Y-146255000D02*
X98281000Y-147355000D01*
X98281000Y-143475000D02*
X98281000Y-144575000D01*
X98241000Y-146255000D02*
X98241000Y-147369000D01*
X98241000Y-143461000D02*
X98241000Y-144575000D01*
X98200000Y-146255000D02*
X98200000Y-147383000D01*
X98200000Y-143447000D02*
X98200000Y-144575000D01*
X98160000Y-146255000D02*
X98160000Y-147397000D01*
X98160000Y-143433000D02*
X98160000Y-144575000D01*
X98120000Y-146255000D02*
X98120000Y-147409000D01*
X98120000Y-143421000D02*
X98120000Y-144575000D01*
X98080000Y-146255000D02*
X98080000Y-147420000D01*
X98080000Y-143410000D02*
X98080000Y-144575000D01*
X98040000Y-146255000D02*
X98040000Y-147431000D01*
X98040000Y-143399000D02*
X98040000Y-144575000D01*
X98000000Y-146255000D02*
X98000000Y-147440000D01*
X98000000Y-143390000D02*
X98000000Y-144575000D01*
X97960000Y-146255000D02*
X97960000Y-147449000D01*
X97960000Y-143381000D02*
X97960000Y-144575000D01*
X97920000Y-146255000D02*
X97920000Y-147457000D01*
X97920000Y-143373000D02*
X97920000Y-144575000D01*
X97880000Y-146255000D02*
X97880000Y-147465000D01*
X97880000Y-143365000D02*
X97880000Y-144575000D01*
X97840000Y-146255000D02*
X97840000Y-147471000D01*
X97840000Y-143359000D02*
X97840000Y-144575000D01*
X97800000Y-146255000D02*
X97800000Y-147477000D01*
X97800000Y-143353000D02*
X97800000Y-144575000D01*
X97760000Y-146255000D02*
X97760000Y-147482000D01*
X97760000Y-143348000D02*
X97760000Y-144575000D01*
X97720000Y-146255000D02*
X97720000Y-147486000D01*
X97720000Y-143344000D02*
X97720000Y-144575000D01*
X97680000Y-143341000D02*
X97680000Y-147489000D01*
X97640000Y-143338000D02*
X97640000Y-147492000D01*
X97600000Y-143336000D02*
X97600000Y-147494000D01*
X97560000Y-143335000D02*
X97560000Y-147495000D01*
X97520000Y-143335000D02*
X97520000Y-147495000D01*
X99640000Y-145415000D02*
G75*
G03*
X99640000Y-145415000I-2120000J0D01*
G01*
%TO.C,C1020*%
X99640000Y-163830000D02*
G75*
G03*
X99640000Y-163830000I-2120000J0D01*
G01*
X97520000Y-161750000D02*
X97520000Y-165910000D01*
X97560000Y-161750000D02*
X97560000Y-165910000D01*
X97600000Y-161751000D02*
X97600000Y-165909000D01*
X97640000Y-161753000D02*
X97640000Y-165907000D01*
X97680000Y-161756000D02*
X97680000Y-165904000D01*
X97720000Y-161759000D02*
X97720000Y-162990000D01*
X97720000Y-164670000D02*
X97720000Y-165901000D01*
X97760000Y-161763000D02*
X97760000Y-162990000D01*
X97760000Y-164670000D02*
X97760000Y-165897000D01*
X97800000Y-161768000D02*
X97800000Y-162990000D01*
X97800000Y-164670000D02*
X97800000Y-165892000D01*
X97840000Y-161774000D02*
X97840000Y-162990000D01*
X97840000Y-164670000D02*
X97840000Y-165886000D01*
X97880000Y-161780000D02*
X97880000Y-162990000D01*
X97880000Y-164670000D02*
X97880000Y-165880000D01*
X97920000Y-161788000D02*
X97920000Y-162990000D01*
X97920000Y-164670000D02*
X97920000Y-165872000D01*
X97960000Y-161796000D02*
X97960000Y-162990000D01*
X97960000Y-164670000D02*
X97960000Y-165864000D01*
X98000000Y-161805000D02*
X98000000Y-162990000D01*
X98000000Y-164670000D02*
X98000000Y-165855000D01*
X98040000Y-161814000D02*
X98040000Y-162990000D01*
X98040000Y-164670000D02*
X98040000Y-165846000D01*
X98080000Y-161825000D02*
X98080000Y-162990000D01*
X98080000Y-164670000D02*
X98080000Y-165835000D01*
X98120000Y-161836000D02*
X98120000Y-162990000D01*
X98120000Y-164670000D02*
X98120000Y-165824000D01*
X98160000Y-161848000D02*
X98160000Y-162990000D01*
X98160000Y-164670000D02*
X98160000Y-165812000D01*
X98200000Y-161862000D02*
X98200000Y-162990000D01*
X98200000Y-164670000D02*
X98200000Y-165798000D01*
X98241000Y-161876000D02*
X98241000Y-162990000D01*
X98241000Y-164670000D02*
X98241000Y-165784000D01*
X98281000Y-161890000D02*
X98281000Y-162990000D01*
X98281000Y-164670000D02*
X98281000Y-165770000D01*
X98321000Y-161906000D02*
X98321000Y-162990000D01*
X98321000Y-164670000D02*
X98321000Y-165754000D01*
X98361000Y-161923000D02*
X98361000Y-162990000D01*
X98361000Y-164670000D02*
X98361000Y-165737000D01*
X98401000Y-161941000D02*
X98401000Y-162990000D01*
X98401000Y-164670000D02*
X98401000Y-165719000D01*
X98441000Y-161960000D02*
X98441000Y-162990000D01*
X98441000Y-164670000D02*
X98441000Y-165700000D01*
X98481000Y-161979000D02*
X98481000Y-162990000D01*
X98481000Y-164670000D02*
X98481000Y-165681000D01*
X98521000Y-162000000D02*
X98521000Y-162990000D01*
X98521000Y-164670000D02*
X98521000Y-165660000D01*
X98561000Y-162022000D02*
X98561000Y-162990000D01*
X98561000Y-164670000D02*
X98561000Y-165638000D01*
X98601000Y-162045000D02*
X98601000Y-162990000D01*
X98601000Y-164670000D02*
X98601000Y-165615000D01*
X98641000Y-162070000D02*
X98641000Y-162990000D01*
X98641000Y-164670000D02*
X98641000Y-165590000D01*
X98681000Y-162095000D02*
X98681000Y-162990000D01*
X98681000Y-164670000D02*
X98681000Y-165565000D01*
X98721000Y-162122000D02*
X98721000Y-162990000D01*
X98721000Y-164670000D02*
X98721000Y-165538000D01*
X98761000Y-162150000D02*
X98761000Y-162990000D01*
X98761000Y-164670000D02*
X98761000Y-165510000D01*
X98801000Y-162180000D02*
X98801000Y-162990000D01*
X98801000Y-164670000D02*
X98801000Y-165480000D01*
X98841000Y-162211000D02*
X98841000Y-162990000D01*
X98841000Y-164670000D02*
X98841000Y-165449000D01*
X98881000Y-162243000D02*
X98881000Y-162990000D01*
X98881000Y-164670000D02*
X98881000Y-165417000D01*
X98921000Y-162278000D02*
X98921000Y-162990000D01*
X98921000Y-164670000D02*
X98921000Y-165382000D01*
X98961000Y-162314000D02*
X98961000Y-162990000D01*
X98961000Y-164670000D02*
X98961000Y-165346000D01*
X99001000Y-162352000D02*
X99001000Y-162990000D01*
X99001000Y-164670000D02*
X99001000Y-165308000D01*
X99041000Y-162392000D02*
X99041000Y-162990000D01*
X99041000Y-164670000D02*
X99041000Y-165268000D01*
X99081000Y-162434000D02*
X99081000Y-162990000D01*
X99081000Y-164670000D02*
X99081000Y-165226000D01*
X99121000Y-162479000D02*
X99121000Y-162990000D01*
X99121000Y-164670000D02*
X99121000Y-165181000D01*
X99161000Y-162526000D02*
X99161000Y-162990000D01*
X99161000Y-164670000D02*
X99161000Y-165134000D01*
X99201000Y-162576000D02*
X99201000Y-162990000D01*
X99201000Y-164670000D02*
X99201000Y-165084000D01*
X99241000Y-162630000D02*
X99241000Y-162990000D01*
X99241000Y-164670000D02*
X99241000Y-165030000D01*
X99281000Y-162688000D02*
X99281000Y-162990000D01*
X99281000Y-164670000D02*
X99281000Y-164972000D01*
X99321000Y-162750000D02*
X99321000Y-162990000D01*
X99321000Y-164670000D02*
X99321000Y-164910000D01*
X99361000Y-162817000D02*
X99361000Y-164843000D01*
X99401000Y-162890000D02*
X99401000Y-164770000D01*
X99441000Y-162971000D02*
X99441000Y-164689000D01*
X99481000Y-163062000D02*
X99481000Y-164598000D01*
X99521000Y-163166000D02*
X99521000Y-164494000D01*
X99561000Y-163293000D02*
X99561000Y-164367000D01*
X99601000Y-163460000D02*
X99601000Y-164200000D01*
X95250199Y-162635000D02*
X95650199Y-162635000D01*
X95450199Y-162435000D02*
X95450199Y-162835000D01*
%TO.C,C1021*%
X95450199Y-173865000D02*
X95450199Y-174265000D01*
X95250199Y-174065000D02*
X95650199Y-174065000D01*
X99601000Y-174890000D02*
X99601000Y-175630000D01*
X99561000Y-174723000D02*
X99561000Y-175797000D01*
X99521000Y-174596000D02*
X99521000Y-175924000D01*
X99481000Y-174492000D02*
X99481000Y-176028000D01*
X99441000Y-174401000D02*
X99441000Y-176119000D01*
X99401000Y-174320000D02*
X99401000Y-176200000D01*
X99361000Y-174247000D02*
X99361000Y-176273000D01*
X99321000Y-176100000D02*
X99321000Y-176340000D01*
X99321000Y-174180000D02*
X99321000Y-174420000D01*
X99281000Y-176100000D02*
X99281000Y-176402000D01*
X99281000Y-174118000D02*
X99281000Y-174420000D01*
X99241000Y-176100000D02*
X99241000Y-176460000D01*
X99241000Y-174060000D02*
X99241000Y-174420000D01*
X99201000Y-176100000D02*
X99201000Y-176514000D01*
X99201000Y-174006000D02*
X99201000Y-174420000D01*
X99161000Y-176100000D02*
X99161000Y-176564000D01*
X99161000Y-173956000D02*
X99161000Y-174420000D01*
X99121000Y-176100000D02*
X99121000Y-176611000D01*
X99121000Y-173909000D02*
X99121000Y-174420000D01*
X99081000Y-176100000D02*
X99081000Y-176656000D01*
X99081000Y-173864000D02*
X99081000Y-174420000D01*
X99041000Y-176100000D02*
X99041000Y-176698000D01*
X99041000Y-173822000D02*
X99041000Y-174420000D01*
X99001000Y-176100000D02*
X99001000Y-176738000D01*
X99001000Y-173782000D02*
X99001000Y-174420000D01*
X98961000Y-176100000D02*
X98961000Y-176776000D01*
X98961000Y-173744000D02*
X98961000Y-174420000D01*
X98921000Y-176100000D02*
X98921000Y-176812000D01*
X98921000Y-173708000D02*
X98921000Y-174420000D01*
X98881000Y-176100000D02*
X98881000Y-176847000D01*
X98881000Y-173673000D02*
X98881000Y-174420000D01*
X98841000Y-176100000D02*
X98841000Y-176879000D01*
X98841000Y-173641000D02*
X98841000Y-174420000D01*
X98801000Y-176100000D02*
X98801000Y-176910000D01*
X98801000Y-173610000D02*
X98801000Y-174420000D01*
X98761000Y-176100000D02*
X98761000Y-176940000D01*
X98761000Y-173580000D02*
X98761000Y-174420000D01*
X98721000Y-176100000D02*
X98721000Y-176968000D01*
X98721000Y-173552000D02*
X98721000Y-174420000D01*
X98681000Y-176100000D02*
X98681000Y-176995000D01*
X98681000Y-173525000D02*
X98681000Y-174420000D01*
X98641000Y-176100000D02*
X98641000Y-177020000D01*
X98641000Y-173500000D02*
X98641000Y-174420000D01*
X98601000Y-176100000D02*
X98601000Y-177045000D01*
X98601000Y-173475000D02*
X98601000Y-174420000D01*
X98561000Y-176100000D02*
X98561000Y-177068000D01*
X98561000Y-173452000D02*
X98561000Y-174420000D01*
X98521000Y-176100000D02*
X98521000Y-177090000D01*
X98521000Y-173430000D02*
X98521000Y-174420000D01*
X98481000Y-176100000D02*
X98481000Y-177111000D01*
X98481000Y-173409000D02*
X98481000Y-174420000D01*
X98441000Y-176100000D02*
X98441000Y-177130000D01*
X98441000Y-173390000D02*
X98441000Y-174420000D01*
X98401000Y-176100000D02*
X98401000Y-177149000D01*
X98401000Y-173371000D02*
X98401000Y-174420000D01*
X98361000Y-176100000D02*
X98361000Y-177167000D01*
X98361000Y-173353000D02*
X98361000Y-174420000D01*
X98321000Y-176100000D02*
X98321000Y-177184000D01*
X98321000Y-173336000D02*
X98321000Y-174420000D01*
X98281000Y-176100000D02*
X98281000Y-177200000D01*
X98281000Y-173320000D02*
X98281000Y-174420000D01*
X98241000Y-176100000D02*
X98241000Y-177214000D01*
X98241000Y-173306000D02*
X98241000Y-174420000D01*
X98200000Y-176100000D02*
X98200000Y-177228000D01*
X98200000Y-173292000D02*
X98200000Y-174420000D01*
X98160000Y-176100000D02*
X98160000Y-177242000D01*
X98160000Y-173278000D02*
X98160000Y-174420000D01*
X98120000Y-176100000D02*
X98120000Y-177254000D01*
X98120000Y-173266000D02*
X98120000Y-174420000D01*
X98080000Y-176100000D02*
X98080000Y-177265000D01*
X98080000Y-173255000D02*
X98080000Y-174420000D01*
X98040000Y-176100000D02*
X98040000Y-177276000D01*
X98040000Y-173244000D02*
X98040000Y-174420000D01*
X98000000Y-176100000D02*
X98000000Y-177285000D01*
X98000000Y-173235000D02*
X98000000Y-174420000D01*
X97960000Y-176100000D02*
X97960000Y-177294000D01*
X97960000Y-173226000D02*
X97960000Y-174420000D01*
X97920000Y-176100000D02*
X97920000Y-177302000D01*
X97920000Y-173218000D02*
X97920000Y-174420000D01*
X97880000Y-176100000D02*
X97880000Y-177310000D01*
X97880000Y-173210000D02*
X97880000Y-174420000D01*
X97840000Y-176100000D02*
X97840000Y-177316000D01*
X97840000Y-173204000D02*
X97840000Y-174420000D01*
X97800000Y-176100000D02*
X97800000Y-177322000D01*
X97800000Y-173198000D02*
X97800000Y-174420000D01*
X97760000Y-176100000D02*
X97760000Y-177327000D01*
X97760000Y-173193000D02*
X97760000Y-174420000D01*
X97720000Y-176100000D02*
X97720000Y-177331000D01*
X97720000Y-173189000D02*
X97720000Y-174420000D01*
X97680000Y-173186000D02*
X97680000Y-177334000D01*
X97640000Y-173183000D02*
X97640000Y-177337000D01*
X97600000Y-173181000D02*
X97600000Y-177339000D01*
X97560000Y-173180000D02*
X97560000Y-177340000D01*
X97520000Y-173180000D02*
X97520000Y-177340000D01*
X99640000Y-175260000D02*
G75*
G03*
X99640000Y-175260000I-2120000J0D01*
G01*
%TO.C,C1022*%
X106714775Y-138885000D02*
X106714775Y-138385000D01*
X106964775Y-138635000D02*
X106464775Y-138635000D01*
X101559000Y-137444000D02*
X101559000Y-136876000D01*
X101599000Y-137678000D02*
X101599000Y-136642000D01*
X101639000Y-137837000D02*
X101639000Y-136483000D01*
X101679000Y-137965000D02*
X101679000Y-136355000D01*
X101719000Y-138075000D02*
X101719000Y-136245000D01*
X101759000Y-138171000D02*
X101759000Y-136149000D01*
X101799000Y-138258000D02*
X101799000Y-136062000D01*
X101839000Y-138338000D02*
X101839000Y-135982000D01*
X101879000Y-136120000D02*
X101879000Y-135909000D01*
X101879000Y-138411000D02*
X101879000Y-138200000D01*
X101919000Y-136120000D02*
X101919000Y-135841000D01*
X101919000Y-138479000D02*
X101919000Y-138200000D01*
X101959000Y-136120000D02*
X101959000Y-135777000D01*
X101959000Y-138543000D02*
X101959000Y-138200000D01*
X101999000Y-136120000D02*
X101999000Y-135717000D01*
X101999000Y-138603000D02*
X101999000Y-138200000D01*
X102039000Y-136120000D02*
X102039000Y-135660000D01*
X102039000Y-138660000D02*
X102039000Y-138200000D01*
X102079000Y-136120000D02*
X102079000Y-135606000D01*
X102079000Y-138714000D02*
X102079000Y-138200000D01*
X102119000Y-136120000D02*
X102119000Y-135555000D01*
X102119000Y-138765000D02*
X102119000Y-138200000D01*
X102159000Y-136120000D02*
X102159000Y-135507000D01*
X102159000Y-138813000D02*
X102159000Y-138200000D01*
X102199000Y-136120000D02*
X102199000Y-135461000D01*
X102199000Y-138859000D02*
X102199000Y-138200000D01*
X102239000Y-136120000D02*
X102239000Y-135417000D01*
X102239000Y-138903000D02*
X102239000Y-138200000D01*
X102279000Y-136120000D02*
X102279000Y-135375000D01*
X102279000Y-138945000D02*
X102279000Y-138200000D01*
X102319000Y-136120000D02*
X102319000Y-135334000D01*
X102319000Y-138986000D02*
X102319000Y-138200000D01*
X102359000Y-136120000D02*
X102359000Y-135296000D01*
X102359000Y-139024000D02*
X102359000Y-138200000D01*
X102399000Y-136120000D02*
X102399000Y-135259000D01*
X102399000Y-139061000D02*
X102399000Y-138200000D01*
X102439000Y-136120000D02*
X102439000Y-135223000D01*
X102439000Y-139097000D02*
X102439000Y-138200000D01*
X102479000Y-136120000D02*
X102479000Y-135189000D01*
X102479000Y-139131000D02*
X102479000Y-138200000D01*
X102519000Y-136120000D02*
X102519000Y-135156000D01*
X102519000Y-139164000D02*
X102519000Y-138200000D01*
X102559000Y-136120000D02*
X102559000Y-135125000D01*
X102559000Y-139195000D02*
X102559000Y-138200000D01*
X102599000Y-136120000D02*
X102599000Y-135095000D01*
X102599000Y-139225000D02*
X102599000Y-138200000D01*
X102639000Y-136120000D02*
X102639000Y-135065000D01*
X102639000Y-139255000D02*
X102639000Y-138200000D01*
X102679000Y-136120000D02*
X102679000Y-135038000D01*
X102679000Y-139282000D02*
X102679000Y-138200000D01*
X102719000Y-136120000D02*
X102719000Y-135011000D01*
X102719000Y-139309000D02*
X102719000Y-138200000D01*
X102759000Y-136120000D02*
X102759000Y-134985000D01*
X102759000Y-139335000D02*
X102759000Y-138200000D01*
X102799000Y-136120000D02*
X102799000Y-134960000D01*
X102799000Y-139360000D02*
X102799000Y-138200000D01*
X102839000Y-136120000D02*
X102839000Y-134936000D01*
X102839000Y-139384000D02*
X102839000Y-138200000D01*
X102879000Y-136120000D02*
X102879000Y-134913000D01*
X102879000Y-139407000D02*
X102879000Y-138200000D01*
X102919000Y-136120000D02*
X102919000Y-134892000D01*
X102919000Y-139428000D02*
X102919000Y-138200000D01*
X102959000Y-136120000D02*
X102959000Y-134870000D01*
X102959000Y-139450000D02*
X102959000Y-138200000D01*
X102999000Y-136120000D02*
X102999000Y-134850000D01*
X102999000Y-139470000D02*
X102999000Y-138200000D01*
X103039000Y-136120000D02*
X103039000Y-134831000D01*
X103039000Y-139489000D02*
X103039000Y-138200000D01*
X103079000Y-136120000D02*
X103079000Y-134812000D01*
X103079000Y-139508000D02*
X103079000Y-138200000D01*
X103119000Y-136120000D02*
X103119000Y-134795000D01*
X103119000Y-139525000D02*
X103119000Y-138200000D01*
X103159000Y-136120000D02*
X103159000Y-134778000D01*
X103159000Y-139542000D02*
X103159000Y-138200000D01*
X103199000Y-136120000D02*
X103199000Y-134762000D01*
X103199000Y-139558000D02*
X103199000Y-138200000D01*
X103239000Y-136120000D02*
X103239000Y-134746000D01*
X103239000Y-139574000D02*
X103239000Y-138200000D01*
X103279000Y-136120000D02*
X103279000Y-134732000D01*
X103279000Y-139588000D02*
X103279000Y-138200000D01*
X103319000Y-136120000D02*
X103319000Y-134718000D01*
X103319000Y-139602000D02*
X103319000Y-138200000D01*
X103359000Y-136120000D02*
X103359000Y-134705000D01*
X103359000Y-139615000D02*
X103359000Y-138200000D01*
X103399000Y-136120000D02*
X103399000Y-134692000D01*
X103399000Y-139628000D02*
X103399000Y-138200000D01*
X103439000Y-136120000D02*
X103439000Y-134680000D01*
X103439000Y-139640000D02*
X103439000Y-138200000D01*
X103480000Y-136120000D02*
X103480000Y-134669000D01*
X103480000Y-139651000D02*
X103480000Y-138200000D01*
X103520000Y-136120000D02*
X103520000Y-134659000D01*
X103520000Y-139661000D02*
X103520000Y-138200000D01*
X103560000Y-136120000D02*
X103560000Y-134649000D01*
X103560000Y-139671000D02*
X103560000Y-138200000D01*
X103600000Y-136120000D02*
X103600000Y-134640000D01*
X103600000Y-139680000D02*
X103600000Y-138200000D01*
X103640000Y-136120000D02*
X103640000Y-134632000D01*
X103640000Y-139688000D02*
X103640000Y-138200000D01*
X103680000Y-136120000D02*
X103680000Y-134624000D01*
X103680000Y-139696000D02*
X103680000Y-138200000D01*
X103720000Y-136120000D02*
X103720000Y-134617000D01*
X103720000Y-139703000D02*
X103720000Y-138200000D01*
X103760000Y-136120000D02*
X103760000Y-134610000D01*
X103760000Y-139710000D02*
X103760000Y-138200000D01*
X103800000Y-136120000D02*
X103800000Y-134604000D01*
X103800000Y-139716000D02*
X103800000Y-138200000D01*
X103840000Y-136120000D02*
X103840000Y-134599000D01*
X103840000Y-139721000D02*
X103840000Y-138200000D01*
X103880000Y-136120000D02*
X103880000Y-134595000D01*
X103880000Y-139725000D02*
X103880000Y-138200000D01*
X103920000Y-136120000D02*
X103920000Y-134591000D01*
X103920000Y-139729000D02*
X103920000Y-138200000D01*
X103960000Y-139733000D02*
X103960000Y-134587000D01*
X104000000Y-139736000D02*
X104000000Y-134584000D01*
X104040000Y-139738000D02*
X104040000Y-134582000D01*
X104080000Y-139739000D02*
X104080000Y-134581000D01*
X104120000Y-139740000D02*
X104120000Y-134580000D01*
X104160000Y-139740000D02*
X104160000Y-134580000D01*
X106780000Y-137160000D02*
G75*
G03*
X106780000Y-137160000I-2620000J0D01*
G01*
%TO.C,D1001*%
X101675268Y-151951371D02*
G75*
G02*
X103990000Y-152009596I1194732J1456371D01*
G01*
%TO.C,D1002*%
X101675268Y-144966371D02*
G75*
G02*
X103990000Y-145024596I1194732J1456371D01*
G01*
%TO.C,Q1001*%
X108016522Y-160721522D02*
G75*
G03*
X109855000Y-165160000I1838478J-1838478D01*
G01*
X111693478Y-160721522D02*
G75*
G02*
X109855000Y-165160000I-1838478J-1838478D01*
G01*
X111655000Y-160710000D02*
X108055000Y-160710000D01*
%TO.C,Q1002*%
X105305000Y-160710000D02*
X101705000Y-160710000D01*
X105343478Y-160721522D02*
G75*
G02*
X103505000Y-165160000I-1838478J-1838478D01*
G01*
X101666522Y-160721522D02*
G75*
G03*
X103505000Y-165160000I1838478J-1838478D01*
G01*
%TO.C,Q1003*%
X107530000Y-175585000D02*
X107530000Y-183825000D01*
X104040000Y-175585000D02*
X104040000Y-183825000D01*
X107530000Y-175585000D02*
X104040000Y-175585000D01*
X107530000Y-183825000D02*
X104040000Y-183825000D01*
X107530000Y-178105000D02*
X106460000Y-178105000D01*
X104360000Y-178105000D02*
X104040000Y-178105000D01*
X107530000Y-181306000D02*
X105950000Y-181306000D01*
X104870000Y-181306000D02*
X104040000Y-181306000D01*
%TO.C,Q1004*%
X106585000Y-168579000D02*
X107415000Y-168579000D01*
X103925000Y-168579000D02*
X105505000Y-168579000D01*
X107095000Y-171780000D02*
X107415000Y-171780000D01*
X103925000Y-171780000D02*
X104995000Y-171780000D01*
X103925000Y-166060000D02*
X107415000Y-166060000D01*
X103925000Y-174300000D02*
X107415000Y-174300000D01*
X107415000Y-174300000D02*
X107415000Y-166060000D01*
X103925000Y-174300000D02*
X103925000Y-166060000D01*
%TO.C,R1001*%
X106680000Y-148360000D02*
X106680000Y-149130000D01*
X106680000Y-156440000D02*
X106680000Y-155670000D01*
X105310000Y-149130000D02*
X105310000Y-155670000D01*
X108050000Y-149130000D02*
X105310000Y-149130000D01*
X108050000Y-155670000D02*
X108050000Y-149130000D01*
X105310000Y-155670000D02*
X108050000Y-155670000D01*
%TO.C,R1002*%
X110490000Y-148360000D02*
X110490000Y-149130000D01*
X110490000Y-156440000D02*
X110490000Y-155670000D01*
X109120000Y-149130000D02*
X109120000Y-155670000D01*
X111860000Y-149130000D02*
X109120000Y-149130000D01*
X111860000Y-155670000D02*
X111860000Y-149130000D01*
X109120000Y-155670000D02*
X111860000Y-155670000D01*
%TO.C,R1003*%
X108485000Y-142335000D02*
X111225000Y-142335000D01*
X111225000Y-142335000D02*
X111225000Y-135795000D01*
X111225000Y-135795000D02*
X108485000Y-135795000D01*
X108485000Y-135795000D02*
X108485000Y-142335000D01*
X109855000Y-143105000D02*
X109855000Y-142335000D01*
X109855000Y-135025000D02*
X109855000Y-135795000D01*
%TO.C,RN1001*%
X79880000Y-182415000D02*
X82680000Y-182415000D01*
X82680000Y-182415000D02*
X82680000Y-156675000D01*
X82680000Y-156675000D02*
X79880000Y-156675000D01*
X79880000Y-156675000D02*
X79880000Y-182415000D01*
X79880000Y-179705000D02*
X82680000Y-179705000D01*
%TO.C,RN1002*%
X79880000Y-153035000D02*
X82680000Y-153035000D01*
X79880000Y-130005000D02*
X79880000Y-155745000D01*
X82680000Y-130005000D02*
X79880000Y-130005000D01*
X82680000Y-155745000D02*
X82680000Y-130005000D01*
X79880000Y-155745000D02*
X82680000Y-155745000D01*
%TO.C,RN1003*%
X94110000Y-133985000D02*
X91310000Y-133985000D01*
X94110000Y-157015000D02*
X94110000Y-131275000D01*
X91310000Y-157015000D02*
X94110000Y-157015000D01*
X91310000Y-131275000D02*
X91310000Y-157015000D01*
X94110000Y-131275000D02*
X91310000Y-131275000D01*
%TO.C,RN1004*%
X94110000Y-157945000D02*
X91310000Y-157945000D01*
X91310000Y-157945000D02*
X91310000Y-183685000D01*
X91310000Y-183685000D02*
X94110000Y-183685000D01*
X94110000Y-183685000D02*
X94110000Y-157945000D01*
X94110000Y-160655000D02*
X91310000Y-160655000D01*
%TO.C,RV1001*%
X86990000Y-121445000D02*
X90730000Y-121445000D01*
X87786000Y-126486000D02*
X89935000Y-126486000D01*
X90730000Y-124984000D02*
X90730000Y-121445000D01*
X86990000Y-124984000D02*
X86990000Y-121445000D01*
X87786000Y-126486000D02*
X89935000Y-126486000D01*
X83589000Y-126486000D02*
X84934000Y-126486000D01*
X92785000Y-126486000D02*
X94130000Y-126486000D01*
X83589000Y-121445000D02*
X94130000Y-121445000D01*
X94130000Y-126486000D02*
X94130000Y-121445000D01*
X83589000Y-126486000D02*
X83589000Y-121445000D01*
%TO.C,U1001*%
X103445000Y-124350000D02*
X103445000Y-126000000D01*
X111185000Y-124350000D02*
X103445000Y-124350000D01*
X111185000Y-129650000D02*
X111185000Y-124350000D01*
X103445000Y-129650000D02*
X111185000Y-129650000D01*
X103445000Y-128000000D02*
X103445000Y-129650000D01*
X103445000Y-126000000D02*
G75*
G02*
X103445000Y-128000000I0J-1000000D01*
G01*
%TO.C,J1001*%
D11*
X85233095Y-129837380D02*
X85233095Y-130551666D01*
X85185476Y-130694523D01*
X85090238Y-130789761D01*
X84947380Y-130837380D01*
X84852142Y-130837380D01*
X86233095Y-130837380D02*
X85661666Y-130837380D01*
X85947380Y-130837380D02*
X85947380Y-129837380D01*
X85852142Y-129980238D01*
X85756904Y-130075476D01*
X85661666Y-130123095D01*
X86852142Y-129837380D02*
X86947380Y-129837380D01*
X87042619Y-129885000D01*
X87090238Y-129932619D01*
X87137857Y-130027857D01*
X87185476Y-130218333D01*
X87185476Y-130456428D01*
X87137857Y-130646904D01*
X87090238Y-130742142D01*
X87042619Y-130789761D01*
X86947380Y-130837380D01*
X86852142Y-130837380D01*
X86756904Y-130789761D01*
X86709285Y-130742142D01*
X86661666Y-130646904D01*
X86614047Y-130456428D01*
X86614047Y-130218333D01*
X86661666Y-130027857D01*
X86709285Y-129932619D01*
X86756904Y-129885000D01*
X86852142Y-129837380D01*
X87804523Y-129837380D02*
X87899761Y-129837380D01*
X87995000Y-129885000D01*
X88042619Y-129932619D01*
X88090238Y-130027857D01*
X88137857Y-130218333D01*
X88137857Y-130456428D01*
X88090238Y-130646904D01*
X88042619Y-130742142D01*
X87995000Y-130789761D01*
X87899761Y-130837380D01*
X87804523Y-130837380D01*
X87709285Y-130789761D01*
X87661666Y-130742142D01*
X87614047Y-130646904D01*
X87566428Y-130456428D01*
X87566428Y-130218333D01*
X87614047Y-130027857D01*
X87661666Y-129932619D01*
X87709285Y-129885000D01*
X87804523Y-129837380D01*
X89090238Y-130837380D02*
X88518809Y-130837380D01*
X88804523Y-130837380D02*
X88804523Y-129837380D01*
X88709285Y-129980238D01*
X88614047Y-130075476D01*
X88518809Y-130123095D01*
%TO.C,C1001*%
X96809761Y-121297142D02*
X96762142Y-121344761D01*
X96619285Y-121392380D01*
X96524047Y-121392380D01*
X96381190Y-121344761D01*
X96285952Y-121249523D01*
X96238333Y-121154285D01*
X96190714Y-120963809D01*
X96190714Y-120820952D01*
X96238333Y-120630476D01*
X96285952Y-120535238D01*
X96381190Y-120440000D01*
X96524047Y-120392380D01*
X96619285Y-120392380D01*
X96762142Y-120440000D01*
X96809761Y-120487619D01*
X97762142Y-121392380D02*
X97190714Y-121392380D01*
X97476428Y-121392380D02*
X97476428Y-120392380D01*
X97381190Y-120535238D01*
X97285952Y-120630476D01*
X97190714Y-120678095D01*
X98381190Y-120392380D02*
X98476428Y-120392380D01*
X98571666Y-120440000D01*
X98619285Y-120487619D01*
X98666904Y-120582857D01*
X98714523Y-120773333D01*
X98714523Y-121011428D01*
X98666904Y-121201904D01*
X98619285Y-121297142D01*
X98571666Y-121344761D01*
X98476428Y-121392380D01*
X98381190Y-121392380D01*
X98285952Y-121344761D01*
X98238333Y-121297142D01*
X98190714Y-121201904D01*
X98143095Y-121011428D01*
X98143095Y-120773333D01*
X98190714Y-120582857D01*
X98238333Y-120487619D01*
X98285952Y-120440000D01*
X98381190Y-120392380D01*
X99333571Y-120392380D02*
X99428809Y-120392380D01*
X99524047Y-120440000D01*
X99571666Y-120487619D01*
X99619285Y-120582857D01*
X99666904Y-120773333D01*
X99666904Y-121011428D01*
X99619285Y-121201904D01*
X99571666Y-121297142D01*
X99524047Y-121344761D01*
X99428809Y-121392380D01*
X99333571Y-121392380D01*
X99238333Y-121344761D01*
X99190714Y-121297142D01*
X99143095Y-121201904D01*
X99095476Y-121011428D01*
X99095476Y-120773333D01*
X99143095Y-120582857D01*
X99190714Y-120487619D01*
X99238333Y-120440000D01*
X99333571Y-120392380D01*
X100619285Y-121392380D02*
X100047857Y-121392380D01*
X100333571Y-121392380D02*
X100333571Y-120392380D01*
X100238333Y-120535238D01*
X100143095Y-120630476D01*
X100047857Y-120678095D01*
%TO.C,C1002*%
X95924761Y-154587142D02*
X95877142Y-154634761D01*
X95734285Y-154682380D01*
X95639047Y-154682380D01*
X95496190Y-154634761D01*
X95400952Y-154539523D01*
X95353333Y-154444285D01*
X95305714Y-154253809D01*
X95305714Y-154110952D01*
X95353333Y-153920476D01*
X95400952Y-153825238D01*
X95496190Y-153730000D01*
X95639047Y-153682380D01*
X95734285Y-153682380D01*
X95877142Y-153730000D01*
X95924761Y-153777619D01*
X96877142Y-154682380D02*
X96305714Y-154682380D01*
X96591428Y-154682380D02*
X96591428Y-153682380D01*
X96496190Y-153825238D01*
X96400952Y-153920476D01*
X96305714Y-153968095D01*
X97496190Y-153682380D02*
X97591428Y-153682380D01*
X97686666Y-153730000D01*
X97734285Y-153777619D01*
X97781904Y-153872857D01*
X97829523Y-154063333D01*
X97829523Y-154301428D01*
X97781904Y-154491904D01*
X97734285Y-154587142D01*
X97686666Y-154634761D01*
X97591428Y-154682380D01*
X97496190Y-154682380D01*
X97400952Y-154634761D01*
X97353333Y-154587142D01*
X97305714Y-154491904D01*
X97258095Y-154301428D01*
X97258095Y-154063333D01*
X97305714Y-153872857D01*
X97353333Y-153777619D01*
X97400952Y-153730000D01*
X97496190Y-153682380D01*
X98448571Y-153682380D02*
X98543809Y-153682380D01*
X98639047Y-153730000D01*
X98686666Y-153777619D01*
X98734285Y-153872857D01*
X98781904Y-154063333D01*
X98781904Y-154301428D01*
X98734285Y-154491904D01*
X98686666Y-154587142D01*
X98639047Y-154634761D01*
X98543809Y-154682380D01*
X98448571Y-154682380D01*
X98353333Y-154634761D01*
X98305714Y-154587142D01*
X98258095Y-154491904D01*
X98210476Y-154301428D01*
X98210476Y-154063333D01*
X98258095Y-153872857D01*
X98305714Y-153777619D01*
X98353333Y-153730000D01*
X98448571Y-153682380D01*
X99162857Y-153777619D02*
X99210476Y-153730000D01*
X99305714Y-153682380D01*
X99543809Y-153682380D01*
X99639047Y-153730000D01*
X99686666Y-153777619D01*
X99734285Y-153872857D01*
X99734285Y-153968095D01*
X99686666Y-154110952D01*
X99115238Y-154682380D01*
X99734285Y-154682380D01*
%TO.C,C1003*%
X95924761Y-129822142D02*
X95877142Y-129869761D01*
X95734285Y-129917380D01*
X95639047Y-129917380D01*
X95496190Y-129869761D01*
X95400952Y-129774523D01*
X95353333Y-129679285D01*
X95305714Y-129488809D01*
X95305714Y-129345952D01*
X95353333Y-129155476D01*
X95400952Y-129060238D01*
X95496190Y-128965000D01*
X95639047Y-128917380D01*
X95734285Y-128917380D01*
X95877142Y-128965000D01*
X95924761Y-129012619D01*
X96877142Y-129917380D02*
X96305714Y-129917380D01*
X96591428Y-129917380D02*
X96591428Y-128917380D01*
X96496190Y-129060238D01*
X96400952Y-129155476D01*
X96305714Y-129203095D01*
X97496190Y-128917380D02*
X97591428Y-128917380D01*
X97686666Y-128965000D01*
X97734285Y-129012619D01*
X97781904Y-129107857D01*
X97829523Y-129298333D01*
X97829523Y-129536428D01*
X97781904Y-129726904D01*
X97734285Y-129822142D01*
X97686666Y-129869761D01*
X97591428Y-129917380D01*
X97496190Y-129917380D01*
X97400952Y-129869761D01*
X97353333Y-129822142D01*
X97305714Y-129726904D01*
X97258095Y-129536428D01*
X97258095Y-129298333D01*
X97305714Y-129107857D01*
X97353333Y-129012619D01*
X97400952Y-128965000D01*
X97496190Y-128917380D01*
X98448571Y-128917380D02*
X98543809Y-128917380D01*
X98639047Y-128965000D01*
X98686666Y-129012619D01*
X98734285Y-129107857D01*
X98781904Y-129298333D01*
X98781904Y-129536428D01*
X98734285Y-129726904D01*
X98686666Y-129822142D01*
X98639047Y-129869761D01*
X98543809Y-129917380D01*
X98448571Y-129917380D01*
X98353333Y-129869761D01*
X98305714Y-129822142D01*
X98258095Y-129726904D01*
X98210476Y-129536428D01*
X98210476Y-129298333D01*
X98258095Y-129107857D01*
X98305714Y-129012619D01*
X98353333Y-128965000D01*
X98448571Y-128917380D01*
X99115238Y-128917380D02*
X99734285Y-128917380D01*
X99400952Y-129298333D01*
X99543809Y-129298333D01*
X99639047Y-129345952D01*
X99686666Y-129393571D01*
X99734285Y-129488809D01*
X99734285Y-129726904D01*
X99686666Y-129822142D01*
X99639047Y-129869761D01*
X99543809Y-129917380D01*
X99258095Y-129917380D01*
X99162857Y-129869761D01*
X99115238Y-129822142D01*
%TO.C,C1004*%
X95924761Y-178717142D02*
X95877142Y-178764761D01*
X95734285Y-178812380D01*
X95639047Y-178812380D01*
X95496190Y-178764761D01*
X95400952Y-178669523D01*
X95353333Y-178574285D01*
X95305714Y-178383809D01*
X95305714Y-178240952D01*
X95353333Y-178050476D01*
X95400952Y-177955238D01*
X95496190Y-177860000D01*
X95639047Y-177812380D01*
X95734285Y-177812380D01*
X95877142Y-177860000D01*
X95924761Y-177907619D01*
X96877142Y-178812380D02*
X96305714Y-178812380D01*
X96591428Y-178812380D02*
X96591428Y-177812380D01*
X96496190Y-177955238D01*
X96400952Y-178050476D01*
X96305714Y-178098095D01*
X97496190Y-177812380D02*
X97591428Y-177812380D01*
X97686666Y-177860000D01*
X97734285Y-177907619D01*
X97781904Y-178002857D01*
X97829523Y-178193333D01*
X97829523Y-178431428D01*
X97781904Y-178621904D01*
X97734285Y-178717142D01*
X97686666Y-178764761D01*
X97591428Y-178812380D01*
X97496190Y-178812380D01*
X97400952Y-178764761D01*
X97353333Y-178717142D01*
X97305714Y-178621904D01*
X97258095Y-178431428D01*
X97258095Y-178193333D01*
X97305714Y-178002857D01*
X97353333Y-177907619D01*
X97400952Y-177860000D01*
X97496190Y-177812380D01*
X98448571Y-177812380D02*
X98543809Y-177812380D01*
X98639047Y-177860000D01*
X98686666Y-177907619D01*
X98734285Y-178002857D01*
X98781904Y-178193333D01*
X98781904Y-178431428D01*
X98734285Y-178621904D01*
X98686666Y-178717142D01*
X98639047Y-178764761D01*
X98543809Y-178812380D01*
X98448571Y-178812380D01*
X98353333Y-178764761D01*
X98305714Y-178717142D01*
X98258095Y-178621904D01*
X98210476Y-178431428D01*
X98210476Y-178193333D01*
X98258095Y-178002857D01*
X98305714Y-177907619D01*
X98353333Y-177860000D01*
X98448571Y-177812380D01*
X99639047Y-178145714D02*
X99639047Y-178812380D01*
X99400952Y-177764761D02*
X99162857Y-178479047D01*
X99781904Y-178479047D01*
%TO.C,C1005*%
X95924761Y-148237142D02*
X95877142Y-148284761D01*
X95734285Y-148332380D01*
X95639047Y-148332380D01*
X95496190Y-148284761D01*
X95400952Y-148189523D01*
X95353333Y-148094285D01*
X95305714Y-147903809D01*
X95305714Y-147760952D01*
X95353333Y-147570476D01*
X95400952Y-147475238D01*
X95496190Y-147380000D01*
X95639047Y-147332380D01*
X95734285Y-147332380D01*
X95877142Y-147380000D01*
X95924761Y-147427619D01*
X96877142Y-148332380D02*
X96305714Y-148332380D01*
X96591428Y-148332380D02*
X96591428Y-147332380D01*
X96496190Y-147475238D01*
X96400952Y-147570476D01*
X96305714Y-147618095D01*
X97496190Y-147332380D02*
X97591428Y-147332380D01*
X97686666Y-147380000D01*
X97734285Y-147427619D01*
X97781904Y-147522857D01*
X97829523Y-147713333D01*
X97829523Y-147951428D01*
X97781904Y-148141904D01*
X97734285Y-148237142D01*
X97686666Y-148284761D01*
X97591428Y-148332380D01*
X97496190Y-148332380D01*
X97400952Y-148284761D01*
X97353333Y-148237142D01*
X97305714Y-148141904D01*
X97258095Y-147951428D01*
X97258095Y-147713333D01*
X97305714Y-147522857D01*
X97353333Y-147427619D01*
X97400952Y-147380000D01*
X97496190Y-147332380D01*
X98448571Y-147332380D02*
X98543809Y-147332380D01*
X98639047Y-147380000D01*
X98686666Y-147427619D01*
X98734285Y-147522857D01*
X98781904Y-147713333D01*
X98781904Y-147951428D01*
X98734285Y-148141904D01*
X98686666Y-148237142D01*
X98639047Y-148284761D01*
X98543809Y-148332380D01*
X98448571Y-148332380D01*
X98353333Y-148284761D01*
X98305714Y-148237142D01*
X98258095Y-148141904D01*
X98210476Y-147951428D01*
X98210476Y-147713333D01*
X98258095Y-147522857D01*
X98305714Y-147427619D01*
X98353333Y-147380000D01*
X98448571Y-147332380D01*
X99686666Y-147332380D02*
X99210476Y-147332380D01*
X99162857Y-147808571D01*
X99210476Y-147760952D01*
X99305714Y-147713333D01*
X99543809Y-147713333D01*
X99639047Y-147760952D01*
X99686666Y-147808571D01*
X99734285Y-147903809D01*
X99734285Y-148141904D01*
X99686666Y-148237142D01*
X99639047Y-148284761D01*
X99543809Y-148332380D01*
X99305714Y-148332380D01*
X99210476Y-148284761D01*
X99162857Y-148237142D01*
%TO.C,C1006*%
X74874761Y-167437142D02*
X74827142Y-167484761D01*
X74684285Y-167532380D01*
X74589047Y-167532380D01*
X74446190Y-167484761D01*
X74350952Y-167389523D01*
X74303333Y-167294285D01*
X74255714Y-167103809D01*
X74255714Y-166960952D01*
X74303333Y-166770476D01*
X74350952Y-166675238D01*
X74446190Y-166580000D01*
X74589047Y-166532380D01*
X74684285Y-166532380D01*
X74827142Y-166580000D01*
X74874761Y-166627619D01*
X75827142Y-167532380D02*
X75255714Y-167532380D01*
X75541428Y-167532380D02*
X75541428Y-166532380D01*
X75446190Y-166675238D01*
X75350952Y-166770476D01*
X75255714Y-166818095D01*
X76446190Y-166532380D02*
X76541428Y-166532380D01*
X76636666Y-166580000D01*
X76684285Y-166627619D01*
X76731904Y-166722857D01*
X76779523Y-166913333D01*
X76779523Y-167151428D01*
X76731904Y-167341904D01*
X76684285Y-167437142D01*
X76636666Y-167484761D01*
X76541428Y-167532380D01*
X76446190Y-167532380D01*
X76350952Y-167484761D01*
X76303333Y-167437142D01*
X76255714Y-167341904D01*
X76208095Y-167151428D01*
X76208095Y-166913333D01*
X76255714Y-166722857D01*
X76303333Y-166627619D01*
X76350952Y-166580000D01*
X76446190Y-166532380D01*
X77398571Y-166532380D02*
X77493809Y-166532380D01*
X77589047Y-166580000D01*
X77636666Y-166627619D01*
X77684285Y-166722857D01*
X77731904Y-166913333D01*
X77731904Y-167151428D01*
X77684285Y-167341904D01*
X77636666Y-167437142D01*
X77589047Y-167484761D01*
X77493809Y-167532380D01*
X77398571Y-167532380D01*
X77303333Y-167484761D01*
X77255714Y-167437142D01*
X77208095Y-167341904D01*
X77160476Y-167151428D01*
X77160476Y-166913333D01*
X77208095Y-166722857D01*
X77255714Y-166627619D01*
X77303333Y-166580000D01*
X77398571Y-166532380D01*
X78589047Y-166532380D02*
X78398571Y-166532380D01*
X78303333Y-166580000D01*
X78255714Y-166627619D01*
X78160476Y-166770476D01*
X78112857Y-166960952D01*
X78112857Y-167341904D01*
X78160476Y-167437142D01*
X78208095Y-167484761D01*
X78303333Y-167532380D01*
X78493809Y-167532380D01*
X78589047Y-167484761D01*
X78636666Y-167437142D01*
X78684285Y-167341904D01*
X78684285Y-167103809D01*
X78636666Y-167008571D01*
X78589047Y-166960952D01*
X78493809Y-166913333D01*
X78303333Y-166913333D01*
X78208095Y-166960952D01*
X78160476Y-167008571D01*
X78112857Y-167103809D01*
%TO.C,C1007*%
X74969761Y-155372142D02*
X74922142Y-155419761D01*
X74779285Y-155467380D01*
X74684047Y-155467380D01*
X74541190Y-155419761D01*
X74445952Y-155324523D01*
X74398333Y-155229285D01*
X74350714Y-155038809D01*
X74350714Y-154895952D01*
X74398333Y-154705476D01*
X74445952Y-154610238D01*
X74541190Y-154515000D01*
X74684047Y-154467380D01*
X74779285Y-154467380D01*
X74922142Y-154515000D01*
X74969761Y-154562619D01*
X75922142Y-155467380D02*
X75350714Y-155467380D01*
X75636428Y-155467380D02*
X75636428Y-154467380D01*
X75541190Y-154610238D01*
X75445952Y-154705476D01*
X75350714Y-154753095D01*
X76541190Y-154467380D02*
X76636428Y-154467380D01*
X76731666Y-154515000D01*
X76779285Y-154562619D01*
X76826904Y-154657857D01*
X76874523Y-154848333D01*
X76874523Y-155086428D01*
X76826904Y-155276904D01*
X76779285Y-155372142D01*
X76731666Y-155419761D01*
X76636428Y-155467380D01*
X76541190Y-155467380D01*
X76445952Y-155419761D01*
X76398333Y-155372142D01*
X76350714Y-155276904D01*
X76303095Y-155086428D01*
X76303095Y-154848333D01*
X76350714Y-154657857D01*
X76398333Y-154562619D01*
X76445952Y-154515000D01*
X76541190Y-154467380D01*
X77493571Y-154467380D02*
X77588809Y-154467380D01*
X77684047Y-154515000D01*
X77731666Y-154562619D01*
X77779285Y-154657857D01*
X77826904Y-154848333D01*
X77826904Y-155086428D01*
X77779285Y-155276904D01*
X77731666Y-155372142D01*
X77684047Y-155419761D01*
X77588809Y-155467380D01*
X77493571Y-155467380D01*
X77398333Y-155419761D01*
X77350714Y-155372142D01*
X77303095Y-155276904D01*
X77255476Y-155086428D01*
X77255476Y-154848333D01*
X77303095Y-154657857D01*
X77350714Y-154562619D01*
X77398333Y-154515000D01*
X77493571Y-154467380D01*
X78160238Y-154467380D02*
X78826904Y-154467380D01*
X78398333Y-155467380D01*
%TO.C,C1008*%
X95924761Y-136172142D02*
X95877142Y-136219761D01*
X95734285Y-136267380D01*
X95639047Y-136267380D01*
X95496190Y-136219761D01*
X95400952Y-136124523D01*
X95353333Y-136029285D01*
X95305714Y-135838809D01*
X95305714Y-135695952D01*
X95353333Y-135505476D01*
X95400952Y-135410238D01*
X95496190Y-135315000D01*
X95639047Y-135267380D01*
X95734285Y-135267380D01*
X95877142Y-135315000D01*
X95924761Y-135362619D01*
X96877142Y-136267380D02*
X96305714Y-136267380D01*
X96591428Y-136267380D02*
X96591428Y-135267380D01*
X96496190Y-135410238D01*
X96400952Y-135505476D01*
X96305714Y-135553095D01*
X97496190Y-135267380D02*
X97591428Y-135267380D01*
X97686666Y-135315000D01*
X97734285Y-135362619D01*
X97781904Y-135457857D01*
X97829523Y-135648333D01*
X97829523Y-135886428D01*
X97781904Y-136076904D01*
X97734285Y-136172142D01*
X97686666Y-136219761D01*
X97591428Y-136267380D01*
X97496190Y-136267380D01*
X97400952Y-136219761D01*
X97353333Y-136172142D01*
X97305714Y-136076904D01*
X97258095Y-135886428D01*
X97258095Y-135648333D01*
X97305714Y-135457857D01*
X97353333Y-135362619D01*
X97400952Y-135315000D01*
X97496190Y-135267380D01*
X98448571Y-135267380D02*
X98543809Y-135267380D01*
X98639047Y-135315000D01*
X98686666Y-135362619D01*
X98734285Y-135457857D01*
X98781904Y-135648333D01*
X98781904Y-135886428D01*
X98734285Y-136076904D01*
X98686666Y-136172142D01*
X98639047Y-136219761D01*
X98543809Y-136267380D01*
X98448571Y-136267380D01*
X98353333Y-136219761D01*
X98305714Y-136172142D01*
X98258095Y-136076904D01*
X98210476Y-135886428D01*
X98210476Y-135648333D01*
X98258095Y-135457857D01*
X98305714Y-135362619D01*
X98353333Y-135315000D01*
X98448571Y-135267380D01*
X99353333Y-135695952D02*
X99258095Y-135648333D01*
X99210476Y-135600714D01*
X99162857Y-135505476D01*
X99162857Y-135457857D01*
X99210476Y-135362619D01*
X99258095Y-135315000D01*
X99353333Y-135267380D01*
X99543809Y-135267380D01*
X99639047Y-135315000D01*
X99686666Y-135362619D01*
X99734285Y-135457857D01*
X99734285Y-135505476D01*
X99686666Y-135600714D01*
X99639047Y-135648333D01*
X99543809Y-135695952D01*
X99353333Y-135695952D01*
X99258095Y-135743571D01*
X99210476Y-135791190D01*
X99162857Y-135886428D01*
X99162857Y-136076904D01*
X99210476Y-136172142D01*
X99258095Y-136219761D01*
X99353333Y-136267380D01*
X99543809Y-136267380D01*
X99639047Y-136219761D01*
X99686666Y-136172142D01*
X99734285Y-136076904D01*
X99734285Y-135886428D01*
X99686666Y-135791190D01*
X99639047Y-135743571D01*
X99543809Y-135695952D01*
%TO.C,C1009*%
X74874761Y-137592142D02*
X74827142Y-137639761D01*
X74684285Y-137687380D01*
X74589047Y-137687380D01*
X74446190Y-137639761D01*
X74350952Y-137544523D01*
X74303333Y-137449285D01*
X74255714Y-137258809D01*
X74255714Y-137115952D01*
X74303333Y-136925476D01*
X74350952Y-136830238D01*
X74446190Y-136735000D01*
X74589047Y-136687380D01*
X74684285Y-136687380D01*
X74827142Y-136735000D01*
X74874761Y-136782619D01*
X75827142Y-137687380D02*
X75255714Y-137687380D01*
X75541428Y-137687380D02*
X75541428Y-136687380D01*
X75446190Y-136830238D01*
X75350952Y-136925476D01*
X75255714Y-136973095D01*
X76446190Y-136687380D02*
X76541428Y-136687380D01*
X76636666Y-136735000D01*
X76684285Y-136782619D01*
X76731904Y-136877857D01*
X76779523Y-137068333D01*
X76779523Y-137306428D01*
X76731904Y-137496904D01*
X76684285Y-137592142D01*
X76636666Y-137639761D01*
X76541428Y-137687380D01*
X76446190Y-137687380D01*
X76350952Y-137639761D01*
X76303333Y-137592142D01*
X76255714Y-137496904D01*
X76208095Y-137306428D01*
X76208095Y-137068333D01*
X76255714Y-136877857D01*
X76303333Y-136782619D01*
X76350952Y-136735000D01*
X76446190Y-136687380D01*
X77398571Y-136687380D02*
X77493809Y-136687380D01*
X77589047Y-136735000D01*
X77636666Y-136782619D01*
X77684285Y-136877857D01*
X77731904Y-137068333D01*
X77731904Y-137306428D01*
X77684285Y-137496904D01*
X77636666Y-137592142D01*
X77589047Y-137639761D01*
X77493809Y-137687380D01*
X77398571Y-137687380D01*
X77303333Y-137639761D01*
X77255714Y-137592142D01*
X77208095Y-137496904D01*
X77160476Y-137306428D01*
X77160476Y-137068333D01*
X77208095Y-136877857D01*
X77255714Y-136782619D01*
X77303333Y-136735000D01*
X77398571Y-136687380D01*
X78208095Y-137687380D02*
X78398571Y-137687380D01*
X78493809Y-137639761D01*
X78541428Y-137592142D01*
X78636666Y-137449285D01*
X78684285Y-137258809D01*
X78684285Y-136877857D01*
X78636666Y-136782619D01*
X78589047Y-136735000D01*
X78493809Y-136687380D01*
X78303333Y-136687380D01*
X78208095Y-136735000D01*
X78160476Y-136782619D01*
X78112857Y-136877857D01*
X78112857Y-137115952D01*
X78160476Y-137211190D01*
X78208095Y-137258809D01*
X78303333Y-137306428D01*
X78493809Y-137306428D01*
X78589047Y-137258809D01*
X78636666Y-137211190D01*
X78684285Y-137115952D01*
%TO.C,C1010*%
X95924761Y-166652142D02*
X95877142Y-166699761D01*
X95734285Y-166747380D01*
X95639047Y-166747380D01*
X95496190Y-166699761D01*
X95400952Y-166604523D01*
X95353333Y-166509285D01*
X95305714Y-166318809D01*
X95305714Y-166175952D01*
X95353333Y-165985476D01*
X95400952Y-165890238D01*
X95496190Y-165795000D01*
X95639047Y-165747380D01*
X95734285Y-165747380D01*
X95877142Y-165795000D01*
X95924761Y-165842619D01*
X96877142Y-166747380D02*
X96305714Y-166747380D01*
X96591428Y-166747380D02*
X96591428Y-165747380D01*
X96496190Y-165890238D01*
X96400952Y-165985476D01*
X96305714Y-166033095D01*
X97496190Y-165747380D02*
X97591428Y-165747380D01*
X97686666Y-165795000D01*
X97734285Y-165842619D01*
X97781904Y-165937857D01*
X97829523Y-166128333D01*
X97829523Y-166366428D01*
X97781904Y-166556904D01*
X97734285Y-166652142D01*
X97686666Y-166699761D01*
X97591428Y-166747380D01*
X97496190Y-166747380D01*
X97400952Y-166699761D01*
X97353333Y-166652142D01*
X97305714Y-166556904D01*
X97258095Y-166366428D01*
X97258095Y-166128333D01*
X97305714Y-165937857D01*
X97353333Y-165842619D01*
X97400952Y-165795000D01*
X97496190Y-165747380D01*
X98781904Y-166747380D02*
X98210476Y-166747380D01*
X98496190Y-166747380D02*
X98496190Y-165747380D01*
X98400952Y-165890238D01*
X98305714Y-165985476D01*
X98210476Y-166033095D01*
X99400952Y-165747380D02*
X99496190Y-165747380D01*
X99591428Y-165795000D01*
X99639047Y-165842619D01*
X99686666Y-165937857D01*
X99734285Y-166128333D01*
X99734285Y-166366428D01*
X99686666Y-166556904D01*
X99639047Y-166652142D01*
X99591428Y-166699761D01*
X99496190Y-166747380D01*
X99400952Y-166747380D01*
X99305714Y-166699761D01*
X99258095Y-166652142D01*
X99210476Y-166556904D01*
X99162857Y-166366428D01*
X99162857Y-166128333D01*
X99210476Y-165937857D01*
X99258095Y-165842619D01*
X99305714Y-165795000D01*
X99400952Y-165747380D01*
%TO.C,C1011*%
X74874761Y-185217142D02*
X74827142Y-185264761D01*
X74684285Y-185312380D01*
X74589047Y-185312380D01*
X74446190Y-185264761D01*
X74350952Y-185169523D01*
X74303333Y-185074285D01*
X74255714Y-184883809D01*
X74255714Y-184740952D01*
X74303333Y-184550476D01*
X74350952Y-184455238D01*
X74446190Y-184360000D01*
X74589047Y-184312380D01*
X74684285Y-184312380D01*
X74827142Y-184360000D01*
X74874761Y-184407619D01*
X75827142Y-185312380D02*
X75255714Y-185312380D01*
X75541428Y-185312380D02*
X75541428Y-184312380D01*
X75446190Y-184455238D01*
X75350952Y-184550476D01*
X75255714Y-184598095D01*
X76446190Y-184312380D02*
X76541428Y-184312380D01*
X76636666Y-184360000D01*
X76684285Y-184407619D01*
X76731904Y-184502857D01*
X76779523Y-184693333D01*
X76779523Y-184931428D01*
X76731904Y-185121904D01*
X76684285Y-185217142D01*
X76636666Y-185264761D01*
X76541428Y-185312380D01*
X76446190Y-185312380D01*
X76350952Y-185264761D01*
X76303333Y-185217142D01*
X76255714Y-185121904D01*
X76208095Y-184931428D01*
X76208095Y-184693333D01*
X76255714Y-184502857D01*
X76303333Y-184407619D01*
X76350952Y-184360000D01*
X76446190Y-184312380D01*
X77731904Y-185312380D02*
X77160476Y-185312380D01*
X77446190Y-185312380D02*
X77446190Y-184312380D01*
X77350952Y-184455238D01*
X77255714Y-184550476D01*
X77160476Y-184598095D01*
X78684285Y-185312380D02*
X78112857Y-185312380D01*
X78398571Y-185312380D02*
X78398571Y-184312380D01*
X78303333Y-184455238D01*
X78208095Y-184550476D01*
X78112857Y-184598095D01*
%TO.C,C1012*%
X74874761Y-143942142D02*
X74827142Y-143989761D01*
X74684285Y-144037380D01*
X74589047Y-144037380D01*
X74446190Y-143989761D01*
X74350952Y-143894523D01*
X74303333Y-143799285D01*
X74255714Y-143608809D01*
X74255714Y-143465952D01*
X74303333Y-143275476D01*
X74350952Y-143180238D01*
X74446190Y-143085000D01*
X74589047Y-143037380D01*
X74684285Y-143037380D01*
X74827142Y-143085000D01*
X74874761Y-143132619D01*
X75827142Y-144037380D02*
X75255714Y-144037380D01*
X75541428Y-144037380D02*
X75541428Y-143037380D01*
X75446190Y-143180238D01*
X75350952Y-143275476D01*
X75255714Y-143323095D01*
X76446190Y-143037380D02*
X76541428Y-143037380D01*
X76636666Y-143085000D01*
X76684285Y-143132619D01*
X76731904Y-143227857D01*
X76779523Y-143418333D01*
X76779523Y-143656428D01*
X76731904Y-143846904D01*
X76684285Y-143942142D01*
X76636666Y-143989761D01*
X76541428Y-144037380D01*
X76446190Y-144037380D01*
X76350952Y-143989761D01*
X76303333Y-143942142D01*
X76255714Y-143846904D01*
X76208095Y-143656428D01*
X76208095Y-143418333D01*
X76255714Y-143227857D01*
X76303333Y-143132619D01*
X76350952Y-143085000D01*
X76446190Y-143037380D01*
X77731904Y-144037380D02*
X77160476Y-144037380D01*
X77446190Y-144037380D02*
X77446190Y-143037380D01*
X77350952Y-143180238D01*
X77255714Y-143275476D01*
X77160476Y-143323095D01*
X78112857Y-143132619D02*
X78160476Y-143085000D01*
X78255714Y-143037380D01*
X78493809Y-143037380D01*
X78589047Y-143085000D01*
X78636666Y-143132619D01*
X78684285Y-143227857D01*
X78684285Y-143323095D01*
X78636666Y-143465952D01*
X78065238Y-144037380D01*
X78684285Y-144037380D01*
%TO.C,C1013*%
X74874761Y-131242142D02*
X74827142Y-131289761D01*
X74684285Y-131337380D01*
X74589047Y-131337380D01*
X74446190Y-131289761D01*
X74350952Y-131194523D01*
X74303333Y-131099285D01*
X74255714Y-130908809D01*
X74255714Y-130765952D01*
X74303333Y-130575476D01*
X74350952Y-130480238D01*
X74446190Y-130385000D01*
X74589047Y-130337380D01*
X74684285Y-130337380D01*
X74827142Y-130385000D01*
X74874761Y-130432619D01*
X75827142Y-131337380D02*
X75255714Y-131337380D01*
X75541428Y-131337380D02*
X75541428Y-130337380D01*
X75446190Y-130480238D01*
X75350952Y-130575476D01*
X75255714Y-130623095D01*
X76446190Y-130337380D02*
X76541428Y-130337380D01*
X76636666Y-130385000D01*
X76684285Y-130432619D01*
X76731904Y-130527857D01*
X76779523Y-130718333D01*
X76779523Y-130956428D01*
X76731904Y-131146904D01*
X76684285Y-131242142D01*
X76636666Y-131289761D01*
X76541428Y-131337380D01*
X76446190Y-131337380D01*
X76350952Y-131289761D01*
X76303333Y-131242142D01*
X76255714Y-131146904D01*
X76208095Y-130956428D01*
X76208095Y-130718333D01*
X76255714Y-130527857D01*
X76303333Y-130432619D01*
X76350952Y-130385000D01*
X76446190Y-130337380D01*
X77731904Y-131337380D02*
X77160476Y-131337380D01*
X77446190Y-131337380D02*
X77446190Y-130337380D01*
X77350952Y-130480238D01*
X77255714Y-130575476D01*
X77160476Y-130623095D01*
X78065238Y-130337380D02*
X78684285Y-130337380D01*
X78350952Y-130718333D01*
X78493809Y-130718333D01*
X78589047Y-130765952D01*
X78636666Y-130813571D01*
X78684285Y-130908809D01*
X78684285Y-131146904D01*
X78636666Y-131242142D01*
X78589047Y-131289761D01*
X78493809Y-131337380D01*
X78208095Y-131337380D01*
X78112857Y-131289761D01*
X78065238Y-131242142D01*
%TO.C,C1014*%
X74874761Y-161722142D02*
X74827142Y-161769761D01*
X74684285Y-161817380D01*
X74589047Y-161817380D01*
X74446190Y-161769761D01*
X74350952Y-161674523D01*
X74303333Y-161579285D01*
X74255714Y-161388809D01*
X74255714Y-161245952D01*
X74303333Y-161055476D01*
X74350952Y-160960238D01*
X74446190Y-160865000D01*
X74589047Y-160817380D01*
X74684285Y-160817380D01*
X74827142Y-160865000D01*
X74874761Y-160912619D01*
X75827142Y-161817380D02*
X75255714Y-161817380D01*
X75541428Y-161817380D02*
X75541428Y-160817380D01*
X75446190Y-160960238D01*
X75350952Y-161055476D01*
X75255714Y-161103095D01*
X76446190Y-160817380D02*
X76541428Y-160817380D01*
X76636666Y-160865000D01*
X76684285Y-160912619D01*
X76731904Y-161007857D01*
X76779523Y-161198333D01*
X76779523Y-161436428D01*
X76731904Y-161626904D01*
X76684285Y-161722142D01*
X76636666Y-161769761D01*
X76541428Y-161817380D01*
X76446190Y-161817380D01*
X76350952Y-161769761D01*
X76303333Y-161722142D01*
X76255714Y-161626904D01*
X76208095Y-161436428D01*
X76208095Y-161198333D01*
X76255714Y-161007857D01*
X76303333Y-160912619D01*
X76350952Y-160865000D01*
X76446190Y-160817380D01*
X77731904Y-161817380D02*
X77160476Y-161817380D01*
X77446190Y-161817380D02*
X77446190Y-160817380D01*
X77350952Y-160960238D01*
X77255714Y-161055476D01*
X77160476Y-161103095D01*
X78589047Y-161150714D02*
X78589047Y-161817380D01*
X78350952Y-160769761D02*
X78112857Y-161484047D01*
X78731904Y-161484047D01*
%TO.C,C1015*%
X95924761Y-124107142D02*
X95877142Y-124154761D01*
X95734285Y-124202380D01*
X95639047Y-124202380D01*
X95496190Y-124154761D01*
X95400952Y-124059523D01*
X95353333Y-123964285D01*
X95305714Y-123773809D01*
X95305714Y-123630952D01*
X95353333Y-123440476D01*
X95400952Y-123345238D01*
X95496190Y-123250000D01*
X95639047Y-123202380D01*
X95734285Y-123202380D01*
X95877142Y-123250000D01*
X95924761Y-123297619D01*
X96877142Y-124202380D02*
X96305714Y-124202380D01*
X96591428Y-124202380D02*
X96591428Y-123202380D01*
X96496190Y-123345238D01*
X96400952Y-123440476D01*
X96305714Y-123488095D01*
X97496190Y-123202380D02*
X97591428Y-123202380D01*
X97686666Y-123250000D01*
X97734285Y-123297619D01*
X97781904Y-123392857D01*
X97829523Y-123583333D01*
X97829523Y-123821428D01*
X97781904Y-124011904D01*
X97734285Y-124107142D01*
X97686666Y-124154761D01*
X97591428Y-124202380D01*
X97496190Y-124202380D01*
X97400952Y-124154761D01*
X97353333Y-124107142D01*
X97305714Y-124011904D01*
X97258095Y-123821428D01*
X97258095Y-123583333D01*
X97305714Y-123392857D01*
X97353333Y-123297619D01*
X97400952Y-123250000D01*
X97496190Y-123202380D01*
X98781904Y-124202380D02*
X98210476Y-124202380D01*
X98496190Y-124202380D02*
X98496190Y-123202380D01*
X98400952Y-123345238D01*
X98305714Y-123440476D01*
X98210476Y-123488095D01*
X99686666Y-123202380D02*
X99210476Y-123202380D01*
X99162857Y-123678571D01*
X99210476Y-123630952D01*
X99305714Y-123583333D01*
X99543809Y-123583333D01*
X99639047Y-123630952D01*
X99686666Y-123678571D01*
X99734285Y-123773809D01*
X99734285Y-124011904D01*
X99686666Y-124107142D01*
X99639047Y-124154761D01*
X99543809Y-124202380D01*
X99305714Y-124202380D01*
X99210476Y-124154761D01*
X99162857Y-124107142D01*
%TO.C,C1016*%
X74874761Y-179502142D02*
X74827142Y-179549761D01*
X74684285Y-179597380D01*
X74589047Y-179597380D01*
X74446190Y-179549761D01*
X74350952Y-179454523D01*
X74303333Y-179359285D01*
X74255714Y-179168809D01*
X74255714Y-179025952D01*
X74303333Y-178835476D01*
X74350952Y-178740238D01*
X74446190Y-178645000D01*
X74589047Y-178597380D01*
X74684285Y-178597380D01*
X74827142Y-178645000D01*
X74874761Y-178692619D01*
X75827142Y-179597380D02*
X75255714Y-179597380D01*
X75541428Y-179597380D02*
X75541428Y-178597380D01*
X75446190Y-178740238D01*
X75350952Y-178835476D01*
X75255714Y-178883095D01*
X76446190Y-178597380D02*
X76541428Y-178597380D01*
X76636666Y-178645000D01*
X76684285Y-178692619D01*
X76731904Y-178787857D01*
X76779523Y-178978333D01*
X76779523Y-179216428D01*
X76731904Y-179406904D01*
X76684285Y-179502142D01*
X76636666Y-179549761D01*
X76541428Y-179597380D01*
X76446190Y-179597380D01*
X76350952Y-179549761D01*
X76303333Y-179502142D01*
X76255714Y-179406904D01*
X76208095Y-179216428D01*
X76208095Y-178978333D01*
X76255714Y-178787857D01*
X76303333Y-178692619D01*
X76350952Y-178645000D01*
X76446190Y-178597380D01*
X77731904Y-179597380D02*
X77160476Y-179597380D01*
X77446190Y-179597380D02*
X77446190Y-178597380D01*
X77350952Y-178740238D01*
X77255714Y-178835476D01*
X77160476Y-178883095D01*
X78589047Y-178597380D02*
X78398571Y-178597380D01*
X78303333Y-178645000D01*
X78255714Y-178692619D01*
X78160476Y-178835476D01*
X78112857Y-179025952D01*
X78112857Y-179406904D01*
X78160476Y-179502142D01*
X78208095Y-179549761D01*
X78303333Y-179597380D01*
X78493809Y-179597380D01*
X78589047Y-179549761D01*
X78636666Y-179502142D01*
X78684285Y-179406904D01*
X78684285Y-179168809D01*
X78636666Y-179073571D01*
X78589047Y-179025952D01*
X78493809Y-178978333D01*
X78303333Y-178978333D01*
X78208095Y-179025952D01*
X78160476Y-179073571D01*
X78112857Y-179168809D01*
%TO.C,C1017*%
X74874761Y-173787142D02*
X74827142Y-173834761D01*
X74684285Y-173882380D01*
X74589047Y-173882380D01*
X74446190Y-173834761D01*
X74350952Y-173739523D01*
X74303333Y-173644285D01*
X74255714Y-173453809D01*
X74255714Y-173310952D01*
X74303333Y-173120476D01*
X74350952Y-173025238D01*
X74446190Y-172930000D01*
X74589047Y-172882380D01*
X74684285Y-172882380D01*
X74827142Y-172930000D01*
X74874761Y-172977619D01*
X75827142Y-173882380D02*
X75255714Y-173882380D01*
X75541428Y-173882380D02*
X75541428Y-172882380D01*
X75446190Y-173025238D01*
X75350952Y-173120476D01*
X75255714Y-173168095D01*
X76446190Y-172882380D02*
X76541428Y-172882380D01*
X76636666Y-172930000D01*
X76684285Y-172977619D01*
X76731904Y-173072857D01*
X76779523Y-173263333D01*
X76779523Y-173501428D01*
X76731904Y-173691904D01*
X76684285Y-173787142D01*
X76636666Y-173834761D01*
X76541428Y-173882380D01*
X76446190Y-173882380D01*
X76350952Y-173834761D01*
X76303333Y-173787142D01*
X76255714Y-173691904D01*
X76208095Y-173501428D01*
X76208095Y-173263333D01*
X76255714Y-173072857D01*
X76303333Y-172977619D01*
X76350952Y-172930000D01*
X76446190Y-172882380D01*
X77731904Y-173882380D02*
X77160476Y-173882380D01*
X77446190Y-173882380D02*
X77446190Y-172882380D01*
X77350952Y-173025238D01*
X77255714Y-173120476D01*
X77160476Y-173168095D01*
X78065238Y-172882380D02*
X78731904Y-172882380D01*
X78303333Y-173882380D01*
%TO.C,C1018*%
X74874761Y-149657142D02*
X74827142Y-149704761D01*
X74684285Y-149752380D01*
X74589047Y-149752380D01*
X74446190Y-149704761D01*
X74350952Y-149609523D01*
X74303333Y-149514285D01*
X74255714Y-149323809D01*
X74255714Y-149180952D01*
X74303333Y-148990476D01*
X74350952Y-148895238D01*
X74446190Y-148800000D01*
X74589047Y-148752380D01*
X74684285Y-148752380D01*
X74827142Y-148800000D01*
X74874761Y-148847619D01*
X75827142Y-149752380D02*
X75255714Y-149752380D01*
X75541428Y-149752380D02*
X75541428Y-148752380D01*
X75446190Y-148895238D01*
X75350952Y-148990476D01*
X75255714Y-149038095D01*
X76446190Y-148752380D02*
X76541428Y-148752380D01*
X76636666Y-148800000D01*
X76684285Y-148847619D01*
X76731904Y-148942857D01*
X76779523Y-149133333D01*
X76779523Y-149371428D01*
X76731904Y-149561904D01*
X76684285Y-149657142D01*
X76636666Y-149704761D01*
X76541428Y-149752380D01*
X76446190Y-149752380D01*
X76350952Y-149704761D01*
X76303333Y-149657142D01*
X76255714Y-149561904D01*
X76208095Y-149371428D01*
X76208095Y-149133333D01*
X76255714Y-148942857D01*
X76303333Y-148847619D01*
X76350952Y-148800000D01*
X76446190Y-148752380D01*
X77731904Y-149752380D02*
X77160476Y-149752380D01*
X77446190Y-149752380D02*
X77446190Y-148752380D01*
X77350952Y-148895238D01*
X77255714Y-148990476D01*
X77160476Y-149038095D01*
X78303333Y-149180952D02*
X78208095Y-149133333D01*
X78160476Y-149085714D01*
X78112857Y-148990476D01*
X78112857Y-148942857D01*
X78160476Y-148847619D01*
X78208095Y-148800000D01*
X78303333Y-148752380D01*
X78493809Y-148752380D01*
X78589047Y-148800000D01*
X78636666Y-148847619D01*
X78684285Y-148942857D01*
X78684285Y-148990476D01*
X78636666Y-149085714D01*
X78589047Y-149133333D01*
X78493809Y-149180952D01*
X78303333Y-149180952D01*
X78208095Y-149228571D01*
X78160476Y-149276190D01*
X78112857Y-149371428D01*
X78112857Y-149561904D01*
X78160476Y-149657142D01*
X78208095Y-149704761D01*
X78303333Y-149752380D01*
X78493809Y-149752380D01*
X78589047Y-149704761D01*
X78636666Y-149657142D01*
X78684285Y-149561904D01*
X78684285Y-149371428D01*
X78636666Y-149276190D01*
X78589047Y-149228571D01*
X78493809Y-149180952D01*
%TO.C,C1019*%
X95924761Y-142522142D02*
X95877142Y-142569761D01*
X95734285Y-142617380D01*
X95639047Y-142617380D01*
X95496190Y-142569761D01*
X95400952Y-142474523D01*
X95353333Y-142379285D01*
X95305714Y-142188809D01*
X95305714Y-142045952D01*
X95353333Y-141855476D01*
X95400952Y-141760238D01*
X95496190Y-141665000D01*
X95639047Y-141617380D01*
X95734285Y-141617380D01*
X95877142Y-141665000D01*
X95924761Y-141712619D01*
X96877142Y-142617380D02*
X96305714Y-142617380D01*
X96591428Y-142617380D02*
X96591428Y-141617380D01*
X96496190Y-141760238D01*
X96400952Y-141855476D01*
X96305714Y-141903095D01*
X97496190Y-141617380D02*
X97591428Y-141617380D01*
X97686666Y-141665000D01*
X97734285Y-141712619D01*
X97781904Y-141807857D01*
X97829523Y-141998333D01*
X97829523Y-142236428D01*
X97781904Y-142426904D01*
X97734285Y-142522142D01*
X97686666Y-142569761D01*
X97591428Y-142617380D01*
X97496190Y-142617380D01*
X97400952Y-142569761D01*
X97353333Y-142522142D01*
X97305714Y-142426904D01*
X97258095Y-142236428D01*
X97258095Y-141998333D01*
X97305714Y-141807857D01*
X97353333Y-141712619D01*
X97400952Y-141665000D01*
X97496190Y-141617380D01*
X98781904Y-142617380D02*
X98210476Y-142617380D01*
X98496190Y-142617380D02*
X98496190Y-141617380D01*
X98400952Y-141760238D01*
X98305714Y-141855476D01*
X98210476Y-141903095D01*
X99258095Y-142617380D02*
X99448571Y-142617380D01*
X99543809Y-142569761D01*
X99591428Y-142522142D01*
X99686666Y-142379285D01*
X99734285Y-142188809D01*
X99734285Y-141807857D01*
X99686666Y-141712619D01*
X99639047Y-141665000D01*
X99543809Y-141617380D01*
X99353333Y-141617380D01*
X99258095Y-141665000D01*
X99210476Y-141712619D01*
X99162857Y-141807857D01*
X99162857Y-142045952D01*
X99210476Y-142141190D01*
X99258095Y-142188809D01*
X99353333Y-142236428D01*
X99543809Y-142236428D01*
X99639047Y-142188809D01*
X99686666Y-142141190D01*
X99734285Y-142045952D01*
%TO.C,C1020*%
X95924761Y-160937142D02*
X95877142Y-160984761D01*
X95734285Y-161032380D01*
X95639047Y-161032380D01*
X95496190Y-160984761D01*
X95400952Y-160889523D01*
X95353333Y-160794285D01*
X95305714Y-160603809D01*
X95305714Y-160460952D01*
X95353333Y-160270476D01*
X95400952Y-160175238D01*
X95496190Y-160080000D01*
X95639047Y-160032380D01*
X95734285Y-160032380D01*
X95877142Y-160080000D01*
X95924761Y-160127619D01*
X96877142Y-161032380D02*
X96305714Y-161032380D01*
X96591428Y-161032380D02*
X96591428Y-160032380D01*
X96496190Y-160175238D01*
X96400952Y-160270476D01*
X96305714Y-160318095D01*
X97496190Y-160032380D02*
X97591428Y-160032380D01*
X97686666Y-160080000D01*
X97734285Y-160127619D01*
X97781904Y-160222857D01*
X97829523Y-160413333D01*
X97829523Y-160651428D01*
X97781904Y-160841904D01*
X97734285Y-160937142D01*
X97686666Y-160984761D01*
X97591428Y-161032380D01*
X97496190Y-161032380D01*
X97400952Y-160984761D01*
X97353333Y-160937142D01*
X97305714Y-160841904D01*
X97258095Y-160651428D01*
X97258095Y-160413333D01*
X97305714Y-160222857D01*
X97353333Y-160127619D01*
X97400952Y-160080000D01*
X97496190Y-160032380D01*
X98210476Y-160127619D02*
X98258095Y-160080000D01*
X98353333Y-160032380D01*
X98591428Y-160032380D01*
X98686666Y-160080000D01*
X98734285Y-160127619D01*
X98781904Y-160222857D01*
X98781904Y-160318095D01*
X98734285Y-160460952D01*
X98162857Y-161032380D01*
X98781904Y-161032380D01*
X99400952Y-160032380D02*
X99496190Y-160032380D01*
X99591428Y-160080000D01*
X99639047Y-160127619D01*
X99686666Y-160222857D01*
X99734285Y-160413333D01*
X99734285Y-160651428D01*
X99686666Y-160841904D01*
X99639047Y-160937142D01*
X99591428Y-160984761D01*
X99496190Y-161032380D01*
X99400952Y-161032380D01*
X99305714Y-160984761D01*
X99258095Y-160937142D01*
X99210476Y-160841904D01*
X99162857Y-160651428D01*
X99162857Y-160413333D01*
X99210476Y-160222857D01*
X99258095Y-160127619D01*
X99305714Y-160080000D01*
X99400952Y-160032380D01*
%TO.C,C1021*%
X95924761Y-172367142D02*
X95877142Y-172414761D01*
X95734285Y-172462380D01*
X95639047Y-172462380D01*
X95496190Y-172414761D01*
X95400952Y-172319523D01*
X95353333Y-172224285D01*
X95305714Y-172033809D01*
X95305714Y-171890952D01*
X95353333Y-171700476D01*
X95400952Y-171605238D01*
X95496190Y-171510000D01*
X95639047Y-171462380D01*
X95734285Y-171462380D01*
X95877142Y-171510000D01*
X95924761Y-171557619D01*
X96877142Y-172462380D02*
X96305714Y-172462380D01*
X96591428Y-172462380D02*
X96591428Y-171462380D01*
X96496190Y-171605238D01*
X96400952Y-171700476D01*
X96305714Y-171748095D01*
X97496190Y-171462380D02*
X97591428Y-171462380D01*
X97686666Y-171510000D01*
X97734285Y-171557619D01*
X97781904Y-171652857D01*
X97829523Y-171843333D01*
X97829523Y-172081428D01*
X97781904Y-172271904D01*
X97734285Y-172367142D01*
X97686666Y-172414761D01*
X97591428Y-172462380D01*
X97496190Y-172462380D01*
X97400952Y-172414761D01*
X97353333Y-172367142D01*
X97305714Y-172271904D01*
X97258095Y-172081428D01*
X97258095Y-171843333D01*
X97305714Y-171652857D01*
X97353333Y-171557619D01*
X97400952Y-171510000D01*
X97496190Y-171462380D01*
X98210476Y-171557619D02*
X98258095Y-171510000D01*
X98353333Y-171462380D01*
X98591428Y-171462380D01*
X98686666Y-171510000D01*
X98734285Y-171557619D01*
X98781904Y-171652857D01*
X98781904Y-171748095D01*
X98734285Y-171890952D01*
X98162857Y-172462380D01*
X98781904Y-172462380D01*
X99734285Y-172462380D02*
X99162857Y-172462380D01*
X99448571Y-172462380D02*
X99448571Y-171462380D01*
X99353333Y-171605238D01*
X99258095Y-171700476D01*
X99162857Y-171748095D01*
%TO.C,C1022*%
X102564761Y-141267142D02*
X102517142Y-141314761D01*
X102374285Y-141362380D01*
X102279047Y-141362380D01*
X102136190Y-141314761D01*
X102040952Y-141219523D01*
X101993333Y-141124285D01*
X101945714Y-140933809D01*
X101945714Y-140790952D01*
X101993333Y-140600476D01*
X102040952Y-140505238D01*
X102136190Y-140410000D01*
X102279047Y-140362380D01*
X102374285Y-140362380D01*
X102517142Y-140410000D01*
X102564761Y-140457619D01*
X103517142Y-141362380D02*
X102945714Y-141362380D01*
X103231428Y-141362380D02*
X103231428Y-140362380D01*
X103136190Y-140505238D01*
X103040952Y-140600476D01*
X102945714Y-140648095D01*
X104136190Y-140362380D02*
X104231428Y-140362380D01*
X104326666Y-140410000D01*
X104374285Y-140457619D01*
X104421904Y-140552857D01*
X104469523Y-140743333D01*
X104469523Y-140981428D01*
X104421904Y-141171904D01*
X104374285Y-141267142D01*
X104326666Y-141314761D01*
X104231428Y-141362380D01*
X104136190Y-141362380D01*
X104040952Y-141314761D01*
X103993333Y-141267142D01*
X103945714Y-141171904D01*
X103898095Y-140981428D01*
X103898095Y-140743333D01*
X103945714Y-140552857D01*
X103993333Y-140457619D01*
X104040952Y-140410000D01*
X104136190Y-140362380D01*
X104850476Y-140457619D02*
X104898095Y-140410000D01*
X104993333Y-140362380D01*
X105231428Y-140362380D01*
X105326666Y-140410000D01*
X105374285Y-140457619D01*
X105421904Y-140552857D01*
X105421904Y-140648095D01*
X105374285Y-140790952D01*
X104802857Y-141362380D01*
X105421904Y-141362380D01*
X105802857Y-140457619D02*
X105850476Y-140410000D01*
X105945714Y-140362380D01*
X106183809Y-140362380D01*
X106279047Y-140410000D01*
X106326666Y-140457619D01*
X106374285Y-140552857D01*
X106374285Y-140648095D01*
X106326666Y-140790952D01*
X105755238Y-141362380D01*
X106374285Y-141362380D01*
%TO.C,D1001*%
X106242380Y-153931666D02*
X105242380Y-153931666D01*
X105242380Y-153693571D01*
X105290000Y-153550714D01*
X105385238Y-153455476D01*
X105480476Y-153407857D01*
X105670952Y-153360238D01*
X105813809Y-153360238D01*
X106004285Y-153407857D01*
X106099523Y-153455476D01*
X106194761Y-153550714D01*
X106242380Y-153693571D01*
X106242380Y-153931666D01*
X106242380Y-152407857D02*
X106242380Y-152979285D01*
X106242380Y-152693571D02*
X105242380Y-152693571D01*
X105385238Y-152788809D01*
X105480476Y-152884047D01*
X105528095Y-152979285D01*
X105242380Y-151788809D02*
X105242380Y-151693571D01*
X105290000Y-151598333D01*
X105337619Y-151550714D01*
X105432857Y-151503095D01*
X105623333Y-151455476D01*
X105861428Y-151455476D01*
X106051904Y-151503095D01*
X106147142Y-151550714D01*
X106194761Y-151598333D01*
X106242380Y-151693571D01*
X106242380Y-151788809D01*
X106194761Y-151884047D01*
X106147142Y-151931666D01*
X106051904Y-151979285D01*
X105861428Y-152026904D01*
X105623333Y-152026904D01*
X105432857Y-151979285D01*
X105337619Y-151931666D01*
X105290000Y-151884047D01*
X105242380Y-151788809D01*
X105242380Y-150836428D02*
X105242380Y-150741190D01*
X105290000Y-150645952D01*
X105337619Y-150598333D01*
X105432857Y-150550714D01*
X105623333Y-150503095D01*
X105861428Y-150503095D01*
X106051904Y-150550714D01*
X106147142Y-150598333D01*
X106194761Y-150645952D01*
X106242380Y-150741190D01*
X106242380Y-150836428D01*
X106194761Y-150931666D01*
X106147142Y-150979285D01*
X106051904Y-151026904D01*
X105861428Y-151074523D01*
X105623333Y-151074523D01*
X105432857Y-151026904D01*
X105337619Y-150979285D01*
X105290000Y-150931666D01*
X105242380Y-150836428D01*
X106242380Y-149550714D02*
X106242380Y-150122142D01*
X106242380Y-149836428D02*
X105242380Y-149836428D01*
X105385238Y-149931666D01*
X105480476Y-150026904D01*
X105528095Y-150122142D01*
X103036666Y-155393095D02*
X103036666Y-154916904D01*
X103322380Y-155488333D02*
X102322380Y-155155000D01*
X103322380Y-154821666D01*
%TO.C,D1002*%
X106242380Y-146946666D02*
X105242380Y-146946666D01*
X105242380Y-146708571D01*
X105290000Y-146565714D01*
X105385238Y-146470476D01*
X105480476Y-146422857D01*
X105670952Y-146375238D01*
X105813809Y-146375238D01*
X106004285Y-146422857D01*
X106099523Y-146470476D01*
X106194761Y-146565714D01*
X106242380Y-146708571D01*
X106242380Y-146946666D01*
X106242380Y-145422857D02*
X106242380Y-145994285D01*
X106242380Y-145708571D02*
X105242380Y-145708571D01*
X105385238Y-145803809D01*
X105480476Y-145899047D01*
X105528095Y-145994285D01*
X105242380Y-144803809D02*
X105242380Y-144708571D01*
X105290000Y-144613333D01*
X105337619Y-144565714D01*
X105432857Y-144518095D01*
X105623333Y-144470476D01*
X105861428Y-144470476D01*
X106051904Y-144518095D01*
X106147142Y-144565714D01*
X106194761Y-144613333D01*
X106242380Y-144708571D01*
X106242380Y-144803809D01*
X106194761Y-144899047D01*
X106147142Y-144946666D01*
X106051904Y-144994285D01*
X105861428Y-145041904D01*
X105623333Y-145041904D01*
X105432857Y-144994285D01*
X105337619Y-144946666D01*
X105290000Y-144899047D01*
X105242380Y-144803809D01*
X105242380Y-143851428D02*
X105242380Y-143756190D01*
X105290000Y-143660952D01*
X105337619Y-143613333D01*
X105432857Y-143565714D01*
X105623333Y-143518095D01*
X105861428Y-143518095D01*
X106051904Y-143565714D01*
X106147142Y-143613333D01*
X106194761Y-143660952D01*
X106242380Y-143756190D01*
X106242380Y-143851428D01*
X106194761Y-143946666D01*
X106147142Y-143994285D01*
X106051904Y-144041904D01*
X105861428Y-144089523D01*
X105623333Y-144089523D01*
X105432857Y-144041904D01*
X105337619Y-143994285D01*
X105290000Y-143946666D01*
X105242380Y-143851428D01*
X105337619Y-143137142D02*
X105290000Y-143089523D01*
X105242380Y-142994285D01*
X105242380Y-142756190D01*
X105290000Y-142660952D01*
X105337619Y-142613333D01*
X105432857Y-142565714D01*
X105528095Y-142565714D01*
X105670952Y-142613333D01*
X106242380Y-143184761D01*
X106242380Y-142565714D01*
X103036666Y-148408095D02*
X103036666Y-147931904D01*
X103322380Y-148503333D02*
X102322380Y-148170000D01*
X103322380Y-147836666D01*
%TO.C,Q1001*%
X108331190Y-166667619D02*
X108235952Y-166620000D01*
X108140714Y-166524761D01*
X107997857Y-166381904D01*
X107902619Y-166334285D01*
X107807380Y-166334285D01*
X107855000Y-166572380D02*
X107759761Y-166524761D01*
X107664523Y-166429523D01*
X107616904Y-166239047D01*
X107616904Y-165905714D01*
X107664523Y-165715238D01*
X107759761Y-165620000D01*
X107855000Y-165572380D01*
X108045476Y-165572380D01*
X108140714Y-165620000D01*
X108235952Y-165715238D01*
X108283571Y-165905714D01*
X108283571Y-166239047D01*
X108235952Y-166429523D01*
X108140714Y-166524761D01*
X108045476Y-166572380D01*
X107855000Y-166572380D01*
X109235952Y-166572380D02*
X108664523Y-166572380D01*
X108950238Y-166572380D02*
X108950238Y-165572380D01*
X108855000Y-165715238D01*
X108759761Y-165810476D01*
X108664523Y-165858095D01*
X109855000Y-165572380D02*
X109950238Y-165572380D01*
X110045476Y-165620000D01*
X110093095Y-165667619D01*
X110140714Y-165762857D01*
X110188333Y-165953333D01*
X110188333Y-166191428D01*
X110140714Y-166381904D01*
X110093095Y-166477142D01*
X110045476Y-166524761D01*
X109950238Y-166572380D01*
X109855000Y-166572380D01*
X109759761Y-166524761D01*
X109712142Y-166477142D01*
X109664523Y-166381904D01*
X109616904Y-166191428D01*
X109616904Y-165953333D01*
X109664523Y-165762857D01*
X109712142Y-165667619D01*
X109759761Y-165620000D01*
X109855000Y-165572380D01*
X110807380Y-165572380D02*
X110902619Y-165572380D01*
X110997857Y-165620000D01*
X111045476Y-165667619D01*
X111093095Y-165762857D01*
X111140714Y-165953333D01*
X111140714Y-166191428D01*
X111093095Y-166381904D01*
X111045476Y-166477142D01*
X110997857Y-166524761D01*
X110902619Y-166572380D01*
X110807380Y-166572380D01*
X110712142Y-166524761D01*
X110664523Y-166477142D01*
X110616904Y-166381904D01*
X110569285Y-166191428D01*
X110569285Y-165953333D01*
X110616904Y-165762857D01*
X110664523Y-165667619D01*
X110712142Y-165620000D01*
X110807380Y-165572380D01*
X112093095Y-166572380D02*
X111521666Y-166572380D01*
X111807380Y-166572380D02*
X111807380Y-165572380D01*
X111712142Y-165715238D01*
X111616904Y-165810476D01*
X111521666Y-165858095D01*
%TO.C,Q1002*%
X101981190Y-166667619D02*
X101885952Y-166620000D01*
X101790714Y-166524761D01*
X101647857Y-166381904D01*
X101552619Y-166334285D01*
X101457380Y-166334285D01*
X101505000Y-166572380D02*
X101409761Y-166524761D01*
X101314523Y-166429523D01*
X101266904Y-166239047D01*
X101266904Y-165905714D01*
X101314523Y-165715238D01*
X101409761Y-165620000D01*
X101505000Y-165572380D01*
X101695476Y-165572380D01*
X101790714Y-165620000D01*
X101885952Y-165715238D01*
X101933571Y-165905714D01*
X101933571Y-166239047D01*
X101885952Y-166429523D01*
X101790714Y-166524761D01*
X101695476Y-166572380D01*
X101505000Y-166572380D01*
X102885952Y-166572380D02*
X102314523Y-166572380D01*
X102600238Y-166572380D02*
X102600238Y-165572380D01*
X102505000Y-165715238D01*
X102409761Y-165810476D01*
X102314523Y-165858095D01*
X103505000Y-165572380D02*
X103600238Y-165572380D01*
X103695476Y-165620000D01*
X103743095Y-165667619D01*
X103790714Y-165762857D01*
X103838333Y-165953333D01*
X103838333Y-166191428D01*
X103790714Y-166381904D01*
X103743095Y-166477142D01*
X103695476Y-166524761D01*
X103600238Y-166572380D01*
X103505000Y-166572380D01*
X103409761Y-166524761D01*
X103362142Y-166477142D01*
X103314523Y-166381904D01*
X103266904Y-166191428D01*
X103266904Y-165953333D01*
X103314523Y-165762857D01*
X103362142Y-165667619D01*
X103409761Y-165620000D01*
X103505000Y-165572380D01*
X104457380Y-165572380D02*
X104552619Y-165572380D01*
X104647857Y-165620000D01*
X104695476Y-165667619D01*
X104743095Y-165762857D01*
X104790714Y-165953333D01*
X104790714Y-166191428D01*
X104743095Y-166381904D01*
X104695476Y-166477142D01*
X104647857Y-166524761D01*
X104552619Y-166572380D01*
X104457380Y-166572380D01*
X104362142Y-166524761D01*
X104314523Y-166477142D01*
X104266904Y-166381904D01*
X104219285Y-166191428D01*
X104219285Y-165953333D01*
X104266904Y-165762857D01*
X104314523Y-165667619D01*
X104362142Y-165620000D01*
X104457380Y-165572380D01*
X105171666Y-165667619D02*
X105219285Y-165620000D01*
X105314523Y-165572380D01*
X105552619Y-165572380D01*
X105647857Y-165620000D01*
X105695476Y-165667619D01*
X105743095Y-165762857D01*
X105743095Y-165858095D01*
X105695476Y-166000952D01*
X105124047Y-166572380D01*
X105743095Y-166572380D01*
%TO.C,Q1003*%
X109077619Y-181228809D02*
X109030000Y-181324047D01*
X108934761Y-181419285D01*
X108791904Y-181562142D01*
X108744285Y-181657380D01*
X108744285Y-181752619D01*
X108982380Y-181705000D02*
X108934761Y-181800238D01*
X108839523Y-181895476D01*
X108649047Y-181943095D01*
X108315714Y-181943095D01*
X108125238Y-181895476D01*
X108030000Y-181800238D01*
X107982380Y-181705000D01*
X107982380Y-181514523D01*
X108030000Y-181419285D01*
X108125238Y-181324047D01*
X108315714Y-181276428D01*
X108649047Y-181276428D01*
X108839523Y-181324047D01*
X108934761Y-181419285D01*
X108982380Y-181514523D01*
X108982380Y-181705000D01*
X108982380Y-180324047D02*
X108982380Y-180895476D01*
X108982380Y-180609761D02*
X107982380Y-180609761D01*
X108125238Y-180705000D01*
X108220476Y-180800238D01*
X108268095Y-180895476D01*
X107982380Y-179705000D02*
X107982380Y-179609761D01*
X108030000Y-179514523D01*
X108077619Y-179466904D01*
X108172857Y-179419285D01*
X108363333Y-179371666D01*
X108601428Y-179371666D01*
X108791904Y-179419285D01*
X108887142Y-179466904D01*
X108934761Y-179514523D01*
X108982380Y-179609761D01*
X108982380Y-179705000D01*
X108934761Y-179800238D01*
X108887142Y-179847857D01*
X108791904Y-179895476D01*
X108601428Y-179943095D01*
X108363333Y-179943095D01*
X108172857Y-179895476D01*
X108077619Y-179847857D01*
X108030000Y-179800238D01*
X107982380Y-179705000D01*
X107982380Y-178752619D02*
X107982380Y-178657380D01*
X108030000Y-178562142D01*
X108077619Y-178514523D01*
X108172857Y-178466904D01*
X108363333Y-178419285D01*
X108601428Y-178419285D01*
X108791904Y-178466904D01*
X108887142Y-178514523D01*
X108934761Y-178562142D01*
X108982380Y-178657380D01*
X108982380Y-178752619D01*
X108934761Y-178847857D01*
X108887142Y-178895476D01*
X108791904Y-178943095D01*
X108601428Y-178990714D01*
X108363333Y-178990714D01*
X108172857Y-178943095D01*
X108077619Y-178895476D01*
X108030000Y-178847857D01*
X107982380Y-178752619D01*
X107982380Y-178085952D02*
X107982380Y-177466904D01*
X108363333Y-177800238D01*
X108363333Y-177657380D01*
X108410952Y-177562142D01*
X108458571Y-177514523D01*
X108553809Y-177466904D01*
X108791904Y-177466904D01*
X108887142Y-177514523D01*
X108934761Y-177562142D01*
X108982380Y-177657380D01*
X108982380Y-177943095D01*
X108934761Y-178038333D01*
X108887142Y-178085952D01*
%TO.C,Q1004*%
X103472619Y-171703809D02*
X103425000Y-171799047D01*
X103329761Y-171894285D01*
X103186904Y-172037142D01*
X103139285Y-172132380D01*
X103139285Y-172227619D01*
X103377380Y-172180000D02*
X103329761Y-172275238D01*
X103234523Y-172370476D01*
X103044047Y-172418095D01*
X102710714Y-172418095D01*
X102520238Y-172370476D01*
X102425000Y-172275238D01*
X102377380Y-172180000D01*
X102377380Y-171989523D01*
X102425000Y-171894285D01*
X102520238Y-171799047D01*
X102710714Y-171751428D01*
X103044047Y-171751428D01*
X103234523Y-171799047D01*
X103329761Y-171894285D01*
X103377380Y-171989523D01*
X103377380Y-172180000D01*
X103377380Y-170799047D02*
X103377380Y-171370476D01*
X103377380Y-171084761D02*
X102377380Y-171084761D01*
X102520238Y-171180000D01*
X102615476Y-171275238D01*
X102663095Y-171370476D01*
X102377380Y-170180000D02*
X102377380Y-170084761D01*
X102425000Y-169989523D01*
X102472619Y-169941904D01*
X102567857Y-169894285D01*
X102758333Y-169846666D01*
X102996428Y-169846666D01*
X103186904Y-169894285D01*
X103282142Y-169941904D01*
X103329761Y-169989523D01*
X103377380Y-170084761D01*
X103377380Y-170180000D01*
X103329761Y-170275238D01*
X103282142Y-170322857D01*
X103186904Y-170370476D01*
X102996428Y-170418095D01*
X102758333Y-170418095D01*
X102567857Y-170370476D01*
X102472619Y-170322857D01*
X102425000Y-170275238D01*
X102377380Y-170180000D01*
X102377380Y-169227619D02*
X102377380Y-169132380D01*
X102425000Y-169037142D01*
X102472619Y-168989523D01*
X102567857Y-168941904D01*
X102758333Y-168894285D01*
X102996428Y-168894285D01*
X103186904Y-168941904D01*
X103282142Y-168989523D01*
X103329761Y-169037142D01*
X103377380Y-169132380D01*
X103377380Y-169227619D01*
X103329761Y-169322857D01*
X103282142Y-169370476D01*
X103186904Y-169418095D01*
X102996428Y-169465714D01*
X102758333Y-169465714D01*
X102567857Y-169418095D01*
X102472619Y-169370476D01*
X102425000Y-169322857D01*
X102377380Y-169227619D01*
X102710714Y-168037142D02*
X103377380Y-168037142D01*
X102329761Y-168275238D02*
X103044047Y-168513333D01*
X103044047Y-167894285D01*
%TO.C,R1001*%
X104762380Y-153995238D02*
X104286190Y-154328571D01*
X104762380Y-154566666D02*
X103762380Y-154566666D01*
X103762380Y-154185714D01*
X103810000Y-154090476D01*
X103857619Y-154042857D01*
X103952857Y-153995238D01*
X104095714Y-153995238D01*
X104190952Y-154042857D01*
X104238571Y-154090476D01*
X104286190Y-154185714D01*
X104286190Y-154566666D01*
X104762380Y-153042857D02*
X104762380Y-153614285D01*
X104762380Y-153328571D02*
X103762380Y-153328571D01*
X103905238Y-153423809D01*
X104000476Y-153519047D01*
X104048095Y-153614285D01*
X103762380Y-152423809D02*
X103762380Y-152328571D01*
X103810000Y-152233333D01*
X103857619Y-152185714D01*
X103952857Y-152138095D01*
X104143333Y-152090476D01*
X104381428Y-152090476D01*
X104571904Y-152138095D01*
X104667142Y-152185714D01*
X104714761Y-152233333D01*
X104762380Y-152328571D01*
X104762380Y-152423809D01*
X104714761Y-152519047D01*
X104667142Y-152566666D01*
X104571904Y-152614285D01*
X104381428Y-152661904D01*
X104143333Y-152661904D01*
X103952857Y-152614285D01*
X103857619Y-152566666D01*
X103810000Y-152519047D01*
X103762380Y-152423809D01*
X103762380Y-151471428D02*
X103762380Y-151376190D01*
X103810000Y-151280952D01*
X103857619Y-151233333D01*
X103952857Y-151185714D01*
X104143333Y-151138095D01*
X104381428Y-151138095D01*
X104571904Y-151185714D01*
X104667142Y-151233333D01*
X104714761Y-151280952D01*
X104762380Y-151376190D01*
X104762380Y-151471428D01*
X104714761Y-151566666D01*
X104667142Y-151614285D01*
X104571904Y-151661904D01*
X104381428Y-151709523D01*
X104143333Y-151709523D01*
X103952857Y-151661904D01*
X103857619Y-151614285D01*
X103810000Y-151566666D01*
X103762380Y-151471428D01*
X104762380Y-150185714D02*
X104762380Y-150757142D01*
X104762380Y-150471428D02*
X103762380Y-150471428D01*
X103905238Y-150566666D01*
X104000476Y-150661904D01*
X104048095Y-150757142D01*
%TO.C,R1002*%
X108572380Y-153995238D02*
X108096190Y-154328571D01*
X108572380Y-154566666D02*
X107572380Y-154566666D01*
X107572380Y-154185714D01*
X107620000Y-154090476D01*
X107667619Y-154042857D01*
X107762857Y-153995238D01*
X107905714Y-153995238D01*
X108000952Y-154042857D01*
X108048571Y-154090476D01*
X108096190Y-154185714D01*
X108096190Y-154566666D01*
X108572380Y-153042857D02*
X108572380Y-153614285D01*
X108572380Y-153328571D02*
X107572380Y-153328571D01*
X107715238Y-153423809D01*
X107810476Y-153519047D01*
X107858095Y-153614285D01*
X107572380Y-152423809D02*
X107572380Y-152328571D01*
X107620000Y-152233333D01*
X107667619Y-152185714D01*
X107762857Y-152138095D01*
X107953333Y-152090476D01*
X108191428Y-152090476D01*
X108381904Y-152138095D01*
X108477142Y-152185714D01*
X108524761Y-152233333D01*
X108572380Y-152328571D01*
X108572380Y-152423809D01*
X108524761Y-152519047D01*
X108477142Y-152566666D01*
X108381904Y-152614285D01*
X108191428Y-152661904D01*
X107953333Y-152661904D01*
X107762857Y-152614285D01*
X107667619Y-152566666D01*
X107620000Y-152519047D01*
X107572380Y-152423809D01*
X107572380Y-151471428D02*
X107572380Y-151376190D01*
X107620000Y-151280952D01*
X107667619Y-151233333D01*
X107762857Y-151185714D01*
X107953333Y-151138095D01*
X108191428Y-151138095D01*
X108381904Y-151185714D01*
X108477142Y-151233333D01*
X108524761Y-151280952D01*
X108572380Y-151376190D01*
X108572380Y-151471428D01*
X108524761Y-151566666D01*
X108477142Y-151614285D01*
X108381904Y-151661904D01*
X108191428Y-151709523D01*
X107953333Y-151709523D01*
X107762857Y-151661904D01*
X107667619Y-151614285D01*
X107620000Y-151566666D01*
X107572380Y-151471428D01*
X107667619Y-150757142D02*
X107620000Y-150709523D01*
X107572380Y-150614285D01*
X107572380Y-150376190D01*
X107620000Y-150280952D01*
X107667619Y-150233333D01*
X107762857Y-150185714D01*
X107858095Y-150185714D01*
X108000952Y-150233333D01*
X108572380Y-150804761D01*
X108572380Y-150185714D01*
%TO.C,R1003*%
X107937380Y-140660238D02*
X107461190Y-140993571D01*
X107937380Y-141231666D02*
X106937380Y-141231666D01*
X106937380Y-140850714D01*
X106985000Y-140755476D01*
X107032619Y-140707857D01*
X107127857Y-140660238D01*
X107270714Y-140660238D01*
X107365952Y-140707857D01*
X107413571Y-140755476D01*
X107461190Y-140850714D01*
X107461190Y-141231666D01*
X107937380Y-139707857D02*
X107937380Y-140279285D01*
X107937380Y-139993571D02*
X106937380Y-139993571D01*
X107080238Y-140088809D01*
X107175476Y-140184047D01*
X107223095Y-140279285D01*
X106937380Y-139088809D02*
X106937380Y-138993571D01*
X106985000Y-138898333D01*
X107032619Y-138850714D01*
X107127857Y-138803095D01*
X107318333Y-138755476D01*
X107556428Y-138755476D01*
X107746904Y-138803095D01*
X107842142Y-138850714D01*
X107889761Y-138898333D01*
X107937380Y-138993571D01*
X107937380Y-139088809D01*
X107889761Y-139184047D01*
X107842142Y-139231666D01*
X107746904Y-139279285D01*
X107556428Y-139326904D01*
X107318333Y-139326904D01*
X107127857Y-139279285D01*
X107032619Y-139231666D01*
X106985000Y-139184047D01*
X106937380Y-139088809D01*
X106937380Y-138136428D02*
X106937380Y-138041190D01*
X106985000Y-137945952D01*
X107032619Y-137898333D01*
X107127857Y-137850714D01*
X107318333Y-137803095D01*
X107556428Y-137803095D01*
X107746904Y-137850714D01*
X107842142Y-137898333D01*
X107889761Y-137945952D01*
X107937380Y-138041190D01*
X107937380Y-138136428D01*
X107889761Y-138231666D01*
X107842142Y-138279285D01*
X107746904Y-138326904D01*
X107556428Y-138374523D01*
X107318333Y-138374523D01*
X107127857Y-138326904D01*
X107032619Y-138279285D01*
X106985000Y-138231666D01*
X106937380Y-138136428D01*
X106937380Y-137469761D02*
X106937380Y-136850714D01*
X107318333Y-137184047D01*
X107318333Y-137041190D01*
X107365952Y-136945952D01*
X107413571Y-136898333D01*
X107508809Y-136850714D01*
X107746904Y-136850714D01*
X107842142Y-136898333D01*
X107889761Y-136945952D01*
X107937380Y-137041190D01*
X107937380Y-137326904D01*
X107889761Y-137422142D01*
X107842142Y-137469761D01*
%TO.C,RN1001*%
X79332380Y-170394047D02*
X78856190Y-170727380D01*
X79332380Y-170965476D02*
X78332380Y-170965476D01*
X78332380Y-170584523D01*
X78380000Y-170489285D01*
X78427619Y-170441666D01*
X78522857Y-170394047D01*
X78665714Y-170394047D01*
X78760952Y-170441666D01*
X78808571Y-170489285D01*
X78856190Y-170584523D01*
X78856190Y-170965476D01*
X79332380Y-169965476D02*
X78332380Y-169965476D01*
X79332380Y-169394047D01*
X78332380Y-169394047D01*
X79332380Y-168394047D02*
X79332380Y-168965476D01*
X79332380Y-168679761D02*
X78332380Y-168679761D01*
X78475238Y-168775000D01*
X78570476Y-168870238D01*
X78618095Y-168965476D01*
X78332380Y-167775000D02*
X78332380Y-167679761D01*
X78380000Y-167584523D01*
X78427619Y-167536904D01*
X78522857Y-167489285D01*
X78713333Y-167441666D01*
X78951428Y-167441666D01*
X79141904Y-167489285D01*
X79237142Y-167536904D01*
X79284761Y-167584523D01*
X79332380Y-167679761D01*
X79332380Y-167775000D01*
X79284761Y-167870238D01*
X79237142Y-167917857D01*
X79141904Y-167965476D01*
X78951428Y-168013095D01*
X78713333Y-168013095D01*
X78522857Y-167965476D01*
X78427619Y-167917857D01*
X78380000Y-167870238D01*
X78332380Y-167775000D01*
X78332380Y-166822619D02*
X78332380Y-166727380D01*
X78380000Y-166632142D01*
X78427619Y-166584523D01*
X78522857Y-166536904D01*
X78713333Y-166489285D01*
X78951428Y-166489285D01*
X79141904Y-166536904D01*
X79237142Y-166584523D01*
X79284761Y-166632142D01*
X79332380Y-166727380D01*
X79332380Y-166822619D01*
X79284761Y-166917857D01*
X79237142Y-166965476D01*
X79141904Y-167013095D01*
X78951428Y-167060714D01*
X78713333Y-167060714D01*
X78522857Y-167013095D01*
X78427619Y-166965476D01*
X78380000Y-166917857D01*
X78332380Y-166822619D01*
X79332380Y-165536904D02*
X79332380Y-166108333D01*
X79332380Y-165822619D02*
X78332380Y-165822619D01*
X78475238Y-165917857D01*
X78570476Y-166013095D01*
X78618095Y-166108333D01*
%TO.C,RN1002*%
X79332380Y-143724047D02*
X78856190Y-144057380D01*
X79332380Y-144295476D02*
X78332380Y-144295476D01*
X78332380Y-143914523D01*
X78380000Y-143819285D01*
X78427619Y-143771666D01*
X78522857Y-143724047D01*
X78665714Y-143724047D01*
X78760952Y-143771666D01*
X78808571Y-143819285D01*
X78856190Y-143914523D01*
X78856190Y-144295476D01*
X79332380Y-143295476D02*
X78332380Y-143295476D01*
X79332380Y-142724047D01*
X78332380Y-142724047D01*
X79332380Y-141724047D02*
X79332380Y-142295476D01*
X79332380Y-142009761D02*
X78332380Y-142009761D01*
X78475238Y-142105000D01*
X78570476Y-142200238D01*
X78618095Y-142295476D01*
X78332380Y-141105000D02*
X78332380Y-141009761D01*
X78380000Y-140914523D01*
X78427619Y-140866904D01*
X78522857Y-140819285D01*
X78713333Y-140771666D01*
X78951428Y-140771666D01*
X79141904Y-140819285D01*
X79237142Y-140866904D01*
X79284761Y-140914523D01*
X79332380Y-141009761D01*
X79332380Y-141105000D01*
X79284761Y-141200238D01*
X79237142Y-141247857D01*
X79141904Y-141295476D01*
X78951428Y-141343095D01*
X78713333Y-141343095D01*
X78522857Y-141295476D01*
X78427619Y-141247857D01*
X78380000Y-141200238D01*
X78332380Y-141105000D01*
X78332380Y-140152619D02*
X78332380Y-140057380D01*
X78380000Y-139962142D01*
X78427619Y-139914523D01*
X78522857Y-139866904D01*
X78713333Y-139819285D01*
X78951428Y-139819285D01*
X79141904Y-139866904D01*
X79237142Y-139914523D01*
X79284761Y-139962142D01*
X79332380Y-140057380D01*
X79332380Y-140152619D01*
X79284761Y-140247857D01*
X79237142Y-140295476D01*
X79141904Y-140343095D01*
X78951428Y-140390714D01*
X78713333Y-140390714D01*
X78522857Y-140343095D01*
X78427619Y-140295476D01*
X78380000Y-140247857D01*
X78332380Y-140152619D01*
X78427619Y-139438333D02*
X78380000Y-139390714D01*
X78332380Y-139295476D01*
X78332380Y-139057380D01*
X78380000Y-138962142D01*
X78427619Y-138914523D01*
X78522857Y-138866904D01*
X78618095Y-138866904D01*
X78760952Y-138914523D01*
X79332380Y-139485952D01*
X79332380Y-138866904D01*
%TO.C,RN1003*%
X95562380Y-147534047D02*
X95086190Y-147867380D01*
X95562380Y-148105476D02*
X94562380Y-148105476D01*
X94562380Y-147724523D01*
X94610000Y-147629285D01*
X94657619Y-147581666D01*
X94752857Y-147534047D01*
X94895714Y-147534047D01*
X94990952Y-147581666D01*
X95038571Y-147629285D01*
X95086190Y-147724523D01*
X95086190Y-148105476D01*
X95562380Y-147105476D02*
X94562380Y-147105476D01*
X95562380Y-146534047D01*
X94562380Y-146534047D01*
X95562380Y-145534047D02*
X95562380Y-146105476D01*
X95562380Y-145819761D02*
X94562380Y-145819761D01*
X94705238Y-145915000D01*
X94800476Y-146010238D01*
X94848095Y-146105476D01*
X94562380Y-144915000D02*
X94562380Y-144819761D01*
X94610000Y-144724523D01*
X94657619Y-144676904D01*
X94752857Y-144629285D01*
X94943333Y-144581666D01*
X95181428Y-144581666D01*
X95371904Y-144629285D01*
X95467142Y-144676904D01*
X95514761Y-144724523D01*
X95562380Y-144819761D01*
X95562380Y-144915000D01*
X95514761Y-145010238D01*
X95467142Y-145057857D01*
X95371904Y-145105476D01*
X95181428Y-145153095D01*
X94943333Y-145153095D01*
X94752857Y-145105476D01*
X94657619Y-145057857D01*
X94610000Y-145010238D01*
X94562380Y-144915000D01*
X94562380Y-143962619D02*
X94562380Y-143867380D01*
X94610000Y-143772142D01*
X94657619Y-143724523D01*
X94752857Y-143676904D01*
X94943333Y-143629285D01*
X95181428Y-143629285D01*
X95371904Y-143676904D01*
X95467142Y-143724523D01*
X95514761Y-143772142D01*
X95562380Y-143867380D01*
X95562380Y-143962619D01*
X95514761Y-144057857D01*
X95467142Y-144105476D01*
X95371904Y-144153095D01*
X95181428Y-144200714D01*
X94943333Y-144200714D01*
X94752857Y-144153095D01*
X94657619Y-144105476D01*
X94610000Y-144057857D01*
X94562380Y-143962619D01*
X94562380Y-143295952D02*
X94562380Y-142676904D01*
X94943333Y-143010238D01*
X94943333Y-142867380D01*
X94990952Y-142772142D01*
X95038571Y-142724523D01*
X95133809Y-142676904D01*
X95371904Y-142676904D01*
X95467142Y-142724523D01*
X95514761Y-142772142D01*
X95562380Y-142867380D01*
X95562380Y-143153095D01*
X95514761Y-143248333D01*
X95467142Y-143295952D01*
%TO.C,RN1004*%
X95562380Y-174204047D02*
X95086190Y-174537380D01*
X95562380Y-174775476D02*
X94562380Y-174775476D01*
X94562380Y-174394523D01*
X94610000Y-174299285D01*
X94657619Y-174251666D01*
X94752857Y-174204047D01*
X94895714Y-174204047D01*
X94990952Y-174251666D01*
X95038571Y-174299285D01*
X95086190Y-174394523D01*
X95086190Y-174775476D01*
X95562380Y-173775476D02*
X94562380Y-173775476D01*
X95562380Y-173204047D01*
X94562380Y-173204047D01*
X95562380Y-172204047D02*
X95562380Y-172775476D01*
X95562380Y-172489761D02*
X94562380Y-172489761D01*
X94705238Y-172585000D01*
X94800476Y-172680238D01*
X94848095Y-172775476D01*
X94562380Y-171585000D02*
X94562380Y-171489761D01*
X94610000Y-171394523D01*
X94657619Y-171346904D01*
X94752857Y-171299285D01*
X94943333Y-171251666D01*
X95181428Y-171251666D01*
X95371904Y-171299285D01*
X95467142Y-171346904D01*
X95514761Y-171394523D01*
X95562380Y-171489761D01*
X95562380Y-171585000D01*
X95514761Y-171680238D01*
X95467142Y-171727857D01*
X95371904Y-171775476D01*
X95181428Y-171823095D01*
X94943333Y-171823095D01*
X94752857Y-171775476D01*
X94657619Y-171727857D01*
X94610000Y-171680238D01*
X94562380Y-171585000D01*
X94562380Y-170632619D02*
X94562380Y-170537380D01*
X94610000Y-170442142D01*
X94657619Y-170394523D01*
X94752857Y-170346904D01*
X94943333Y-170299285D01*
X95181428Y-170299285D01*
X95371904Y-170346904D01*
X95467142Y-170394523D01*
X95514761Y-170442142D01*
X95562380Y-170537380D01*
X95562380Y-170632619D01*
X95514761Y-170727857D01*
X95467142Y-170775476D01*
X95371904Y-170823095D01*
X95181428Y-170870714D01*
X94943333Y-170870714D01*
X94752857Y-170823095D01*
X94657619Y-170775476D01*
X94610000Y-170727857D01*
X94562380Y-170632619D01*
X94895714Y-169442142D02*
X95562380Y-169442142D01*
X94514761Y-169680238D02*
X95229047Y-169918333D01*
X95229047Y-169299285D01*
%TO.C,RV1001*%
X82912380Y-128388809D02*
X82436190Y-128722142D01*
X82912380Y-128960238D02*
X81912380Y-128960238D01*
X81912380Y-128579285D01*
X81960000Y-128484047D01*
X82007619Y-128436428D01*
X82102857Y-128388809D01*
X82245714Y-128388809D01*
X82340952Y-128436428D01*
X82388571Y-128484047D01*
X82436190Y-128579285D01*
X82436190Y-128960238D01*
X81912380Y-128103095D02*
X82912380Y-127769761D01*
X81912380Y-127436428D01*
X82912380Y-126579285D02*
X82912380Y-127150714D01*
X82912380Y-126865000D02*
X81912380Y-126865000D01*
X82055238Y-126960238D01*
X82150476Y-127055476D01*
X82198095Y-127150714D01*
X81912380Y-125960238D02*
X81912380Y-125865000D01*
X81960000Y-125769761D01*
X82007619Y-125722142D01*
X82102857Y-125674523D01*
X82293333Y-125626904D01*
X82531428Y-125626904D01*
X82721904Y-125674523D01*
X82817142Y-125722142D01*
X82864761Y-125769761D01*
X82912380Y-125865000D01*
X82912380Y-125960238D01*
X82864761Y-126055476D01*
X82817142Y-126103095D01*
X82721904Y-126150714D01*
X82531428Y-126198333D01*
X82293333Y-126198333D01*
X82102857Y-126150714D01*
X82007619Y-126103095D01*
X81960000Y-126055476D01*
X81912380Y-125960238D01*
X81912380Y-125007857D02*
X81912380Y-124912619D01*
X81960000Y-124817380D01*
X82007619Y-124769761D01*
X82102857Y-124722142D01*
X82293333Y-124674523D01*
X82531428Y-124674523D01*
X82721904Y-124722142D01*
X82817142Y-124769761D01*
X82864761Y-124817380D01*
X82912380Y-124912619D01*
X82912380Y-125007857D01*
X82864761Y-125103095D01*
X82817142Y-125150714D01*
X82721904Y-125198333D01*
X82531428Y-125245952D01*
X82293333Y-125245952D01*
X82102857Y-125198333D01*
X82007619Y-125150714D01*
X81960000Y-125103095D01*
X81912380Y-125007857D01*
X82912380Y-123722142D02*
X82912380Y-124293571D01*
X82912380Y-124007857D02*
X81912380Y-124007857D01*
X82055238Y-124103095D01*
X82150476Y-124198333D01*
X82198095Y-124293571D01*
%TO.C,U1001*%
X101897380Y-129190476D02*
X102706904Y-129190476D01*
X102802142Y-129142857D01*
X102849761Y-129095238D01*
X102897380Y-129000000D01*
X102897380Y-128809523D01*
X102849761Y-128714285D01*
X102802142Y-128666666D01*
X102706904Y-128619047D01*
X101897380Y-128619047D01*
X102897380Y-127619047D02*
X102897380Y-128190476D01*
X102897380Y-127904761D02*
X101897380Y-127904761D01*
X102040238Y-128000000D01*
X102135476Y-128095238D01*
X102183095Y-128190476D01*
X101897380Y-127000000D02*
X101897380Y-126904761D01*
X101945000Y-126809523D01*
X101992619Y-126761904D01*
X102087857Y-126714285D01*
X102278333Y-126666666D01*
X102516428Y-126666666D01*
X102706904Y-126714285D01*
X102802142Y-126761904D01*
X102849761Y-126809523D01*
X102897380Y-126904761D01*
X102897380Y-127000000D01*
X102849761Y-127095238D01*
X102802142Y-127142857D01*
X102706904Y-127190476D01*
X102516428Y-127238095D01*
X102278333Y-127238095D01*
X102087857Y-127190476D01*
X101992619Y-127142857D01*
X101945000Y-127095238D01*
X101897380Y-127000000D01*
X101897380Y-126047619D02*
X101897380Y-125952380D01*
X101945000Y-125857142D01*
X101992619Y-125809523D01*
X102087857Y-125761904D01*
X102278333Y-125714285D01*
X102516428Y-125714285D01*
X102706904Y-125761904D01*
X102802142Y-125809523D01*
X102849761Y-125857142D01*
X102897380Y-125952380D01*
X102897380Y-126047619D01*
X102849761Y-126142857D01*
X102802142Y-126190476D01*
X102706904Y-126238095D01*
X102516428Y-126285714D01*
X102278333Y-126285714D01*
X102087857Y-126238095D01*
X101992619Y-126190476D01*
X101945000Y-126142857D01*
X101897380Y-126047619D01*
X102897380Y-124761904D02*
X102897380Y-125333333D01*
X102897380Y-125047619D02*
X101897380Y-125047619D01*
X102040238Y-125142857D01*
X102135476Y-125238095D01*
X102183095Y-125333333D01*
%TD*%
M02*
