M48
; DRILL file {KiCad (5.1.10)-1} date 02/19/22 10:08:00
; FORMAT={-:-/ absolute / inch / decimal}
; #@! TF.CreationDate,2022-02-19T10:08:00+01:00
; #@! TF.GenerationSoftware,Kicad,Pcbnew,(5.1.10)-1
; #@! TF.FileFunction,Plated,1,2,PTH
FMAT,2
INCH
T1C0.0157
T2C0.0236
T3C0.0295
T4C0.0315
T5C0.0394
T6C0.0472
T7C0.0512
%
G90
G05
T1
X3.05Y-6.075
X3.8Y-6.275
X4.275Y-6.6
X4.35Y-4.95
X4.35Y-6.025
X4.375Y-6.7
X4.425Y-4.85
X4.425Y-5.4
T2
X2.9713Y-5.025
X2.9713Y-5.275
X2.9713Y-5.525
X2.9713Y-5.75
X2.9713Y-6.225
X2.9713Y-6.45
X2.9713Y-6.7
X2.9713Y-6.925
X2.9713Y-7.15
X2.975Y-5.975
X3.05Y-5.025
X3.05Y-5.275
X3.05Y-5.525
X3.05Y-5.75
X3.05Y-6.225
X3.05Y-6.45
X3.05Y-6.7
X3.05Y-6.925
X3.05Y-7.15
X3.0537Y-5.975
X3.8Y-5.0
X3.8Y-5.225
X3.8Y-5.475
X3.8Y-5.725
X3.8Y-5.95
X3.8Y-6.2
X3.8Y-6.45
X3.8Y-6.675
X3.8Y-6.9
X3.8Y-7.15
X3.8787Y-5.0
X3.8787Y-5.225
X3.8787Y-5.475
X3.8787Y-5.725
X3.8787Y-5.95
X3.8787Y-6.2
X3.8787Y-6.45
X3.8787Y-6.675
X3.8787Y-6.9
X3.8787Y-7.15
T3
X4.025Y-6.4
X4.075Y-6.4
X4.125Y-6.4
X4.275Y-6.4
X4.325Y-6.4
X4.375Y-6.4
T4
X3.2Y-5.175
X3.2Y-5.275
X3.2Y-5.375
X3.2Y-5.475
X3.2Y-5.575
X3.2Y-5.675
X3.2Y-5.775
X3.2Y-5.875
X3.2Y-5.975
X3.2Y-6.075
X3.2Y-6.225
X3.2Y-6.325
X3.2Y-6.425
X3.2Y-6.525
X3.2Y-6.625
X3.2Y-6.725
X3.2Y-6.825
X3.2Y-6.925
X3.2Y-7.025
X3.2Y-7.125
X3.65Y-5.225
X3.65Y-5.325
X3.65Y-5.425
X3.65Y-5.525
X3.65Y-5.625
X3.65Y-5.725
X3.65Y-5.825
X3.65Y-5.925
X3.65Y-6.025
X3.65Y-6.125
X3.65Y-6.275
X3.65Y-6.375
X3.65Y-6.475
X3.65Y-6.575
X3.65Y-6.675
X3.65Y-6.775
X3.65Y-6.875
X3.65Y-6.975
X3.65Y-7.075
X3.65Y-7.175
X3.825Y-4.85
X3.9234Y-4.85
X4.0516Y-5.4
X4.125Y-4.85
X4.125Y-5.15
X4.15Y-5.4
X4.2Y-5.8
X4.2Y-6.2
X4.225Y-4.85
X4.225Y-5.15
X4.325Y-4.85
X4.325Y-5.15
X4.325Y-5.275
X4.325Y-5.675
X4.35Y-5.8
X4.35Y-6.2
T5
X3.375Y-5.225
X3.375Y-5.325
X3.375Y-5.425
X3.375Y-5.525
X3.375Y-5.625
X3.375Y-5.725
X3.375Y-5.825
X3.375Y-5.925
X3.375Y-6.025
X3.375Y-6.125
X3.375Y-6.225
X3.375Y-6.325
X3.375Y-6.425
X3.375Y-6.525
X3.375Y-6.625
X3.375Y-6.725
X3.375Y-6.825
X3.375Y-6.925
X3.375Y-7.025
X3.375Y-7.125
X3.475Y-5.225
X3.475Y-5.325
X3.475Y-5.425
X3.475Y-5.525
X3.475Y-5.625
X3.475Y-5.725
X3.475Y-5.825
X3.475Y-5.925
X3.475Y-6.025
X3.475Y-6.125
X3.475Y-6.225
X3.475Y-6.325
X3.475Y-6.425
X3.475Y-6.525
X3.475Y-6.625
X3.475Y-6.725
X3.475Y-6.825
X3.475Y-6.925
X3.475Y-7.025
X3.475Y-7.125
X4.15Y-6.975
X4.15Y-7.075
X4.15Y-7.175
X4.175Y-6.6
X4.175Y-6.7
X4.175Y-6.8
T6
X4.05Y-5.65
X4.05Y-5.75
X4.05Y-5.925
X4.05Y-6.025
T7
X3.4Y-4.975
X3.4984Y-4.8766
X3.5969Y-4.975
T0
M30
