%TF.GenerationSoftware,KiCad,Pcbnew,(5.1.10)-1*%
%TF.CreationDate,2022-02-19T10:08:03+01:00*%
%TF.ProjectId,Busterm,42757374-6572-46d2-9e6b-696361645f70,rev?*%
%TF.SameCoordinates,Original*%
%TF.FileFunction,Soldermask,Bot*%
%TF.FilePolarity,Negative*%
%FSLAX46Y46*%
G04 Gerber Fmt 4.6, Leading zero omitted, Abs format (unit mm)*
G04 Created by KiCad (PCBNEW (5.1.10)-1) date 2022-02-19 10:08:03*
%MOMM*%
%LPD*%
G01*
G04 APERTURE LIST*
%ADD10O,1.700000X1.700000*%
%ADD11R,1.700000X1.700000*%
%ADD12C,1.600000*%
%ADD13C,1.200000*%
%ADD14R,1.200000X1.200000*%
%ADD15R,1.600000X1.600000*%
%ADD16O,2.240000X2.240000*%
%ADD17R,2.240000X2.240000*%
%ADD18R,1.050000X1.500000*%
%ADD19O,1.050000X1.500000*%
%ADD20O,1.800000X1.800000*%
%ADD21R,1.800000X1.800000*%
%ADD22O,1.600000X1.600000*%
%ADD23C,2.340000*%
G04 APERTURE END LIST*
D10*
%TO.C,J1001*%
X88265000Y-180975000D03*
X85725000Y-180975000D03*
X88265000Y-178435000D03*
X85725000Y-178435000D03*
X88265000Y-175895000D03*
X85725000Y-175895000D03*
X88265000Y-173355000D03*
X85725000Y-173355000D03*
X88265000Y-170815000D03*
X85725000Y-170815000D03*
X88265000Y-168275000D03*
X85725000Y-168275000D03*
X88265000Y-165735000D03*
X85725000Y-165735000D03*
X88265000Y-163195000D03*
X85725000Y-163195000D03*
X88265000Y-160655000D03*
X85725000Y-160655000D03*
X88265000Y-158115000D03*
X85725000Y-158115000D03*
X88265000Y-155575000D03*
X85725000Y-155575000D03*
X88265000Y-153035000D03*
X85725000Y-153035000D03*
X88265000Y-150495000D03*
X85725000Y-150495000D03*
X88265000Y-147955000D03*
X85725000Y-147955000D03*
X88265000Y-145415000D03*
X85725000Y-145415000D03*
X88265000Y-142875000D03*
X85725000Y-142875000D03*
X88265000Y-140335000D03*
X85725000Y-140335000D03*
X88265000Y-137795000D03*
X85725000Y-137795000D03*
X88265000Y-135255000D03*
X85725000Y-135255000D03*
X88265000Y-132715000D03*
D11*
X85725000Y-132715000D03*
%TD*%
D12*
%TO.C,C1001*%
X97155000Y-123190000D03*
X99655000Y-123190000D03*
%TD*%
D13*
%TO.C,C1002*%
X98520000Y-157480000D03*
D14*
X96520000Y-157480000D03*
%TD*%
%TO.C,C1003*%
X96520000Y-132715000D03*
D13*
X98520000Y-132715000D03*
%TD*%
%TO.C,C1004*%
X98520000Y-181610000D03*
D14*
X96520000Y-181610000D03*
%TD*%
%TO.C,C1005*%
X96520000Y-151130000D03*
D13*
X98520000Y-151130000D03*
%TD*%
%TO.C,C1006*%
X75470000Y-163830000D03*
D14*
X77470000Y-163830000D03*
%TD*%
%TO.C,C1007*%
X77565000Y-151765000D03*
D13*
X75565000Y-151765000D03*
%TD*%
%TO.C,C1008*%
X98520000Y-139065000D03*
D14*
X96520000Y-139065000D03*
%TD*%
%TO.C,C1009*%
X77470000Y-133985000D03*
D13*
X75470000Y-133985000D03*
%TD*%
%TO.C,C1010*%
X98520000Y-169545000D03*
D14*
X96520000Y-169545000D03*
%TD*%
%TO.C,C1011*%
X77470000Y-181610000D03*
D13*
X75470000Y-181610000D03*
%TD*%
%TO.C,C1012*%
X75470000Y-140335000D03*
D14*
X77470000Y-140335000D03*
%TD*%
%TO.C,C1013*%
X77470000Y-127635000D03*
D13*
X75470000Y-127635000D03*
%TD*%
%TO.C,C1014*%
X75470000Y-158115000D03*
D14*
X77470000Y-158115000D03*
%TD*%
%TO.C,C1015*%
X96520000Y-127000000D03*
D13*
X98520000Y-127000000D03*
%TD*%
%TO.C,C1016*%
X75470000Y-175895000D03*
D14*
X77470000Y-175895000D03*
%TD*%
%TO.C,C1017*%
X77470000Y-170180000D03*
D13*
X75470000Y-170180000D03*
%TD*%
%TO.C,C1018*%
X75470000Y-146050000D03*
D14*
X77470000Y-146050000D03*
%TD*%
%TO.C,C1019*%
X96520000Y-145415000D03*
D13*
X98520000Y-145415000D03*
%TD*%
%TO.C,C1020*%
X98520000Y-163830000D03*
D14*
X96520000Y-163830000D03*
%TD*%
%TO.C,C1021*%
X96520000Y-175260000D03*
D13*
X98520000Y-175260000D03*
%TD*%
D15*
%TO.C,C1022*%
X105410000Y-137160000D03*
D12*
X102910000Y-137160000D03*
%TD*%
D16*
%TO.C,D1001*%
X102870000Y-153035000D03*
D17*
X102870000Y-150495000D03*
%TD*%
%TO.C,D1002*%
X102870000Y-143510000D03*
D16*
X102870000Y-146050000D03*
%TD*%
D18*
%TO.C,Q1001*%
X111125000Y-162560000D03*
D19*
X108585000Y-162560000D03*
X109855000Y-162560000D03*
%TD*%
%TO.C,Q1002*%
X103505000Y-162560000D03*
X102235000Y-162560000D03*
D18*
X104775000Y-162560000D03*
%TD*%
D20*
%TO.C,Q1003*%
X105410000Y-182245000D03*
X105410000Y-179705000D03*
D21*
X105410000Y-177165000D03*
%TD*%
%TO.C,Q1004*%
X106045000Y-172720000D03*
D20*
X106045000Y-170180000D03*
X106045000Y-167640000D03*
%TD*%
D12*
%TO.C,R1001*%
X106680000Y-157480000D03*
D22*
X106680000Y-147320000D03*
%TD*%
D12*
%TO.C,R1002*%
X110490000Y-157480000D03*
D22*
X110490000Y-147320000D03*
%TD*%
%TO.C,R1003*%
X109855000Y-133985000D03*
D12*
X109855000Y-144145000D03*
%TD*%
D22*
%TO.C,RN1001*%
X81280000Y-158115000D03*
X81280000Y-160655000D03*
X81280000Y-163195000D03*
X81280000Y-165735000D03*
X81280000Y-168275000D03*
X81280000Y-170815000D03*
X81280000Y-173355000D03*
X81280000Y-175895000D03*
X81280000Y-178435000D03*
D15*
X81280000Y-180975000D03*
%TD*%
%TO.C,RN1002*%
X81280000Y-154305000D03*
D22*
X81280000Y-151765000D03*
X81280000Y-149225000D03*
X81280000Y-146685000D03*
X81280000Y-144145000D03*
X81280000Y-141605000D03*
X81280000Y-139065000D03*
X81280000Y-136525000D03*
X81280000Y-133985000D03*
X81280000Y-131445000D03*
%TD*%
D15*
%TO.C,RN1003*%
X92710000Y-132715000D03*
D22*
X92710000Y-135255000D03*
X92710000Y-137795000D03*
X92710000Y-140335000D03*
X92710000Y-142875000D03*
X92710000Y-145415000D03*
X92710000Y-147955000D03*
X92710000Y-150495000D03*
X92710000Y-153035000D03*
X92710000Y-155575000D03*
%TD*%
%TO.C,RN1004*%
X92710000Y-182245000D03*
X92710000Y-179705000D03*
X92710000Y-177165000D03*
X92710000Y-174625000D03*
X92710000Y-172085000D03*
X92710000Y-169545000D03*
X92710000Y-167005000D03*
X92710000Y-164465000D03*
X92710000Y-161925000D03*
D15*
X92710000Y-159385000D03*
%TD*%
D23*
%TO.C,RV1001*%
X91360000Y-126365000D03*
X88860000Y-123865000D03*
X86360000Y-126365000D03*
%TD*%
D15*
%TO.C,U1001*%
X104775000Y-130810000D03*
D22*
X109855000Y-123190000D03*
X107315000Y-130810000D03*
X107315000Y-123190000D03*
X109855000Y-130810000D03*
X104775000Y-123190000D03*
%TD*%
M02*
