%TF.GenerationSoftware,KiCad,Pcbnew,(5.1.10)-1*%
%TF.CreationDate,2022-02-19T10:09:17+01:00*%
%TF.ProjectId,Peri,50657269-2e6b-4696-9361-645f70636258,rev?*%
%TF.SameCoordinates,Original*%
%TF.FileFunction,Soldermask,Top*%
%TF.FilePolarity,Negative*%
%FSLAX46Y46*%
G04 Gerber Fmt 4.6, Leading zero omitted, Abs format (unit mm)*
G04 Created by KiCad (PCBNEW (5.1.10)-1) date 2022-02-19 10:09:17*
%MOMM*%
%LPD*%
G01*
G04 APERTURE LIST*
%ADD10R,2.400000X1.600000*%
%ADD11O,2.400000X1.600000*%
%ADD12C,1.600000*%
%ADD13R,1.700000X1.700000*%
%ADD14O,1.700000X1.700000*%
%ADD15O,1.600000X2.400000*%
%ADD16R,1.600000X2.400000*%
G04 APERTURE END LIST*
D10*
%TO.C,U1003*%
X93980000Y-80010000D03*
D11*
X109220000Y-107950000D03*
X93980000Y-82550000D03*
X109220000Y-105410000D03*
X93980000Y-85090000D03*
X109220000Y-102870000D03*
X93980000Y-87630000D03*
X109220000Y-100330000D03*
X93980000Y-90170000D03*
X109220000Y-97790000D03*
X93980000Y-92710000D03*
X109220000Y-95250000D03*
X93980000Y-95250000D03*
X109220000Y-92710000D03*
X93980000Y-97790000D03*
X109220000Y-90170000D03*
X93980000Y-100330000D03*
X109220000Y-87630000D03*
X93980000Y-102870000D03*
X109220000Y-85090000D03*
X93980000Y-105410000D03*
X109220000Y-82550000D03*
X93980000Y-107950000D03*
X109220000Y-80010000D03*
%TD*%
D12*
%TO.C,C1001*%
X119380000Y-119380000D03*
X121880000Y-119380000D03*
%TD*%
%TO.C,C1002*%
X115570000Y-119380000D03*
X113070000Y-119380000D03*
%TD*%
D13*
%TO.C,J1001*%
X86360000Y-80010000D03*
D14*
X83820000Y-80010000D03*
X86360000Y-82550000D03*
X83820000Y-82550000D03*
X86360000Y-85090000D03*
X83820000Y-85090000D03*
X86360000Y-87630000D03*
X83820000Y-87630000D03*
X86360000Y-90170000D03*
X83820000Y-90170000D03*
X86360000Y-92710000D03*
X83820000Y-92710000D03*
X86360000Y-95250000D03*
X83820000Y-95250000D03*
X86360000Y-97790000D03*
X83820000Y-97790000D03*
X86360000Y-100330000D03*
X83820000Y-100330000D03*
X86360000Y-102870000D03*
X83820000Y-102870000D03*
X86360000Y-105410000D03*
X83820000Y-105410000D03*
X86360000Y-107950000D03*
X83820000Y-107950000D03*
X86360000Y-110490000D03*
X83820000Y-110490000D03*
X86360000Y-113030000D03*
X83820000Y-113030000D03*
X86360000Y-115570000D03*
X83820000Y-115570000D03*
X86360000Y-118110000D03*
X83820000Y-118110000D03*
X86360000Y-120650000D03*
X83820000Y-120650000D03*
%TD*%
D15*
%TO.C,U1001*%
X92710000Y-113030000D03*
X107950000Y-120650000D03*
X95250000Y-113030000D03*
X105410000Y-120650000D03*
X97790000Y-113030000D03*
X102870000Y-120650000D03*
X100330000Y-113030000D03*
X100330000Y-120650000D03*
X102870000Y-113030000D03*
X97790000Y-120650000D03*
X105410000Y-113030000D03*
X95250000Y-120650000D03*
X107950000Y-113030000D03*
D16*
X92710000Y-120650000D03*
%TD*%
D10*
%TO.C,U1002*%
X114300000Y-80010000D03*
D11*
X121920000Y-95250000D03*
X114300000Y-82550000D03*
X121920000Y-92710000D03*
X114300000Y-85090000D03*
X121920000Y-90170000D03*
X114300000Y-87630000D03*
X121920000Y-87630000D03*
X114300000Y-90170000D03*
X121920000Y-85090000D03*
X114300000Y-92710000D03*
X121920000Y-82550000D03*
X114300000Y-95250000D03*
X121920000Y-80010000D03*
%TD*%
D10*
%TO.C,U1004*%
X114300000Y-100330000D03*
D11*
X121920000Y-115570000D03*
X114300000Y-102870000D03*
X121920000Y-113030000D03*
X114300000Y-105410000D03*
X121920000Y-110490000D03*
X114300000Y-107950000D03*
X121920000Y-107950000D03*
X114300000Y-110490000D03*
X121920000Y-105410000D03*
X114300000Y-113030000D03*
X121920000Y-102870000D03*
X114300000Y-115570000D03*
X121920000Y-100330000D03*
%TD*%
M02*
