M48
; DRILL file {KiCad (5.1.10)-1} date 02/19/22 10:09:14
; FORMAT={-:-/ absolute / inch / decimal}
; #@! TF.CreationDate,2022-02-19T10:09:14+01:00
; #@! TF.GenerationSoftware,Kicad,Pcbnew,(5.1.10)-1
; #@! TF.FileFunction,Plated,1,2,PTH
FMAT,2
INCH
T1C0.0157
T2C0.0315
T3C0.0394
%
G90
G05
T1
X3.15Y-2.95
X3.15Y-3.65
X3.15Y-4.05
X3.15Y-4.85
X3.2Y-3.0
X3.2Y-3.15
X3.2Y-3.55
X3.2Y-3.85
X3.25Y-3.05
X3.25Y-3.35
X3.5Y-3.35
X3.5Y-3.55
X3.5Y-3.65
X3.5Y-3.75
X3.5Y-3.85
X3.5Y-3.95
X3.5Y-4.35
X3.55Y-3.0
X3.55Y-3.45
X3.55Y-3.95
X3.55Y-4.15
X3.55Y-4.25
X3.55Y-4.45
X3.55Y-4.55
X3.6Y-3.2
X3.6Y-3.35
X3.6Y-3.45
X3.6Y-4.0
X3.65Y-4.6
X3.7Y-4.65
X3.8Y-4.0
X3.85Y-3.05
X3.85Y-3.75
X3.85Y-4.15
X3.9Y-3.25
X3.9Y-4.35
X3.95Y-3.05
X3.95Y-3.65
X3.95Y-4.15
X3.95Y-4.55
X4.0Y-3.15
X4.0Y-3.25
X4.0Y-3.35
X4.0Y-3.55
X4.0Y-3.85
X4.0Y-3.9
X4.0Y-4.05
X4.1Y-3.75
X4.1Y-3.95
X4.15Y-3.0
X4.15Y-3.05
X4.15Y-3.75
X4.2Y-2.95
X4.2Y-3.45
X4.25Y-4.65
X4.3Y-3.0
X4.35Y-4.6
X4.35Y-4.7
X4.35Y-4.75
X4.35Y-4.85
X4.4Y-3.15
X4.4Y-3.35
X4.4Y-3.4
X4.4Y-3.6
X4.4Y-4.15
X4.4Y-4.2
X4.4Y-4.3
X4.4Y-4.4
X4.4Y-4.45
X4.5Y-3.85
X4.6Y-3.0
X4.6Y-3.2
X4.6Y-3.75
X4.6Y-3.85
X4.6Y-4.45
X4.6Y-4.55
X4.6Y-4.65
X4.65Y-3.1
X4.65Y-3.35
X4.65Y-3.45
X4.65Y-3.55
X4.65Y-3.65
X4.65Y-4.1
X4.65Y-4.25
X4.65Y-4.35
X4.65Y-4.4
X4.65Y-4.5
X4.65Y-4.55
X4.7Y-3.05
X4.7Y-3.15
X4.7Y-3.95
X4.8Y-3.0
X4.8Y-4.65
X4.9Y-4.3
X4.9Y-4.75
T2
X3.65Y-4.45
X3.65Y-4.75
X3.7Y-3.15
X3.7Y-3.25
X3.7Y-3.35
X3.7Y-3.45
X3.7Y-3.55
X3.7Y-3.65
X3.7Y-3.75
X3.7Y-3.85
X3.7Y-3.95
X3.7Y-4.05
X3.7Y-4.15
X3.7Y-4.25
X3.75Y-4.45
X3.75Y-4.75
X3.85Y-4.45
X3.85Y-4.75
X3.95Y-4.45
X3.95Y-4.75
X4.05Y-4.45
X4.05Y-4.75
X4.15Y-4.45
X4.15Y-4.75
X4.25Y-4.45
X4.25Y-4.75
X4.3Y-3.15
X4.3Y-3.25
X4.3Y-3.35
X4.3Y-3.45
X4.3Y-3.55
X4.3Y-3.65
X4.3Y-3.75
X4.3Y-3.85
X4.3Y-3.95
X4.3Y-4.05
X4.3Y-4.15
X4.3Y-4.25
X4.4516Y-4.7
X4.5Y-3.15
X4.5Y-3.25
X4.5Y-3.35
X4.5Y-3.45
X4.5Y-3.55
X4.5Y-3.65
X4.5Y-3.75
X4.5Y-3.95
X4.5Y-4.05
X4.5Y-4.15
X4.5Y-4.25
X4.5Y-4.35
X4.5Y-4.45
X4.5Y-4.55
X4.55Y-4.7
X4.7Y-4.7
X4.7984Y-4.7
X4.8Y-3.15
X4.8Y-3.25
X4.8Y-3.35
X4.8Y-3.45
X4.8Y-3.55
X4.8Y-3.65
X4.8Y-3.75
X4.8Y-3.95
X4.8Y-4.05
X4.8Y-4.15
X4.8Y-4.25
X4.8Y-4.35
X4.8Y-4.45
X4.8Y-4.55
T3
X3.3Y-3.15
X3.3Y-3.25
X3.3Y-3.35
X3.3Y-3.45
X3.3Y-3.55
X3.3Y-3.65
X3.3Y-3.75
X3.3Y-3.85
X3.3Y-3.95
X3.3Y-4.05
X3.3Y-4.15
X3.3Y-4.25
X3.3Y-4.35
X3.3Y-4.45
X3.3Y-4.55
X3.3Y-4.65
X3.3Y-4.75
X3.4Y-3.15
X3.4Y-3.25
X3.4Y-3.35
X3.4Y-3.45
X3.4Y-3.55
X3.4Y-3.65
X3.4Y-3.75
X3.4Y-3.85
X3.4Y-3.95
X3.4Y-4.05
X3.4Y-4.15
X3.4Y-4.25
X3.4Y-4.35
X3.4Y-4.45
X3.4Y-4.55
X3.4Y-4.65
X3.4Y-4.75
T0
M30
