%TF.GenerationSoftware,KiCad,Pcbnew,(5.1.10)-1*%
%TF.CreationDate,2022-02-19T10:09:17+01:00*%
%TF.ProjectId,Peri,50657269-2e6b-4696-9361-645f70636258,rev?*%
%TF.SameCoordinates,Original*%
%TF.FileFunction,Copper,L1,Top*%
%TF.FilePolarity,Positive*%
%FSLAX46Y46*%
G04 Gerber Fmt 4.6, Leading zero omitted, Abs format (unit mm)*
G04 Created by KiCad (PCBNEW (5.1.10)-1) date 2022-02-19 10:09:17*
%MOMM*%
%LPD*%
G01*
G04 APERTURE LIST*
%TA.AperFunction,ComponentPad*%
%ADD10R,2.400000X1.600000*%
%TD*%
%TA.AperFunction,ComponentPad*%
%ADD11O,2.400000X1.600000*%
%TD*%
%TA.AperFunction,ComponentPad*%
%ADD12C,1.600000*%
%TD*%
%TA.AperFunction,ComponentPad*%
%ADD13R,1.700000X1.700000*%
%TD*%
%TA.AperFunction,ComponentPad*%
%ADD14O,1.700000X1.700000*%
%TD*%
%TA.AperFunction,ComponentPad*%
%ADD15O,1.600000X2.400000*%
%TD*%
%TA.AperFunction,ComponentPad*%
%ADD16R,1.600000X2.400000*%
%TD*%
%TA.AperFunction,ViaPad*%
%ADD17C,0.800000*%
%TD*%
%TA.AperFunction,Conductor*%
%ADD18C,0.250000*%
%TD*%
G04 APERTURE END LIST*
D10*
%TO.P,U1003,1*%
%TO.N,Net-(U1002-Pad8)*%
X93980000Y-80010000D03*
D11*
%TO.P,U1003,13*%
%TO.N,Net-(C1002-Pad1)*%
X109220000Y-107950000D03*
%TO.P,U1003,2*%
%TO.N,+5P*%
X93980000Y-82550000D03*
%TO.P,U1003,14*%
%TO.N,Net-(J1001-Pad21)*%
X109220000Y-105410000D03*
%TO.P,U1003,3*%
%TO.N,Net-(J1001-Pad2)*%
X93980000Y-85090000D03*
%TO.P,U1003,15*%
%TO.N,Net-(U1003-Pad15)*%
X109220000Y-102870000D03*
%TO.P,U1003,4*%
%TO.N,Net-(J1001-Pad18)*%
X93980000Y-87630000D03*
%TO.P,U1003,16*%
%TO.N,Net-(J1001-Pad10)*%
X109220000Y-100330000D03*
%TO.P,U1003,5*%
%TO.N,Net-(J1001-Pad4)*%
X93980000Y-90170000D03*
%TO.P,U1003,17*%
%TO.N,Net-(U1003-Pad17)*%
X109220000Y-97790000D03*
%TO.P,U1003,6*%
%TO.N,Net-(U1003-Pad6)*%
X93980000Y-92710000D03*
%TO.P,U1003,18*%
%TO.N,Net-(J1001-Pad12)*%
X109220000Y-95250000D03*
%TO.P,U1003,7*%
%TO.N,Net-(J1001-Pad6)*%
X93980000Y-95250000D03*
%TO.P,U1003,19*%
%TO.N,Net-(U1003-Pad19)*%
X109220000Y-92710000D03*
%TO.P,U1003,8*%
%TO.N,Net-(U1003-Pad8)*%
X93980000Y-97790000D03*
%TO.P,U1003,20*%
%TO.N,Net-(J1001-Pad14)*%
X109220000Y-90170000D03*
%TO.P,U1003,9*%
%TO.N,Net-(J1001-Pad8)*%
X93980000Y-100330000D03*
%TO.P,U1003,21*%
%TO.N,Net-(U1001-Pad5)*%
X109220000Y-87630000D03*
%TO.P,U1003,10*%
%TO.N,Net-(U1003-Pad10)*%
X93980000Y-102870000D03*
%TO.P,U1003,22*%
%TO.N,Net-(J1001-Pad16)*%
X109220000Y-85090000D03*
%TO.P,U1003,11*%
%TO.N,+5P*%
X93980000Y-105410000D03*
%TO.P,U1003,23*%
%TO.N,N/C*%
X109220000Y-82550000D03*
%TO.P,U1003,12*%
%TO.N,GND*%
X93980000Y-107950000D03*
%TO.P,U1003,24*%
%TO.N,+5P*%
X109220000Y-80010000D03*
%TD*%
D12*
%TO.P,C1001,1*%
%TO.N,+5P*%
X119380000Y-119380000D03*
%TO.P,C1001,2*%
%TO.N,GND*%
X121880000Y-119380000D03*
%TD*%
%TO.P,C1002,2*%
%TO.N,+5P*%
X115570000Y-119380000D03*
%TO.P,C1002,1*%
%TO.N,Net-(C1002-Pad1)*%
X113070000Y-119380000D03*
%TD*%
D13*
%TO.P,J1001,1*%
%TO.N,Net-(J1001-Pad1)*%
X86360000Y-80010000D03*
D14*
%TO.P,J1001,2*%
%TO.N,Net-(J1001-Pad2)*%
X83820000Y-80010000D03*
%TO.P,J1001,3*%
%TO.N,Net-(J1001-Pad3)*%
X86360000Y-82550000D03*
%TO.P,J1001,4*%
%TO.N,Net-(J1001-Pad4)*%
X83820000Y-82550000D03*
%TO.P,J1001,5*%
%TO.N,Net-(J1001-Pad5)*%
X86360000Y-85090000D03*
%TO.P,J1001,6*%
%TO.N,Net-(J1001-Pad6)*%
X83820000Y-85090000D03*
%TO.P,J1001,7*%
%TO.N,Net-(J1001-Pad7)*%
X86360000Y-87630000D03*
%TO.P,J1001,8*%
%TO.N,Net-(J1001-Pad8)*%
X83820000Y-87630000D03*
%TO.P,J1001,9*%
%TO.N,Net-(J1001-Pad9)*%
X86360000Y-90170000D03*
%TO.P,J1001,10*%
%TO.N,Net-(J1001-Pad10)*%
X83820000Y-90170000D03*
%TO.P,J1001,11*%
%TO.N,Net-(J1001-Pad11)*%
X86360000Y-92710000D03*
%TO.P,J1001,12*%
%TO.N,Net-(J1001-Pad12)*%
X83820000Y-92710000D03*
%TO.P,J1001,13*%
%TO.N,Net-(J1001-Pad13)*%
X86360000Y-95250000D03*
%TO.P,J1001,14*%
%TO.N,Net-(J1001-Pad14)*%
X83820000Y-95250000D03*
%TO.P,J1001,15*%
%TO.N,Net-(J1001-Pad15)*%
X86360000Y-97790000D03*
%TO.P,J1001,16*%
%TO.N,Net-(J1001-Pad16)*%
X83820000Y-97790000D03*
%TO.P,J1001,17*%
%TO.N,Net-(J1001-Pad17)*%
X86360000Y-100330000D03*
%TO.P,J1001,18*%
%TO.N,Net-(J1001-Pad18)*%
X83820000Y-100330000D03*
%TO.P,J1001,19*%
%TO.N,Net-(J1001-Pad19)*%
X86360000Y-102870000D03*
%TO.P,J1001,20*%
%TO.N,Net-(J1001-Pad20)*%
X83820000Y-102870000D03*
%TO.P,J1001,21*%
%TO.N,Net-(J1001-Pad21)*%
X86360000Y-105410000D03*
%TO.P,J1001,22*%
%TO.N,Net-(J1001-Pad22)*%
X83820000Y-105410000D03*
%TO.P,J1001,23*%
%TO.N,+5P*%
X86360000Y-107950000D03*
%TO.P,J1001,24*%
%TO.N,Net-(J1001-Pad24)*%
X83820000Y-107950000D03*
%TO.P,J1001,25*%
%TO.N,N/C*%
X86360000Y-110490000D03*
%TO.P,J1001,26*%
%TO.N,Net-(J1001-Pad26)*%
X83820000Y-110490000D03*
%TO.P,J1001,27*%
%TO.N,+5P*%
X86360000Y-113030000D03*
%TO.P,J1001,28*%
%TO.N,Net-(J1001-Pad28)*%
X83820000Y-113030000D03*
%TO.P,J1001,29*%
%TO.N,+5P*%
X86360000Y-115570000D03*
%TO.P,J1001,30*%
%TO.N,Net-(J1001-Pad30)*%
X83820000Y-115570000D03*
%TO.P,J1001,31*%
%TO.N,GND*%
X86360000Y-118110000D03*
%TO.P,J1001,32*%
%TO.N,Net-(J1001-Pad32)*%
X83820000Y-118110000D03*
%TO.P,J1001,33*%
%TO.N,GND*%
X86360000Y-120650000D03*
%TO.P,J1001,34*%
X83820000Y-120650000D03*
%TD*%
D15*
%TO.P,U1001,14*%
%TO.N,+5P*%
X92710000Y-113030000D03*
%TO.P,U1001,7*%
%TO.N,GND*%
X107950000Y-120650000D03*
%TO.P,U1001,13*%
%TO.N,N/C*%
X95250000Y-113030000D03*
%TO.P,U1001,6*%
%TO.N,Net-(U1001-Pad5)*%
X105410000Y-120650000D03*
%TO.P,U1001,12*%
%TO.N,N/C*%
X97790000Y-113030000D03*
%TO.P,U1001,5*%
%TO.N,Net-(U1001-Pad5)*%
X102870000Y-120650000D03*
%TO.P,U1001,11*%
%TO.N,N/C*%
X100330000Y-113030000D03*
%TO.P,U1001,4*%
%TO.N,Net-(J1001-Pad32)*%
X100330000Y-120650000D03*
%TO.P,U1001,10*%
%TO.N,N/C*%
X102870000Y-113030000D03*
%TO.P,U1001,3*%
%TO.N,Net-(J1001-Pad17)*%
X97790000Y-120650000D03*
%TO.P,U1001,9*%
%TO.N,N/C*%
X105410000Y-113030000D03*
%TO.P,U1001,2*%
%TO.N,Net-(J1001-Pad19)*%
X95250000Y-120650000D03*
%TO.P,U1001,8*%
%TO.N,N/C*%
X107950000Y-113030000D03*
D16*
%TO.P,U1001,1*%
%TO.N,Net-(C1002-Pad1)*%
X92710000Y-120650000D03*
%TD*%
D10*
%TO.P,U1002,1*%
%TO.N,Net-(J1001-Pad5)*%
X114300000Y-80010000D03*
D11*
%TO.P,U1002,8*%
%TO.N,Net-(U1002-Pad8)*%
X121920000Y-95250000D03*
%TO.P,U1002,2*%
%TO.N,Net-(J1001-Pad3)*%
X114300000Y-82550000D03*
%TO.P,U1002,9*%
%TO.N,N/C*%
X121920000Y-92710000D03*
%TO.P,U1002,3*%
%TO.N,Net-(J1001-Pad9)*%
X114300000Y-85090000D03*
%TO.P,U1002,10*%
%TO.N,N/C*%
X121920000Y-90170000D03*
%TO.P,U1002,4*%
%TO.N,Net-(J1001-Pad11)*%
X114300000Y-87630000D03*
%TO.P,U1002,11*%
%TO.N,Net-(J1001-Pad7)*%
X121920000Y-87630000D03*
%TO.P,U1002,5*%
%TO.N,Net-(J1001-Pad15)*%
X114300000Y-90170000D03*
%TO.P,U1002,12*%
%TO.N,Net-(J1001-Pad1)*%
X121920000Y-85090000D03*
%TO.P,U1002,6*%
%TO.N,Net-(J1001-Pad13)*%
X114300000Y-92710000D03*
%TO.P,U1002,13*%
%TO.N,N/C*%
X121920000Y-82550000D03*
%TO.P,U1002,7*%
%TO.N,GND*%
X114300000Y-95250000D03*
%TO.P,U1002,14*%
%TO.N,+5P*%
X121920000Y-80010000D03*
%TD*%
D10*
%TO.P,U1004,1*%
%TO.N,Net-(U1003-Pad10)*%
X114300000Y-100330000D03*
D11*
%TO.P,U1004,8*%
%TO.N,Net-(J1001-Pad26)*%
X121920000Y-115570000D03*
%TO.P,U1004,2*%
%TO.N,Net-(J1001-Pad24)*%
X114300000Y-102870000D03*
%TO.P,U1004,9*%
%TO.N,Net-(U1003-Pad15)*%
X121920000Y-113030000D03*
%TO.P,U1004,3*%
%TO.N,Net-(U1003-Pad6)*%
X114300000Y-105410000D03*
%TO.P,U1004,10*%
%TO.N,Net-(J1001-Pad30)*%
X121920000Y-110490000D03*
%TO.P,U1004,4*%
%TO.N,Net-(J1001-Pad20)*%
X114300000Y-107950000D03*
%TO.P,U1004,11*%
%TO.N,Net-(U1003-Pad19)*%
X121920000Y-107950000D03*
%TO.P,U1004,5*%
%TO.N,Net-(U1003-Pad8)*%
X114300000Y-110490000D03*
%TO.P,U1004,12*%
%TO.N,Net-(J1001-Pad28)*%
X121920000Y-105410000D03*
%TO.P,U1004,6*%
%TO.N,Net-(J1001-Pad22)*%
X114300000Y-113030000D03*
%TO.P,U1004,13*%
%TO.N,Net-(U1003-Pad17)*%
X121920000Y-102870000D03*
%TO.P,U1004,7*%
%TO.N,GND*%
X114300000Y-115570000D03*
%TO.P,U1004,14*%
%TO.N,+5P*%
X121920000Y-100330000D03*
%TD*%
D17*
%TO.N,+5P*%
X90170000Y-105410000D03*
X90170000Y-107950000D03*
X119380000Y-100330000D03*
X119380000Y-80010000D03*
X90170000Y-115570000D03*
X90170000Y-113030000D03*
X101600000Y-82550000D03*
X101600000Y-80010000D03*
X121920000Y-76200000D03*
X109220000Y-76200000D03*
X97790000Y-105410000D03*
X99060000Y-82550000D03*
%TO.N,GND*%
X116840000Y-115570000D03*
X116840000Y-97790000D03*
X116840000Y-118110000D03*
X93980000Y-118110000D03*
X107950000Y-118110000D03*
X121920000Y-118110000D03*
%TO.N,Net-(C1002-Pad1)*%
X110490000Y-119380000D03*
X92710000Y-116840000D03*
X110490000Y-116840000D03*
%TO.N,Net-(J1001-Pad1)*%
X118110000Y-78740000D03*
X118110000Y-85090000D03*
%TO.N,Net-(J1001-Pad2)*%
X91440000Y-81280000D03*
X91440000Y-85090000D03*
%TO.N,Net-(J1001-Pad4)*%
X88900000Y-85090000D03*
X88900000Y-90170000D03*
%TO.N,Net-(J1001-Pad5)*%
X111760000Y-86360000D03*
X111760000Y-80010000D03*
%TO.N,Net-(J1001-Pad6)*%
X82550000Y-85090000D03*
X97790000Y-95250000D03*
X97790000Y-77470000D03*
X82550000Y-77470000D03*
%TO.N,Net-(J1001-Pad8)*%
X90170000Y-87630000D03*
X90170000Y-100330000D03*
%TO.N,Net-(J1001-Pad9)*%
X111760000Y-91440000D03*
X111760000Y-85090000D03*
%TO.N,Net-(J1001-Pad10)*%
X81280000Y-90170000D03*
X81280000Y-76200000D03*
X105410000Y-76200000D03*
X104140000Y-100330000D03*
%TO.N,Net-(J1001-Pad11)*%
X88900000Y-92710000D03*
X118110000Y-87630000D03*
X90170000Y-76200000D03*
X116840000Y-76200000D03*
%TO.N,Net-(J1001-Pad12)*%
X80010000Y-92710000D03*
X105410000Y-95250000D03*
X80010000Y-74930000D03*
X106680000Y-74930000D03*
%TO.N,Net-(J1001-Pad14)*%
X88900000Y-95250000D03*
X101600000Y-90170000D03*
X88900000Y-97790000D03*
X101600000Y-97790000D03*
%TO.N,Net-(J1001-Pad15)*%
X104140000Y-95250000D03*
X118110000Y-90170000D03*
X105410000Y-77470000D03*
X119380000Y-77470000D03*
%TO.N,Net-(J1001-Pad16)*%
X101600000Y-85090000D03*
X100330000Y-77470000D03*
X81280000Y-97790000D03*
X81280000Y-80010000D03*
%TO.N,Net-(J1001-Pad17)*%
X99060000Y-110490000D03*
X88900000Y-110490000D03*
X88900000Y-100330000D03*
%TO.N,Net-(J1001-Pad18)*%
X91440000Y-87630000D03*
X91440000Y-101600000D03*
%TO.N,Net-(J1001-Pad19)*%
X96520000Y-101600000D03*
%TO.N,Net-(J1001-Pad20)*%
X80010000Y-102870000D03*
X80010000Y-123190000D03*
X124460000Y-109220000D03*
X124460000Y-120650000D03*
X110490000Y-120650000D03*
X110490000Y-123190000D03*
%TO.N,Net-(J1001-Pad22)*%
X111760000Y-113030000D03*
X111760000Y-109220000D03*
%TO.N,Net-(J1001-Pad26)*%
X118110000Y-115570000D03*
X118110000Y-111760000D03*
%TO.N,Net-(J1001-Pad28)*%
X111760000Y-111760000D03*
X111760000Y-106680000D03*
%TO.N,Net-(J1001-Pad30)*%
X118110000Y-110490000D03*
X118110000Y-114300000D03*
%TO.N,Net-(J1001-Pad32)*%
X100330000Y-115570000D03*
%TO.N,Net-(U1001-Pad5)*%
X106680000Y-87630000D03*
%TO.N,Net-(U1002-Pad8)*%
X116840000Y-81280000D03*
X116840000Y-95250000D03*
%TO.N,Net-(U1003-Pad15)*%
X118110000Y-104140000D03*
X116840000Y-113030000D03*
%TO.N,Net-(U1003-Pad6)*%
X111760000Y-105410000D03*
X100330000Y-105410000D03*
X100330000Y-92710000D03*
%TO.N,Net-(U1003-Pad19)*%
X118110000Y-107950000D03*
X118110000Y-92710000D03*
%TO.N,Net-(U1003-Pad8)*%
X114300000Y-97790000D03*
%TO.N,Net-(U1003-Pad10)*%
X101600000Y-102870000D03*
X101600000Y-99060000D03*
%TD*%
D18*
%TO.N,+5P*%
X119380000Y-100330000D02*
X119380000Y-80010000D01*
X119380000Y-100330000D02*
X119380000Y-119380000D01*
X90170000Y-105410000D02*
X90170000Y-107950000D01*
X90170000Y-113030000D02*
X90170000Y-107950000D01*
X90170000Y-115570000D02*
X90170000Y-113030000D01*
X101600000Y-82550000D02*
X101600000Y-80010000D01*
X109220000Y-80010000D02*
X109220000Y-76200000D01*
X121920000Y-80010000D02*
X121920000Y-76200000D01*
X121920000Y-76200000D02*
X121920000Y-76200000D01*
X109220000Y-76200000D02*
X109220000Y-76200000D01*
X97790000Y-105410000D02*
X99060000Y-104140000D01*
X99060000Y-104140000D02*
X99060000Y-82550000D01*
X99060000Y-82550000D02*
X99060000Y-82550000D01*
%TO.N,GND*%
X116840000Y-115570000D02*
X116840000Y-118110000D01*
X116840000Y-118110000D02*
X116840000Y-118110000D01*
X86360000Y-120650000D02*
X86360000Y-118110000D01*
X93980000Y-107950000D02*
X93980000Y-118110000D01*
X93980000Y-118110000D02*
X93980000Y-118110000D01*
X107950000Y-120650000D02*
X107950000Y-118110000D01*
X107950000Y-118110000D02*
X107950000Y-118110000D01*
X116840000Y-115570000D02*
X115825010Y-114555010D01*
X115825010Y-110234990D02*
X116840000Y-109220000D01*
X115825010Y-114555010D02*
X115825010Y-110234990D01*
X116840000Y-97790000D02*
X116840000Y-109220000D01*
X121920000Y-119340000D02*
X121880000Y-119380000D01*
X121920000Y-118110000D02*
X121920000Y-119340000D01*
%TO.N,Net-(C1002-Pad1)*%
X110490000Y-109220000D02*
X109220000Y-107950000D01*
X110490000Y-119380000D02*
X110490000Y-109220000D01*
X92710000Y-120650000D02*
X92710000Y-116840000D01*
X92710000Y-116840000D02*
X92710000Y-116840000D01*
%TO.N,Net-(J1001-Pad1)*%
X118110000Y-78740000D02*
X118110000Y-85090000D01*
%TO.N,Net-(J1001-Pad2)*%
X91440000Y-81280000D02*
X91440000Y-85090000D01*
X91440000Y-85090000D02*
X91440000Y-85090000D01*
%TO.N,Net-(J1001-Pad4)*%
X88900000Y-85090000D02*
X88900000Y-90170000D01*
%TO.N,Net-(J1001-Pad5)*%
X111034999Y-85634999D02*
X111760000Y-86360000D01*
X111034999Y-80735001D02*
X111034999Y-85634999D01*
X111760000Y-80010000D02*
X111034999Y-80735001D01*
%TO.N,Net-(J1001-Pad6)*%
X82550000Y-85090000D02*
X82550000Y-77470000D01*
X97790000Y-95250000D02*
X97790000Y-77470000D01*
X97790000Y-77470000D02*
X97790000Y-77470000D01*
X82550000Y-77470000D02*
X82550000Y-77470000D01*
%TO.N,Net-(J1001-Pad8)*%
X90170000Y-87630000D02*
X90170000Y-100330000D01*
%TO.N,Net-(J1001-Pad9)*%
X112485001Y-90714999D02*
X111760000Y-91440000D01*
X112485001Y-85815001D02*
X112485001Y-90714999D01*
X111760000Y-85090000D02*
X112485001Y-85815001D01*
%TO.N,Net-(J1001-Pad10)*%
X81280000Y-76200000D02*
X81280000Y-76200000D01*
X102870000Y-78740000D02*
X105410000Y-76200000D01*
X102870000Y-99060000D02*
X102870000Y-78740000D01*
X104140000Y-100330000D02*
X102870000Y-99060000D01*
X81280000Y-76200000D02*
X81280000Y-77920010D01*
X81280000Y-77920010D02*
X82099990Y-78740000D01*
X82099990Y-84270010D02*
X81280000Y-85090000D01*
X82099990Y-78740000D02*
X82099990Y-84270010D01*
X81280000Y-90170000D02*
X81280000Y-85090000D01*
%TO.N,Net-(J1001-Pad11)*%
X117376501Y-81816501D02*
X117565001Y-81628001D01*
X117565001Y-81628001D02*
X117565001Y-79268003D01*
X117376501Y-86896501D02*
X117376501Y-81816501D01*
X117565001Y-79268003D02*
X116840000Y-78543002D01*
X118110000Y-87630000D02*
X117376501Y-86896501D01*
X116840000Y-78543002D02*
X116840000Y-77470000D01*
X116840000Y-77470000D02*
X116840000Y-76200000D01*
X89444999Y-85618003D02*
X90170000Y-84893002D01*
X89444999Y-87978001D02*
X89444999Y-85618003D01*
X89625001Y-88158003D02*
X89444999Y-87978001D01*
X89625001Y-91984999D02*
X89625001Y-88158003D01*
X88900000Y-92710000D02*
X89625001Y-91984999D01*
X90170000Y-84893002D02*
X90170000Y-76200000D01*
X90170000Y-76200000D02*
X90170000Y-76200000D01*
X116840000Y-76200000D02*
X116840000Y-76200000D01*
%TO.N,Net-(J1001-Pad12)*%
X80010000Y-74930000D02*
X80010000Y-74930000D01*
X105410000Y-87826998D02*
X105410000Y-95250000D01*
X106680000Y-86556998D02*
X105410000Y-87826998D01*
X106680000Y-74930000D02*
X106680000Y-86556998D01*
X80010000Y-83820000D02*
X80010000Y-92710000D01*
X80010000Y-74930000D02*
X80010000Y-83820000D01*
%TO.N,Net-(J1001-Pad14)*%
X101600000Y-90170000D02*
X101600000Y-96970010D01*
X101600000Y-96970010D02*
X101600000Y-97790000D01*
X88900000Y-95250000D02*
X88900000Y-97790000D01*
X88900000Y-97790000D02*
X88900000Y-97790000D01*
X101600000Y-97790000D02*
X101600000Y-97790000D01*
%TO.N,Net-(J1001-Pad15)*%
X104140000Y-95250000D02*
X104140000Y-78740000D01*
X104140000Y-78740000D02*
X105410000Y-77470000D01*
X105410000Y-77470000D02*
X105410000Y-77470000D01*
X118560010Y-79362992D02*
X119380000Y-78543002D01*
X118560010Y-84467008D02*
X118560010Y-79362992D01*
X118835001Y-84741999D02*
X118560010Y-84467008D01*
X118835001Y-89444999D02*
X118835001Y-84741999D01*
X118110000Y-90170000D02*
X118835001Y-89444999D01*
X119380000Y-78543002D02*
X119380000Y-77470000D01*
X119380000Y-77470000D02*
X119380000Y-77470000D01*
%TO.N,Net-(J1001-Pad16)*%
X101600000Y-85090000D02*
X100330000Y-83820000D01*
X100330000Y-83820000D02*
X100330000Y-77470000D01*
X100330000Y-77470000D02*
X100330000Y-77470000D01*
X80460010Y-92087008D02*
X81280000Y-92906998D01*
X81280000Y-92906998D02*
X81280000Y-97790000D01*
X81280000Y-97790000D02*
X81280000Y-97790000D01*
X81280000Y-81280000D02*
X81280000Y-80010000D01*
X81280000Y-80010000D02*
X81280000Y-80010000D01*
X80460010Y-84270010D02*
X80829990Y-84270010D01*
X80460010Y-84270010D02*
X80460010Y-92087008D01*
X81280000Y-83820000D02*
X81280000Y-81280000D01*
X80829990Y-84270010D02*
X81280000Y-83820000D01*
%TO.N,Net-(J1001-Pad17)*%
X97790000Y-120650000D02*
X99060000Y-119380000D01*
X99060000Y-119380000D02*
X99060000Y-110490000D01*
X99060000Y-110490000D02*
X99060000Y-110490000D01*
X88900000Y-110490000D02*
X88900000Y-100330000D01*
%TO.N,Net-(J1001-Pad18)*%
X91440000Y-87630000D02*
X91440000Y-101600000D01*
%TO.N,Net-(J1001-Pad19)*%
X96520000Y-119380000D02*
X96520000Y-104140000D01*
X95250000Y-120650000D02*
X96520000Y-119380000D01*
X96520000Y-104140000D02*
X96520000Y-101600000D01*
%TO.N,Net-(J1001-Pad20)*%
X80010000Y-102870000D02*
X80010000Y-123190000D01*
X80010000Y-123190000D02*
X80010000Y-123190000D01*
X124460000Y-109220000D02*
X124460000Y-120650000D01*
X124460000Y-120650000D02*
X124460000Y-120650000D01*
X110490000Y-123190000D02*
X110490000Y-120650000D01*
%TO.N,Net-(J1001-Pad22)*%
X112485001Y-109945001D02*
X111760000Y-109220000D01*
X112485001Y-112304999D02*
X112485001Y-109945001D01*
X111760000Y-113030000D02*
X112485001Y-112304999D01*
%TO.N,Net-(J1001-Pad26)*%
X118110000Y-112833002D02*
X118110000Y-111760000D01*
X117384999Y-113558003D02*
X118110000Y-112833002D01*
X117384999Y-114844999D02*
X117384999Y-113558003D01*
X118110000Y-115570000D02*
X117384999Y-114844999D01*
%TO.N,Net-(J1001-Pad28)*%
X111034999Y-107405001D02*
X111760000Y-106680000D01*
X111034999Y-111034999D02*
X111034999Y-107405001D01*
X111760000Y-111760000D02*
X111034999Y-111034999D01*
%TO.N,Net-(J1001-Pad30)*%
X118835001Y-111215001D02*
X118110000Y-110490000D01*
X118835001Y-113574999D02*
X118835001Y-111215001D01*
X118110000Y-114300000D02*
X118835001Y-113574999D01*
%TO.N,Net-(J1001-Pad32)*%
X100330000Y-120650000D02*
X100330000Y-115570000D01*
X100330000Y-115570000D02*
X100330000Y-115570000D01*
%TO.N,Net-(U1001-Pad5)*%
X105410000Y-120650000D02*
X106680000Y-119380000D01*
X106680000Y-119380000D02*
X106680000Y-87630000D01*
X106680000Y-87630000D02*
X106680000Y-87630000D01*
%TO.N,Net-(U1002-Pad8)*%
X116840000Y-81280000D02*
X116840000Y-95250000D01*
%TO.N,Net-(U1003-Pad15)*%
X117384999Y-104865001D02*
X118110000Y-104140000D01*
X118110000Y-104140000D02*
X118110000Y-104140000D01*
X117384999Y-109764999D02*
X117384999Y-109945001D01*
X117384999Y-109764999D02*
X117384999Y-104865001D01*
X117384999Y-109945001D02*
X116840000Y-110490000D01*
X116840000Y-110490000D02*
X116840000Y-113030000D01*
X116840000Y-113030000D02*
X116840000Y-113030000D01*
%TO.N,Net-(U1003-Pad6)*%
X100330000Y-92710000D02*
X100330000Y-105410000D01*
%TO.N,Net-(U1003-Pad19)*%
X118835001Y-107224999D02*
X118110000Y-107950000D01*
X118110000Y-103066998D02*
X118835001Y-103791999D01*
X118835001Y-103791999D02*
X118835001Y-107224999D01*
X118110000Y-92710000D02*
X118110000Y-103066998D01*
%TO.N,Net-(U1003-Pad8)*%
X115825001Y-108964999D02*
X115825001Y-99315001D01*
X114300000Y-110490000D02*
X115825001Y-108964999D01*
X115825001Y-99315001D02*
X114300000Y-97790000D01*
X114300000Y-97790000D02*
X114300000Y-97790000D01*
%TO.N,Net-(U1003-Pad10)*%
X101600000Y-99060000D02*
X101600000Y-102870000D01*
%TD*%
M02*
